  0
SECTION
  2
HEADER
  9
$ACADVER
  1
AC1024
  9
$ACADMAINTVER
 70
6
  9
$DWGCODEPAGE
  3
ANSI_1252
  9
$LASTSAVEDBY
  1
ezdxf
  9
$INSBASE
 10
0.0
 20
0.0
 30
0.0
  9
$EXTMIN
 10
1e+20
 20
1e+20
 30
1e+20
  9
$EXTMAX
 10
-1e+20
 20
-1e+20
 30
-1e+20
  9
$LIMMIN
 10
0.0
 20
0.0
  9
$LIMMAX
 10
420.0
 20
297.0
  9
$ORTHOMODE
 70
0
  9
$REGENMODE
 70
1
  9
$FILLMODE
 70
1
  9
$QTEXTMODE
 70
0
  9
$MIRRTEXT
 70
1
  9
$LTSCALE
 40
1.0
  9
$ATTMODE
 70
1
  9
$TEXTSIZE
 40
2.5
  9
$TRACEWID
 40
1.0
  9
$TEXTSTYLE
  7
Standard
  9
$CLAYER
  8
0
  9
$CELTYPE
  6
ByLayer
  9
$CECOLOR
 62
256
  9
$CELTSCALE
 40
1.0
  9
$DISPSILH
 70
0
  9
$DIMSCALE
 40
1.0
  9
$DIMASZ
 40
2.5
  9
$DIMEXO
 40
0.625
  9
$DIMDLI
 40
3.75
  9
$DIMRND
 40
0.0
  9
$DIMDLE
 40
0.0
  9
$DIMEXE
 40
1.25
  9
$DIMTP
 40
0.0
  9
$DIMTM
 40
0.0
  9
$DIMTXT
 40
2.5
  9
$DIMCEN
 40
2.5
  9
$DIMTSZ
 40
0.0
  9
$DIMTOL
 70
0
  9
$DIMLIM
 70
0
  9
$DIMTIH
 70
0
  9
$DIMTOH
 70
0
  9
$DIMSE1
 70
0
  9
$DIMSE2
 70
0
  9
$DIMTAD
 70
1
  9
$DIMZIN
 70
8
  9
$DIMBLK
  1

  9
$DIMASO
 70
1
  9
$DIMSHO
 70
1
  9
$DIMPOST
  1

  9
$DIMAPOST
  1

  9
$DIMALT
 70
0
  9
$DIMALTD
 70
3
  9
$DIMALTF
 40
0.03937007874
  9
$DIMLFAC
 40
1.0
  9
$DIMTOFL
 70
1
  9
$DIMTVP
 40
0.0
  9
$DIMTIX
 70
0
  9
$DIMSOXD
 70
0
  9
$DIMSAH
 70
0
  9
$DIMBLK1
  1

  9
$DIMBLK2
  1

  9
$DIMSTYLE
  2
ISO-25
  9
$DIMCLRD
 70
0
  9
$DIMCLRE
 70
0
  9
$DIMCLRT
 70
0
  9
$DIMTFAC
 40
1.0
  9
$DIMGAP
 40
0.625
  9
$DIMJUST
 70
0
  9
$DIMSD1
 70
0
  9
$DIMSD2
 70
0
  9
$DIMTOLJ
 70
0
  9
$DIMTZIN
 70
8
  9
$DIMALTZ
 70
0
  9
$DIMALTTZ
 70
0
  9
$DIMUPT
 70
0
  9
$DIMDEC
 70
2
  9
$DIMTDEC
 70
2
  9
$DIMALTU
 70
2
  9
$DIMALTTD
 70
3
  9
$DIMTXSTY
  7
Standard
  9
$DIMAUNIT
 70
0
  9
$DIMADEC
 70
0
  9
$DIMALTRND
 40
0.0
  9
$DIMAZIN
 70
0
  9
$DIMDSEP
 70
44
  9
$DIMATFIT
 70
3
  9
$DIMFRAC
 70
0
  9
$DIMLDRBLK
  1

  9
$DIMLUNIT
 70
2
  9
$DIMLWD
 70
-2
  9
$DIMLWE
 70
-2
  9
$DIMTMOVE
 70
0
  9
$DIMFXL
 40
1.0
  9
$DIMFXLON
 70
0
  9
$DIMJOGANG
 40
0.785398163397
  9
$DIMTFILL
 70
0
  9
$DIMTFILLCLR
 70
0
  9
$DIMARCSYM
 70
0
  9
$DIMLTYPE
  6

  9
$DIMLTEX1
  6

  9
$DIMLTEX2
  6

  9
$DIMTXTDIRECTION
 70
0
  9
$LUNITS
 70
2
  9
$LUPREC
 70
4
  9
$SKETCHINC
 40
1.0
  9
$FILLETRAD
 40
10.0
  9
$AUNITS
 70
0
  9
$AUPREC
 70
2
  9
$MENU
  1
.
  9
$ELEVATION
 40
0.0
  9
$PELEVATION
 40
0.0
  9
$THICKNESS
 40
0.0
  9
$LIMCHECK
 70
0
  9
$CHAMFERA
 40
0.0
  9
$CHAMFERB
 40
0.0
  9
$CHAMFERC
 40
0.0
  9
$CHAMFERD
 40
0.0
  9
$SKPOLY
 70
0
  9
$TDCREATE
 40
2461134.4367708336
  9
$TDUCREATE
 40
2458532.153996898
  9
$TDUPDATE
 40
2461134.4367939816
  9
$TDUUPDATE
 40
2458532.1544311
  9
$TDINDWG
 40
0.0
  9
$TDUSRTIMER
 40
0.0
  9
$USRTIMER
 70
1
  9
$ANGBASE
 50
0.0
  9
$ANGDIR
 70
0
  9
$PDMODE
 70
0
  9
$PDSIZE
 40
0.0
  9
$PLINEWID
 40
0.0
  9
$SPLFRAME
 70
0
  9
$SPLINETYPE
 70
6
  9
$SPLINESEGS
 70
8
  9
$HANDSEED
  5
FE
  9
$SURFTAB1
 70
6
  9
$SURFTAB2
 70
6
  9
$SURFTYPE
 70
6
  9
$SURFU
 70
6
  9
$SURFV
 70
6
  9
$UCSBASE
  2

  9
$UCSNAME
  2

  9
$UCSORG
 10
0.0
 20
0.0
 30
0.0
  9
$UCSXDIR
 10
1.0
 20
0.0
 30
0.0
  9
$UCSYDIR
 10
0.0
 20
1.0
 30
0.0
  9
$UCSORTHOREF
  2

  9
$UCSORTHOVIEW
 70
0
  9
$UCSORGTOP
 10
0.0
 20
0.0
 30
0.0
  9
$UCSORGBOTTOM
 10
0.0
 20
0.0
 30
0.0
  9
$UCSORGLEFT
 10
0.0
 20
0.0
 30
0.0
  9
$UCSORGRIGHT
 10
0.0
 20
0.0
 30
0.0
  9
$UCSORGFRONT
 10
0.0
 20
0.0
 30
0.0
  9
$UCSORGBACK
 10
0.0
 20
0.0
 30
0.0
  9
$PUCSBASE
  2

  9
$PUCSNAME
  2

  9
$PUCSORG
 10
0.0
 20
0.0
 30
0.0
  9
$PUCSXDIR
 10
1.0
 20
0.0
 30
0.0
  9
$PUCSYDIR
 10
0.0
 20
1.0
 30
0.0
  9
$PUCSORTHOREF
  2

  9
$PUCSORTHOVIEW
 70
0
  9
$PUCSORGTOP
 10
0.0
 20
0.0
 30
0.0
  9
$PUCSORGBOTTOM
 10
0.0
 20
0.0
 30
0.0
  9
$PUCSORGLEFT
 10
0.0
 20
0.0
 30
0.0
  9
$PUCSORGRIGHT
 10
0.0
 20
0.0
 30
0.0
  9
$PUCSORGFRONT
 10
0.0
 20
0.0
 30
0.0
  9
$PUCSORGBACK
 10
0.0
 20
0.0
 30
0.0
  9
$USERI1
 70
0
  9
$USERI2
 70
0
  9
$USERI3
 70
0
  9
$USERI4
 70
0
  9
$USERI5
 70
0
  9
$USERR1
 40
0.0
  9
$USERR2
 40
0.0
  9
$USERR3
 40
0.0
  9
$USERR4
 40
0.0
  9
$USERR5
 40
0.0
  9
$WORLDVIEW
 70
1
  9
$SHADEDGE
 70
3
  9
$SHADEDIF
 70
70
  9
$TILEMODE
 70
1
  9
$MAXACTVP
 70
64
  9
$PINSBASE
 10
0.0
 20
0.0
 30
0.0
  9
$PLIMCHECK
 70
0
  9
$PEXTMIN
 10
1e+20
 20
1e+20
 30
1e+20
  9
$PEXTMAX
 10
-1e+20
 20
-1e+20
 30
-1e+20
  9
$PLIMMIN
 10
0.0
 20
0.0
  9
$PLIMMAX
 10
420.0
 20
297.0
  9
$UNITMODE
 70
0
  9
$VISRETAIN
 70
1
  9
$PLINEGEN
 70
0
  9
$PSLTSCALE
 70
1
  9
$TREEDEPTH
 70
3020
  9
$CMLSTYLE
  2
Standard
  9
$CMLJUST
 70
0
  9
$CMLSCALE
 40
20.0
  9
$PROXYGRAPHICS
 70
1
  9
$MEASUREMENT
 70
1
  9
$CELWEIGHT
370
-1
  9
$ENDCAPS
280
0
  9
$JOINSTYLE
280
0
  9
$LWDISPLAY
290
0
  9
$INSUNITS
 70
6
  9
$HYPERLINKBASE
  1

  9
$STYLESHEET
  1

  9
$XEDIT
290
1
  9
$CEPSNTYPE
380
0
  9
$PSTYLEMODE
290
1
  9
$FINGERPRINTGUID
  2
{88A8A3EF-E9EC-4C0F-8111-CFC7D2D703EC}
  9
$VERSIONGUID
  2
{81E668ED-09C9-46D3-B7E6-F65881FAC441}
  9
$EXTNAMES
290
1
  9
$PSVPSCALE
 40
0.0
  9
$OLESTARTUP
290
0
  9
$SORTENTS
280
127
  9
$INDEXCTL
280
0
  9
$HIDETEXT
280
1
  9
$XCLIPFRAME
280
1
  9
$HALOGAP
280
0
  9
$OBSCOLOR
 70
257
  9
$OBSLTYPE
280
0
  9
$INTERSECTIONDISPLAY
280
0
  9
$INTERSECTIONCOLOR
 70
257
  9
$DIMASSOC
280
2
  9
$PROJECTNAME
  1

  9
$CAMERADISPLAY
290
0
  9
$LENSLENGTH
 40
50.0
  9
$CAMERAHEIGHT
 40
0.0
  9
$STEPSPERSEC
 40
24.0
  9
$STEPSIZE
 40
100.0
  9
$3DDWFPREC
 40
2.0
  9
$PSOLWIDTH
 40
0.005
  9
$PSOLHEIGHT
 40
0.08
  9
$LOFTANG1
 40
1.570796326795
  9
$LOFTANG2
 40
1.570796326795
  9
$LOFTMAG1
 40
0.0
  9
$LOFTMAG2
 40
0.0
  9
$LOFTPARAM
 70
7
  9
$LOFTNORMALS
280
1
  9
$LATITUDE
 40
37.795
  9
$LONGITUDE
 40
-122.394
  9
$NORTHDIRECTION
 40
0.0
  9
$TIMEZONE
 70
-8000
  9
$LIGHTGLYPHDISPLAY
280
1
  9
$TILEMODELIGHTSYNCH
280
1
  9
$CMATERIAL
347
20
  9
$SOLIDHIST
280
0
  9
$SHOWHIST
280
1
  9
$DWFFRAME
280
2
  9
$DGNFRAME
280
2
  9
$REALWORLDSCALE
290
1
  9
$INTERFERECOLOR
 62
256
  9
$CSHADOW
280
0
  9
$SHADOWPLANELOCATION
 40
0.0
  0
ENDSEC
  0
SECTION
  2
CLASSES
  0
CLASS
  1
ACDBDICTIONARYWDFLT
  2
AcDbDictionaryWithDefault
  3
ObjectDBX Classes
 90
0
 91
0
280
0
281
0
  0
CLASS
  1
SUN
  2
AcDbSun
  3
SCENEOE
 90
1153
 91
0
280
0
281
0
  0
CLASS
  1
VISUALSTYLE
  2
AcDbVisualStyle
  3
ObjectDBX Classes
 90
4095
 91
0
280
0
281
0
  0
CLASS
  1
MATERIAL
  2
AcDbMaterial
  3
ObjectDBX Classes
 90
1153
 91
0
280
0
281
0
  0
CLASS
  1
SCALE
  2
AcDbScale
  3
ObjectDBX Classes
 90
1153
 91
0
280
0
281
0
  0
CLASS
  1
TABLESTYLE
  2
AcDbTableStyle
  3
ObjectDBX Classes
 90
4095
 91
0
280
0
281
0
  0
CLASS
  1
MLEADERSTYLE
  2
AcDbMLeaderStyle
  3
ACDB_MLEADERSTYLE_CLASS
 90
4095
 91
0
280
0
281
0
  0
CLASS
  1
DICTIONARYVAR
  2
AcDbDictionaryVar
  3
ObjectDBX Classes
 90
0
 91
0
280
0
281
0
  0
CLASS
  1
CELLSTYLEMAP
  2
AcDbCellStyleMap
  3
ObjectDBX Classes
 90
1152
 91
0
280
0
281
0
  0
CLASS
  1
MENTALRAYRENDERSETTINGS
  2
AcDbMentalRayRenderSettings
  3
SCENEOE
 90
1024
 91
0
280
0
281
0
  0
CLASS
  1
ACDBDETAILVIEWSTYLE
  2
AcDbDetailViewStyle
  3
ObjectDBX Classes
 90
1025
 91
0
280
0
281
0
  0
CLASS
  1
ACDBSECTIONVIEWSTYLE
  2
AcDbSectionViewStyle
  3
ObjectDBX Classes
 90
1025
 91
0
280
0
281
0
  0
CLASS
  1
RASTERVARIABLES
  2
AcDbRasterVariables
  3
ISM
 90
0
 91
0
280
0
281
0
  0
CLASS
  1
ACDBPLACEHOLDER
  2
AcDbPlaceHolder
  3
ObjectDBX Classes
 90
0
 91
0
280
0
281
0
  0
CLASS
  1
LAYOUT
  2
AcDbLayout
  3
ObjectDBX Classes
 90
0
 91
0
280
0
281
0
  0
ENDSEC
  0
SECTION
  2
TABLES
  0
TABLE
  2
VPORT
  5
8
330
0
100
AcDbSymbolTable
 70
1
  0
VPORT
  5
23
330
8
100
AcDbSymbolTableRecord
100
AcDbViewportTableRecord
  2
*Active
 70
0
 10
0.0
 20
0.0
 11
1.0
 21
1.0
 12
0.0
 22
0.0
 13
0.0
 23
0.0
 14
0.5
 24
0.5
 15
0.5
 25
0.5
 16
0.0
 26
0.0
 36
1.0
 17
0.0
 27
0.0
 37
0.0
 40
1000.0
 41
1.34
 42
50.0
 43
0.0
 44
0.0
 50
0.0
 51
0.0
 71
0
 72
1000
 73
1
 74
3
 75
0
 76
0
 77
0
 78
0
281
0
 65
0
146
0.0
  0
ENDTAB
  0
TABLE
  2
LTYPE
  5
2
330
0
100
AcDbSymbolTable
 70
6
  0
LTYPE
  5
24
330
2
100
AcDbSymbolTableRecord
100
AcDbLinetypeTableRecord
  2
ByBlock
 70
0
  3

 72
65
 73
0
 40
0.0
  0
LTYPE
  5
25
330
2
100
AcDbSymbolTableRecord
100
AcDbLinetypeTableRecord
  2
ByLayer
 70
0
  3

 72
65
 73
0
 40
0.0
  0
LTYPE
  5
26
330
2
100
AcDbSymbolTableRecord
100
AcDbLinetypeTableRecord
  2
Continuous
 70
0
  3

 72
65
 73
0
 40
0.0
  0
LTYPE
  5
32
330
2
100
AcDbSymbolTableRecord
100
AcDbLinetypeTableRecord
  2
ACAD_ISO02W100
 70
0
  3
ISO dash __ __ __ __ __ __ __ __ __ __ __ __ __
 72
65
 73
2
 40
15.0
 49
12.0
 74
0
 49
-3.0
 74
0
  0
LTYPE
  5
33
330
2
100
AcDbSymbolTableRecord
100
AcDbLinetypeTableRecord
  2
DASHED2
 70
0
  3
Dashed (.5x) _ _ _ _ _ _ _ _ _ _ _ _ _ _ _ _ _
 72
65
 73
2
 40
9.524999999999999
 49
6.349999999999999
 74
0
 49
-3.174999999999999
 74
0
  0
LTYPE
  5
8D
330
2
100
AcDbSymbolTableRecord
100
AcDbLinetypeTableRecord
  2
ACAD_ISO09W100
 70
0
  3
ISO long-dash double-short-dash ____ __ __ ____
 72
65
 73
6
 40
45.0
 49
24.0
 74
0
 49
-3.0
 74
0
 49
6.0
 74
0
 49
-3.0
 74
0
 49
6.0
 74
0
 49
-3.0
 74
0
  0
ENDTAB
  0
TABLE
  2
LAYER
  5
1
330
0
100
AcDbSymbolTable
 70
4
  0
LAYER
  5
27
330
1
100
AcDbSymbolTableRecord
100
AcDbLayerTableRecord
  2
0
 70
0
 62
7
  6
Continuous
370
-3
390
13
347
21
  0
LAYER
  5
28
330
1
100
AcDbSymbolTableRecord
100
AcDbLayerTableRecord
  2
Defpoints
 70
0
 62
7
  6
Continuous
290
0
370
-3
390
13
347
21
  0
LAYER
  5
34
330
1
100
AcDbSymbolTableRecord
100
AcDbLayerTableRecord
  2
BG&E - DIMENSIONS
 70
0
 62
7
  6
Continuous
370
-3
390
F
347
EE
348
0
  0
LAYER
  5
8E
330
1
100
AcDbSymbolTableRecord
100
AcDbLayerTableRecord
  2
BG&E - HATCH
 70
0
 62
7
  6
Continuous
370
-3
390
9
347
C
348
0
  0
ENDTAB
  0
TABLE
  2
STYLE
  5
5
330
0
100
AcDbSymbolTable
 70
5
  0
STYLE
  5
29
330
5
100
AcDbSymbolTableRecord
100
AcDbTextStyleTableRecord
  2
Standard
 70
0
 40
0.0
 41
1.0
 50
0.0
 71
0
 42
2.5
  3
txt
  4

  0
STYLE
  5
35
330
5
100
AcDbSymbolTableRecord
100
AcDbTextStyleTableRecord
  2
Annotative
 70
0
 40
0.0
 41
1.0
 50
0.0
 71
0
 42
2.5
  3
arial.ttf
  4

  0
STYLE
  5
36
330
5
100
AcDbSymbolTableRecord
100
AcDbTextStyleTableRecord
  2
ROMANS
 70
0
 40
0.0
 41
1.0
 50
0.0
 71
0
 42
2.5
  3

  4

  0
STYLE
  5
37
330
5
100
AcDbSymbolTableRecord
100
AcDbTextStyleTableRecord
  2
放松放松
 70
0
 40
0.0
 41
1.0
 50
0.0
 71
0
 42
2.5
  3
simfang.ttf
  4

  0
STYLE
  5
8F
330
5
100
AcDbSymbolTableRecord
100
AcDbTextStyleTableRecord
  2
YQ_DIM
 70
0
 40
0.0
 41
0.8
 50
0.0
 71
0
 42
2.5
  3
simfang.ttf
  4

  0
ENDTAB
  0
TABLE
  2
VIEW
  5
7
330
0
100
AcDbSymbolTable
 70
0
  0
ENDTAB
  0
TABLE
  2
UCS
  5
6
330
0
100
AcDbSymbolTable
 70
0
  0
ENDTAB
  0
TABLE
  2
APPID
  5
3
330
0
100
AcDbSymbolTable
 70
3
  0
APPID
  5
2A
330
3
100
AcDbSymbolTableRecord
100
AcDbRegAppTableRecord
  2
ACAD
 70
0
  0
APPID
  5
FB
330
3
100
AcDbSymbolTableRecord
100
AcDbRegAppTableRecord
  2
HATCHBACKGROUNDCOLOR
 70
0
  0
APPID
  5
FC
330
3
100
AcDbSymbolTableRecord
100
AcDbRegAppTableRecord
  2
EZDXF
 70
0
  0
ENDTAB
  0
TABLE
  2
DIMSTYLE
  5
4
330
0
100
AcDbSymbolTable
 70
12
100
AcDbDimStyleTable
  0
DIMSTYLE
105
2B
330
4
100
AcDbSymbolTableRecord
100
AcDbDimStyleTableRecord
  2
Standard
 70
0
 40
1.0
 41
2.5
 42
0.625
 43
3.75
 44
1.25
 45
0.0
 46
0.0
 47
0.0
 48
0.0
 49
2.5
140
2.5
141
2.5
142
0.0
143
0.03937007874
144
1.0
145
0.0
146
1.0
147
0.625
148
0.0
 69
0
 70
0
 71
0
 72
0
 73
0
 74
0
 75
0
 76
0
 77
1
 78
8
 79
3
170
0
171
3
172
1
173
0
174
0
175
0
176
0
177
0
178
0
179
2
271
2
272
2
273
2
274
3
275
0
276
0
277
2
278
44
279
0
280
0
281
0
282
0
283
0
284
8
285
0
286
0
288
0
289
3
290
0
371
-2
372
-2
  0
DIMSTYLE
105
38
330
4
100
AcDbSymbolTableRecord
100
AcDbDimStyleTableRecord
  2
Annotative
 70
0
 40
0.0
 41
2.5
 42
0.625
 43
3.75
 44
1.25
 45
0.0
 46
0.0
 47
0.0
 48
0.0
 49
2.5
140
2.5
141
2.5
142
0.0
143
0.03937007874016
144
1.0
145
0.0
146
1.0
147
0.625
148
0.0
 69
0
 70
0
 71
0
 72
0
 73
0
 74
0
 75
0
 76
0
 77
1
 78
8
 79
3
170
0
171
3
172
1
173
0
174
0
175
0
176
0
177
0
178
0
179
2
271
2
272
2
273
2
274
3
275
0
276
0
277
2
278
44
279
0
280
0
281
0
282
0
283
0
284
8
285
0
286
0
288
0
289
3
290
0
340
29
371
-2
372
-2
  0
DIMSTYLE
105
39
330
4
100
AcDbSymbolTableRecord
100
AcDbDimStyleTableRecord
  2
ISO-25
 70
0
 40
1.0
 41
2.5
 42
0.625
 43
3.75
 44
1.25
 45
0.0
 46
0.0
 47
0.0
 48
0.0
 49
2.5
140
2.5
141
2.5
142
0.0
143
0.03937007874016
144
1.0
145
0.0
146
1.0
147
0.625
148
0.0
 69
0
 70
0
 71
0
 72
0
 73
0
 74
0
 75
0
 76
0
 77
1
 78
8
 79
3
170
0
171
3
172
1
173
0
174
0
175
0
176
0
177
0
178
0
179
2
271
2
272
2
273
2
274
3
275
0
276
0
277
2
278
44
279
0
280
0
281
0
282
0
283
0
284
8
285
0
286
0
288
0
289
3
290
0
340
29
371
-2
372
-2
  0
DIMSTYLE
105
3A
330
4
100
AcDbSymbolTableRecord
100
AcDbDimStyleTableRecord
  2
yq10
 70
0
 40
10.0
 41
0.5
 42
3.0
 43
6.0
 44
1.5
 45
0.0
 46
0.0
 47
0.0
 48
0.0
 49
3.0
140
3.0
141
0.0
142
0.0
143
0.03937007874
144
1.0
145
0.0
146
1.0
147
0.5
148
0.0
 69
0
 70
0
 71
0
 72
0
 73
0
 74
0
 75
0
 76
0
 77
1
 78
8
 79
2
170
0
171
3
172
1
173
0
174
0
175
0
176
0
177
0
178
0
179
2
271
0
272
0
273
2
274
3
275
0
276
0
277
2
278
44
279
1
280
0
281
0
282
0
283
0
284
8
285
0
286
0
288
0
289
3
290
0
340
36
371
-2
372
-2
  0
DIMSTYLE
105
3B
330
4
100
AcDbSymbolTableRecord
100
AcDbDimStyleTableRecord
  2
AA
 70
0
 40
1.0
 41
2.0
 42
0.625
 43
3.75
 44
1.25
 45
0.0
 46
0.0
 47
0.0
 48
0.0
 49
2.5
140
2.5
141
2.5
142
0.0
143
0.03937007874016
144
1.0
145
0.0
146
1.0
147
0.625
148
0.0
 69
0
 70
0
 71
0
 72
0
 73
0
 74
0
 75
0
 76
0
 77
1
 78
8
 79
3
170
0
171
3
172
1
173
0
174
0
175
0
176
6
177
6
178
6
179
2
271
1
272
1
273
2
274
3
275
0
276
0
277
2
278
44
279
0
280
0
281
0
282
0
283
0
284
8
285
0
286
0
288
0
289
3
290
0
340
29
371
-2
372
-2
  0
DIMSTYLE
105
3C
330
4
100
AcDbSymbolTableRecord
100
AcDbDimStyleTableRecord
  2
MX-30
 70
0
 40
10.0
 41
1.0
 42
1.0
 43
3.75
 44
1.0
 45
0.0
 46
0.0
 47
0.0
 48
0.0
 49
2.5
140
2.0
141
1.0
142
0.0
143
0.03937007874016
144
1.0
145
0.0
146
1.0
147
0.5
148
0.0
 69
0
 70
0
 71
0
 72
0
 73
0
 74
0
 75
0
 76
0
 77
1
 78
8
 79
3
170
0
171
3
172
1
173
0
174
1
175
1
176
0
177
0
178
0
179
2
271
1
272
1
273
2
274
3
275
0
276
0
277
2
278
44
279
2
280
0
281
0
282
0
283
0
284
8
285
0
286
0
288
0
289
3
290
0
340
29
371
-2
372
-2
  0
DIMSTYLE
105
3D
330
4
100
AcDbSymbolTableRecord
100
AcDbDimStyleTableRecord
  2
yq1
 70
0
 40
1.0
 41
3.0
 42
3.0
 43
6.0
 44
1.0
 45
0.0
 46
0.0
 47
0.0
 48
0.0
 49
3.0
140
3.5
141
0.0
142
0.0
143
0.03937007874
144
1.0
145
0.0
146
1.0
147
0.5
148
0.0
 69
0
 70
0
 71
0
 72
0
 73
0
 74
0
 75
0
 76
0
 77
1
 78
8
 79
2
170
0
171
3
172
1
173
0
174
0
175
0
176
0
177
0
178
0
179
1
271
1
272
1
273
2
274
3
275
0
276
0
277
2
278
44
279
1
280
0
281
0
282
0
283
0
284
8
285
0
286
0
288
0
289
3
290
1
340
36
371
-2
372
-2
  0
DIMSTYLE
105
3E
330
4
100
AcDbSymbolTableRecord
100
AcDbDimStyleTableRecord
  2
yq5
 70
0
 40
5.0
 41
1.0
 42
3.0
 43
6.0
 44
2.0
 45
0.0
 46
0.0
 47
0.0
 48
0.0
 49
3.0
140
3.0
141
0.0
142
0.0
143
0.03937007874
144
1.0
145
0.0
146
1.0
147
0.5
148
0.0
 69
0
 70
0
 71
0
 72
0
 73
0
 74
0
 75
0
 76
0
 77
1
 78
8
 79
2
170
0
171
3
172
1
173
0
174
0
175
0
176
256
177
256
178
0
179
2
271
1
272
1
273
2
274
3
275
0
276
0
277
2
278
44
279
1
280
0
281
0
282
0
283
0
284
8
285
0
286
0
288
0
289
3
290
1
340
29
371
-2
372
-2
  0
DIMSTYLE
105
3F
330
4
100
AcDbSymbolTableRecord
100
AcDbDimStyleTableRecord
  2
ISO-25$0
 70
0
 40
1.0
 41
2.5
 42
0.625
 43
3.75
 44
1.25
 45
0.0
 46
0.0
 47
0.0
 48
0.0
 49
2.5
140
2.5
141
2.5
142
0.0
143
0.03937007874016
144
1.0
145
0.0
146
1.0
147
0.625
148
0.0
 69
0
 70
0
 71
0
 72
0
 73
0
 74
0
 75
0
 76
0
 77
1
 78
8
 79
3
170
0
171
3
172
1
173
0
174
0
175
0
176
0
177
0
178
0
179
2
271
2
272
2
273
2
274
3
275
0
276
0
277
2
278
44
279
0
280
0
281
0
282
0
283
0
284
8
285
0
286
0
288
0
289
3
290
0
340
29
371
-2
372
-2
  0
DIMSTYLE
105
40
330
4
100
AcDbSymbolTableRecord
100
AcDbDimStyleTableRecord
  2
yq0.5
 70
0
 40
0.5
 41
0.5
 42
3.0
 43
6.0
 44
1.0
 45
0.0
 46
0.0
 47
0.0
 48
0.0
 49
3.0
140
3.5
141
0.0
142
0.0
143
0.03937007874
144
1.0
145
0.0
146
1.0
147
0.5
148
0.0
 69
0
 70
0
 71
0
 72
0
 73
0
 74
0
 75
0
 76
0
 77
1
 78
8
 79
2
170
0
171
3
172
1
173
0
174
0
175
0
176
0
177
0
178
7
179
2
271
1
272
1
273
2
274
3
275
0
276
0
277
2
278
44
279
1
280
0
281
0
282
0
283
0
284
8
285
0
286
0
288
0
289
3
290
1
340
36
371
-2
372
-2
  0
DIMSTYLE
105
90
330
4
100
AcDbSymbolTableRecord
100
AcDbDimStyleTableRecord
  2
yq2
 70
0
 40
2.0
 41
0.6
 42
3.0
 43
6.0
 44
1.5
 45
0.0
 46
0.0
 47
0.0
 48
0.0
 49
2.5
140
3.0
141
0.0
142
0.0
143
0.03937007874
144
1.0
145
0.0
146
1.0
147
0.5
148
0.0
 69
0
 70
0
 71
0
 72
0
 73
0
 74
0
 75
0
 76
0
 77
1
 78
8
 79
2
170
0
171
3
172
1
173
0
174
0
175
0
176
256
177
256
178
7
179
2
271
1
272
1
273
2
274
3
275
0
276
0
277
2
278
44
279
1
280
0
281
0
282
0
283
0
284
8
285
0
286
0
288
1
289
3
290
1
340
8F
371
-2
372
-2
  0
DIMSTYLE
105
91
330
4
100
AcDbSymbolTableRecord
100
AcDbDimStyleTableRecord
  2
yq15
 70
0
 40
15.0
 41
0.5
 42
3.0
 43
6.0
 44
1.5
 45
0.0
 46
0.0
 47
0.0
 48
0.0
 49
2.5
140
3.0
141
0.0
142
0.0
143
0.03937007874
144
1.0
145
0.0
146
1.0
147
0.5
148
0.0
 69
0
 70
0
 71
0
 72
0
 73
0
 74
0
 75
0
 76
0
 77
1
 78
8
 79
2
170
0
171
3
172
1
173
0
174
0
175
0
176
256
177
256
178
7
179
2
271
1
272
1
273
2
274
3
275
0
276
0
277
2
278
44
279
1
280
0
281
0
282
0
283
0
284
8
285
0
286
0
288
1
289
3
290
1
340
36
371
-2
372
-2
  0
ENDTAB
  0
TABLE
  2
BLOCK_RECORD
  5
9
330
0
100
AcDbSymbolTable
 70
12
  0
BLOCK_RECORD
  5
17
330
9
100
AcDbSymbolTableRecord
100
AcDbBlockTableRecord
  2
*Model_Space
340
1A
 70
0
280
1
281
0
  0
BLOCK_RECORD
  5
1B
330
9
100
AcDbSymbolTableRecord
100
AcDbBlockTableRecord
  2
*Paper_Space
340
1E
 70
0
280
1
281
0
  0
BLOCK_RECORD
  5
2F
330
9
100
AcDbSymbolTableRecord
100
AcDbBlockTableRecord
  2
KB__-___-8317K-__1_1
340
0
 70
0
280
1
281
0
  0
BLOCK_RECORD
  5
51
330
9
100
AcDbSymbolTableRecord
100
AcDbBlockTableRecord
  2
KB__-___-8317K-__2_2
340
0
 70
0
280
1
281
0
  0
BLOCK_RECORD
  5
64
330
9
100
AcDbSymbolTableRecord
100
AcDbBlockTableRecord
  2
KB__-___-8317K-__9_3
340
0
 70
0
280
1
281
0
  0
BLOCK_RECORD
  5
77
330
9
100
AcDbSymbolTableRecord
100
AcDbBlockTableRecord
  2
KB__-___-8317K-__10_4
340
0
 70
0
280
1
281
0
  0
BLOCK_RECORD
  5
8A
330
9
100
AcDbSymbolTableRecord
100
AcDbBlockTableRecord
  2
KB__-______-8055-__1_5
340
0
 70
0
280
1
281
0
  0
BLOCK_RECORD
  5
93
330
9
100
AcDbSymbolTableRecord
100
AcDbBlockTableRecord
  2
KB__-______-8055-__2_6
340
0
 70
0
280
1
281
0
  0
BLOCK_RECORD
  5
9D
330
9
100
AcDbSymbolTableRecord
100
AcDbBlockTableRecord
  2
KB__-______-8055-__3_7
340
0
 70
0
280
1
281
0
  0
BLOCK_RECORD
  5
B5
330
9
100
AcDbSymbolTableRecord
100
AcDbBlockTableRecord
  2
KB__-______-8055-__10_8
340
0
 70
0
280
1
281
0
  0
BLOCK_RECORD
  5
B9
330
9
100
AcDbSymbolTableRecord
100
AcDbBlockTableRecord
  2
KB__-______-8055-__11_9
340
0
 70
0
280
1
281
0
  0
BLOCK_RECORD
  5
C3
330
9
100
AcDbSymbolTableRecord
100
AcDbBlockTableRecord
  2
KB__-______-8055-__12_10
340
0
 70
0
280
1
281
0
  0
ENDTAB
  0
ENDSEC
  0
SECTION
  2
BLOCKS
  0
BLOCK
  5
18
330
17
100
AcDbEntity
  8
0
100
AcDbBlockBegin
  2
*Model_Space
 70
0
 10
0.0
 20
0.0
 30
0.0
  3
*Model_Space
  1

  0
ENDBLK
  5
19
330
17
100
AcDbEntity
  8
0
100
AcDbBlockEnd
  0
BLOCK
  5
1C
330
1B
100
AcDbEntity
  8
0
100
AcDbBlockBegin
  2
*Paper_Space
 70
0
 10
0.0
 20
0.0
 30
0.0
  3
*Paper_Space
  1

  0
ENDBLK
  5
1D
330
1B
100
AcDbEntity
  8
0
100
AcDbBlockEnd
  0
BLOCK
  5
30
330
2F
100
AcDbEntity
  8
0
100
AcDbBlockBegin
  2
KB__-___-8317K-__1_1
 70
0
 10
0.0
 20
0.0
 30
0.0
  3
KB__-___-8317K-__1_1
  1

  0
LINE
  5
41
330
2F
100
AcDbEntity
  8
0
100
AcDbLine
 10
117.10000344421042
 20
1893.98740081699
 30
0.0
 11
117.100003997567
 21
1843.2500479314403
 31
0.0
  0
LINE
  5
42
330
2F
100
AcDbEntity
  8
0
100
AcDbLine
 10
117.1000059826938
 20
1807.2500479314403
 30
0.0
 11
117.10000438201223
 21
0.0
 31
0.0
  0
LINE
  5
43
330
2F
100
AcDbEntity
  8
0
100
AcDbLine
 10
1.155390236817766e-06
 20
1893.98740081699
 30
0.0
 11
5.833053364767693e-07
 21
1843.2500479314403
 31
0.0
  0
LINE
  5
44
330
2F
100
AcDbEntity
  8
0
100
AcDbLine
 10
0.0
 20
1807.2500479314403
 30
0.0
 11
2.09319478017278e-06
 21
0.0
 31
0.0
  0
LINE
  5
45
330
2F
100
AcDbEntity
  8
0
100
AcDbLine
 10
117.10000344421042
 20
1893.98740081699
 30
0.0
 11
1.155390236817766e-06
 21
1893.98740081699
 31
0.0
  0
LINE
  5
46
330
2F
100
AcDbEntity
  8
0
100
AcDbLine
 10
117.10000438201223
 20
0.0
 30
0.0
 11
2.09319478017278e-06
 21
0.0
 31
0.0
  0
CIRCLE
  5
47
330
2F
100
AcDbEntity
  8
0
100
AcDbCircle
 10
66.70000285613423
 20
1814.0000479314403
 30
0.0
 40
3.25
  0
CIRCLE
  5
48
330
2F
100
AcDbEntity
  8
0
100
AcDbCircle
 10
72.70000285613423
 20
1131.9440296584507
 30
0.0
 40
1.5
  0
CIRCLE
  5
49
330
2F
100
AcDbEntity
  8
0
100
AcDbCircle
 10
66.70000285613423
 20
1836.5000479314403
 30
0.0
 40
3.25
  0
LINE
  5
4A
330
2F
100
AcDbEntity
  8
0
100
AcDbLine
 10
117.1000059826938
 20
1807.2500479314403
 30
0.0
 11
103.4000036190746
 21
1807.2500479314403
 31
0.0
  0
LINE
  5
4B
330
2F
100
AcDbEntity
  8
0
100
AcDbLine
 10
13.700002856134233
 20
1807.2500479314403
 30
0.0
 11
0.0
 21
1807.2500479314403
 31
0.0
  0
LINE
  5
4C
330
2F
100
AcDbEntity
  8
0
100
AcDbLine
 10
117.100003997567
 20
1843.2500479314403
 30
0.0
 11
103.4000036190746
 21
1843.2500479314403
 31
0.0
  0
LINE
  5
4D
330
2F
100
AcDbEntity
  8
0
100
AcDbLine
 10
13.700002856134233
 20
1843.2500479314403
 30
0.0
 11
5.833053364767693e-07
 21
1843.2500479314403
 31
0.0
  0
LINE
  5
4E
330
2F
100
AcDbEntity
  8
0
100
AcDbLine
 10
13.700002856134233
 20
1807.2500479314403
 30
0.0
 11
13.700002856134233
 21
1843.2500479314403
 31
0.0
  0
LINE
  5
4F
330
2F
100
AcDbEntity
  8
0
100
AcDbLine
 10
103.4000036190746
 20
1807.2500479314403
 30
0.0
 11
103.4000036190746
 21
1843.2500479314403
 31
0.0
  0
CIRCLE
  5
50
330
2F
100
AcDbEntity
  8
0
 62
7
100
AcDbCircle
 10
66.70000285613423
 20
1825.2500479314403
 30
0.0
 40
2.0
  0
ENDBLK
  5
31
330
2F
100
AcDbEntity
  8
0
100
AcDbBlockEnd
  0
BLOCK
  5
52
330
51
100
AcDbEntity
  8
0
100
AcDbBlockBegin
  2
KB__-___-8317K-__2_2
 70
0
 10
0.0
 20
0.0
 30
0.0
  3
KB__-___-8317K-__2_2
  1

  0
LINE
  5
54
330
51
100
AcDbEntity
  8
0
100
AcDbLine
 10
2.538483386160806e-06
 20
1893.98740081699
 30
0.0
 11
1.985127710213419e-06
 21
1843.2500479314403
 31
0.0
  0
LINE
  5
55
330
51
100
AcDbEntity
  8
0
100
AcDbLine
 10
0.0
 20
1807.2500479314403
 30
0.0
 11
1.6006797523004934e-06
 21
0.0
 31
0.0
  0
LINE
  5
56
330
51
100
AcDbEntity
  8
0
100
AcDbLine
 10
117.10000482730175
 20
1893.98740081699
 30
0.0
 11
117.10000539938756
 21
1843.2500479314403
 31
0.0
  0
LINE
  5
57
330
51
100
AcDbEntity
  8
0
100
AcDbLine
 10
117.1000059826938
 20
1807.2500479314403
 30
0.0
 11
117.1000038894972
 21
0.0
 31
0.0
  0
LINE
  5
58
330
51
100
AcDbEntity
  8
0
100
AcDbLine
 10
2.538483386160806e-06
 20
1893.98740081699
 30
0.0
 11
117.10000482730175
 21
1893.98740081699
 31
0.0
  0
LINE
  5
59
330
51
100
AcDbEntity
  8
0
100
AcDbLine
 10
1.6006797523004934e-06
 20
0.0
 30
0.0
 11
117.1000038894972
 21
0.0
 31
0.0
  0
CIRCLE
  5
5A
330
51
100
AcDbEntity
  8
0
100
AcDbCircle
 10
44.40000312655957
 20
1131.9440296584507
 30
0.0
 40
1.5
  0
CIRCLE
  5
5B
330
51
100
AcDbEntity
  8
0
100
AcDbCircle
 10
50.40000312655957
 20
1814.0000479314403
 30
0.0
 40
3.25
  0
CIRCLE
  5
5C
330
51
100
AcDbEntity
  8
0
100
AcDbCircle
 10
50.40000312655957
 20
1836.5000479314403
 30
0.0
 40
3.25
  0
LINE
  5
5D
330
51
100
AcDbEntity
  8
0
100
AcDbLine
 10
0.0
 20
1807.2500479314403
 30
0.0
 11
13.700002363618296
 21
1807.2500479314403
 31
0.0
  0
LINE
  5
5E
330
51
100
AcDbEntity
  8
0
100
AcDbLine
 10
103.40000312655957
 20
1807.2500479314403
 30
0.0
 11
117.1000059826938
 21
1807.2500479314403
 31
0.0
  0
LINE
  5
5F
330
51
100
AcDbEntity
  8
0
100
AcDbLine
 10
1.985127710213419e-06
 20
1843.2500479314403
 30
0.0
 11
13.700002363618296
 21
1843.2500479314403
 31
0.0
  0
LINE
  5
60
330
51
100
AcDbEntity
  8
0
100
AcDbLine
 10
103.40000312655957
 20
1843.2500479314403
 30
0.0
 11
117.10000539938756
 21
1843.2500479314403
 31
0.0
  0
LINE
  5
61
330
51
100
AcDbEntity
  8
0
100
AcDbLine
 10
103.40000312655957
 20
1807.2500479314403
 30
0.0
 11
103.40000312655957
 21
1843.2500479314403
 31
0.0
  0
LINE
  5
62
330
51
100
AcDbEntity
  8
0
100
AcDbLine
 10
13.700002363618296
 20
1807.2500479314403
 30
0.0
 11
13.700002363618296
 21
1843.2500479314403
 31
0.0
  0
CIRCLE
  5
63
330
51
100
AcDbEntity
  8
0
 62
7
100
AcDbCircle
 10
50.40000312655957
 20
1825.2500479314403
 30
0.0
 40
2.0
  0
ENDBLK
  5
53
330
51
100
AcDbEntity
  8
0
100
AcDbBlockEnd
  0
BLOCK
  5
65
330
64
100
AcDbEntity
  8
0
100
AcDbBlockBegin
  2
KB__-___-8317K-__9_3
 70
0
 10
0.0
 20
0.0
 30
0.0
  3
KB__-___-8317K-__9_3
  1

  0
LINE
  5
67
330
64
100
AcDbEntity
  8
0
100
AcDbLine
 10
117.10000344421042
 20
1703.987400814589
 30
0.0
 11
117.100003997567
 21
1653.2500479290393
 31
0.0
  0
LINE
  5
68
330
64
100
AcDbEntity
  8
0
100
AcDbLine
 10
117.1000059826938
 20
1617.2500479290393
 30
0.0
 11
117.10000438201223
 21
0.0
 31
0.0
  0
LINE
  5
69
330
64
100
AcDbEntity
  8
0
100
AcDbLine
 10
1.155390236817766e-06
 20
1703.987400814589
 30
0.0
 11
5.833053364767693e-07
 21
1653.2500479290393
 31
0.0
  0
LINE
  5
6A
330
64
100
AcDbEntity
  8
0
100
AcDbLine
 10
0.0
 20
1617.2500479290393
 30
0.0
 11
2.09319478017278e-06
 21
0.0
 31
0.0
  0
LINE
  5
6B
330
64
100
AcDbEntity
  8
0
100
AcDbLine
 10
117.10000344421042
 20
1703.987400814589
 30
0.0
 11
1.155390236817766e-06
 21
1703.987400814589
 31
0.0
  0
LINE
  5
6C
330
64
100
AcDbEntity
  8
0
100
AcDbLine
 10
117.10000438201223
 20
0.0
 30
0.0
 11
2.09319478017278e-06
 21
0.0
 31
0.0
  0
CIRCLE
  5
6D
330
64
100
AcDbEntity
  8
0
100
AcDbCircle
 10
66.70000285613423
 20
1624.0000479290393
 30
0.0
 40
3.25
  0
CIRCLE
  5
6E
330
64
100
AcDbEntity
  8
0
100
AcDbCircle
 10
72.70000285613423
 20
941.9440296584507
 30
0.0
 40
1.5
  0
CIRCLE
  5
6F
330
64
100
AcDbEntity
  8
0
100
AcDbCircle
 10
66.70000285613423
 20
1646.5000479290393
 30
0.0
 40
3.25
  0
LINE
  5
70
330
64
100
AcDbEntity
  8
0
100
AcDbLine
 10
117.1000059826938
 20
1617.2500479290393
 30
0.0
 11
103.4000036190746
 21
1617.2500479290393
 31
0.0
  0
LINE
  5
71
330
64
100
AcDbEntity
  8
0
100
AcDbLine
 10
13.700002856134233
 20
1617.2500479290393
 30
0.0
 11
0.0
 21
1617.2500479290393
 31
0.0
  0
LINE
  5
72
330
64
100
AcDbEntity
  8
0
100
AcDbLine
 10
117.100003997567
 20
1653.2500479290393
 30
0.0
 11
103.4000036190746
 21
1653.2500479290393
 31
0.0
  0
LINE
  5
73
330
64
100
AcDbEntity
  8
0
100
AcDbLine
 10
13.700002856134233
 20
1653.2500479290393
 30
0.0
 11
5.833053364767693e-07
 21
1653.2500479290393
 31
0.0
  0
LINE
  5
74
330
64
100
AcDbEntity
  8
0
100
AcDbLine
 10
13.700002856134233
 20
1617.2500479290393
 30
0.0
 11
13.700002856134233
 21
1653.2500479290393
 31
0.0
  0
LINE
  5
75
330
64
100
AcDbEntity
  8
0
100
AcDbLine
 10
103.4000036190746
 20
1617.2500479290393
 30
0.0
 11
103.4000036190746
 21
1653.2500479290393
 31
0.0
  0
CIRCLE
  5
76
330
64
100
AcDbEntity
  8
0
 62
7
100
AcDbCircle
 10
66.70000285613423
 20
1635.2500479290393
 30
0.0
 40
2.0
  0
ENDBLK
  5
66
330
64
100
AcDbEntity
  8
0
100
AcDbBlockEnd
  0
BLOCK
  5
78
330
77
100
AcDbEntity
  8
0
100
AcDbBlockBegin
  2
KB__-___-8317K-__10_4
 70
0
 10
0.0
 20
0.0
 30
0.0
  3
KB__-___-8317K-__10_4
  1

  0
LINE
  5
7A
330
77
100
AcDbEntity
  8
0
100
AcDbLine
 10
2.538483386160806e-06
 20
1703.987400814589
 30
0.0
 11
1.985127710213419e-06
 21
1653.2500479290393
 31
0.0
  0
LINE
  5
7B
330
77
100
AcDbEntity
  8
0
100
AcDbLine
 10
0.0
 20
1617.2500479290393
 30
0.0
 11
1.6006797523004934e-06
 21
0.0
 31
0.0
  0
LINE
  5
7C
330
77
100
AcDbEntity
  8
0
100
AcDbLine
 10
117.10000482730175
 20
1703.987400814589
 30
0.0
 11
117.10000539938756
 21
1653.2500479290393
 31
0.0
  0
LINE
  5
7D
330
77
100
AcDbEntity
  8
0
100
AcDbLine
 10
117.1000059826938
 20
1617.2500479290393
 30
0.0
 11
117.1000038894972
 21
0.0
 31
0.0
  0
LINE
  5
7E
330
77
100
AcDbEntity
  8
0
100
AcDbLine
 10
2.538483386160806e-06
 20
1703.987400814589
 30
0.0
 11
117.10000482730175
 21
1703.987400814589
 31
0.0
  0
LINE
  5
7F
330
77
100
AcDbEntity
  8
0
100
AcDbLine
 10
1.6006797523004934e-06
 20
0.0
 30
0.0
 11
117.1000038894972
 21
0.0
 31
0.0
  0
CIRCLE
  5
80
330
77
100
AcDbEntity
  8
0
100
AcDbCircle
 10
44.40000312655957
 20
941.9440296584507
 30
0.0
 40
1.5
  0
CIRCLE
  5
81
330
77
100
AcDbEntity
  8
0
100
AcDbCircle
 10
50.40000312655957
 20
1624.0000479290393
 30
0.0
 40
3.25
  0
CIRCLE
  5
82
330
77
100
AcDbEntity
  8
0
100
AcDbCircle
 10
50.40000312655957
 20
1646.5000479290393
 30
0.0
 40
3.25
  0
LINE
  5
83
330
77
100
AcDbEntity
  8
0
100
AcDbLine
 10
0.0
 20
1617.2500479290393
 30
0.0
 11
13.700002363618296
 21
1617.2500479290393
 31
0.0
  0
LINE
  5
84
330
77
100
AcDbEntity
  8
0
100
AcDbLine
 10
103.40000312655957
 20
1617.2500479290393
 30
0.0
 11
117.1000059826938
 21
1617.2500479290393
 31
0.0
  0
LINE
  5
85
330
77
100
AcDbEntity
  8
0
100
AcDbLine
 10
1.985127710213419e-06
 20
1653.2500479290393
 30
0.0
 11
13.700002363618296
 21
1653.2500479290393
 31
0.0
  0
LINE
  5
86
330
77
100
AcDbEntity
  8
0
100
AcDbLine
 10
103.40000312655957
 20
1653.2500479290393
 30
0.0
 11
117.10000539938756
 21
1653.2500479290393
 31
0.0
  0
LINE
  5
87
330
77
100
AcDbEntity
  8
0
100
AcDbLine
 10
103.40000312655957
 20
1617.2500479290393
 30
0.0
 11
103.40000312655957
 21
1653.2500479290393
 31
0.0
  0
LINE
  5
88
330
77
100
AcDbEntity
  8
0
100
AcDbLine
 10
13.700002363618296
 20
1617.2500479290393
 30
0.0
 11
13.700002363618296
 21
1653.2500479290393
 31
0.0
  0
CIRCLE
  5
89
330
77
100
AcDbEntity
  8
0
 62
7
100
AcDbCircle
 10
50.40000312655957
 20
1635.2500479290393
 30
0.0
 40
2.0
  0
ENDBLK
  5
79
330
77
100
AcDbEntity
  8
0
100
AcDbBlockEnd
  0
BLOCK
  5
8B
330
8A
100
AcDbEntity
  8
0
100
AcDbBlockBegin
  2
KB__-______-8055-__1_5
 70
0
 10
0.0
 20
0.0
 30
0.0
  3
KB__-______-8055-__1_5
  1

  0
LWPOLYLINE
  5
92
330
8A
100
AcDbEntity
  8
0
100
AcDbPolyline
 90
4
 70
1
 10
85.10000449417566
 20
0.0
 10
85.10000449417566
 20
1053.7070083044237
 10
2.194297849200666e-06
 20
1053.7070083044237
 10
0.0
 20
0.0
  0
ENDBLK
  5
8C
330
8A
100
AcDbEntity
  8
0
100
AcDbBlockEnd
  0
BLOCK
  5
94
330
93
100
AcDbEntity
  8
0
100
AcDbBlockBegin
  2
KB__-______-8055-__2_6
 70
0
 10
0.0
 20
0.0
 30
0.0
  3
KB__-______-8055-__2_6
  1

  0
CIRCLE
  5
96
330
93
100
AcDbEntity
  8
0
100
AcDbCircle
 10
33.40000286811119
 20
995.5070568308001
 30
0.0
 40
3.25
  0
CIRCLE
  5
97
330
93
100
AcDbEntity
  8
0
100
AcDbCircle
 10
33.40000286811119
 20
973.0070568306837
 30
0.0
 40
3.25
  0
CIRCLE
  5
98
330
93
100
AcDbEntity
  8
0
 62
7
100
AcDbCircle
 10
33.40000286811119
 20
984.2570568306837
 30
0.0
 40
2.0
  0
LWPOLYLINE
  5
99
330
93
100
AcDbEntity
  8
0
100
AcDbPolyline
 90
4
 70
0
 10
7.461931090801954e-07
 20
966.2570568306837
 10
0.0
 20
0.0
 10
85.10000503300398
 20
0.0
 10
85.10000422710436
 20
966.2570568306837
  0
LWPOLYLINE
  5
9A
330
93
100
AcDbEntity
  8
0
100
AcDbPolyline
 90
4
 70
0
 10
85.10000363105792
 20
1002.2570568308001
 10
71.40000286811119
 20
1002.2570568308001
 10
71.40000286811119
 20
966.2570568306837
 10
85.10000363105792
 20
966.2570568306837
  0
LWPOLYLINE
  5
9B
330
93
100
AcDbEntity
  8
0
100
AcDbPolyline
 90
4
 70
0
 10
1.3422395568341017e-06
 20
966.2570568306837
 10
13.70000210517901
 20
966.2570568306837
 10
13.70000210517901
 20
1002.2570568308001
 10
1.3422395568341017e-06
 20
1002.2570568308001
  0
LWPOLYLINE
  5
9C
330
93
100
AcDbEntity
  8
0
100
AcDbPolyline
 90
4
 70
0
 10
85.1000041078878
 20
1002.2570565923816
 10
85.10000363080326
 20
1053.7070083044237
 10
1.3425524230115116e-06
 20
1053.7070083044237
 10
7.461931090801954e-07
 20
1002.2570565923816
  0
ENDBLK
  5
95
330
93
100
AcDbEntity
  8
0
100
AcDbBlockEnd
  0
BLOCK
  5
9E
330
9D
100
AcDbEntity
  8
0
100
AcDbBlockBegin
  2
KB__-______-8055-__3_7
 70
0
 10
0.0
 20
0.0
 30
0.0
  3
KB__-______-8055-__3_7
  1

  0
LINE
  5
A0
330
9D
100
AcDbEntity
  8
0
100
AcDbLine
 10
0.0
 20
2395.0000000000073
 30
0.0
 11
0.0
 21
0.0
 31
0.0
  0
LINE
  5
A1
330
9D
100
AcDbEntity
  8
0
100
AcDbLine
 10
86.5
 20
2395.0000000000073
 30
0.0
 11
60.0
 21
2395.0000000000073
 31
0.0
  0
LINE
  5
A2
330
9D
100
AcDbEntity
  8
0
100
AcDbLine
 10
86.5
 20
0.0
 30
0.0
 11
60.0
 21
0.0
 31
0.0
  0
LINE
  5
A3
330
9D
100
AcDbEntity
  8
0
100
AcDbLine
 10
22.5
 20
2395.0000000000073
 30
0.0
 11
0.0
 21
2395.0000000000073
 31
0.0
  0
LINE
  5
A4
330
9D
100
AcDbEntity
  8
0
100
AcDbLine
 10
60.0
 20
2378.800000000003
 30
0.0
 11
53.70000000006985
 21
2378.800000000003
 31
0.0
  0
LINE
  5
A5
330
9D
100
AcDbEntity
  8
0
100
AcDbLine
 10
53.70000000006985
 20
2386.800000000003
 30
0.0
 11
22.5
 21
2386.800000000003
 31
0.0
  0
LINE
  5
A6
330
9D
100
AcDbEntity
  8
0
100
AcDbLine
 10
60.0
 20
2395.0000000000073
 30
0.0
 11
60.0
 21
2378.800000000003
 31
0.0
  0
LINE
  5
A7
330
9D
100
AcDbEntity
  8
0
100
AcDbLine
 10
53.70000000006985
 20
2386.800000000003
 30
0.0
 11
53.70000000006985
 21
2378.800000000003
 31
0.0
  0
LINE
  5
A8
330
9D
100
AcDbEntity
  8
0
100
AcDbLine
 10
22.5
 20
2395.0000000000073
 30
0.0
 11
22.5
 21
2386.800000000003
 31
0.0
  0
LINE
  5
A9
330
9D
100
AcDbEntity
  8
0
100
AcDbLine
 10
86.5
 20
2395.0000000000073
 30
0.0
 11
86.5
 21
2295.0
 31
0.0
  0
LINE
  5
AA
330
9D
100
AcDbEntity
  8
0
100
AcDbLine
 10
86.5
 20
2245.0
 30
0.0
 11
86.5
 21
0.0
 31
0.0
  0
LINE
  5
AB
330
9D
100
AcDbEntity
  8
0
100
AcDbLine
 10
22.5
 20
0.0
 30
0.0
 11
0.0
 21
0.0
 31
0.0
  0
LINE
  5
AC
330
9D
100
AcDbEntity
  8
0
100
AcDbLine
 10
60.0
 20
16.19999999999709
 30
0.0
 11
53.70000000006985
 21
16.19999999999709
 31
0.0
  0
LINE
  5
AD
330
9D
100
AcDbEntity
  8
0
100
AcDbLine
 10
53.70000000006985
 20
8.200000000004366
 30
0.0
 11
22.5
 21
8.200000000004366
 31
0.0
  0
LINE
  5
AE
330
9D
100
AcDbEntity
  8
0
100
AcDbLine
 10
60.0
 20
0.0
 30
0.0
 11
60.0
 21
16.19999999999709
 31
0.0
  0
LINE
  5
AF
330
9D
100
AcDbEntity
  8
0
100
AcDbLine
 10
53.70000000006985
 20
8.200000000004366
 30
0.0
 11
53.70000000006985
 21
16.19999999999709
 31
0.0
  0
LINE
  5
B0
330
9D
100
AcDbEntity
  8
0
100
AcDbLine
 10
22.5
 20
0.0
 30
0.0
 11
22.5
 21
8.19999999999709
 31
0.0
  0
CIRCLE
  5
B1
330
9D
100
AcDbEntity
  8
0
100
AcDbCircle
 10
40.84999999997672
 20
1995.0000000000364
 30
0.0
 40
4.9
  0
CIRCLE
  5
B2
330
9D
100
AcDbEntity
  8
0
100
AcDbCircle
 10
40.84999999997672
 20
250.00000000000728
 30
0.0
 40
4.9
  0
CIRCLE
  5
B3
330
9D
100
AcDbEntity
  8
0
100
AcDbCircle
 10
40.84999999997672
 20
1197.4999999999563
 30
0.0
 40
4.9
  0
LWPOLYLINE
  5
B4
330
9D
100
AcDbEntity
  8
0
100
AcDbPolyline
 90
4
 70
0
 10
86.50000000011642
 20
2245.0
 10
82.50000000011642
 20
2245.0
 10
82.50000000011642
 20
2295.0
 10
86.50000000011642
 20
2295.0
  0
ENDBLK
  5
9F
330
9D
100
AcDbEntity
  8
0
100
AcDbBlockEnd
  0
BLOCK
  5
B6
330
B5
100
AcDbEntity
  8
0
100
AcDbBlockBegin
  2
KB__-______-8055-__10_8
 70
0
 10
0.0
 20
0.0
 30
0.0
  3
KB__-______-8055-__10_8
  1

  0
LWPOLYLINE
  5
B8
330
B5
100
AcDbEntity
  8
0
100
AcDbPolyline
 90
4
 70
1
 10
85.10000449419749
 20
968.7070083043072
 10
85.10000449419749
 20
0.0
 10
2.1943196770735085e-06
 20
0.0
 10
0.0
 20
968.7070083043072
  0
ENDBLK
  5
B7
330
B5
100
AcDbEntity
  8
0
100
AcDbBlockEnd
  0
BLOCK
  5
BA
330
B9
100
AcDbEntity
  8
0
100
AcDbBlockBegin
  2
KB__-______-8055-__11_9
 70
0
 10
0.0
 20
0.0
 30
0.0
  3
KB__-______-8055-__11_9
  1

  0
CIRCLE
  5
BC
330
B9
100
AcDbEntity
  8
0
100
AcDbCircle
 10
33.40000286811119
 20
58.19995147373993
 30
0.0
 40
3.25
  0
CIRCLE
  5
BD
330
B9
100
AcDbEntity
  8
0
100
AcDbCircle
 10
33.40000286811119
 20
80.69995147362351
 30
0.0
 40
3.25
  0
CIRCLE
  5
BE
330
B9
100
AcDbEntity
  8
0
 62
7
100
AcDbCircle
 10
33.40000286811119
 20
69.44995147362351
 30
0.0
 40
2.0
  0
LWPOLYLINE
  5
BF
330
B9
100
AcDbEntity
  8
0
100
AcDbPolyline
 90
4
 70
0
 10
7.461858331225812e-07
 20
87.44995147362351
 10
0.0
 20
968.7070083043072
 10
85.10000503298943
 20
968.7070083043072
 10
85.10000422708981
 20
87.44995147362351
  0
LWPOLYLINE
  5
C0
330
B9
100
AcDbEntity
  8
0
100
AcDbPolyline
 90
4
 70
0
 10
85.10000363105064
 20
51.44995147373993
 10
71.40000286811119
 20
51.44995147373993
 10
71.40000286811119
 20
87.44995147362351
 10
85.10000363105064
 20
87.44995147362351
  0
LWPOLYLINE
  5
C1
330
B9
100
AcDbEntity
  8
0
100
AcDbPolyline
 90
4
 70
0
 10
1.3422322808764875e-06
 20
87.44995147362351
 10
13.700002105171734
 20
87.44995147362351
 10
13.700002105171734
 20
51.44995147373993
 10
1.3422322808764875e-06
 20
51.44995147373993
  0
LWPOLYLINE
  5
C2
330
B9
100
AcDbEntity
  8
0
100
AcDbPolyline
 90
4
 70
0
 10
85.10000410789507
 20
51.44995171204209
 10
85.10000363079598
 20
0.0
 10
1.3425524230115116e-06
 20
0.0
 10
7.461858331225812e-07
 20
51.44995171204209
  0
ENDBLK
  5
BB
330
B9
100
AcDbEntity
  8
0
100
AcDbBlockEnd
  0
BLOCK
  5
C4
330
C3
100
AcDbEntity
  8
0
100
AcDbBlockBegin
  2
KB__-______-8055-__12_10
 70
0
 10
0.0
 20
0.0
 30
0.0
  3
KB__-______-8055-__12_10
  1

  0
LINE
  5
C6
330
C3
100
AcDbEntity
  8
0
100
AcDbLine
 10
86.50000000011642
 20
2385.0000000000073
 30
0.0
 11
86.50000000011642
 21
0.0
 31
0.0
  0
LINE
  5
C7
330
C3
100
AcDbEntity
  8
0
100
AcDbLine
 10
1.1641532182693481e-10
 20
2385.0000000000073
 30
0.0
 11
26.500000000116415
 21
2385.0000000000073
 31
0.0
  0
LINE
  5
C8
330
C3
100
AcDbEntity
  8
0
100
AcDbLine
 10
1.1641532182693481e-10
 20
0.0
 30
0.0
 11
26.500000000116415
 21
0.0
 31
0.0
  0
LINE
  5
C9
330
C3
100
AcDbEntity
  8
0
100
AcDbLine
 10
64.00000000011642
 20
2385.0000000000073
 30
0.0
 11
86.50000000011642
 21
2385.0000000000073
 31
0.0
  0
LINE
  5
CA
330
C3
100
AcDbEntity
  8
0
100
AcDbLine
 10
26.500000000116415
 20
2368.80000000001
 30
0.0
 11
32.800000000046566
 21
2368.80000000001
 31
0.0
  0
LINE
  5
CB
330
C3
100
AcDbEntity
  8
0
100
AcDbLine
 10
32.800000000046566
 20
2376.80000000001
 30
0.0
 11
64.00000000011642
 21
2376.80000000001
 31
0.0
  0
LINE
  5
CC
330
C3
100
AcDbEntity
  8
0
100
AcDbLine
 10
26.500000000116415
 20
2385.0000000000073
 30
0.0
 11
26.500000000116415
 21
2368.80000000001
 31
0.0
  0
LINE
  5
CD
330
C3
100
AcDbEntity
  8
0
100
AcDbLine
 10
32.800000000046566
 20
2376.80000000001
 30
0.0
 11
32.800000000046566
 21
2368.80000000001
 31
0.0
  0
LINE
  5
CE
330
C3
100
AcDbEntity
  8
0
100
AcDbLine
 10
64.00000000011642
 20
2385.0000000000073
 30
0.0
 11
64.00000000011642
 21
2376.80000000001
 31
0.0
  0
LINE
  5
CF
330
C3
100
AcDbEntity
  8
0
100
AcDbLine
 10
1.1641532182693481e-10
 20
2385.0000000000073
 30
0.0
 11
1.1641532182693481e-10
 21
2285.0000000000073
 31
0.0
  0
LINE
  5
D0
330
C3
100
AcDbEntity
  8
0
100
AcDbLine
 10
1.1641532182693481e-10
 20
2235.0000000000073
 30
0.0
 11
1.1641532182693481e-10
 21
0.0
 31
0.0
  0
LINE
  5
D1
330
C3
100
AcDbEntity
  8
0
100
AcDbLine
 10
64.00000000011642
 20
0.0
 30
0.0
 11
86.50000000011642
 21
0.0
 31
0.0
  0
LINE
  5
D2
330
C3
100
AcDbEntity
  8
0
100
AcDbLine
 10
26.500000000116415
 20
16.19999999999709
 30
0.0
 11
32.800000000046566
 21
16.19999999999709
 31
0.0
  0
LINE
  5
D3
330
C3
100
AcDbEntity
  8
0
100
AcDbLine
 10
32.800000000046566
 20
8.200000000004366
 30
0.0
 11
64.00000000011642
 21
8.200000000004366
 31
0.0
  0
LINE
  5
D4
330
C3
100
AcDbEntity
  8
0
100
AcDbLine
 10
26.500000000116415
 20
0.0
 30
0.0
 11
26.500000000116415
 21
16.19999999999709
 31
0.0
  0
LINE
  5
D5
330
C3
100
AcDbEntity
  8
0
100
AcDbLine
 10
32.800000000046566
 20
8.200000000004366
 30
0.0
 11
32.800000000046566
 21
16.19999999999709
 31
0.0
  0
LINE
  5
D6
330
C3
100
AcDbEntity
  8
0
100
AcDbLine
 10
64.00000000011642
 20
0.0
 30
0.0
 11
64.00000000011642
 21
8.19999999999709
 31
0.0
  0
CIRCLE
  5
D7
330
C3
100
AcDbEntity
  8
0
100
AcDbCircle
 10
45.65000000002328
 20
1985.000000000029
 30
0.0
 40
4.9
  0
CIRCLE
  5
D8
330
C3
100
AcDbEntity
  8
0
100
AcDbCircle
 10
45.65000000002328
 20
250.00000000000728
 30
0.0
 40
4.9
  0
CIRCLE
  5
D9
330
C3
100
AcDbEntity
  8
0
100
AcDbCircle
 10
45.65000000002328
 20
1192.4999999999563
 30
0.0
 40
4.9
  0
LWPOLYLINE
  5
DA
330
C3
100
AcDbEntity
  8
0
100
AcDbPolyline
 90
4
 70
0
 10
0.0
 20
2235.0000000000073
 10
4.000000000116415
 20
2235.0000000000073
 10
4.000000000116415
 20
2285.0000000000073
 10
0.0
 20
2285.0000000000073
  0
ENDBLK
  5
C5
330
C3
100
AcDbEntity
  8
0
100
AcDbBlockEnd
  0
ENDSEC
  0
SECTION
  2
ENTITIES
  0
LWPOLYLINE
  5
DB
330
17
100
AcDbEntity
  8
0
 62
3
100
AcDbPolyline
 90
4
 70
1
 10
0.0
 20
0.0
 10
1219.0
 20
0.0
 10
1219.0
 20
4000.0
 10
0.0
 20
4000.0
  0
INSERT
  5
DC
330
17
100
AcDbEntity
  8
0
100
AcDbBlockReference
  2
KB__-______-8055-__3_7
 10
0.0
 20
0.0
 30
0.0
  0
TEXT
  5
DE
330
17
100
AcDbEntity
  8
0
100
AcDbText
 10
0.0
 20
2400.0000000000073
 30
0.0
 40
8.0
  1
8055
 11
0.0
 21
2400.0000000000073
 31
0.0
100
AcDbText
  0
INSERT
  5
DF
330
17
100
AcDbEntity
  8
0
100
AcDbBlockReference
  2
KB__-______-8055-__12_10
 10
94.50000000011642
 20
0.0
 30
0.0
  0
TEXT
  5
E1
330
17
100
AcDbEntity
  8
0
100
AcDbText
 10
94.50000000011642
 20
2390.0000000000073
 30
0.0
 40
8.0
  1
8055
 11
94.50000000011642
 21
2390.0000000000073
 31
0.0
100
AcDbText
  0
INSERT
  5
E2
330
17
100
AcDbEntity
  8
0
100
AcDbBlockReference
  2
KB__-______-8055-__2_6
 10
189.00000000023283
 20
0.0
 30
0.0
  0
TEXT
  5
E4
330
17
100
AcDbEntity
  8
0
100
AcDbText
 10
189.00000000023283
 20
1058.7070083044237
 30
0.0
 40
8.0
  1
8055
 11
189.00000000023283
 21
1058.7070083044237
 31
0.0
100
AcDbText
  0
INSERT
  5
E5
330
17
100
AcDbEntity
  8
0
100
AcDbBlockReference
  2
KB__-______-8055-__1_5
 10
282.1000050332368
 20
0.0
 30
0.0
  0
TEXT
  5
E7
330
17
100
AcDbEntity
  8
0
100
AcDbText
 10
282.1000050332368
 20
1058.7070083044237
 30
0.0
 40
8.0
  1
8055
 11
282.1000050332368
 21
1058.7070083044237
 31
0.0
100
AcDbText
  0
INSERT
  5
E8
330
17
100
AcDbEntity
  8
0
100
AcDbBlockReference
  2
KB__-______-8055-__11_9
 10
375.2000095274125
 20
0.0
 30
0.0
  0
TEXT
  5
EA
330
17
100
AcDbEntity
  8
0
100
AcDbText
 10
375.2000095274125
 20
973.7070083043072
 30
0.0
 40
8.0
  1
8055
 11
375.2000095274125
 21
973.7070083043072
 31
0.0
100
AcDbText
  0
INSERT
  5
EB
330
17
100
AcDbEntity
  8
0
100
AcDbBlockReference
  2
KB__-______-8055-__10_8
 10
468.3000145604019
 20
0.0
 30
0.0
  0
TEXT
  5
ED
330
17
100
AcDbEntity
  8
0
100
AcDbText
 10
468.3000145604019
 20
973.7070083043072
 30
0.0
 40
8.0
  1
8055
 11
468.3000145604019
 21
973.7070083043072
 31
0.0
100
AcDbText
  0
INSERT
  5
EE
330
17
100
AcDbEntity
  8
0
100
AcDbBlockReference
  2
KB__-___-8317K-__1_1
 10
561.4000190545994
 20
0.0
 30
0.0
  0
TEXT
  5
F0
330
17
100
AcDbEntity
  8
0
100
AcDbText
 10
561.4000190545994
 20
1898.98740081699
 30
0.0
 40
8.0
  1
8317K
 11
561.4000190545994
 21
1898.98740081699
 31
0.0
100
AcDbText
  0
INSERT
  5
F1
330
17
100
AcDbEntity
  8
0
100
AcDbBlockReference
  2
KB__-___-8317K-__2_2
 10
686.5000250372932
 20
0.0
 30
0.0
  0
TEXT
  5
F3
330
17
100
AcDbEntity
  8
0
100
AcDbText
 10
686.5000250372932
 20
1898.98740081699
 30
0.0
 40
8.0
  1
8317K
 11
686.5000250372932
 21
1898.98740081699
 31
0.0
100
AcDbText
  0
INSERT
  5
F4
330
17
100
AcDbEntity
  8
0
100
AcDbBlockReference
  2
KB__-___-8317K-__9_3
 10
811.600031019987
 20
0.0
 30
0.0
  0
TEXT
  5
F6
330
17
100
AcDbEntity
  8
0
100
AcDbText
 10
811.600031019987
 20
1708.987400814589
 30
0.0
 40
8.0
  1
8317K
 11
811.600031019987
 21
1708.987400814589
 31
0.0
100
AcDbText
  0
INSERT
  5
F7
330
17
100
AcDbEntity
  8
0
100
AcDbBlockReference
  2
KB__-___-8317K-__10_4
 10
936.7000370026808
 20
0.0
 30
0.0
  0
TEXT
  5
F9
330
17
100
AcDbEntity
  8
0
100
AcDbText
 10
936.7000370026808
 20
1708.987400814589
 30
0.0
 40
8.0
  1
8317K
 11
936.7000370026808
 21
1708.987400814589
 31
0.0
100
AcDbText
  0
TEXT
  5
FA
330
17
100
AcDbEntity
  8
0
 62
5
100
AcDbText
 10
0.0
 20
4020.0
 30
0.0
 40
12.0
  1
板1  哑黑0.96  1219.0x4000
 11
0.0
 21
4020.0
 31
0.0
100
AcDbText
  0
ENDSEC
  0
SECTION
  2
OBJECTS
  0
DICTIONARY
  5
A
330
0
100
AcDbDictionary
281
1
  3
ACAD_COLOR
350
B
  3
ACAD_GROUP
350
C
  3
ACAD_LAYOUT
350
D
  3
ACAD_MATERIAL
350
E
  3
ACAD_MLEADERSTYLE
350
F
  3
ACAD_MLINESTYLE
350
10
  3
ACAD_PLOTSETTINGS
350
11
  3
ACAD_PLOTSTYLENAME
350
12
  3
ACAD_SCALELIST
350
14
  3
ACAD_TABLESTYLE
350
15
  3
ACAD_VISUALSTYLE
350
16
  3
EZDXF_META
350
2D
  0
DICTIONARY
  5
B
330
A
100
AcDbDictionary
281
1
  0
DICTIONARY
  5
C
330
A
100
AcDbDictionary
281
1
  0
DICTIONARY
  5
D
330
A
100
AcDbDictionary
281
1
  3
Model
350
1A
  3
Layout1
350
1E
  0
DICTIONARY
  5
E
330
A
100
AcDbDictionary
281
1
  3
ByBlock
350
1F
  3
ByLayer
350
20
  3
Global
350
21
  0
DICTIONARY
  5
F
330
A
100
AcDbDictionary
281
1
  3
Standard
350
2C
  0
DICTIONARY
  5
10
330
A
100
AcDbDictionary
281
1
  3
Standard
350
22
  0
DICTIONARY
  5
11
330
A
100
AcDbDictionary
281
1
  0
ACDBDICTIONARYWDFLT
  5
12
330
A
100
AcDbDictionary
281
1
  3
Normal
350
13
100
AcDbDictionaryWithDefault
340
13
  0
ACDBPLACEHOLDER
  5
13
330
12
  0
DICTIONARY
  5
14
330
A
100
AcDbDictionary
281
1
  0
DICTIONARY
  5
15
330
A
100
AcDbDictionary
281
1
  0
DICTIONARY
  5
16
330
A
100
AcDbDictionary
281
1
  0
LAYOUT
  5
1A
330
D
100
AcDbPlotSettings
  1

  4
A3
  6

 40
7.5
 41
20.0
 42
7.5
 43
20.0
 44
420.0
 45
297.0
 46
0.0
 47
0.0
 48
0.0
 49
0.0
140
0.0
141
0.0
142
1.0
143
1.0
 70
1024
 72
1
 73
0
 74
5
  7

 75
16
 76
0
 77
2
 78
300
147
1.0
148
0.0
149
0.0
100
AcDbLayout
  1
Model
 70
1
 71
0
 10
0.0
 20
0.0
 11
420.0
 21
297.0
 12
0.0
 22
0.0
 32
0.0
 14
1e+20
 24
1e+20
 34
1e+20
 15
-1e+20
 25
-1e+20
 35
-1e+20
146
0.0
 13
0.0
 23
0.0
 33
0.0
 16
1.0
 26
0.0
 36
0.0
 17
0.0
 27
1.0
 37
0.0
 76
1
330
17
  0
LAYOUT
  5
1E
330
D
100
AcDbPlotSettings
  1

  4
A3
  6

 40
7.5
 41
20.0
 42
7.5
 43
20.0
 44
420.0
 45
297.0
 46
0.0
 47
0.0
 48
0.0
 49
0.0
140
0.0
141
0.0
142
1.0
143
1.0
 70
0
 72
1
 73
0
 74
5
  7

 75
16
 76
0
 77
2
 78
300
147
1.0
148
0.0
149
0.0
100
AcDbLayout
  1
Layout1
 70
1
 71
1
 10
0.0
 20
0.0
 11
420.0
 21
297.0
 12
0.0
 22
0.0
 32
0.0
 14
1e+20
 24
1e+20
 34
1e+20
 15
-1e+20
 25
-1e+20
 35
-1e+20
146
0.0
 13
0.0
 23
0.0
 33
0.0
 16
1.0
 26
0.0
 36
0.0
 17
0.0
 27
1.0
 37
0.0
 76
1
330
1B
  0
MATERIAL
  5
1F
102
{ACAD_REACTORS
330
E
102
}
330
E
100
AcDbMaterial
  1
ByBlock
  2

 70
0
 40
1.0
 71
1
 41
1.0
 91
-1023410177
 42
1.0
 72
1
  3

 73
1
 74
1
 75
1
 44
0.5
 73
0
 45
1.0
 46
1.0
 77
1
  4

 78
1
 79
1
170
1
 48
1.0
171
1
  6

172
1
173
1
174
1
140
1.0
141
1.0
175
1
  7

176
1
177
1
178
1
143
1.0
179
1
  8

270
1
271
1
272
1
145
1.0
146
1.0
273
1
  9

274
1
275
1
276
1
 42
1.0
 72
1
  3

 73
1
 74
1
 75
1
 94
63
  0
MATERIAL
  5
20
102
{ACAD_REACTORS
330
E
102
}
330
E
100
AcDbMaterial
  1
ByLayer
  2

 70
0
 40
1.0
 71
1
 41
1.0
 91
-1023410177
 42
1.0
 72
1
  3

 73
1
 74
1
 75
1
 44
0.5
 73
0
 45
1.0
 46
1.0
 77
1
  4

 78
1
 79
1
170
1
 48
1.0
171
1
  6

172
1
173
1
174
1
140
1.0
141
1.0
175
1
  7

176
1
177
1
178
1
143
1.0
179
1
  8

270
1
271
1
272
1
145
1.0
146
1.0
273
1
  9

274
1
275
1
276
1
 42
1.0
 72
1
  3

 73
1
 74
1
 75
1
 94
63
  0
MATERIAL
  5
21
102
{ACAD_REACTORS
330
E
102
}
330
E
100
AcDbMaterial
  1
Global
  2

 70
0
 40
1.0
 71
1
 41
1.0
 91
-1023410177
 42
1.0
 72
1
  3

 73
1
 74
1
 75
1
 44
0.5
 73
0
 45
1.0
 46
1.0
 77
1
  4

 78
1
 79
1
170
1
 48
1.0
171
1
  6

172
1
173
1
174
1
140
1.0
141
1.0
175
1
  7

176
1
177
1
178
1
143
1.0
179
1
  8

270
1
271
1
272
1
145
1.0
146
1.0
273
1
  9

274
1
275
1
276
1
 42
1.0
 72
1
  3

 73
1
 74
1
 75
1
 94
63
  0
MLINESTYLE
  5
22
102
{ACAD_REACTORS
330
10
102
}
330
10
100
AcDbMlineStyle
  2
Standard
 70
0
  3

 62
256
 51
90.0
 52
90.0
 71
2
 49
0.5
 62
256
  6
BYLAYER
 49
-0.5
 62
256
  6
BYLAYER
  0
MLEADERSTYLE
  5
2C
102
{ACAD_REACTORS
330
F
102
}
330
F
100
AcDbMLeaderStyle
179
2
170
2
171
1
172
0
 90
2
 40
0.0
 41
0.0
173
1
 91
-1056964608
 92
-2
290
1
 42
2.0
291
1
 43
8.0
  3
Standard
 44
4.0
300

342
29
174
1
175
1
176
0
178
1
 93
-1056964608
 45
4.0
292
0
297
0
 46
4.0
 94
-1056964608
 47
1.0
 49
1.0
140
1.0
294
1
141
0.0
177
0
142
1.0
295
0
296
0
143
3.75
271
0
272
9
273
9
  0
DICTIONARY
  5
2D
330
A
100
AcDbDictionary
280
1
281
1
  3
CREATED_BY_EZDXF
350
2E
  3
WRITTEN_BY_EZDXF
350
FD
  0
DICTIONARYVAR
  5
2E
330
2D
100
DictionaryVariables
280
0
  1
1.4.3 @ 2026-04-03T02:28:57.294032+00:00
  0
DICTIONARYVAR
  5
FD
330
2D
100
DictionaryVariables
280
0
  1
1.4.3 @ 2026-04-03T02:28:59.167030+00:00
  0
ENDSEC
  0
EOF
