  0
SECTION
  2
HEADER
  9
$ACADVER
  1
AC1024
  9
$ACADMAINTVER
 70
6
  9
$DWGCODEPAGE
  3
ANSI_1252
  9
$LASTSAVEDBY
  1
ezdxf
  9
$INSBASE
 10
0.0
 20
0.0
 30
0.0
  9
$EXTMIN
 10
1e+20
 20
1e+20
 30
1e+20
  9
$EXTMAX
 10
-1e+20
 20
-1e+20
 30
-1e+20
  9
$LIMMIN
 10
0.0
 20
0.0
  9
$LIMMAX
 10
420.0
 20
297.0
  9
$ORTHOMODE
 70
0
  9
$REGENMODE
 70
1
  9
$FILLMODE
 70
1
  9
$QTEXTMODE
 70
0
  9
$MIRRTEXT
 70
1
  9
$LTSCALE
 40
1.0
  9
$ATTMODE
 70
1
  9
$TEXTSIZE
 40
2.5
  9
$TRACEWID
 40
1.0
  9
$TEXTSTYLE
  7
Standard
  9
$CLAYER
  8
0
  9
$CELTYPE
  6
ByLayer
  9
$CECOLOR
 62
256
  9
$CELTSCALE
 40
1.0
  9
$DISPSILH
 70
0
  9
$DIMSCALE
 40
1.0
  9
$DIMASZ
 40
2.5
  9
$DIMEXO
 40
0.625
  9
$DIMDLI
 40
3.75
  9
$DIMRND
 40
0.0
  9
$DIMDLE
 40
0.0
  9
$DIMEXE
 40
1.25
  9
$DIMTP
 40
0.0
  9
$DIMTM
 40
0.0
  9
$DIMTXT
 40
2.5
  9
$DIMCEN
 40
2.5
  9
$DIMTSZ
 40
0.0
  9
$DIMTOL
 70
0
  9
$DIMLIM
 70
0
  9
$DIMTIH
 70
0
  9
$DIMTOH
 70
0
  9
$DIMSE1
 70
0
  9
$DIMSE2
 70
0
  9
$DIMTAD
 70
1
  9
$DIMZIN
 70
8
  9
$DIMBLK
  1

  9
$DIMASO
 70
1
  9
$DIMSHO
 70
1
  9
$DIMPOST
  1

  9
$DIMAPOST
  1

  9
$DIMALT
 70
0
  9
$DIMALTD
 70
3
  9
$DIMALTF
 40
0.03937007874
  9
$DIMLFAC
 40
1.0
  9
$DIMTOFL
 70
1
  9
$DIMTVP
 40
0.0
  9
$DIMTIX
 70
0
  9
$DIMSOXD
 70
0
  9
$DIMSAH
 70
0
  9
$DIMBLK1
  1

  9
$DIMBLK2
  1

  9
$DIMSTYLE
  2
ISO-25
  9
$DIMCLRD
 70
0
  9
$DIMCLRE
 70
0
  9
$DIMCLRT
 70
0
  9
$DIMTFAC
 40
1.0
  9
$DIMGAP
 40
0.625
  9
$DIMJUST
 70
0
  9
$DIMSD1
 70
0
  9
$DIMSD2
 70
0
  9
$DIMTOLJ
 70
0
  9
$DIMTZIN
 70
8
  9
$DIMALTZ
 70
0
  9
$DIMALTTZ
 70
0
  9
$DIMUPT
 70
0
  9
$DIMDEC
 70
2
  9
$DIMTDEC
 70
2
  9
$DIMALTU
 70
2
  9
$DIMALTTD
 70
3
  9
$DIMTXSTY
  7
Standard
  9
$DIMAUNIT
 70
0
  9
$DIMADEC
 70
0
  9
$DIMALTRND
 40
0.0
  9
$DIMAZIN
 70
0
  9
$DIMDSEP
 70
44
  9
$DIMATFIT
 70
3
  9
$DIMFRAC
 70
0
  9
$DIMLDRBLK
  1

  9
$DIMLUNIT
 70
2
  9
$DIMLWD
 70
-2
  9
$DIMLWE
 70
-2
  9
$DIMTMOVE
 70
0
  9
$DIMFXL
 40
1.0
  9
$DIMFXLON
 70
0
  9
$DIMJOGANG
 40
0.785398163397
  9
$DIMTFILL
 70
0
  9
$DIMTFILLCLR
 70
0
  9
$DIMARCSYM
 70
0
  9
$DIMLTYPE
  6

  9
$DIMLTEX1
  6

  9
$DIMLTEX2
  6

  9
$DIMTXTDIRECTION
 70
0
  9
$LUNITS
 70
2
  9
$LUPREC
 70
4
  9
$SKETCHINC
 40
1.0
  9
$FILLETRAD
 40
10.0
  9
$AUNITS
 70
0
  9
$AUPREC
 70
2
  9
$MENU
  1
.
  9
$ELEVATION
 40
0.0
  9
$PELEVATION
 40
0.0
  9
$THICKNESS
 40
0.0
  9
$LIMCHECK
 70
0
  9
$CHAMFERA
 40
0.0
  9
$CHAMFERB
 40
0.0
  9
$CHAMFERC
 40
0.0
  9
$CHAMFERD
 40
0.0
  9
$SKPOLY
 70
0
  9
$TDCREATE
 40
2461134.4367708336
  9
$TDUCREATE
 40
2458532.153996898
  9
$TDUPDATE
 40
2461134.4367939816
  9
$TDUUPDATE
 40
2458532.1544311
  9
$TDINDWG
 40
0.0
  9
$TDUSRTIMER
 40
0.0
  9
$USRTIMER
 70
1
  9
$ANGBASE
 50
0.0
  9
$ANGDIR
 70
0
  9
$PDMODE
 70
0
  9
$PDSIZE
 40
0.0
  9
$PLINEWID
 40
0.0
  9
$SPLFRAME
 70
0
  9
$SPLINETYPE
 70
6
  9
$SPLINESEGS
 70
8
  9
$HANDSEED
  5
228
  9
$SURFTAB1
 70
6
  9
$SURFTAB2
 70
6
  9
$SURFTYPE
 70
6
  9
$SURFU
 70
6
  9
$SURFV
 70
6
  9
$UCSBASE
  2

  9
$UCSNAME
  2

  9
$UCSORG
 10
0.0
 20
0.0
 30
0.0
  9
$UCSXDIR
 10
1.0
 20
0.0
 30
0.0
  9
$UCSYDIR
 10
0.0
 20
1.0
 30
0.0
  9
$UCSORTHOREF
  2

  9
$UCSORTHOVIEW
 70
0
  9
$UCSORGTOP
 10
0.0
 20
0.0
 30
0.0
  9
$UCSORGBOTTOM
 10
0.0
 20
0.0
 30
0.0
  9
$UCSORGLEFT
 10
0.0
 20
0.0
 30
0.0
  9
$UCSORGRIGHT
 10
0.0
 20
0.0
 30
0.0
  9
$UCSORGFRONT
 10
0.0
 20
0.0
 30
0.0
  9
$UCSORGBACK
 10
0.0
 20
0.0
 30
0.0
  9
$PUCSBASE
  2

  9
$PUCSNAME
  2

  9
$PUCSORG
 10
0.0
 20
0.0
 30
0.0
  9
$PUCSXDIR
 10
1.0
 20
0.0
 30
0.0
  9
$PUCSYDIR
 10
0.0
 20
1.0
 30
0.0
  9
$PUCSORTHOREF
  2

  9
$PUCSORTHOVIEW
 70
0
  9
$PUCSORGTOP
 10
0.0
 20
0.0
 30
0.0
  9
$PUCSORGBOTTOM
 10
0.0
 20
0.0
 30
0.0
  9
$PUCSORGLEFT
 10
0.0
 20
0.0
 30
0.0
  9
$PUCSORGRIGHT
 10
0.0
 20
0.0
 30
0.0
  9
$PUCSORGFRONT
 10
0.0
 20
0.0
 30
0.0
  9
$PUCSORGBACK
 10
0.0
 20
0.0
 30
0.0
  9
$USERI1
 70
0
  9
$USERI2
 70
0
  9
$USERI3
 70
0
  9
$USERI4
 70
0
  9
$USERI5
 70
0
  9
$USERR1
 40
0.0
  9
$USERR2
 40
0.0
  9
$USERR3
 40
0.0
  9
$USERR4
 40
0.0
  9
$USERR5
 40
0.0
  9
$WORLDVIEW
 70
1
  9
$SHADEDGE
 70
3
  9
$SHADEDIF
 70
70
  9
$TILEMODE
 70
1
  9
$MAXACTVP
 70
64
  9
$PINSBASE
 10
0.0
 20
0.0
 30
0.0
  9
$PLIMCHECK
 70
0
  9
$PEXTMIN
 10
1e+20
 20
1e+20
 30
1e+20
  9
$PEXTMAX
 10
-1e+20
 20
-1e+20
 30
-1e+20
  9
$PLIMMIN
 10
0.0
 20
0.0
  9
$PLIMMAX
 10
420.0
 20
297.0
  9
$UNITMODE
 70
0
  9
$VISRETAIN
 70
1
  9
$PLINEGEN
 70
0
  9
$PSLTSCALE
 70
1
  9
$TREEDEPTH
 70
3020
  9
$CMLSTYLE
  2
Standard
  9
$CMLJUST
 70
0
  9
$CMLSCALE
 40
20.0
  9
$PROXYGRAPHICS
 70
1
  9
$MEASUREMENT
 70
1
  9
$CELWEIGHT
370
-1
  9
$ENDCAPS
280
0
  9
$JOINSTYLE
280
0
  9
$LWDISPLAY
290
0
  9
$INSUNITS
 70
6
  9
$HYPERLINKBASE
  1

  9
$STYLESHEET
  1

  9
$XEDIT
290
1
  9
$CEPSNTYPE
380
0
  9
$PSTYLEMODE
290
1
  9
$FINGERPRINTGUID
  2
{952F3B4F-8705-4997-BC82-6DE3A6F14CE3}
  9
$VERSIONGUID
  2
{7588648D-E538-40DE-8159-45FC8D11D3B3}
  9
$EXTNAMES
290
1
  9
$PSVPSCALE
 40
0.0
  9
$OLESTARTUP
290
0
  9
$SORTENTS
280
127
  9
$INDEXCTL
280
0
  9
$HIDETEXT
280
1
  9
$XCLIPFRAME
280
1
  9
$HALOGAP
280
0
  9
$OBSCOLOR
 70
257
  9
$OBSLTYPE
280
0
  9
$INTERSECTIONDISPLAY
280
0
  9
$INTERSECTIONCOLOR
 70
257
  9
$DIMASSOC
280
2
  9
$PROJECTNAME
  1

  9
$CAMERADISPLAY
290
0
  9
$LENSLENGTH
 40
50.0
  9
$CAMERAHEIGHT
 40
0.0
  9
$STEPSPERSEC
 40
24.0
  9
$STEPSIZE
 40
100.0
  9
$3DDWFPREC
 40
2.0
  9
$PSOLWIDTH
 40
0.005
  9
$PSOLHEIGHT
 40
0.08
  9
$LOFTANG1
 40
1.570796326795
  9
$LOFTANG2
 40
1.570796326795
  9
$LOFTMAG1
 40
0.0
  9
$LOFTMAG2
 40
0.0
  9
$LOFTPARAM
 70
7
  9
$LOFTNORMALS
280
1
  9
$LATITUDE
 40
37.795
  9
$LONGITUDE
 40
-122.394
  9
$NORTHDIRECTION
 40
0.0
  9
$TIMEZONE
 70
-8000
  9
$LIGHTGLYPHDISPLAY
280
1
  9
$TILEMODELIGHTSYNCH
280
1
  9
$CMATERIAL
347
20
  9
$SOLIDHIST
280
0
  9
$SHOWHIST
280
1
  9
$DWFFRAME
280
2
  9
$DGNFRAME
280
2
  9
$REALWORLDSCALE
290
1
  9
$INTERFERECOLOR
 62
256
  9
$CSHADOW
280
0
  9
$SHADOWPLANELOCATION
 40
0.0
  0
ENDSEC
  0
SECTION
  2
CLASSES
  0
CLASS
  1
ACDBDICTIONARYWDFLT
  2
AcDbDictionaryWithDefault
  3
ObjectDBX Classes
 90
0
 91
0
280
0
281
0
  0
CLASS
  1
SUN
  2
AcDbSun
  3
SCENEOE
 90
1153
 91
0
280
0
281
0
  0
CLASS
  1
VISUALSTYLE
  2
AcDbVisualStyle
  3
ObjectDBX Classes
 90
4095
 91
0
280
0
281
0
  0
CLASS
  1
MATERIAL
  2
AcDbMaterial
  3
ObjectDBX Classes
 90
1153
 91
0
280
0
281
0
  0
CLASS
  1
SCALE
  2
AcDbScale
  3
ObjectDBX Classes
 90
1153
 91
0
280
0
281
0
  0
CLASS
  1
TABLESTYLE
  2
AcDbTableStyle
  3
ObjectDBX Classes
 90
4095
 91
0
280
0
281
0
  0
CLASS
  1
MLEADERSTYLE
  2
AcDbMLeaderStyle
  3
ACDB_MLEADERSTYLE_CLASS
 90
4095
 91
0
280
0
281
0
  0
CLASS
  1
DICTIONARYVAR
  2
AcDbDictionaryVar
  3
ObjectDBX Classes
 90
0
 91
0
280
0
281
0
  0
CLASS
  1
CELLSTYLEMAP
  2
AcDbCellStyleMap
  3
ObjectDBX Classes
 90
1152
 91
0
280
0
281
0
  0
CLASS
  1
MENTALRAYRENDERSETTINGS
  2
AcDbMentalRayRenderSettings
  3
SCENEOE
 90
1024
 91
0
280
0
281
0
  0
CLASS
  1
ACDBDETAILVIEWSTYLE
  2
AcDbDetailViewStyle
  3
ObjectDBX Classes
 90
1025
 91
0
280
0
281
0
  0
CLASS
  1
ACDBSECTIONVIEWSTYLE
  2
AcDbSectionViewStyle
  3
ObjectDBX Classes
 90
1025
 91
0
280
0
281
0
  0
CLASS
  1
RASTERVARIABLES
  2
AcDbRasterVariables
  3
ISM
 90
0
 91
0
280
0
281
0
  0
CLASS
  1
ACDBPLACEHOLDER
  2
AcDbPlaceHolder
  3
ObjectDBX Classes
 90
0
 91
0
280
0
281
0
  0
CLASS
  1
LAYOUT
  2
AcDbLayout
  3
ObjectDBX Classes
 90
0
 91
0
280
0
281
0
  0
ENDSEC
  0
SECTION
  2
TABLES
  0
TABLE
  2
VPORT
  5
8
330
0
100
AcDbSymbolTable
 70
1
  0
VPORT
  5
23
330
8
100
AcDbSymbolTableRecord
100
AcDbViewportTableRecord
  2
*Active
 70
0
 10
0.0
 20
0.0
 11
1.0
 21
1.0
 12
0.0
 22
0.0
 13
0.0
 23
0.0
 14
0.5
 24
0.5
 15
0.5
 25
0.5
 16
0.0
 26
0.0
 36
1.0
 17
0.0
 27
0.0
 37
0.0
 40
1000.0
 41
1.34
 42
50.0
 43
0.0
 44
0.0
 50
0.0
 51
0.0
 71
0
 72
1000
 73
1
 74
3
 75
0
 76
0
 77
0
 78
0
281
0
 65
0
146
0.0
  0
ENDTAB
  0
TABLE
  2
LTYPE
  5
2
330
0
100
AcDbSymbolTable
 70
6
  0
LTYPE
  5
24
330
2
100
AcDbSymbolTableRecord
100
AcDbLinetypeTableRecord
  2
ByBlock
 70
0
  3

 72
65
 73
0
 40
0.0
  0
LTYPE
  5
25
330
2
100
AcDbSymbolTableRecord
100
AcDbLinetypeTableRecord
  2
ByLayer
 70
0
  3

 72
65
 73
0
 40
0.0
  0
LTYPE
  5
26
330
2
100
AcDbSymbolTableRecord
100
AcDbLinetypeTableRecord
  2
Continuous
 70
0
  3

 72
65
 73
0
 40
0.0
  0
LTYPE
  5
32
330
2
100
AcDbSymbolTableRecord
100
AcDbLinetypeTableRecord
  2
ACAD_ISO02W100
 70
0
  3
ISO dash __ __ __ __ __ __ __ __ __ __ __ __ __
 72
65
 73
2
 40
15.0
 49
12.0
 74
0
 49
-3.0
 74
0
  0
LTYPE
  5
33
330
2
100
AcDbSymbolTableRecord
100
AcDbLinetypeTableRecord
  2
DASHED2
 70
0
  3
Dashed (.5x) _ _ _ _ _ _ _ _ _ _ _ _ _ _ _ _ _
 72
65
 73
2
 40
9.524999999999999
 49
6.349999999999999
 74
0
 49
-3.174999999999999
 74
0
  0
LTYPE
  5
155
330
2
100
AcDbSymbolTableRecord
100
AcDbLinetypeTableRecord
  2
ACAD_ISO09W100
 70
0
  3
ISO long-dash double-short-dash ____ __ __ ____
 72
65
 73
6
 40
45.0
 49
24.0
 74
0
 49
-3.0
 74
0
 49
6.0
 74
0
 49
-3.0
 74
0
 49
6.0
 74
0
 49
-3.0
 74
0
  0
ENDTAB
  0
TABLE
  2
LAYER
  5
1
330
0
100
AcDbSymbolTable
 70
4
  0
LAYER
  5
27
330
1
100
AcDbSymbolTableRecord
100
AcDbLayerTableRecord
  2
0
 70
0
 62
7
  6
Continuous
370
-3
390
13
347
21
  0
LAYER
  5
28
330
1
100
AcDbSymbolTableRecord
100
AcDbLayerTableRecord
  2
Defpoints
 70
0
 62
7
  6
Continuous
290
0
370
-3
390
13
347
21
  0
LAYER
  5
34
330
1
100
AcDbSymbolTableRecord
100
AcDbLayerTableRecord
  2
BG&E - DIMENSIONS
 70
0
 62
7
  6
Continuous
370
-3
390
13
347
21
348
0
  0
LAYER
  5
156
330
1
100
AcDbSymbolTableRecord
100
AcDbLayerTableRecord
  2
BG&E - HATCH
 70
0
 62
7
  6
Continuous
370
-3
390
13
347
21
348
0
  0
ENDTAB
  0
TABLE
  2
STYLE
  5
5
330
0
100
AcDbSymbolTable
 70
5
  0
STYLE
  5
29
330
5
100
AcDbSymbolTableRecord
100
AcDbTextStyleTableRecord
  2
Standard
 70
0
 40
0.0
 41
1.0
 50
0.0
 71
0
 42
2.5
  3
txt
  4

  0
STYLE
  5
35
330
5
100
AcDbSymbolTableRecord
100
AcDbTextStyleTableRecord
  2
Annotative
 70
0
 40
0.0
 41
1.0
 50
0.0
 71
0
 42
2.5
  3
arial.ttf
  4

  0
STYLE
  5
36
330
5
100
AcDbSymbolTableRecord
100
AcDbTextStyleTableRecord
  2
ROMANS
 70
0
 40
0.0
 41
1.0
 50
0.0
 71
0
 42
2.5
  3

  4

  0
STYLE
  5
37
330
5
100
AcDbSymbolTableRecord
100
AcDbTextStyleTableRecord
  2
放松放松
 70
0
 40
0.0
 41
1.0
 50
0.0
 71
0
 42
2.5
  3
simfang.ttf
  4

  0
STYLE
  5
157
330
5
100
AcDbSymbolTableRecord
100
AcDbTextStyleTableRecord
  2
YQ_DIM
 70
0
 40
0.0
 41
0.8
 50
0.0
 71
0
 42
2.5
  3
simfang.ttf
  4

  0
ENDTAB
  0
TABLE
  2
VIEW
  5
7
330
0
100
AcDbSymbolTable
 70
0
  0
ENDTAB
  0
TABLE
  2
UCS
  5
6
330
0
100
AcDbSymbolTable
 70
0
  0
ENDTAB
  0
TABLE
  2
APPID
  5
3
330
0
100
AcDbSymbolTable
 70
3
  0
APPID
  5
2A
330
3
100
AcDbSymbolTableRecord
100
AcDbRegAppTableRecord
  2
ACAD
 70
0
  0
APPID
  5
225
330
3
100
AcDbSymbolTableRecord
100
AcDbRegAppTableRecord
  2
HATCHBACKGROUNDCOLOR
 70
0
  0
APPID
  5
226
330
3
100
AcDbSymbolTableRecord
100
AcDbRegAppTableRecord
  2
EZDXF
 70
0
  0
ENDTAB
  0
TABLE
  2
DIMSTYLE
  5
4
330
0
100
AcDbSymbolTable
 70
12
100
AcDbDimStyleTable
  0
DIMSTYLE
105
2B
330
4
100
AcDbSymbolTableRecord
100
AcDbDimStyleTableRecord
  2
Standard
 70
0
 40
1.0
 41
2.5
 42
0.625
 43
3.75
 44
1.25
 45
0.0
 46
0.0
 47
0.0
 48
0.0
 49
2.5
140
2.5
141
2.5
142
0.0
143
0.03937007874
144
1.0
145
0.0
146
1.0
147
0.625
148
0.0
 69
0
 70
0
 71
0
 72
0
 73
0
 74
0
 75
0
 76
0
 77
1
 78
8
 79
3
170
0
171
3
172
1
173
0
174
0
175
0
176
0
177
0
178
0
179
2
271
2
272
2
273
2
274
3
275
0
276
0
277
2
278
44
279
0
280
0
281
0
282
0
283
0
284
8
285
0
286
0
288
0
289
3
290
0
371
-2
372
-2
  0
DIMSTYLE
105
38
330
4
100
AcDbSymbolTableRecord
100
AcDbDimStyleTableRecord
  2
Annotative
 70
0
 40
0.0
 41
2.5
 42
0.625
 43
3.75
 44
1.25
 45
0.0
 46
0.0
 47
0.0
 48
0.0
 49
2.5
140
2.5
141
2.5
142
0.0
143
0.03937007874016
144
1.0
145
0.0
146
1.0
147
0.625
148
0.0
 69
0
 70
0
 71
0
 72
0
 73
0
 74
0
 75
0
 76
0
 77
1
 78
8
 79
3
170
0
171
3
172
1
173
0
174
0
175
0
176
0
177
0
178
0
179
2
271
2
272
2
273
2
274
3
275
0
276
0
277
2
278
44
279
0
280
0
281
0
282
0
283
0
284
8
285
0
286
0
288
0
289
3
290
0
340
29
371
-2
372
-2
  0
DIMSTYLE
105
39
330
4
100
AcDbSymbolTableRecord
100
AcDbDimStyleTableRecord
  2
ISO-25
 70
0
 40
1.0
 41
2.5
 42
0.625
 43
3.75
 44
1.25
 45
0.0
 46
0.0
 47
0.0
 48
0.0
 49
2.5
140
2.5
141
2.5
142
0.0
143
0.03937007874016
144
1.0
145
0.0
146
1.0
147
0.625
148
0.0
 69
0
 70
0
 71
0
 72
0
 73
0
 74
0
 75
0
 76
0
 77
1
 78
8
 79
3
170
0
171
3
172
1
173
0
174
0
175
0
176
0
177
0
178
0
179
2
271
2
272
2
273
2
274
3
275
0
276
0
277
2
278
44
279
0
280
0
281
0
282
0
283
0
284
8
285
0
286
0
288
0
289
3
290
0
340
29
371
-2
372
-2
  0
DIMSTYLE
105
3A
330
4
100
AcDbSymbolTableRecord
100
AcDbDimStyleTableRecord
  2
yq10
 70
0
 40
10.0
 41
0.5
 42
3.0
 43
6.0
 44
1.5
 45
0.0
 46
0.0
 47
0.0
 48
0.0
 49
3.0
140
3.0
141
0.0
142
0.0
143
0.03937007874
144
1.0
145
0.0
146
1.0
147
0.5
148
0.0
 69
0
 70
0
 71
0
 72
0
 73
0
 74
0
 75
0
 76
0
 77
1
 78
8
 79
2
170
0
171
3
172
1
173
0
174
0
175
0
176
0
177
0
178
0
179
2
271
0
272
0
273
2
274
3
275
0
276
0
277
2
278
44
279
1
280
0
281
0
282
0
283
0
284
8
285
0
286
0
288
0
289
3
290
0
340
36
371
-2
372
-2
  0
DIMSTYLE
105
3B
330
4
100
AcDbSymbolTableRecord
100
AcDbDimStyleTableRecord
  2
AA
 70
0
 40
1.0
 41
2.0
 42
0.625
 43
3.75
 44
1.25
 45
0.0
 46
0.0
 47
0.0
 48
0.0
 49
2.5
140
2.5
141
2.5
142
0.0
143
0.03937007874016
144
1.0
145
0.0
146
1.0
147
0.625
148
0.0
 69
0
 70
0
 71
0
 72
0
 73
0
 74
0
 75
0
 76
0
 77
1
 78
8
 79
3
170
0
171
3
172
1
173
0
174
0
175
0
176
6
177
6
178
6
179
2
271
1
272
1
273
2
274
3
275
0
276
0
277
2
278
44
279
0
280
0
281
0
282
0
283
0
284
8
285
0
286
0
288
0
289
3
290
0
340
29
371
-2
372
-2
  0
DIMSTYLE
105
3C
330
4
100
AcDbSymbolTableRecord
100
AcDbDimStyleTableRecord
  2
MX-30
 70
0
 40
10.0
 41
1.0
 42
1.0
 43
3.75
 44
1.0
 45
0.0
 46
0.0
 47
0.0
 48
0.0
 49
2.5
140
2.0
141
1.0
142
0.0
143
0.03937007874016
144
1.0
145
0.0
146
1.0
147
0.5
148
0.0
 69
0
 70
0
 71
0
 72
0
 73
0
 74
0
 75
0
 76
0
 77
1
 78
8
 79
3
170
0
171
3
172
1
173
0
174
1
175
1
176
0
177
0
178
0
179
2
271
1
272
1
273
2
274
3
275
0
276
0
277
2
278
44
279
2
280
0
281
0
282
0
283
0
284
8
285
0
286
0
288
0
289
3
290
0
340
29
371
-2
372
-2
  0
DIMSTYLE
105
3D
330
4
100
AcDbSymbolTableRecord
100
AcDbDimStyleTableRecord
  2
yq1
 70
0
 40
1.0
 41
3.0
 42
3.0
 43
6.0
 44
1.0
 45
0.0
 46
0.0
 47
0.0
 48
0.0
 49
3.0
140
3.5
141
0.0
142
0.0
143
0.03937007874
144
1.0
145
0.0
146
1.0
147
0.5
148
0.0
 69
0
 70
0
 71
0
 72
0
 73
0
 74
0
 75
0
 76
0
 77
1
 78
8
 79
2
170
0
171
3
172
1
173
0
174
0
175
0
176
0
177
0
178
0
179
1
271
1
272
1
273
2
274
3
275
0
276
0
277
2
278
44
279
1
280
0
281
0
282
0
283
0
284
8
285
0
286
0
288
0
289
3
290
1
340
36
371
-2
372
-2
  0
DIMSTYLE
105
3E
330
4
100
AcDbSymbolTableRecord
100
AcDbDimStyleTableRecord
  2
yq5
 70
0
 40
5.0
 41
1.0
 42
3.0
 43
6.0
 44
2.0
 45
0.0
 46
0.0
 47
0.0
 48
0.0
 49
3.0
140
3.0
141
0.0
142
0.0
143
0.03937007874
144
1.0
145
0.0
146
1.0
147
0.5
148
0.0
 69
0
 70
0
 71
0
 72
0
 73
0
 74
0
 75
0
 76
0
 77
1
 78
8
 79
2
170
0
171
3
172
1
173
0
174
0
175
0
176
256
177
256
178
0
179
2
271
1
272
1
273
2
274
3
275
0
276
0
277
2
278
44
279
1
280
0
281
0
282
0
283
0
284
8
285
0
286
0
288
0
289
3
290
1
340
29
371
-2
372
-2
  0
DIMSTYLE
105
3F
330
4
100
AcDbSymbolTableRecord
100
AcDbDimStyleTableRecord
  2
ISO-25$0
 70
0
 40
1.0
 41
2.5
 42
0.625
 43
3.75
 44
1.25
 45
0.0
 46
0.0
 47
0.0
 48
0.0
 49
2.5
140
2.5
141
2.5
142
0.0
143
0.03937007874016
144
1.0
145
0.0
146
1.0
147
0.625
148
0.0
 69
0
 70
0
 71
0
 72
0
 73
0
 74
0
 75
0
 76
0
 77
1
 78
8
 79
3
170
0
171
3
172
1
173
0
174
0
175
0
176
0
177
0
178
0
179
2
271
2
272
2
273
2
274
3
275
0
276
0
277
2
278
44
279
0
280
0
281
0
282
0
283
0
284
8
285
0
286
0
288
0
289
3
290
0
340
29
371
-2
372
-2
  0
DIMSTYLE
105
40
330
4
100
AcDbSymbolTableRecord
100
AcDbDimStyleTableRecord
  2
yq0.5
 70
0
 40
0.5
 41
0.5
 42
3.0
 43
6.0
 44
1.0
 45
0.0
 46
0.0
 47
0.0
 48
0.0
 49
3.0
140
3.5
141
0.0
142
0.0
143
0.03937007874
144
1.0
145
0.0
146
1.0
147
0.5
148
0.0
 69
0
 70
0
 71
0
 72
0
 73
0
 74
0
 75
0
 76
0
 77
1
 78
8
 79
2
170
0
171
3
172
1
173
0
174
0
175
0
176
0
177
0
178
7
179
2
271
1
272
1
273
2
274
3
275
0
276
0
277
2
278
44
279
1
280
0
281
0
282
0
283
0
284
8
285
0
286
0
288
0
289
3
290
1
340
36
371
-2
372
-2
  0
DIMSTYLE
105
158
330
4
100
AcDbSymbolTableRecord
100
AcDbDimStyleTableRecord
  2
yq2
 70
0
 40
2.0
 41
0.6
 42
3.0
 43
6.0
 44
1.5
 45
0.0
 46
0.0
 47
0.0
 48
0.0
 49
2.5
140
3.0
141
0.0
142
0.0
143
0.03937007874
144
1.0
145
0.0
146
1.0
147
0.5
148
0.0
 69
0
 70
0
 71
0
 72
0
 73
0
 74
0
 75
0
 76
0
 77
1
 78
8
 79
2
170
0
171
3
172
1
173
0
174
0
175
0
176
256
177
256
178
7
179
2
271
1
272
1
273
2
274
3
275
0
276
0
277
2
278
44
279
1
280
0
281
0
282
0
283
0
284
8
285
0
286
0
288
1
289
3
290
1
340
157
371
-2
372
-2
  0
DIMSTYLE
105
159
330
4
100
AcDbSymbolTableRecord
100
AcDbDimStyleTableRecord
  2
yq15
 70
0
 40
15.0
 41
0.5
 42
3.0
 43
6.0
 44
1.5
 45
0.0
 46
0.0
 47
0.0
 48
0.0
 49
2.5
140
3.0
141
0.0
142
0.0
143
0.03937007874
144
1.0
145
0.0
146
1.0
147
0.5
148
0.0
 69
0
 70
0
 71
0
 72
0
 73
0
 74
0
 75
0
 76
0
 77
1
 78
8
 79
2
170
0
171
3
172
1
173
0
174
0
175
0
176
256
177
256
178
7
179
2
271
1
272
1
273
2
274
3
275
0
276
0
277
2
278
44
279
1
280
0
281
0
282
0
283
0
284
8
285
0
286
0
288
1
289
3
290
1
340
36
371
-2
372
-2
  0
ENDTAB
  0
TABLE
  2
BLOCK_RECORD
  5
9
330
0
100
AcDbSymbolTable
 70
25
  0
BLOCK_RECORD
  5
17
330
9
100
AcDbSymbolTableRecord
100
AcDbBlockTableRecord
  2
*Model_Space
340
1A
 70
0
280
1
281
0
  0
BLOCK_RECORD
  5
1B
330
9
100
AcDbSymbolTableRecord
100
AcDbBlockTableRecord
  2
*Paper_Space
340
1E
 70
0
280
1
281
0
  0
BLOCK_RECORD
  5
2F
330
9
100
AcDbSymbolTableRecord
100
AcDbBlockTableRecord
  2
KB__-___-8317K-__3_1
340
0
 70
0
280
1
281
0
  0
BLOCK_RECORD
  5
54
330
9
100
AcDbSymbolTableRecord
100
AcDbBlockTableRecord
  2
KB__-___-8317K-__4_2
340
0
 70
0
280
1
281
0
  0
BLOCK_RECORD
  5
6A
330
9
100
AcDbSymbolTableRecord
100
AcDbBlockTableRecord
  2
KB__-___-8317K-__5_3
340
0
 70
0
280
1
281
0
  0
BLOCK_RECORD
  5
85
330
9
100
AcDbSymbolTableRecord
100
AcDbBlockTableRecord
  2
KB__-___-8317K-__6_4
340
0
 70
0
280
1
281
0
  0
BLOCK_RECORD
  5
9C
330
9
100
AcDbSymbolTableRecord
100
AcDbBlockTableRecord
  2
KB__-___-8317K-__7_5
340
0
 70
0
280
1
281
0
  0
BLOCK_RECORD
  5
B3
330
9
100
AcDbSymbolTableRecord
100
AcDbBlockTableRecord
  2
KB__-___-8317K-__8_6
340
0
 70
0
280
1
281
0
  0
BLOCK_RECORD
  5
C8
330
9
100
AcDbSymbolTableRecord
100
AcDbBlockTableRecord
  2
KB__-___-8317K-__11_7
340
0
 70
0
280
1
281
0
  0
BLOCK_RECORD
  5
DE
330
9
100
AcDbSymbolTableRecord
100
AcDbBlockTableRecord
  2
KB__-___-8317K-__12_8
340
0
 70
0
280
1
281
0
  0
BLOCK_RECORD
  5
F4
330
9
100
AcDbSymbolTableRecord
100
AcDbBlockTableRecord
  2
KB__-___-8317K-__13_9
340
0
 70
0
280
1
281
0
  0
BLOCK_RECORD
  5
10F
330
9
100
AcDbSymbolTableRecord
100
AcDbBlockTableRecord
  2
KB__-___-8317K-__14_10
340
0
 70
0
280
1
281
0
  0
BLOCK_RECORD
  5
126
330
9
100
AcDbSymbolTableRecord
100
AcDbBlockTableRecord
  2
KB__-___-8317K-__15_11
340
0
 70
0
280
1
281
0
  0
BLOCK_RECORD
  5
13D
330
9
100
AcDbSymbolTableRecord
100
AcDbBlockTableRecord
  2
KB__-___-8317K-__16_12
340
0
 70
0
280
1
281
0
  0
BLOCK_RECORD
  5
152
330
9
100
AcDbSymbolTableRecord
100
AcDbBlockTableRecord
  2
KB__-______-8055-__4_13
340
0
 70
0
280
1
281
0
  0
BLOCK_RECORD
  5
15B
330
9
100
AcDbSymbolTableRecord
100
AcDbBlockTableRecord
  2
KB__-______-8055-__5_14
340
0
 70
0
280
1
281
0
  0
BLOCK_RECORD
  5
15F
330
9
100
AcDbSymbolTableRecord
100
AcDbBlockTableRecord
  2
KB__-______-8055-__6_15
340
0
 70
0
280
1
281
0
  0
BLOCK_RECORD
  5
17D
330
9
100
AcDbSymbolTableRecord
100
AcDbBlockTableRecord
  2
KB__-______-8055-__7_16
340
0
 70
0
280
1
281
0
  0
BLOCK_RECORD
  5
181
330
9
100
AcDbSymbolTableRecord
100
AcDbBlockTableRecord
  2
KB__-______-8055-__8_17
340
0
 70
0
280
1
281
0
  0
BLOCK_RECORD
  5
18A
330
9
100
AcDbSymbolTableRecord
100
AcDbBlockTableRecord
  2
KB__-______-8055-__9_18
340
0
 70
0
280
1
281
0
  0
BLOCK_RECORD
  5
1A6
330
9
100
AcDbSymbolTableRecord
100
AcDbBlockTableRecord
  2
KB__-______-8055-__13_19
340
0
 70
0
280
1
281
0
  0
BLOCK_RECORD
  5
1AD
330
9
100
AcDbSymbolTableRecord
100
AcDbBlockTableRecord
  2
KB__-______-8055-__14_20
340
0
 70
0
280
1
281
0
  0
BLOCK_RECORD
  5
1B1
330
9
100
AcDbSymbolTableRecord
100
AcDbBlockTableRecord
  2
KB__-______-8055-__15_21
340
0
 70
0
280
1
281
0
  0
BLOCK_RECORD
  5
1CF
330
9
100
AcDbSymbolTableRecord
100
AcDbBlockTableRecord
  2
KB__-______-8055-__16_22
340
0
 70
0
280
1
281
0
  0
BLOCK_RECORD
  5
1D3
330
9
100
AcDbSymbolTableRecord
100
AcDbBlockTableRecord
  2
KB__-______-8055-__17_23
340
0
 70
0
280
1
281
0
  0
ENDTAB
  0
ENDSEC
  0
SECTION
  2
BLOCKS
  0
BLOCK
  5
18
330
17
100
AcDbEntity
  8
0
100
AcDbBlockBegin
  2
*Model_Space
 70
0
 10
0.0
 20
0.0
 30
0.0
  3
*Model_Space
  1

  0
ENDBLK
  5
19
330
17
100
AcDbEntity
  8
0
100
AcDbBlockEnd
  0
BLOCK
  5
1C
330
1B
100
AcDbEntity
  8
0
100
AcDbBlockBegin
  2
*Paper_Space
 70
0
 10
0.0
 20
0.0
 30
0.0
  3
*Paper_Space
  1

  0
ENDBLK
  5
1D
330
1B
100
AcDbEntity
  8
0
100
AcDbBlockEnd
  0
BLOCK
  5
30
330
2F
100
AcDbEntity
  8
0
100
AcDbBlockBegin
  2
KB__-___-8317K-__3_1
 70
0
 10
0.0
 20
0.0
 30
0.0
  3
KB__-___-8317K-__3_1
  1

  0
LINE
  5
41
330
2F
100
AcDbEntity
  8
0
 62
7
100
AcDbLine
 10
0.0
 20
2316.999999999999
 30
0.0
 11
0.0
 21
0.0
 31
0.0
  0
LINE
  5
42
330
2F
100
AcDbEntity
  8
0
 62
7
100
AcDbLine
 10
26.00000009536052
 20
2316.999999999999
 30
0.0
 11
26.00000009536052
 21
2300.80000001192
 31
0.0
  0
LINE
  5
43
330
2F
100
AcDbEntity
  8
0
 62
7
100
AcDbLine
 10
40.20000009537034
 20
2308.800000011921
 30
0.0
 11
40.20000009537034
 21
2300.80000001192
 31
0.0
  0
LINE
  5
44
330
2F
100
AcDbEntity
  8
0
 62
7
100
AcDbLine
 10
71.50000009536052
 20
2316.999999999999
 30
0.0
 11
71.50000009536052
 21
2308.800000011921
 31
0.0
  0
LINE
  5
45
330
2F
100
AcDbEntity
  8
0
 62
7
100
AcDbLine
 10
0.0
 20
2316.999999999999
 30
0.0
 11
26.00000009536052
 21
2316.999999999999
 31
0.0
  0
LINE
  5
46
330
2F
100
AcDbEntity
  8
0
 62
7
100
AcDbLine
 10
71.50000009536052
 20
2316.999999999999
 30
0.0
 11
97.50000019073013
 21
2316.999999999999
 31
0.0
  0
LINE
  5
47
330
2F
100
AcDbEntity
  8
0
 62
7
100
AcDbLine
 10
40.20000009537034
 20
2308.800000011921
 30
0.0
 11
71.50000009536052
 21
2308.800000011921
 31
0.0
  0
LINE
  5
48
330
2F
100
AcDbEntity
  8
0
 62
7
100
AcDbLine
 10
26.00000009536052
 20
2300.80000001192
 30
0.0
 11
40.20000009537034
 21
2300.80000001192
 31
0.0
  0
LINE
  5
49
330
2F
100
AcDbEntity
  8
0
 62
7
100
AcDbLine
 10
0.0
 20
0.0
 30
0.0
 11
26.00000009536052
 21
0.0
 31
0.0
  0
LINE
  5
4A
330
2F
100
AcDbEntity
  8
0
 62
7
100
AcDbLine
 10
71.50000009536052
 20
0.0
 30
0.0
 11
97.50000019073013
 21
0.0
 31
0.0
  0
LINE
  5
4B
330
2F
100
AcDbEntity
  8
0
 62
7
100
AcDbLine
 10
26.00000009536052
 20
0.0
 30
0.0
 11
26.00000009536052
 21
16.19999998807907
 31
0.0
  0
LINE
  5
4C
330
2F
100
AcDbEntity
  8
0
 62
7
100
AcDbLine
 10
40.20000009537034
 20
8.199999988079071
 30
0.0
 11
40.20000009537034
 21
16.19999998807907
 31
0.0
  0
LINE
  5
4D
330
2F
100
AcDbEntity
  8
0
 62
7
100
AcDbLine
 10
71.50000009536052
 20
0.0
 30
0.0
 11
71.50000009536052
 21
8.199999988079071
 31
0.0
  0
LINE
  5
4E
330
2F
100
AcDbEntity
  8
0
 62
7
100
AcDbLine
 10
40.20000009537034
 20
8.199999988079071
 30
0.0
 11
71.50000009536052
 21
8.199999988079071
 31
0.0
  0
LINE
  5
4F
330
2F
100
AcDbEntity
  8
0
 62
7
100
AcDbLine
 10
26.00000009536052
 20
16.19999998807907
 30
0.0
 11
40.20000009537034
 21
16.19999998807907
 31
0.0
  0
CIRCLE
  5
50
330
2F
100
AcDbEntity
  8
0
100
AcDbCircle
 10
48.25000009536052
 20
2067.0
 30
0.0
 40
4.9
  0
CIRCLE
  5
51
330
2F
100
AcDbEntity
  8
0
100
AcDbCircle
 10
48.25000009536052
 20
1158.5
 30
0.0
 40
4.9
  0
CIRCLE
  5
52
330
2F
100
AcDbEntity
  8
0
 62
7
100
AcDbCircle
 10
48.25000009536052
 20
250.0
 30
0.0
 40
4.9
  0
LWPOLYLINE
  5
53
330
2F
100
AcDbEntity
  8
0
 62
0
100
AcDbPolyline
 90
8
 70
0
 10
97.50000019073013
 20
2316.999999999999
 10
97.50000019073013
 20
2218.999999999999
 42
-0.4142135623730951
 10
95.50000019073013
 20
2217.0
 10
93.50000019073013
 20
2217.0
 10
93.50000019073013
 20
2166.999999999999
 10
95.50000019073013
 20
2166.999999999999
 42
-0.4142135623730951
 10
97.50000019073013
 20
2165.0
 10
97.50000019073013
 20
0.0
  0
ENDBLK
  5
31
330
2F
100
AcDbEntity
  8
0
100
AcDbBlockEnd
  0
BLOCK
  5
55
330
54
100
AcDbEntity
  8
0
100
AcDbBlockBegin
  2
KB__-___-8317K-__4_2
 70
0
 10
0.0
 20
0.0
 30
0.0
  3
KB__-___-8317K-__4_2
  1

  0
LINE
  5
57
330
54
100
AcDbEntity
  8
0
 62
7
100
AcDbLine
 10
0.0
 20
2308.800000190736
 30
0.0
 11
0.0
 21
8.199999809265137
 31
0.0
  0
LINE
  5
58
330
54
100
AcDbEntity
  8
0
100
AcDbLine
 10
25.099998474121094
 20
2317.0
 30
0.0
 11
25.099998474121094
 21
2308.80000114441
 31
0.0
  0
LINE
  5
59
330
54
100
AcDbEntity
  8
0
100
AcDbLine
 10
110.5999984741211
 20
2317.0
 30
0.0
 11
110.5999984741211
 21
2300.8000020980844
 31
0.0
  0
LINE
  5
5A
330
54
100
AcDbEntity
  8
0
100
AcDbLine
 10
25.099998474121094
 20
2317.0
 30
0.0
 11
110.5999984741211
 21
2317.0
 31
0.0
  0
LINE
  5
5B
330
54
100
AcDbEntity
  8
0
100
AcDbLine
 10
0.0
 20
2308.800000190736
 30
0.0
 11
25.099998474121094
 21
2308.80000114441
 31
0.0
  0
LINE
  5
5C
330
54
100
AcDbEntity
  8
0
100
AcDbLine
 10
110.5999984741211
 20
2300.8000020980844
 30
0.0
 11
131.69999504088992
 21
2300.800000190736
 31
0.0
  0
LINE
  5
5D
330
54
100
AcDbEntity
  8
0
 62
7
100
AcDbLine
 10
25.099998474121094
 20
0.0
 30
0.0
 11
110.5999984741211
 21
0.0
 31
0.0
  0
CIRCLE
  5
5E
330
54
100
AcDbEntity
  8
0
100
AcDbCircle
 10
58.49999809265137
 20
2312.000000000002
 30
0.0
 40
1.5
  0
CIRCLE
  5
5F
330
54
100
AcDbEntity
  8
0
100
AcDbCircle
 10
78.19999885559082
 20
2312.000000000002
 30
0.0
 40
1.5
  0
LINE
  5
60
330
54
100
AcDbEntity
  8
0
 62
7
100
AcDbLine
 10
25.099998474121094
 20
0.0
 30
0.0
 11
25.099998474121094
 21
8.19999885559173
 31
0.0
  0
LINE
  5
61
330
54
100
AcDbEntity
  8
0
 62
7
100
AcDbLine
 10
110.5999984741211
 20
0.0
 30
0.0
 11
110.5999984741211
 21
16.199997901917413
 31
0.0
  0
LINE
  5
62
330
54
100
AcDbEntity
  8
0
 62
7
100
AcDbLine
 10
0.0
 20
8.199999809265137
 30
0.0
 11
25.099998474121094
 21
8.19999885559173
 31
0.0
  0
LINE
  5
63
330
54
100
AcDbEntity
  8
0
 62
7
100
AcDbLine
 10
110.5999984741211
 20
16.199997901917413
 30
0.0
 11
131.69999313354128
 21
16.199999809265137
 31
0.0
  0
CIRCLE
  5
64
330
54
100
AcDbEntity
  8
0
 62
7
100
AcDbCircle
 10
58.49999809265137
 20
5.0
 30
0.0
 40
1.5
  0
CIRCLE
  5
65
330
54
100
AcDbEntity
  8
0
 62
7
100
AcDbCircle
 10
78.19999885559082
 20
5.0
 30
0.0
 40
1.5
  0
LWPOLYLINE
  5
66
330
54
100
AcDbEntity
  8
0
100
AcDbPolyline
 90
4
 70
1
 10
73.7999973297101
 20
2064.5
 42
0.9999999999999998
 10
73.7999973297101
 20
2069.500000000002
 10
68.7999973297101
 20
2069.500000000002
 42
0.9999999999999998
 10
68.7999973297101
 20
2064.5
  0
LWPOLYLINE
  5
67
330
54
100
AcDbEntity
  8
0
100
AcDbPolyline
 90
4
 70
1
 10
73.79999899865106
 20
1155.9999998807916
 42
0.9999999999999998
 10
73.79999899865106
 20
1160.9999998807916
 10
68.79999899864015
 20
1160.9999998807916
 42
0.9999999999999998
 10
68.79999899864015
 20
1155.9999998807916
  0
LWPOLYLINE
  5
68
330
54
100
AcDbEntity
  8
0
100
AcDbPolyline
 90
4
 70
1
 10
73.7999973297101
 20
247.5
 42
0.9999999999999998
 10
73.7999973297101
 20
252.50000000000182
 10
68.7999973297101
 20
252.50000000000182
 42
0.9999999999999998
 10
68.7999973297101
 20
247.5
  0
LWPOLYLINE
  5
69
330
54
100
AcDbEntity
  8
0
 62
0
100
AcDbPolyline
 90
8
 70
0
 10
131.69999504088992
 20
2300.800000190736
 10
131.69999496173114
 20
2219.000143489234
 42
-0.4142135620891289
 10
129.69999496173114
 20
2217.0001434911737
 10
127.69999495966113
 20
2217.0001434911737
 10
127.69999495966113
 20
2167.0001434911737
 10
129.69999490924965
 20
2167.0001434911737
 42
-0.4142135626570612
 10
131.69999490924965
 20
2165.000143489234
 10
131.69999313354128
 20
16.199999809265137
  0
ENDBLK
  5
56
330
54
100
AcDbEntity
  8
0
100
AcDbBlockEnd
  0
BLOCK
  5
6B
330
6A
100
AcDbEntity
  8
0
100
AcDbBlockBegin
  2
KB__-___-8317K-__5_3
 70
0
 10
0.0
 20
0.0
 30
0.0
  3
KB__-___-8317K-__5_3
  1

  0
LINE
  5
6D
330
6A
100
AcDbEntity
  8
0
 62
7
100
AcDbLine
 10
0.0
 20
2300.999999999999
 30
0.0
 11
0.0
 21
0.0
 31
0.0
  0
LINE
  5
6E
330
6A
100
AcDbEntity
  8
0
 62
7
100
AcDbLine
 10
65.90000000000146
 20
2300.999999999999
 30
0.0
 11
65.90000000000146
 21
2294.699999999998
 31
0.0
  0
LINE
  5
6F
330
6A
100
AcDbEntity
  8
0
 62
7
100
AcDbLine
 10
65.90000000000146
 20
6.300000000001091
 30
0.0
 11
65.90000000000146
 21
0.0
 31
0.0
  0
LINE
  5
70
330
6A
100
AcDbEntity
  8
0
 62
7
100
AcDbLine
 10
128.60000000000036
 20
2300.999999999998
 30
0.0
 11
128.60000000000036
 21
2294.7000000000007
 31
0.0
  0
LINE
  5
71
330
6A
100
AcDbEntity
  8
0
 62
7
100
AcDbLine
 10
128.60000000000036
 20
6.299999999998363
 30
0.0
 11
128.60000000000036
 21
0.0
 31
0.0
  0
LINE
  5
72
330
6A
100
AcDbEntity
  8
0
 62
7
100
AcDbLine
 10
137.90000000000146
 20
2294.699999999998
 30
0.0
 11
137.90000000000146
 21
6.300000000001091
 31
0.0
  0
LINE
  5
73
330
6A
100
AcDbEntity
  8
0
 62
7
100
AcDbLine
 10
0.0
 20
2300.999999999999
 30
0.0
 11
8.200000000000728
 21
2300.999999999998
 31
0.0
  0
LINE
  5
74
330
6A
100
AcDbEntity
  8
0
 62
7
100
AcDbLine
 10
55.50000000002001
 20
2300.999999999998
 30
0.0
 11
65.90000000000146
 21
2300.999999999998
 31
0.0
  0
LINE
  5
75
330
6A
100
AcDbEntity
  8
0
 62
7
100
AcDbLine
 10
75.70000000001164
 20
2300.999999999998
 30
0.0
 11
128.60000000000036
 21
2300.999999999998
 31
0.0
  0
LINE
  5
76
330
6A
100
AcDbEntity
  8
0
 62
7
100
AcDbLine
 10
65.90000000000146
 20
2294.699999999998
 30
0.0
 11
75.70000000001164
 21
2294.699999999998
 31
0.0
  0
LINE
  5
77
330
6A
100
AcDbEntity
  8
0
 62
7
100
AcDbLine
 10
128.60000000001128
 20
2294.7000000000007
 30
0.0
 11
137.90000000000146
 21
2294.699999999998
 31
0.0
  0
LINE
  5
78
330
6A
100
AcDbEntity
  8
0
 62
7
100
AcDbLine
 10
8.200000000011642
 20
2292.7000000000007
 30
0.0
 11
55.500000000010914
 21
2292.7000000000007
 31
0.0
  0
LINE
  5
79
330
6A
100
AcDbEntity
  8
0
 62
7
100
AcDbLine
 10
0.0
 20
0.0
 30
0.0
 11
8.200000000011642
 21
0.0
 31
0.0
  0
LINE
  5
7A
330
6A
100
AcDbEntity
  8
0
 62
7
100
AcDbLine
 10
55.500000000010914
 20
9.094947017729282e-13
 30
0.0
 11
65.90000000000146
 21
9.094947017729282e-13
 31
0.0
  0
LINE
  5
7B
330
6A
100
AcDbEntity
  8
0
 62
7
100
AcDbLine
 10
75.70000000000073
 20
0.0
 30
0.0
 11
128.60000000000036
 21
0.0
 31
0.0
  0
LINE
  5
7C
330
6A
100
AcDbEntity
  8
0
 62
7
100
AcDbLine
 10
8.200000000000728
 20
2300.999999999999
 30
0.0
 11
8.200000000000728
 21
2292.7000000000007
 31
0.0
  0
LINE
  5
7D
330
6A
100
AcDbEntity
  8
0
 62
7
100
AcDbLine
 10
55.500000000010914
 20
2300.999999999999
 30
0.0
 11
55.500000000010914
 21
2292.7000000000007
 31
0.0
  0
LINE
  5
7E
330
6A
100
AcDbEntity
  8
0
 62
7
100
AcDbLine
 10
75.70000000001164
 20
2300.999999999998
 30
0.0
 11
75.70000000001164
 21
2294.699999999998
 31
0.0
  0
LINE
  5
7F
330
6A
100
AcDbEntity
  8
0
 62
7
100
AcDbLine
 10
65.90000000000146
 20
6.300000000001091
 30
0.0
 11
75.70000000001164
 21
6.300000000001091
 31
0.0
  0
LINE
  5
80
330
6A
100
AcDbEntity
  8
0
 62
7
100
AcDbLine
 10
128.60000000001128
 20
6.299999999998363
 30
0.0
 11
137.90000000000146
 21
6.300000000001091
 31
0.0
  0
LINE
  5
81
330
6A
100
AcDbEntity
  8
0
 62
7
100
AcDbLine
 10
8.200000000011642
 20
8.300000000001091
 30
0.0
 11
55.500000000010914
 21
8.300000000001091
 31
0.0
  0
LINE
  5
82
330
6A
100
AcDbEntity
  8
0
 62
7
100
AcDbLine
 10
8.200000000000728
 20
0.0
 30
0.0
 11
8.200000000000728
 21
8.300000000001091
 31
0.0
  0
LINE
  5
83
330
6A
100
AcDbEntity
  8
0
 62
7
100
AcDbLine
 10
55.500000000010914
 20
0.0
 30
0.0
 11
55.500000000010914
 21
8.300000000001091
 31
0.0
  0
LINE
  5
84
330
6A
100
AcDbEntity
  8
0
 62
7
100
AcDbLine
 10
75.70000000001164
 20
9.094947017729282e-13
 30
0.0
 11
75.70000000001164
 21
6.300000000001091
 31
0.0
  0
ENDBLK
  5
6C
330
6A
100
AcDbEntity
  8
0
100
AcDbBlockEnd
  0
BLOCK
  5
86
330
85
100
AcDbEntity
  8
0
100
AcDbBlockBegin
  2
KB__-___-8317K-__6_4
 70
0
 10
0.0
 20
0.0
 30
0.0
  3
KB__-___-8317K-__6_4
  1

  0
LINE
  5
88
330
85
100
AcDbEntity
  8
BG&E - DIMENSIONS
 62
7
100
AcDbLine
 10
0.0
 20
2264.800000011921
 30
0.0
 11
0.0
 21
12.200000047684625
 31
0.0
  0
LINE
  5
89
330
85
100
AcDbEntity
  8
0
100
AcDbLine
 10
8.59999990462893
 20
2276.999999999999
 30
0.0
 11
8.59999990462893
 21
2264.800000011921
 31
0.0
  0
LINE
  5
8A
330
85
100
AcDbEntity
  8
0
100
AcDbLine
 10
71.59999990462893
 20
2276.999999999999
 30
0.0
 11
71.59999990462893
 21
2264.800000011921
 31
0.0
  0
LINE
  5
8B
330
85
100
AcDbEntity
  8
0
100
AcDbLine
 10
8.59999990462893
 20
2276.999999999999
 30
0.0
 11
30.799999952309008
 21
2276.999999999999
 31
0.0
  0
LINE
  5
8C
330
85
100
AcDbEntity
  8
0
100
AcDbLine
 10
49.39999985693976
 20
2276.999999999999
 30
0.0
 11
71.59999990462893
 21
2276.999999999999
 31
0.0
  0
LINE
  5
8D
330
85
100
AcDbEntity
  8
0
100
AcDbLine
 10
30.799999952309008
 20
2273.400000035762
 30
0.0
 11
49.39999985693976
 21
2273.400000035762
 31
0.0
  0
LINE
  5
8E
330
85
100
AcDbEntity
  8
0
100
AcDbLine
 10
0.0
 20
2264.800000011921
 30
0.0
 11
8.59999990462893
 21
2264.800000011921
 31
0.0
  0
LINE
  5
8F
330
85
100
AcDbEntity
  8
0
100
AcDbLine
 10
71.59999990462893
 20
2264.800000011921
 30
0.0
 11
88.19999980925968
 21
2264.800000011921
 31
0.0
  0
LINE
  5
90
330
85
100
AcDbEntity
  8
0
 62
7
100
AcDbLine
 10
8.59999990462893
 20
0.0
 30
0.0
 11
30.799999952309008
 21
0.0
 31
0.0
  0
LINE
  5
91
330
85
100
AcDbEntity
  8
0
 62
7
100
AcDbLine
 10
49.39999985693976
 20
0.0
 30
0.0
 11
71.59999990462893
 21
0.0
 31
0.0
  0
LINE
  5
92
330
85
100
AcDbEntity
  8
0
100
AcDbLine
 10
49.39999985693976
 20
2273.400000035762
 30
0.0
 11
49.39999985693976
 21
2276.999999999999
 31
0.0
  0
LINE
  5
93
330
85
100
AcDbEntity
  8
0
100
AcDbLine
 10
30.799999952309008
 20
2273.400000035762
 30
0.0
 11
30.799999952309008
 21
2276.999999999999
 31
0.0
  0
LINE
  5
94
330
85
100
AcDbEntity
  8
0
 62
7
100
AcDbLine
 10
8.59999990462893
 20
0.0
 30
0.0
 11
8.59999990462893
 21
12.200000047684625
 31
0.0
  0
LINE
  5
95
330
85
100
AcDbEntity
  8
0
 62
7
100
AcDbLine
 10
71.59999990462893
 20
0.0
 30
0.0
 11
71.59999990462893
 21
12.200000047684625
 31
0.0
  0
LINE
  5
96
330
85
100
AcDbEntity
  8
0
 62
7
100
AcDbLine
 10
30.799999952309008
 20
3.6000000238409484
 30
0.0
 11
49.39999985693976
 21
3.6000000238409484
 31
0.0
  0
LINE
  5
97
330
85
100
AcDbEntity
  8
0
 62
7
100
AcDbLine
 10
0.0
 20
12.200000047684625
 30
0.0
 11
8.59999990462893
 21
12.200000047684625
 31
0.0
  0
LINE
  5
98
330
85
100
AcDbEntity
  8
0
 62
7
100
AcDbLine
 10
71.59999990462893
 20
12.200000047684625
 30
0.0
 11
88.19999980925968
 21
12.200000047684625
 31
0.0
  0
LINE
  5
99
330
85
100
AcDbEntity
  8
0
 62
7
100
AcDbLine
 10
49.39999985693976
 20
3.6000000238409484
 30
0.0
 11
49.39999985693976
 21
0.0
 31
0.0
  0
LINE
  5
9A
330
85
100
AcDbEntity
  8
0
 62
7
100
AcDbLine
 10
30.799999952309008
 20
3.6000000238409484
 30
0.0
 11
30.799999952309008
 21
0.0
 31
0.0
  0
LWPOLYLINE
  5
9B
330
85
100
AcDbEntity
  8
0
 62
0
100
AcDbPolyline
 90
8
 70
0
 10
88.19999980925968
 20
2264.800000011921
 10
88.19999980925968
 20
2178.999999999999
 42
-0.4142135623730951
 10
86.19999980925968
 20
2177.0
 10
84.19999980925968
 20
2177.0
 10
84.19999980925968
 20
2127.0
 10
86.19999980925968
 20
2127.0
 42
-0.4142135623730951
 10
88.19999980925968
 20
2125.0
 10
88.19999980925968
 20
12.200000047684625
  0
ENDBLK
  5
87
330
85
100
AcDbEntity
  8
0
100
AcDbBlockEnd
  0
BLOCK
  5
9D
330
9C
100
AcDbEntity
  8
0
100
AcDbBlockBegin
  2
KB__-___-8317K-__7_5
 70
0
 10
0.0
 20
0.0
 30
0.0
  3
KB__-___-8317K-__7_5
  1

  0
LINE
  5
9F
330
9C
100
AcDbEntity
  8
BG&E - DIMENSIONS
 62
7
100
AcDbLine
 10
0.0
 20
2264.800000011921
 30
0.0
 11
0.0
 21
12.200000047684625
 31
0.0
  0
LINE
  5
A0
330
9C
100
AcDbEntity
  8
0
100
AcDbLine
 10
8.59999990463075
 20
2276.999999999999
 30
0.0
 11
8.59999990463075
 21
2264.800000011921
 31
0.0
  0
LINE
  5
A1
330
9C
100
AcDbEntity
  8
0
100
AcDbLine
 10
71.59999990463075
 20
2276.999999999999
 30
0.0
 11
71.59999990463075
 21
2264.800000011921
 31
0.0
  0
LINE
  5
A2
330
9C
100
AcDbEntity
  8
0
100
AcDbLine
 10
8.59999990463075
 20
2276.999999999999
 30
0.0
 11
30.799999952319922
 21
2276.999999999999
 31
0.0
  0
LINE
  5
A3
330
9C
100
AcDbEntity
  8
0
100
AcDbLine
 10
49.39999985695067
 20
2276.999999999999
 30
0.0
 11
71.59999990463075
 21
2276.999999999999
 31
0.0
  0
LINE
  5
A4
330
9C
100
AcDbEntity
  8
0
100
AcDbLine
 10
30.799999952319922
 20
2273.400000035762
 30
0.0
 11
49.39999985695067
 21
2273.400000035762
 31
0.0
  0
LINE
  5
A5
330
9C
100
AcDbEntity
  8
0
100
AcDbLine
 10
0.0
 20
2264.800000011921
 30
0.0
 11
8.59999990463075
 21
2264.800000011921
 31
0.0
  0
LINE
  5
A6
330
9C
100
AcDbEntity
  8
0
100
AcDbLine
 10
71.59999990463075
 20
2264.800000011921
 30
0.0
 11
88.19999980925968
 21
2264.800000011921
 31
0.0
  0
LINE
  5
A7
330
9C
100
AcDbEntity
  8
0
 62
7
100
AcDbLine
 10
8.59999990463075
 20
0.0
 30
0.0
 11
30.799999952319922
 21
0.0
 31
0.0
  0
LINE
  5
A8
330
9C
100
AcDbEntity
  8
0
 62
7
100
AcDbLine
 10
49.39999985695067
 20
0.0
 30
0.0
 11
71.59999990463075
 21
0.0
 31
0.0
  0
LINE
  5
A9
330
9C
100
AcDbEntity
  8
0
100
AcDbLine
 10
49.39999985695067
 20
2273.400000035762
 30
0.0
 11
49.39999985695067
 21
2276.999999999999
 31
0.0
  0
LINE
  5
AA
330
9C
100
AcDbEntity
  8
0
100
AcDbLine
 10
30.799999952319922
 20
2273.400000035762
 30
0.0
 11
30.799999952319922
 21
2276.999999999999
 31
0.0
  0
LINE
  5
AB
330
9C
100
AcDbEntity
  8
0
 62
7
100
AcDbLine
 10
8.59999990463075
 20
0.0
 30
0.0
 11
8.59999990463075
 21
12.200000047684625
 31
0.0
  0
LINE
  5
AC
330
9C
100
AcDbEntity
  8
0
 62
7
100
AcDbLine
 10
71.59999990463075
 20
0.0
 30
0.0
 11
71.59999990463075
 21
12.200000047684625
 31
0.0
  0
LINE
  5
AD
330
9C
100
AcDbEntity
  8
0
 62
7
100
AcDbLine
 10
30.799999952319922
 20
3.6000000238409484
 30
0.0
 11
49.39999985695067
 21
3.6000000238409484
 31
0.0
  0
LINE
  5
AE
330
9C
100
AcDbEntity
  8
0
 62
7
100
AcDbLine
 10
0.0
 20
12.200000047684625
 30
0.0
 11
8.59999990463075
 21
12.200000047684625
 31
0.0
  0
LINE
  5
AF
330
9C
100
AcDbEntity
  8
0
 62
7
100
AcDbLine
 10
71.59999990463075
 20
12.200000047684625
 30
0.0
 11
88.19999980925968
 21
12.200000047684625
 31
0.0
  0
LINE
  5
B0
330
9C
100
AcDbEntity
  8
0
 62
7
100
AcDbLine
 10
49.39999985695067
 20
3.6000000238409484
 30
0.0
 11
49.39999985695067
 21
0.0
 31
0.0
  0
LINE
  5
B1
330
9C
100
AcDbEntity
  8
0
 62
7
100
AcDbLine
 10
30.799999952319922
 20
3.6000000238409484
 30
0.0
 11
30.799999952319922
 21
0.0
 31
0.0
  0
LWPOLYLINE
  5
B2
330
9C
100
AcDbEntity
  8
0
 62
0
100
AcDbPolyline
 90
8
 70
0
 10
88.19999980925968
 20
2264.800000011921
 10
88.19999980925968
 20
2178.999999999999
 42
-0.4142135623730951
 10
86.19999980925968
 20
2177.0
 10
84.19999980925968
 20
2177.0
 10
84.19999980925968
 20
2127.0
 10
86.19999980925968
 20
2127.0
 42
-0.4142135623730951
 10
88.19999980925968
 20
2125.0
 10
88.19999980925968
 20
12.200000047684625
  0
ENDBLK
  5
9E
330
9C
100
AcDbEntity
  8
0
100
AcDbBlockEnd
  0
BLOCK
  5
B4
330
B3
100
AcDbEntity
  8
0
100
AcDbBlockBegin
  2
KB__-___-8317K-__8_6
 70
0
 10
0.0
 20
0.0
 30
0.0
  3
KB__-___-8317K-__8_6
  1

  0
LINE
  5
B6
330
B3
100
AcDbEntity
  8
BG&E - DIMENSIONS
100
AcDbLine
 10
0.0
 20
700.0
 30
0.0
 11
0.0
 21
2.0000000000009095
 31
0.0
  0
ARC
  5
B7
330
B3
100
AcDbEntity
  8
0
 62
0
100
AcDbCircle
 10
2.0
 20
2.0000000000009095
 30
0.0
 40
2.0
100
AcDbArc
 50
180.0
 51
-90.00000000000001
  0
LINE
  5
B8
330
B3
100
AcDbEntity
  8
0
100
AcDbLine
 10
19.399999380109875
 20
700.0
 30
0.0
 11
19.399999380109875
 21
685.6451109647751
 31
0.0
  0
LINE
  5
B9
330
B3
100
AcDbEntity
  8
0
100
AcDbLine
 10
36.69999861717042
 20
700.0
 30
0.0
 11
36.69999861717042
 21
685.6451109647751
 31
0.0
  0
LINE
  5
BA
330
B3
100
AcDbEntity
  8
BG&E - DIMENSIONS
100
AcDbLine
 10
67.59999775887081
 20
698.0000000000009
 30
0.0
 11
67.59999775887081
 21
4.0000000000009095
 31
0.0
  0
ARC
  5
BB
330
B3
100
AcDbEntity
  8
0
 62
0
100
AcDbCircle
 10
65.59999775887081
 20
4.0000000000009095
 30
0.0
 40
2.0
100
AcDbArc
 50
-90.00000000000001
 51
0.0
  0
LINE
  5
BC
330
B3
100
AcDbEntity
  8
0
100
AcDbLine
 10
0.0
 20
700.0
 30
0.0
 11
19.399999380109875
 21
700.0
 31
0.0
  0
LINE
  5
BD
330
B3
100
AcDbEntity
  8
0
100
AcDbLine
 10
36.69999861717042
 20
700.0
 30
0.0
 11
56.59999775887081
 21
700.0
 31
0.0
  0
LINE
  5
BE
330
B3
100
AcDbEntity
  8
0
100
AcDbLine
 10
2.0
 20
0.0
 30
0.0
 11
56.59999775887081
 21
0.0
 31
0.0
  0
ARC
  5
BF
330
B3
100
AcDbEntity
  8
0
100
AcDbCircle
 10
28.04999899864015
 20
685.6499996185312
 30
0.0
 40
8.650001
100
AcDbArc
 50
180.0
 51
0.0
  0
LWPOLYLINE
  5
C0
330
B3
100
AcDbEntity
  8
0
100
AcDbPolyline
 90
4
 70
1
 10
30.80011940002987
 20
670.0500571131724
 42
0.9999999999999998
 10
25.30011940002987
 20
670.0500571131724
 10
25.30011940002987
 20
667.5500571131715
 42
0.9999999999999998
 10
30.80011940002987
 20
667.5500571131715
  0
LWPOLYLINE
  5
C1
330
B3
100
AcDbEntity
  8
0
100
AcDbPolyline
 90
4
 70
1
 10
30.80004310608092
 20
655.0500211119661
 42
0.9999999999999998
 10
25.30004310608092
 20
655.0500211119661
 10
25.30004310608092
 20
652.5500211119652
 42
0.9999999999999998
 10
30.80004310608092
 20
652.5500211119652
  0
LWPOLYLINE
  5
C2
330
B3
100
AcDbEntity
  8
0
100
AcDbPolyline
 90
4
 70
1
 10
30.80004310608092
 20
47.45002073049636
 42
0.9999999999999998
 10
25.30004310608092
 20
47.45002073049636
 10
25.30004310608092
 20
44.95002073049727
 42
0.9999999999999998
 10
30.80004310608092
 20
44.95002073049727
  0
LWPOLYLINE
  5
C3
330
B3
100
AcDbEntity
  8
0
100
AcDbPolyline
 90
4
 70
1
 10
30.80004310608092
 20
32.45002073049636
 42
0.9999999999999998
 10
25.30004310608092
 20
32.45002073049636
 10
25.30004310608092
 20
29.950020730496362
 42
0.9999999999999998
 10
30.80004310608092
 20
29.950020730496362
  0
LINE
  5
C4
330
B3
100
AcDbEntity
  8
0
100
AcDbLine
 10
67.59999775887081
 20
698.0000000000009
 30
0.0
 11
56.59999775887081
 21
698.0000000000009
 31
0.0
  0
LINE
  5
C5
330
B3
100
AcDbEntity
  8
0
100
AcDbLine
 10
56.59999775887081
 20
698.0000000000009
 30
0.0
 11
56.59999775887081
 21
700.0
 31
0.0
  0
LINE
  5
C6
330
B3
100
AcDbEntity
  8
0
100
AcDbLine
 10
65.59999775887081
 20
2.0000000000009095
 30
0.0
 11
56.59999775887081
 21
2.0000000000009095
 31
0.0
  0
LINE
  5
C7
330
B3
100
AcDbEntity
  8
0
100
AcDbLine
 10
56.59999775887081
 20
2.0000000000009095
 30
0.0
 11
56.59999775887081
 21
0.0
 31
0.0
  0
ENDBLK
  5
B5
330
B3
100
AcDbEntity
  8
0
100
AcDbBlockEnd
  0
BLOCK
  5
C9
330
C8
100
AcDbEntity
  8
0
100
AcDbBlockBegin
  2
KB__-___-8317K-__11_7
 70
0
 10
0.0
 20
0.0
 30
0.0
  3
KB__-___-8317K-__11_7
  1

  0
LINE
  5
CB
330
C8
100
AcDbEntity
  8
0
 62
7
100
AcDbLine
 10
0.0
 20
2316.999999999999
 30
0.0
 11
0.0
 21
0.0
 31
0.0
  0
LINE
  5
CC
330
C8
100
AcDbEntity
  8
0
 62
7
100
AcDbLine
 10
26.000000095369614
 20
2316.999999999999
 30
0.0
 11
26.000000095369614
 21
2300.80000001192
 31
0.0
  0
LINE
  5
CD
330
C8
100
AcDbEntity
  8
0
 62
7
100
AcDbLine
 10
40.200000095366704
 20
2308.800000011921
 30
0.0
 11
40.200000095366704
 21
2300.80000001192
 31
0.0
  0
LINE
  5
CE
330
C8
100
AcDbEntity
  8
0
 62
7
100
AcDbLine
 10
71.50000009536961
 20
2316.999999999999
 30
0.0
 11
71.50000009536961
 21
2308.800000011921
 31
0.0
  0
LINE
  5
CF
330
C8
100
AcDbEntity
  8
0
 62
7
100
AcDbLine
 10
0.0
 20
2316.999999999999
 30
0.0
 11
26.000000095369614
 21
2316.999999999999
 31
0.0
  0
LINE
  5
D0
330
C8
100
AcDbEntity
  8
0
 62
7
100
AcDbLine
 10
71.50000009536961
 20
2316.999999999999
 30
0.0
 11
97.50000019072831
 21
2316.999999999999
 31
0.0
  0
LINE
  5
D1
330
C8
100
AcDbEntity
  8
0
 62
7
100
AcDbLine
 10
40.200000095366704
 20
2308.800000011921
 30
0.0
 11
71.50000009536961
 21
2308.800000011921
 31
0.0
  0
LINE
  5
D2
330
C8
100
AcDbEntity
  8
0
 62
7
100
AcDbLine
 10
26.000000095369614
 20
2300.80000001192
 30
0.0
 11
40.200000095366704
 21
2300.80000001192
 31
0.0
  0
LINE
  5
D3
330
C8
100
AcDbEntity
  8
0
 62
7
100
AcDbLine
 10
0.0
 20
0.0
 30
0.0
 11
26.000000095369614
 21
0.0
 31
0.0
  0
LINE
  5
D4
330
C8
100
AcDbEntity
  8
0
 62
7
100
AcDbLine
 10
71.50000009536961
 20
0.0
 30
0.0
 11
97.50000019072831
 21
0.0
 31
0.0
  0
LINE
  5
D5
330
C8
100
AcDbEntity
  8
0
 62
7
100
AcDbLine
 10
26.000000095369614
 20
0.0
 30
0.0
 11
26.000000095369614
 21
16.19999998807907
 31
0.0
  0
LINE
  5
D6
330
C8
100
AcDbEntity
  8
0
 62
7
100
AcDbLine
 10
40.200000095366704
 20
8.199999988079071
 30
0.0
 11
40.200000095366704
 21
16.19999998807907
 31
0.0
  0
LINE
  5
D7
330
C8
100
AcDbEntity
  8
0
 62
7
100
AcDbLine
 10
71.50000009536961
 20
0.0
 30
0.0
 11
71.50000009536961
 21
8.199999988079071
 31
0.0
  0
LINE
  5
D8
330
C8
100
AcDbEntity
  8
0
 62
7
100
AcDbLine
 10
40.200000095366704
 20
8.199999988079071
 30
0.0
 11
71.50000009536961
 21
8.199999988079071
 31
0.0
  0
LINE
  5
D9
330
C8
100
AcDbEntity
  8
0
 62
7
100
AcDbLine
 10
26.000000095369614
 20
16.19999998807907
 30
0.0
 11
40.200000095366704
 21
16.19999998807907
 31
0.0
  0
CIRCLE
  5
DA
330
C8
100
AcDbEntity
  8
0
100
AcDbCircle
 10
48.250000095369614
 20
2067.0
 30
0.0
 40
4.9
  0
CIRCLE
  5
DB
330
C8
100
AcDbEntity
  8
0
100
AcDbCircle
 10
48.250000095369614
 20
1158.5
 30
0.0
 40
4.9
  0
CIRCLE
  5
DC
330
C8
100
AcDbEntity
  8
0
 62
7
100
AcDbCircle
 10
48.250000095369614
 20
250.0
 30
0.0
 40
4.9
  0
LWPOLYLINE
  5
DD
330
C8
100
AcDbEntity
  8
0
 62
0
100
AcDbPolyline
 90
8
 70
0
 10
97.50000019072831
 20
2316.999999999999
 10
97.50000019072831
 20
2218.999999999999
 42
-0.4142135623730951
 10
95.50000019072831
 20
2217.0
 10
93.50000019072831
 20
2217.0
 10
93.50000019072831
 20
2166.999999999999
 10
95.50000019072831
 20
2166.999999999999
 42
-0.4142135623730951
 10
97.50000019072831
 20
2165.0
 10
97.50000019072831
 20
0.0
  0
ENDBLK
  5
CA
330
C8
100
AcDbEntity
  8
0
100
AcDbBlockEnd
  0
BLOCK
  5
DF
330
DE
100
AcDbEntity
  8
0
100
AcDbBlockBegin
  2
KB__-___-8317K-__12_8
 70
0
 10
0.0
 20
0.0
 30
0.0
  3
KB__-___-8317K-__12_8
  1

  0
LINE
  5
E1
330
DE
100
AcDbEntity
  8
0
 62
7
100
AcDbLine
 10
0.0
 20
2311.800000190736
 30
0.0
 11
0.0
 21
8.199999809265137
 31
0.0
  0
LINE
  5
E2
330
DE
100
AcDbEntity
  8
0
100
AcDbLine
 10
25.099998474117456
 20
2320.0
 30
0.0
 11
25.099998474117456
 21
2311.80000114441
 31
0.0
  0
LINE
  5
E3
330
DE
100
AcDbEntity
  8
0
100
AcDbLine
 10
110.59999847411746
 20
2320.0
 30
0.0
 11
110.59999847411746
 21
2303.8000020980844
 31
0.0
  0
LINE
  5
E4
330
DE
100
AcDbEntity
  8
0
100
AcDbLine
 10
25.099998474117456
 20
2320.0
 30
0.0
 11
110.59999847411746
 21
2320.0
 31
0.0
  0
LINE
  5
E5
330
DE
100
AcDbEntity
  8
0
100
AcDbLine
 10
0.0
 20
2311.800000190736
 30
0.0
 11
25.099998474117456
 21
2311.80000114441
 31
0.0
  0
LINE
  5
E6
330
DE
100
AcDbEntity
  8
0
100
AcDbLine
 10
110.59999847411746
 20
2303.8000020980844
 30
0.0
 11
131.6999950408972
 21
2303.800000190736
 31
0.0
  0
LINE
  5
E7
330
DE
100
AcDbEntity
  8
0
 62
7
100
AcDbLine
 10
25.099998474117456
 20
0.0
 30
0.0
 11
110.59999847411746
 21
0.0
 31
0.0
  0
CIRCLE
  5
E8
330
DE
100
AcDbEntity
  8
0
100
AcDbCircle
 10
58.49999809264773
 20
2315.000000000002
 30
0.0
 40
1.5
  0
CIRCLE
  5
E9
330
DE
100
AcDbEntity
  8
0
100
AcDbCircle
 10
78.19999885558718
 20
2315.000000000002
 30
0.0
 40
1.5
  0
LINE
  5
EA
330
DE
100
AcDbEntity
  8
0
 62
7
100
AcDbLine
 10
25.099998474117456
 20
0.0
 30
0.0
 11
25.099998474117456
 21
8.19999885559173
 31
0.0
  0
LINE
  5
EB
330
DE
100
AcDbEntity
  8
0
 62
7
100
AcDbLine
 10
110.59999847411746
 20
0.0
 30
0.0
 11
110.59999847411746
 21
16.199997901917413
 31
0.0
  0
LINE
  5
EC
330
DE
100
AcDbEntity
  8
0
 62
7
100
AcDbLine
 10
0.0
 20
8.199999809265137
 30
0.0
 11
25.099998474117456
 21
8.19999885559173
 31
0.0
  0
LINE
  5
ED
330
DE
100
AcDbEntity
  8
0
 62
7
100
AcDbLine
 10
110.59999847411746
 20
16.199997901917413
 30
0.0
 11
131.69999313354856
 21
16.199999809265137
 31
0.0
  0
CIRCLE
  5
EE
330
DE
100
AcDbEntity
  8
0
 62
7
100
AcDbCircle
 10
58.49999809264773
 20
5.0
 30
0.0
 40
1.5
  0
CIRCLE
  5
EF
330
DE
100
AcDbEntity
  8
0
 62
7
100
AcDbCircle
 10
78.19999885558718
 20
5.0
 30
0.0
 40
1.5
  0
LWPOLYLINE
  5
F0
330
DE
100
AcDbEntity
  8
0
100
AcDbPolyline
 90
4
 70
1
 10
73.79999732971919
 20
2067.5
 42
0.9999999999999998
 10
73.79999732971919
 20
2072.500000000002
 10
68.79999732971919
 20
2072.500000000002
 42
0.9999999999999998
 10
68.79999732971919
 20
2067.5
  0
LWPOLYLINE
  5
F1
330
DE
100
AcDbEntity
  8
0
100
AcDbPolyline
 90
4
 70
1
 10
73.79999899864924
 20
1158.9999998807916
 42
0.9999999999999998
 10
73.79999899864924
 20
1163.9999998807916
 10
68.79999899864924
 20
1163.9999998807916
 42
0.9999999999999998
 10
68.79999899864924
 20
1158.9999998807916
  0
LWPOLYLINE
  5
F2
330
DE
100
AcDbEntity
  8
0
100
AcDbPolyline
 90
4
 70
1
 10
73.79999732971919
 20
250.5
 42
0.9999999999999998
 10
73.79999732971919
 20
255.50000000000182
 10
68.79999732971919
 20
255.50000000000182
 42
0.9999999999999998
 10
68.79999732971919
 20
250.5
  0
LWPOLYLINE
  5
F3
330
DE
100
AcDbEntity
  8
0
 62
0
100
AcDbPolyline
 90
8
 70
0
 10
131.6999950408972
 20
2303.800000190736
 10
131.6999949617384
 20
2222.000143489234
 42
-0.4142135620891289
 10
129.6999949617384
 20
2220.0001434911737
 10
127.6999949596684
 20
2220.0001434911737
 10
127.6999949596684
 20
2170.0001434911737
 10
129.69999490925693
 20
2170.0001434911737
 42
-0.4142135626570612
 10
131.69999490925693
 20
2168.000143489234
 10
131.69999313354856
 20
16.199999809265137
  0
ENDBLK
  5
E0
330
DE
100
AcDbEntity
  8
0
100
AcDbBlockEnd
  0
BLOCK
  5
F5
330
F4
100
AcDbEntity
  8
0
100
AcDbBlockBegin
  2
KB__-___-8317K-__13_9
 70
0
 10
0.0
 20
0.0
 30
0.0
  3
KB__-___-8317K-__13_9
  1

  0
LINE
  5
F7
330
F4
100
AcDbEntity
  8
0
 62
7
100
AcDbLine
 10
0.0
 20
2300.999999999999
 30
0.0
 11
0.0
 21
0.0
 31
0.0
  0
LINE
  5
F8
330
F4
100
AcDbEntity
  8
0
 62
7
100
AcDbLine
 10
65.90000000000146
 20
2300.999999999999
 30
0.0
 11
65.90000000000146
 21
2294.699999999998
 31
0.0
  0
LINE
  5
F9
330
F4
100
AcDbEntity
  8
0
 62
7
100
AcDbLine
 10
65.90000000000146
 20
6.300000000001091
 30
0.0
 11
65.90000000000146
 21
0.0
 31
0.0
  0
LINE
  5
FA
330
F4
100
AcDbEntity
  8
0
 62
7
100
AcDbLine
 10
128.60000000000218
 20
2300.999999999998
 30
0.0
 11
128.60000000000218
 21
2294.7000000000007
 31
0.0
  0
LINE
  5
FB
330
F4
100
AcDbEntity
  8
0
 62
7
100
AcDbLine
 10
128.60000000000218
 20
6.299999999998363
 30
0.0
 11
128.60000000000218
 21
0.0
 31
0.0
  0
LINE
  5
FC
330
F4
100
AcDbEntity
  8
0
 62
7
100
AcDbLine
 10
137.90000000000146
 20
2294.699999999998
 30
0.0
 11
137.90000000000146
 21
6.300000000001091
 31
0.0
  0
LINE
  5
FD
330
F4
100
AcDbEntity
  8
0
 62
7
100
AcDbLine
 10
0.0
 20
2300.999999999999
 30
0.0
 11
8.200000000000728
 21
2300.999999999998
 31
0.0
  0
LINE
  5
FE
330
F4
100
AcDbEntity
  8
0
 62
7
100
AcDbLine
 10
55.500000000010914
 20
2300.999999999998
 30
0.0
 11
65.90000000000146
 21
2300.999999999998
 31
0.0
  0
LINE
  5
FF
330
F4
100
AcDbEntity
  8
0
 62
7
100
AcDbLine
 10
75.70000000000073
 20
2300.999999999998
 30
0.0
 11
128.60000000000218
 21
2300.999999999998
 31
0.0
  0
LINE
  5
100
330
F4
100
AcDbEntity
  8
0
 62
7
100
AcDbLine
 10
65.90000000000146
 20
2294.699999999998
 30
0.0
 11
75.70000000000073
 21
2294.699999999998
 31
0.0
  0
LINE
  5
101
330
F4
100
AcDbEntity
  8
0
 62
7
100
AcDbLine
 10
128.60000000000218
 20
2294.7000000000007
 30
0.0
 11
137.90000000000146
 21
2294.699999999998
 31
0.0
  0
LINE
  5
102
330
F4
100
AcDbEntity
  8
0
 62
7
100
AcDbLine
 10
8.200000000000728
 20
2292.7000000000007
 30
0.0
 11
55.500000000010914
 21
2292.7000000000007
 31
0.0
  0
LINE
  5
103
330
F4
100
AcDbEntity
  8
0
 62
7
100
AcDbLine
 10
0.0
 20
0.0
 30
0.0
 11
8.200000000000728
 21
0.0
 31
0.0
  0
LINE
  5
104
330
F4
100
AcDbEntity
  8
0
 62
7
100
AcDbLine
 10
55.500000000010914
 20
9.094947017729282e-13
 30
0.0
 11
65.90000000000146
 21
9.094947017729282e-13
 31
0.0
  0
LINE
  5
105
330
F4
100
AcDbEntity
  8
0
 62
7
100
AcDbLine
 10
75.69999999998981
 20
0.0
 30
0.0
 11
128.60000000000218
 21
0.0
 31
0.0
  0
LINE
  5
106
330
F4
100
AcDbEntity
  8
0
 62
7
100
AcDbLine
 10
8.200000000000728
 20
2300.999999999999
 30
0.0
 11
8.200000000000728
 21
2292.7000000000007
 31
0.0
  0
LINE
  5
107
330
F4
100
AcDbEntity
  8
0
 62
7
100
AcDbLine
 10
55.500000000010914
 20
2300.999999999999
 30
0.0
 11
55.500000000010914
 21
2292.7000000000007
 31
0.0
  0
LINE
  5
108
330
F4
100
AcDbEntity
  8
0
 62
7
100
AcDbLine
 10
75.70000000000073
 20
2300.999999999998
 30
0.0
 11
75.70000000000073
 21
2294.699999999998
 31
0.0
  0
LINE
  5
109
330
F4
100
AcDbEntity
  8
0
 62
7
100
AcDbLine
 10
65.90000000000146
 20
6.300000000001091
 30
0.0
 11
75.70000000000073
 21
6.300000000001091
 31
0.0
  0
LINE
  5
10A
330
F4
100
AcDbEntity
  8
0
 62
7
100
AcDbLine
 10
128.60000000000218
 20
6.299999999998363
 30
0.0
 11
137.90000000000146
 21
6.300000000001091
 31
0.0
  0
LINE
  5
10B
330
F4
100
AcDbEntity
  8
0
 62
7
100
AcDbLine
 10
8.200000000000728
 20
8.300000000001091
 30
0.0
 11
55.500000000010914
 21
8.300000000001091
 31
0.0
  0
LINE
  5
10C
330
F4
100
AcDbEntity
  8
0
 62
7
100
AcDbLine
 10
8.200000000000728
 20
0.0
 30
0.0
 11
8.200000000000728
 21
8.300000000001091
 31
0.0
  0
LINE
  5
10D
330
F4
100
AcDbEntity
  8
0
 62
7
100
AcDbLine
 10
55.500000000010914
 20
0.0
 30
0.0
 11
55.500000000010914
 21
8.300000000001091
 31
0.0
  0
LINE
  5
10E
330
F4
100
AcDbEntity
  8
0
 62
7
100
AcDbLine
 10
75.70000000000073
 20
9.094947017729282e-13
 30
0.0
 11
75.70000000000073
 21
6.300000000001091
 31
0.0
  0
ENDBLK
  5
F6
330
F4
100
AcDbEntity
  8
0
100
AcDbBlockEnd
  0
BLOCK
  5
110
330
10F
100
AcDbEntity
  8
0
100
AcDbBlockBegin
  2
KB__-___-8317K-__14_10
 70
0
 10
0.0
 20
0.0
 30
0.0
  3
KB__-___-8317K-__14_10
  1

  0
LINE
  5
112
330
10F
100
AcDbEntity
  8
BG&E - DIMENSIONS
 62
7
100
AcDbLine
 10
0.0
 20
2264.800000011921
 30
0.0
 11
0.0
 21
12.200000047684625
 31
0.0
  0
LINE
  5
113
330
10F
100
AcDbEntity
  8
0
100
AcDbLine
 10
8.59999990462893
 20
2276.999999999999
 30
0.0
 11
8.59999990462893
 21
2264.800000011921
 31
0.0
  0
LINE
  5
114
330
10F
100
AcDbEntity
  8
0
100
AcDbLine
 10
71.59999990462893
 20
2276.999999999999
 30
0.0
 11
71.59999990462893
 21
2264.800000011921
 31
0.0
  0
LINE
  5
115
330
10F
100
AcDbEntity
  8
0
100
AcDbLine
 10
8.59999990462893
 20
2276.999999999999
 30
0.0
 11
30.799999952319922
 21
2276.999999999999
 31
0.0
  0
LINE
  5
116
330
10F
100
AcDbEntity
  8
0
100
AcDbLine
 10
49.39999985694885
 20
2276.999999999999
 30
0.0
 11
71.59999990462893
 21
2276.999999999999
 31
0.0
  0
LINE
  5
117
330
10F
100
AcDbEntity
  8
0
100
AcDbLine
 10
30.799999952319922
 20
2273.400000035762
 30
0.0
 11
49.39999985694885
 21
2273.400000035762
 31
0.0
  0
LINE
  5
118
330
10F
100
AcDbEntity
  8
0
100
AcDbLine
 10
0.0
 20
2264.800000011921
 30
0.0
 11
8.59999990462893
 21
2264.800000011921
 31
0.0
  0
LINE
  5
119
330
10F
100
AcDbEntity
  8
0
100
AcDbLine
 10
71.59999990462893
 20
2264.800000011921
 30
0.0
 11
88.19999980926877
 21
2264.800000011921
 31
0.0
  0
LINE
  5
11A
330
10F
100
AcDbEntity
  8
0
 62
7
100
AcDbLine
 10
8.59999990462893
 20
0.0
 30
0.0
 11
30.799999952319922
 21
0.0
 31
0.0
  0
LINE
  5
11B
330
10F
100
AcDbEntity
  8
0
 62
7
100
AcDbLine
 10
49.39999985694885
 20
0.0
 30
0.0
 11
71.59999990462893
 21
0.0
 31
0.0
  0
LINE
  5
11C
330
10F
100
AcDbEntity
  8
0
100
AcDbLine
 10
49.39999985694885
 20
2273.400000035762
 30
0.0
 11
49.39999985694885
 21
2276.999999999999
 31
0.0
  0
LINE
  5
11D
330
10F
100
AcDbEntity
  8
0
100
AcDbLine
 10
30.799999952319922
 20
2273.400000035762
 30
0.0
 11
30.799999952319922
 21
2276.999999999999
 31
0.0
  0
LINE
  5
11E
330
10F
100
AcDbEntity
  8
0
 62
7
100
AcDbLine
 10
8.59999990462893
 20
0.0
 30
0.0
 11
8.59999990462893
 21
12.200000047684625
 31
0.0
  0
LINE
  5
11F
330
10F
100
AcDbEntity
  8
0
 62
7
100
AcDbLine
 10
71.59999990462893
 20
0.0
 30
0.0
 11
71.59999990462893
 21
12.200000047684625
 31
0.0
  0
LINE
  5
120
330
10F
100
AcDbEntity
  8
0
 62
7
100
AcDbLine
 10
30.799999952319922
 20
3.6000000238409484
 30
0.0
 11
49.39999985694885
 21
3.6000000238409484
 31
0.0
  0
LINE
  5
121
330
10F
100
AcDbEntity
  8
0
 62
7
100
AcDbLine
 10
0.0
 20
12.200000047684625
 30
0.0
 11
8.59999990462893
 21
12.200000047684625
 31
0.0
  0
LINE
  5
122
330
10F
100
AcDbEntity
  8
0
 62
7
100
AcDbLine
 10
71.59999990462893
 20
12.200000047684625
 30
0.0
 11
88.19999980926877
 21
12.200000047684625
 31
0.0
  0
LINE
  5
123
330
10F
100
AcDbEntity
  8
0
 62
7
100
AcDbLine
 10
49.39999985694885
 20
3.6000000238409484
 30
0.0
 11
49.39999985694885
 21
0.0
 31
0.0
  0
LINE
  5
124
330
10F
100
AcDbEntity
  8
0
 62
7
100
AcDbLine
 10
30.799999952319922
 20
3.6000000238409484
 30
0.0
 11
30.799999952319922
 21
0.0
 31
0.0
  0
LWPOLYLINE
  5
125
330
10F
100
AcDbEntity
  8
0
 62
0
100
AcDbPolyline
 90
8
 70
0
 10
88.19999980926877
 20
2264.800000011921
 10
88.19999980926877
 20
2178.999999999999
 42
-0.4142135623730951
 10
86.19999980926877
 20
2177.0
 10
84.19999980926877
 20
2177.0
 10
84.19999980926877
 20
2127.0
 10
86.19999980926877
 20
2127.0
 42
-0.4142135623730951
 10
88.19999980926877
 20
2125.0
 10
88.19999980926877
 20
12.200000047684625
  0
ENDBLK
  5
111
330
10F
100
AcDbEntity
  8
0
100
AcDbBlockEnd
  0
BLOCK
  5
127
330
126
100
AcDbEntity
  8
0
100
AcDbBlockBegin
  2
KB__-___-8317K-__15_11
 70
0
 10
0.0
 20
0.0
 30
0.0
  3
KB__-___-8317K-__15_11
  1

  0
LINE
  5
129
330
126
100
AcDbEntity
  8
BG&E - DIMENSIONS
 62
7
100
AcDbLine
 10
0.0
 20
2264.800000011921
 30
0.0
 11
0.0
 21
12.200000047684625
 31
0.0
  0
LINE
  5
12A
330
126
100
AcDbEntity
  8
0
100
AcDbLine
 10
8.599999904632568
 20
2276.999999999999
 30
0.0
 11
8.599999904632568
 21
2264.800000011921
 31
0.0
  0
LINE
  5
12B
330
126
100
AcDbEntity
  8
0
100
AcDbLine
 10
71.59999990463257
 20
2276.999999999999
 30
0.0
 11
71.59999990463257
 21
2264.800000011921
 31
0.0
  0
LINE
  5
12C
330
126
100
AcDbEntity
  8
0
100
AcDbLine
 10
8.599999904632568
 20
2276.999999999999
 30
0.0
 11
30.799999952312646
 21
2276.999999999999
 31
0.0
  0
LINE
  5
12D
330
126
100
AcDbEntity
  8
0
100
AcDbLine
 10
49.39999985695249
 20
2276.999999999999
 30
0.0
 11
71.59999990463257
 21
2276.999999999999
 31
0.0
  0
LINE
  5
12E
330
126
100
AcDbEntity
  8
0
100
AcDbLine
 10
30.799999952312646
 20
2273.400000035762
 30
0.0
 11
49.39999985695249
 21
2273.400000035762
 31
0.0
  0
LINE
  5
12F
330
126
100
AcDbEntity
  8
0
100
AcDbLine
 10
0.0
 20
2264.800000011921
 30
0.0
 11
8.599999904632568
 21
2264.800000011921
 31
0.0
  0
LINE
  5
130
330
126
100
AcDbEntity
  8
0
100
AcDbLine
 10
71.59999990463257
 20
2264.800000011921
 30
0.0
 11
88.1999998092615
 21
2264.800000011921
 31
0.0
  0
LINE
  5
131
330
126
100
AcDbEntity
  8
0
 62
7
100
AcDbLine
 10
8.599999904632568
 20
0.0
 30
0.0
 11
30.799999952312646
 21
0.0
 31
0.0
  0
LINE
  5
132
330
126
100
AcDbEntity
  8
0
 62
7
100
AcDbLine
 10
49.39999985695249
 20
0.0
 30
0.0
 11
71.59999990463257
 21
0.0
 31
0.0
  0
LINE
  5
133
330
126
100
AcDbEntity
  8
0
100
AcDbLine
 10
49.39999985695249
 20
2273.400000035762
 30
0.0
 11
49.39999985695249
 21
2276.999999999999
 31
0.0
  0
LINE
  5
134
330
126
100
AcDbEntity
  8
0
100
AcDbLine
 10
30.799999952312646
 20
2273.400000035762
 30
0.0
 11
30.799999952312646
 21
2276.999999999999
 31
0.0
  0
LINE
  5
135
330
126
100
AcDbEntity
  8
0
 62
7
100
AcDbLine
 10
8.599999904632568
 20
0.0
 30
0.0
 11
8.599999904632568
 21
12.200000047684625
 31
0.0
  0
LINE
  5
136
330
126
100
AcDbEntity
  8
0
 62
7
100
AcDbLine
 10
71.59999990463257
 20
0.0
 30
0.0
 11
71.59999990463257
 21
12.200000047684625
 31
0.0
  0
LINE
  5
137
330
126
100
AcDbEntity
  8
0
 62
7
100
AcDbLine
 10
30.799999952312646
 20
3.6000000238409484
 30
0.0
 11
49.39999985695249
 21
3.6000000238409484
 31
0.0
  0
LINE
  5
138
330
126
100
AcDbEntity
  8
0
 62
7
100
AcDbLine
 10
0.0
 20
12.200000047684625
 30
0.0
 11
8.599999904632568
 21
12.200000047684625
 31
0.0
  0
LINE
  5
139
330
126
100
AcDbEntity
  8
0
 62
7
100
AcDbLine
 10
71.59999990463257
 20
12.200000047684625
 30
0.0
 11
88.1999998092615
 21
12.200000047684625
 31
0.0
  0
LINE
  5
13A
330
126
100
AcDbEntity
  8
0
 62
7
100
AcDbLine
 10
49.39999985695249
 20
3.6000000238409484
 30
0.0
 11
49.39999985695249
 21
0.0
 31
0.0
  0
LINE
  5
13B
330
126
100
AcDbEntity
  8
0
 62
7
100
AcDbLine
 10
30.799999952312646
 20
3.6000000238409484
 30
0.0
 11
30.799999952312646
 21
0.0
 31
0.0
  0
LWPOLYLINE
  5
13C
330
126
100
AcDbEntity
  8
0
 62
0
100
AcDbPolyline
 90
8
 70
0
 10
88.1999998092615
 20
2264.800000011921
 10
88.1999998092615
 20
2178.999999999999
 42
-0.4142135623730951
 10
86.1999998092615
 20
2177.0
 10
84.1999998092615
 20
2177.0
 10
84.1999998092615
 20
2127.0
 10
86.1999998092615
 20
2127.0
 42
-0.4142135623730951
 10
88.1999998092615
 20
2125.0
 10
88.1999998092615
 20
12.200000047684625
  0
ENDBLK
  5
128
330
126
100
AcDbEntity
  8
0
100
AcDbBlockEnd
  0
BLOCK
  5
13E
330
13D
100
AcDbEntity
  8
0
100
AcDbBlockBegin
  2
KB__-___-8317K-__16_12
 70
0
 10
0.0
 20
0.0
 30
0.0
  3
KB__-___-8317K-__16_12
  1

  0
LINE
  5
140
330
13D
100
AcDbEntity
  8
BG&E - DIMENSIONS
100
AcDbLine
 10
0.0
 20
700.0
 30
0.0
 11
0.0
 21
2.0000000000009095
 31
0.0
  0
ARC
  5
141
330
13D
100
AcDbEntity
  8
0
 62
0
100
AcDbCircle
 10
2.0
 20
2.0000000000009095
 30
0.0
 40
2.0
100
AcDbArc
 50
180.0
 51
-90.00000000000001
  0
LINE
  5
142
330
13D
100
AcDbEntity
  8
0
100
AcDbLine
 10
19.399999380108056
 20
700.0
 30
0.0
 11
19.399999380108056
 21
685.6451109647751
 31
0.0
  0
LINE
  5
143
330
13D
100
AcDbEntity
  8
0
100
AcDbLine
 10
36.6999986171686
 20
700.0
 30
0.0
 11
36.6999986171686
 21
685.6451109647751
 31
0.0
  0
LINE
  5
144
330
13D
100
AcDbEntity
  8
BG&E - DIMENSIONS
100
AcDbLine
 10
67.59999775885808
 20
698.0000000000009
 30
0.0
 11
67.59999775885808
 21
4.0000000000009095
 31
0.0
  0
ARC
  5
145
330
13D
100
AcDbEntity
  8
0
 62
0
100
AcDbCircle
 10
65.59999775885808
 20
4.0000000000009095
 30
0.0
 40
2.0
100
AcDbArc
 50
-90.00000000000001
 51
0.0
  0
LINE
  5
146
330
13D
100
AcDbEntity
  8
0
100
AcDbLine
 10
0.0
 20
700.0
 30
0.0
 11
19.399999380108056
 21
700.0
 31
0.0
  0
LINE
  5
147
330
13D
100
AcDbEntity
  8
0
100
AcDbLine
 10
36.6999986171686
 20
700.0
 30
0.0
 11
56.59999775885808
 21
700.0
 31
0.0
  0
LINE
  5
148
330
13D
100
AcDbEntity
  8
0
100
AcDbLine
 10
2.0
 20
0.0
 30
0.0
 11
56.59999775885808
 21
0.0
 31
0.0
  0
ARC
  5
149
330
13D
100
AcDbEntity
  8
0
100
AcDbCircle
 10
28.04999899863833
 20
685.6499996185312
 30
0.0
 40
8.650001
100
AcDbArc
 50
180.0
 51
0.0
  0
LWPOLYLINE
  5
14A
330
13D
100
AcDbEntity
  8
0
100
AcDbPolyline
 90
4
 70
1
 10
30.800119400020776
 20
670.0500571131724
 42
0.9999999999999998
 10
25.300119400020776
 20
670.0500571131724
 10
25.300119400020776
 20
667.5500571131715
 42
0.9999999999999998
 10
30.800119400020776
 20
667.5500571131715
  0
LWPOLYLINE
  5
14B
330
13D
100
AcDbEntity
  8
0
100
AcDbPolyline
 90
4
 70
1
 10
30.8000431060791
 20
655.0500211119661
 42
0.9999999999999998
 10
25.3000431060791
 20
655.0500211119661
 10
25.3000431060791
 20
652.5500211119652
 42
0.9999999999999998
 10
30.8000431060791
 20
652.5500211119652
  0
LWPOLYLINE
  5
14C
330
13D
100
AcDbEntity
  8
0
100
AcDbPolyline
 90
4
 70
1
 10
30.8000431060791
 20
47.45002073049636
 42
0.9999999999999998
 10
25.3000431060791
 20
47.45002073049636
 10
25.3000431060791
 20
44.95002073049727
 42
0.9999999999999998
 10
30.8000431060791
 20
44.95002073049727
  0
LWPOLYLINE
  5
14D
330
13D
100
AcDbEntity
  8
0
100
AcDbPolyline
 90
4
 70
1
 10
30.8000431060791
 20
32.45002073049636
 42
0.9999999999999998
 10
25.3000431060791
 20
32.45002073049636
 10
25.3000431060791
 20
29.950020730496362
 42
0.9999999999999998
 10
30.8000431060791
 20
29.950020730496362
  0
LINE
  5
14E
330
13D
100
AcDbEntity
  8
0
100
AcDbLine
 10
67.59999775885808
 20
698.0000000000009
 30
0.0
 11
56.59999775885808
 21
698.0000000000009
 31
0.0
  0
LINE
  5
14F
330
13D
100
AcDbEntity
  8
0
100
AcDbLine
 10
56.59999775885808
 20
698.0000000000009
 30
0.0
 11
56.59999775885808
 21
700.0
 31
0.0
  0
LINE
  5
150
330
13D
100
AcDbEntity
  8
0
100
AcDbLine
 10
65.59999775885808
 20
2.0000000000009095
 30
0.0
 11
56.59999775885808
 21
2.0000000000009095
 31
0.0
  0
LINE
  5
151
330
13D
100
AcDbEntity
  8
0
100
AcDbLine
 10
56.59999775885808
 20
2.0000000000009095
 30
0.0
 11
56.59999775885808
 21
0.0
 31
0.0
  0
ENDBLK
  5
13F
330
13D
100
AcDbEntity
  8
0
100
AcDbBlockEnd
  0
BLOCK
  5
153
330
152
100
AcDbEntity
  8
0
100
AcDbBlockBegin
  2
KB__-______-8055-__4_13
 70
0
 10
0.0
 20
0.0
 30
0.0
  3
KB__-______-8055-__4_13
  1

  0
LWPOLYLINE
  5
15A
330
152
100
AcDbEntity
  8
0
100
AcDbPolyline
 90
4
 70
1
 10
25.200012337998487
 20
200.00000000001455
 10
0.0
 20
200.00222150360787
 10
0.0
 20
0.0022215036224224605
 10
25.200012337998487
 20
0.0
  0
ENDBLK
  5
154
330
152
100
AcDbEntity
  8
0
100
AcDbBlockEnd
  0
BLOCK
  5
15C
330
15B
100
AcDbEntity
  8
0
100
AcDbBlockBegin
  2
KB__-______-8055-__5_14
 70
0
 10
0.0
 20
0.0
 30
0.0
  3
KB__-______-8055-__5_14
  1

  0
LWPOLYLINE
  5
15E
330
15B
100
AcDbEntity
  8
0
 62
7
100
AcDbPolyline
 90
4
 70
1
 10
27.699999999953434
 20
2395.0000000000073
 10
0.0
 20
2395.0000000000073
 10
0.0
 20
0.0
 10
27.699999999953434
 20
0.0
  0
ENDBLK
  5
15D
330
15B
100
AcDbEntity
  8
0
100
AcDbBlockEnd
  0
BLOCK
  5
160
330
15F
100
AcDbEntity
  8
0
100
AcDbBlockBegin
  2
KB__-______-8055-__6_15
 70
0
 10
0.0
 20
0.0
 30
0.0
  3
KB__-______-8055-__6_15
  1

  0
LINE
  5
162
330
15F
100
AcDbEntity
  8
0
 62
0
100
AcDbLine
 10
89.20000004780013
 20
2167.800000011921
 30
0.0
 11
89.20000004780013
 21
2082.0
 31
0.0
  0
ARC
  5
163
330
15F
100
AcDbEntity
  8
0
 62
0
100
AcDbCircle
 10
87.20000004768372
 20
2082.0
 30
0.0
 40
2.0
100
AcDbArc
 50
-90.00000000000001
 51
0.0
  0
LINE
  5
164
330
15F
100
AcDbEntity
  8
0
 62
0
100
AcDbLine
 10
87.20000004768372
 20
2079.9999999999927
 30
0.0
 11
85.20000004768372
 21
2079.9999999999927
 31
0.0
  0
LINE
  5
165
330
15F
100
AcDbEntity
  8
0
 62
0
100
AcDbLine
 10
85.20000004768372
 20
2079.9999999999927
 30
0.0
 11
85.20000004768372
 21
2029.9999999999927
 31
0.0
  0
LINE
  5
166
330
15F
100
AcDbEntity
  8
0
 62
0
100
AcDbLine
 10
85.20000004768372
 20
2029.9999999999927
 30
0.0
 11
87.20000004768372
 21
2029.9999999999927
 31
0.0
  0
LINE
  5
167
330
15F
100
AcDbEntity
  8
0
 62
0
100
AcDbLine
 10
89.20000004780013
 20
2028.0
 30
0.0
 11
89.20000004780013
 21
12.199999988071795
 31
0.0
  0
ARC
  5
168
330
15F
100
AcDbEntity
  8
0
 62
0
100
AcDbCircle
 10
87.20000004768372
 20
2028.0
 30
0.0
 40
2.0
100
AcDbArc
 50
0.0
 51
90.0
  0
LINE
  5
169
330
15F
100
AcDbEntity
  8
0
 62
0
100
AcDbLine
 10
89.20000004780013
 20
12.199999988071795
 30
0.0
 11
72.09999990463257
 21
12.199999988071795
 31
0.0
  0
LINE
  5
16A
330
15F
100
AcDbEntity
  8
0
 62
0
100
AcDbLine
 10
72.09999990463257
 20
12.199999988071795
 30
0.0
 11
72.09999990463257
 21
0.0
 31
0.0
  0
LINE
  5
16B
330
15F
100
AcDbEntity
  8
0
 62
0
100
AcDbLine
 10
72.09999990463257
 20
0.0
 30
0.0
 11
49.90000009536743
 21
0.0
 31
0.0
  0
LINE
  5
16C
330
15F
100
AcDbEntity
  8
0
 62
0
100
AcDbLine
 10
49.90000009536743
 20
0.0
 30
0.0
 11
49.90000009536743
 21
3.600000023827306
 31
0.0
  0
LINE
  5
16D
330
15F
100
AcDbEntity
  8
0
 62
0
100
AcDbLine
 10
49.90000009536743
 20
3.600000023827306
 30
0.0
 11
31.2999999524327
 21
3.600000023827306
 31
0.0
  0
LINE
  5
16E
330
15F
100
AcDbEntity
  8
0
 62
0
100
AcDbLine
 10
31.2999999524327
 20
3.600000023827306
 30
0.0
 11
31.2999999524327
 21
0.0
 31
0.0
  0
LINE
  5
16F
330
15F
100
AcDbEntity
  8
0
 62
0
100
AcDbLine
 10
31.2999999524327
 20
0.0
 30
0.0
 11
9.099999904748984
 21
0.0
 31
0.0
  0
LINE
  5
170
330
15F
100
AcDbEntity
  8
0
 62
0
100
AcDbLine
 10
9.099999904748984
 20
0.0
 30
0.0
 11
9.099999904748984
 21
12.199999988071795
 31
0.0
  0
LINE
  5
171
330
15F
100
AcDbEntity
  8
0
 62
0
100
AcDbLine
 10
9.099999904748984
 20
12.199999988071795
 30
0.0
 11
1.1641532182693481e-10
 21
12.199999988071795
 31
0.0
  0
ARC
  5
172
330
15F
100
AcDbEntity
  8
0
 62
0
100
AcDbCircle
 10
2.0
 20
14.199999988079071
 30
0.0
 40
2.0
100
AcDbArc
 50
180.0
 51
180.0
  0
LINE
  5
173
330
15F
100
AcDbEntity
  8
0
 62
0
100
AcDbLine
 10
1.1641532182693481e-10
 20
12.199999988071795
 30
0.0
 11
1.1641532182693481e-10
 21
2167.800000011921
 31
0.0
  0
LINE
  5
174
330
15F
100
AcDbEntity
  8
0
 62
0
100
AcDbLine
 10
1.1641532182693481e-10
 20
2167.800000011921
 30
0.0
 11
9.099999904748984
 21
2167.800000011921
 31
0.0
  0
LINE
  5
175
330
15F
100
AcDbEntity
  8
0
 62
0
100
AcDbLine
 10
9.099999904748984
 20
2167.800000011921
 30
0.0
 11
9.099999904748984
 21
2180.0
 31
0.0
  0
LINE
  5
176
330
15F
100
AcDbEntity
  8
0
 62
0
100
AcDbLine
 10
9.099999904748984
 20
2180.0
 30
0.0
 11
31.2999999524327
 21
2180.0
 31
0.0
  0
LINE
  5
177
330
15F
100
AcDbEntity
  8
0
 62
0
100
AcDbLine
 10
31.2999999524327
 20
2180.0
 30
0.0
 11
31.2999999524327
 21
2176.399999976151
 31
0.0
  0
LINE
  5
178
330
15F
100
AcDbEntity
  8
0
 62
0
100
AcDbLine
 10
31.2999999524327
 20
2176.399999976151
 30
0.0
 11
49.90000009536743
 21
2176.399999976151
 31
0.0
  0
LINE
  5
179
330
15F
100
AcDbEntity
  8
0
 62
0
100
AcDbLine
 10
49.90000009536743
 20
2176.399999976151
 30
0.0
 11
49.90000009536743
 21
2180.0
 31
0.0
  0
LINE
  5
17A
330
15F
100
AcDbEntity
  8
0
 62
0
100
AcDbLine
 10
49.90000009536743
 20
2180.0
 30
0.0
 11
72.09999990463257
 21
2180.0
 31
0.0
  0
LINE
  5
17B
330
15F
100
AcDbEntity
  8
0
 62
0
100
AcDbLine
 10
72.09999990463257
 20
2180.0
 30
0.0
 11
72.09999990463257
 21
2167.800000011921
 31
0.0
  0
LINE
  5
17C
330
15F
100
AcDbEntity
  8
0
 62
0
100
AcDbLine
 10
72.09999990463257
 20
2167.800000011921
 30
0.0
 11
89.20000004780013
 21
2167.800000011921
 31
0.0
  0
ENDBLK
  5
161
330
15F
100
AcDbEntity
  8
0
100
AcDbBlockEnd
  0
BLOCK
  5
17E
330
17D
100
AcDbEntity
  8
0
100
AcDbBlockBegin
  2
KB__-______-8055-__7_16
 70
0
 10
0.0
 20
0.0
 30
0.0
  3
KB__-______-8055-__7_16
  1

  0
LWPOLYLINE
  5
180
330
17D
100
AcDbEntity
  8
0
 62
0
100
AcDbPolyline
 90
27
 70
0
 10
89.2000000475673
 20
2167.800000011921
 10
89.2000000475673
 20
2082.0
 42
-0.4142135623730951
 10
87.20000004745089
 20
2079.9999999999927
 10
85.2000000475673
 20
2079.9999999999927
 10
85.2000000475673
 20
2029.9999999999927
 10
87.20000004745089
 20
2029.9999999999927
 42
-0.4142135623730951
 10
89.2000000475673
 20
2028.0
 10
89.2000000475673
 20
12.199999988071795
 10
72.09999990451615
 20
12.199999988071795
 10
72.09999990451615
 20
0.0
 10
49.900000095251016
 20
0.0
 10
49.900000095251016
 20
3.600000023827306
 10
31.29999995219987
 20
3.600000023827306
 10
31.29999995219987
 20
0.0
 10
9.099999904516153
 20
0.0
 10
9.099999904516153
 20
12.199999988071795
 10
0.0
 20
12.199999988071795
 10
0.0
 20
2167.800000011921
 10
9.099999904516153
 20
2167.800000011921
 10
9.099999904516153
 20
2180.0
 10
31.29999995219987
 20
2180.0
 10
31.29999995219987
 20
2176.399999976151
 10
49.900000095251016
 20
2176.399999976151
 10
49.900000095251016
 20
2180.0
 10
72.09999990451615
 20
2180.0
 10
72.09999990451615
 20
2167.800000011921
 10
89.2000000475673
 20
2167.800000011921
  0
ENDBLK
  5
17F
330
17D
100
AcDbEntity
  8
0
100
AcDbBlockEnd
  0
BLOCK
  5
182
330
181
100
AcDbEntity
  8
0
100
AcDbBlockBegin
  2
KB__-______-8055-__8_17
 70
0
 10
0.0
 20
0.0
 30
0.0
  3
KB__-______-8055-__8_17
  1

  0
ARC
  5
184
330
181
100
AcDbEntity
  8
0
 62
7
100
AcDbCircle
 10
28.549998998758383
 20
988.6499996185375
 30
0.0
 40
8.650001
100
AcDbArc
 50
180.0
 51
0.0
  0
LWPOLYLINE
  5
185
330
181
100
AcDbEntity
  8
0
 62
7
100
AcDbPolyline
 90
4
 70
1
 10
31.300119400024414
 20
973.0500571131633
 42
0.9999999999999998
 10
25.800119400024414
 20
973.0500571131633
 10
25.800119400024414
 20
970.5500571131779
 42
0.9999999999999998
 10
31.300119400024414
 20
970.5500571131779
  0
LWPOLYLINE
  5
186
330
181
100
AcDbEntity
  8
0
 62
7
100
AcDbPolyline
 90
4
 70
1
 10
31.3000431060791
 20
958.0500210523678
 42
0.9999999999999998
 10
25.8000431060791
 20
958.0500210523678
 10
25.8000431060791
 20
955.5500210523533
 42
0.9999999999999998
 10
31.3000431060791
 20
955.5500210523533
  0
LWPOLYLINE
  5
187
330
181
100
AcDbEntity
  8
0
100
AcDbPolyline
 90
4
 70
1
 10
31.3000431060791
 20
47.450020670898084
 42
0.9999999999999998
 10
25.8000431060791
 20
47.450020670898084
 10
25.8000431060791
 20
44.95002067088353
 42
0.9999999999999998
 10
31.3000431060791
 20
44.95002067088353
  0
LWPOLYLINE
  5
188
330
181
100
AcDbEntity
  8
0
100
AcDbPolyline
 90
4
 70
1
 10
31.3000431060791
 20
32.450020670898084
 42
0.9999999999999998
 10
25.8000431060791
 20
32.450020670898084
 10
25.8000431060791
 20
29.950020670883532
 42
0.9999999999999998
 10
31.3000431060791
 20
29.950020670883532
  0
LWPOLYLINE
  5
189
330
181
100
AcDbEntity
  8
0
 62
7
100
AcDbPolyline
 90
12
 70
0
 10
19.89999937999528
 20
988.6451109051632
 10
19.89999937999528
 20
1003.0000000000073
 10
0.0
 20
1003.0000000000073
 10
0.0
 20
0.0
 10
57.59999775898177
 20
0.0
 10
57.59999775898177
 20
2.000000000007276
 10
67.59999775886536
 20
2.000000000007276
 10
67.59999775886536
 20
1001.0
 10
57.59999775898177
 20
1001.0
 10
57.59999775898177
 20
1003.0000000000073
 10
37.19999861717224
 20
1003.0000000000073
 10
37.19999861717224
 20
988.6451109051632
  0
ENDBLK
  5
183
330
181
100
AcDbEntity
  8
0
100
AcDbBlockEnd
  0
BLOCK
  5
18B
330
18A
100
AcDbEntity
  8
0
100
AcDbBlockBegin
  2
KB__-______-8055-__9_18
 70
0
 10
0.0
 20
0.0
 30
0.0
  3
KB__-______-8055-__9_18
  1

  0
LINE
  5
18D
330
18A
100
AcDbEntity
  8
0
 62
0
100
AcDbLine
 10
2.384185791015625e-07
 20
2395.000000102009
 30
0.0
 11
2.384185791015625e-07
 21
1.0200892575085163e-07
 31
0.0
  0
LINE
  5
18E
330
18A
100
AcDbEntity
  8
0
 62
0
100
AcDbLine
 10
86.70000004768372
 20
2395.000000102009
 30
0.0
 11
86.70000004768372
 21
2294.9992254603785
 31
0.0
  0
LINE
  5
18F
330
18A
100
AcDbEntity
  8
0
 62
0
100
AcDbLine
 10
86.70000004768372
 20
2241.0007644033685
 30
0.0
 11
86.70000004768372
 21
1.0200892575085163e-07
 31
0.0
  0
LINE
  5
190
330
18A
100
AcDbEntity
  8
0
 62
0
100
AcDbLine
 10
22.600000143167563
 20
2378.80000011393
 30
0.0
 11
28.90000009536743
 21
2378.80000011393
 31
0.0
  0
LINE
  5
191
330
18A
100
AcDbEntity
  8
0
 62
0
100
AcDbLine
 10
28.90000009536743
 20
2386.80000011393
 30
0.0
 11
60.10000014305115
 21
2386.80000011393
 31
0.0
  0
LINE
  5
192
330
18A
100
AcDbEntity
  8
0
 62
0
100
AcDbLine
 10
22.600000143167563
 20
2395.000000102009
 30
0.0
 11
22.600000143167563
 21
2378.80000011393
 31
0.0
  0
LINE
  5
193
330
18A
100
AcDbEntity
  8
0
 62
0
100
AcDbLine
 10
28.90000009536743
 20
2386.80000011393
 30
0.0
 11
28.90000009536743
 21
2378.80000011393
 31
0.0
  0
LINE
  5
194
330
18A
100
AcDbEntity
  8
0
 62
0
100
AcDbLine
 10
60.10000014305115
 20
2395.000000102009
 30
0.0
 11
60.10000014305115
 21
2386.80000011393
 31
0.0
  0
LINE
  5
195
330
18A
100
AcDbEntity
  8
0
 62
0
100
AcDbLine
 10
0.0
 20
1.6161357052624226e-07
 30
0.0
 11
22.600000143167563
 21
1.1420343071222305e-07
 31
0.0
  0
LINE
  5
196
330
18A
100
AcDbEntity
  8
0
 62
0
100
AcDbLine
 10
60.10000014305115
 20
4.738831194117665e-08
 30
0.0
 11
86.70000004768372
 21
0.0
 31
0.0
  0
LINE
  5
197
330
18A
100
AcDbEntity
  8
0
 62
0
100
AcDbLine
 10
22.600000143167563
 20
2395.000000102009
 30
0.0
 11
0.0
 21
2394.999999446358
 31
0.0
  0
LINE
  5
198
330
18A
100
AcDbEntity
  8
0
 62
0
100
AcDbLine
 10
60.10000014305115
 20
2395.000000102009
 30
0.0
 11
86.70000004768372
 21
2395.0000000424116
 31
0.0
  0
LINE
  5
199
330
18A
100
AcDbEntity
  8
0
 62
0
100
AcDbLine
 10
22.600000143167563
 20
16.200000090087997
 30
0.0
 11
28.90000009536743
 21
16.200000090087997
 31
0.0
  0
LINE
  5
19A
330
18A
100
AcDbEntity
  8
0
 62
0
100
AcDbLine
 10
28.90000009536743
 20
8.200000090087997
 30
0.0
 11
60.10000014305115
 21
8.200000090087997
 31
0.0
  0
LINE
  5
19B
330
18A
100
AcDbEntity
  8
0
 62
0
100
AcDbLine
 10
22.600000143167563
 20
1.0200892575085163e-07
 30
0.0
 11
22.600000143167563
 21
16.200000090087997
 31
0.0
  0
LINE
  5
19C
330
18A
100
AcDbEntity
  8
0
 62
0
100
AcDbLine
 10
28.90000009536743
 20
8.200000090087997
 30
0.0
 11
28.90000009536743
 21
16.200000090087997
 31
0.0
  0
LINE
  5
19D
330
18A
100
AcDbEntity
  8
0
 62
0
100
AcDbLine
 10
60.10000014305115
 20
1.0200892575085163e-07
 30
0.0
 11
60.10000014305115
 21
8.200000090087997
 31
0.0
  0
CIRCLE
  5
19E
330
18A
100
AcDbEntity
  8
0
 62
0
100
AcDbCircle
 10
41.75
 20
2145.0000005740294
 30
0.0
 40
4.25
  0
CIRCLE
  5
19F
330
18A
100
AcDbEntity
  8
0
 62
0
100
AcDbCircle
 10
41.75
 20
1197.5000005740294
 30
0.0
 40
4.25
  0
CIRCLE
  5
1A0
330
18A
100
AcDbEntity
  8
0
 62
0
100
AcDbCircle
 10
41.75
 20
250.0000005740294
 30
0.0
 40
4.25
  0
ARC
  5
1A1
330
18A
100
AcDbEntity
  8
0
 62
7
100
AcDbCircle
 10
84.70000019366853
 20
2241.0000000443615
 30
0.0
 40
2.0
100
AcDbArc
 50
-5.7112801893022286e-08
 51
90.0
  0
LINE
  5
1A2
330
18A
100
AcDbEntity
  8
0
 62
7
100
AcDbLine
 10
84.70000019366853
 20
2243.0000000443542
 30
0.0
 11
82.70000019564759
 21
2243.0000000443542
 31
0.0
  0
LINE
  5
1A3
330
18A
100
AcDbEntity
  8
0
 62
7
100
AcDbLine
 10
82.70000019564759
 20
2243.0000000443542
 30
0.0
 11
82.70000019564759
 21
2293.0000000443615
 31
0.0
  0
LINE
  5
1A4
330
18A
100
AcDbEntity
  8
0
 62
7
100
AcDbLine
 10
82.70000019564759
 20
2293.0000000443615
 30
0.0
 11
84.70000019762665
 21
2293.0000000443615
 31
0.0
  0
ARC
  5
1A5
330
18A
100
AcDbEntity
  8
0
 62
7
100
AcDbCircle
 10
84.70000019762665
 20
2295.0000000443615
 30
0.0
 40
2.0
100
AcDbArc
 50
-90.00000000000001
 51
-5.586205512564612e-08
  0
ENDBLK
  5
18C
330
18A
100
AcDbEntity
  8
0
100
AcDbBlockEnd
  0
BLOCK
  5
1A7
330
1A6
100
AcDbEntity
  8
0
100
AcDbBlockBegin
  2
KB__-______-8055-__13_19
 70
0
 10
0.0
 20
0.0
 30
0.0
  3
KB__-______-8055-__13_19
  1

  0
LINE
  5
1A9
330
1A6
100
AcDbEntity
  8
0
100
AcDbLine
 10
25.200012337998487
 20
199.99999999998545
 30
0.0
 11
0.0
 21
200.00222150360787
 31
0.0
  0
LINE
  5
1AA
330
1A6
100
AcDbEntity
  8
0
100
AcDbLine
 10
0.0
 20
200.00222150360787
 30
0.0
 11
0.0
 21
0.0022215036005945876
 31
0.0
  0
LINE
  5
1AB
330
1A6
100
AcDbEntity
  8
0
100
AcDbLine
 10
0.0
 20
0.0022215036005945876
 30
0.0
 11
25.200012337998487
 21
0.0
 31
0.0
  0
LINE
  5
1AC
330
1A6
100
AcDbEntity
  8
0
100
AcDbLine
 10
25.200012337998487
 20
0.0
 30
0.0
 11
25.200012337998487
 21
199.99999999998545
 31
0.0
  0
ENDBLK
  5
1A8
330
1A6
100
AcDbEntity
  8
0
100
AcDbBlockEnd
  0
BLOCK
  5
1AE
330
1AD
100
AcDbEntity
  8
0
100
AcDbBlockBegin
  2
KB__-______-8055-__14_20
 70
0
 10
0.0
 20
0.0
 30
0.0
  3
KB__-______-8055-__14_20
  1

  0
LWPOLYLINE
  5
1B0
330
1AD
100
AcDbEntity
  8
0
 62
7
100
AcDbPolyline
 90
4
 70
1
 10
27.699999999953434
 20
2385.0000000000073
 10
0.0
 20
2385.0000000000073
 10
0.0
 20
0.0
 10
27.699999999953434
 20
0.0
  0
ENDBLK
  5
1AF
330
1AD
100
AcDbEntity
  8
0
100
AcDbBlockEnd
  0
BLOCK
  5
1B2
330
1B1
100
AcDbEntity
  8
0
100
AcDbBlockBegin
  2
KB__-______-8055-__15_21
 70
0
 10
0.0
 20
0.0
 30
0.0
  3
KB__-______-8055-__15_21
  1

  0
LINE
  5
1B4
330
1B1
100
AcDbEntity
  8
0
 62
0
100
AcDbLine
 10
89.20000004780013
 20
2167.8000000119137
 30
0.0
 11
89.20000004780013
 21
2081.9999999999927
 31
0.0
  0
ARC
  5
1B5
330
1B1
100
AcDbEntity
  8
0
 62
0
100
AcDbCircle
 10
87.20000004768372
 20
2081.9999999999927
 30
0.0
 40
2.0
100
AcDbArc
 50
-90.00000000000001
 51
0.0
  0
LINE
  5
1B6
330
1B1
100
AcDbEntity
  8
0
 62
0
100
AcDbLine
 10
87.20000004768372
 20
2080.0
 30
0.0
 11
85.20000004768372
 21
2080.0
 31
0.0
  0
LINE
  5
1B7
330
1B1
100
AcDbEntity
  8
0
 62
0
100
AcDbLine
 10
85.20000004768372
 20
2080.0
 30
0.0
 11
85.20000004768372
 21
2030.0
 31
0.0
  0
LINE
  5
1B8
330
1B1
100
AcDbEntity
  8
0
 62
0
100
AcDbLine
 10
85.20000004768372
 20
2030.0
 30
0.0
 11
87.20000004768372
 21
2030.0
 31
0.0
  0
LINE
  5
1B9
330
1B1
100
AcDbEntity
  8
0
 62
0
100
AcDbLine
 10
89.20000004780013
 20
2027.9999999999927
 30
0.0
 11
89.20000004780013
 21
12.199999988079071
 31
0.0
  0
ARC
  5
1BA
330
1B1
100
AcDbEntity
  8
0
 62
0
100
AcDbCircle
 10
87.20000004768372
 20
2027.9999999999927
 30
0.0
 40
2.0
100
AcDbArc
 50
0.0
 51
90.0
  0
LINE
  5
1BB
330
1B1
100
AcDbEntity
  8
0
 62
0
100
AcDbLine
 10
89.20000004780013
 20
12.199999988079071
 30
0.0
 11
72.09999990463257
 21
12.199999988079071
 31
0.0
  0
LINE
  5
1BC
330
1B1
100
AcDbEntity
  8
0
 62
0
100
AcDbLine
 10
72.09999990463257
 20
12.199999988079071
 30
0.0
 11
72.09999990463257
 21
0.0
 31
0.0
  0
LINE
  5
1BD
330
1B1
100
AcDbEntity
  8
0
 62
0
100
AcDbLine
 10
72.09999990463257
 20
0.0
 30
0.0
 11
49.90000009536743
 21
0.0
 31
0.0
  0
LINE
  5
1BE
330
1B1
100
AcDbEntity
  8
0
 62
0
100
AcDbLine
 10
49.90000009536743
 20
0.0
 30
0.0
 11
49.90000009536743
 21
3.600000023841858
 31
0.0
  0
LINE
  5
1BF
330
1B1
100
AcDbEntity
  8
0
 62
0
100
AcDbLine
 10
49.90000009536743
 20
3.600000023841858
 30
0.0
 11
31.2999999524327
 21
3.600000023841858
 31
0.0
  0
LINE
  5
1C0
330
1B1
100
AcDbEntity
  8
0
 62
0
100
AcDbLine
 10
31.2999999524327
 20
3.600000023841858
 30
0.0
 11
31.2999999524327
 21
0.0
 31
0.0
  0
LINE
  5
1C1
330
1B1
100
AcDbEntity
  8
0
 62
0
100
AcDbLine
 10
31.2999999524327
 20
0.0
 30
0.0
 11
9.099999904632568
 21
0.0
 31
0.0
  0
LINE
  5
1C2
330
1B1
100
AcDbEntity
  8
0
 62
0
100
AcDbLine
 10
9.099999904632568
 20
0.0
 30
0.0
 11
9.099999904632568
 21
12.199999988079071
 31
0.0
  0
LINE
  5
1C3
330
1B1
100
AcDbEntity
  8
0
 62
0
100
AcDbLine
 10
9.099999904632568
 20
12.199999988079071
 30
0.0
 11
1.1641532182693481e-10
 21
12.199999988079071
 31
0.0
  0
ARC
  5
1C4
330
1B1
100
AcDbEntity
  8
0
 62
0
100
AcDbCircle
 10
2.0
 20
14.199999988071795
 30
0.0
 40
2.0
100
AcDbArc
 50
180.0
 51
180.0
  0
LINE
  5
1C5
330
1B1
100
AcDbEntity
  8
0
 62
0
100
AcDbLine
 10
1.1641532182693481e-10
 20
12.199999988079071
 30
0.0
 11
1.1641532182693481e-10
 21
2167.8000000119137
 31
0.0
  0
LINE
  5
1C6
330
1B1
100
AcDbEntity
  8
0
 62
0
100
AcDbLine
 10
1.1641532182693481e-10
 20
2167.8000000119137
 30
0.0
 11
9.099999904632568
 21
2167.8000000119137
 31
0.0
  0
LINE
  5
1C7
330
1B1
100
AcDbEntity
  8
0
 62
0
100
AcDbLine
 10
9.099999904632568
 20
2167.8000000119137
 30
0.0
 11
9.099999904632568
 21
2180.0
 31
0.0
  0
LINE
  5
1C8
330
1B1
100
AcDbEntity
  8
0
 62
0
100
AcDbLine
 10
9.099999904632568
 20
2180.0
 30
0.0
 11
31.2999999524327
 21
2180.0
 31
0.0
  0
LINE
  5
1C9
330
1B1
100
AcDbEntity
  8
0
 62
0
100
AcDbLine
 10
31.2999999524327
 20
2180.0
 30
0.0
 11
31.2999999524327
 21
2176.399999976151
 31
0.0
  0
LINE
  5
1CA
330
1B1
100
AcDbEntity
  8
0
 62
0
100
AcDbLine
 10
31.2999999524327
 20
2176.399999976151
 30
0.0
 11
49.90000009536743
 21
2176.399999976151
 31
0.0
  0
LINE
  5
1CB
330
1B1
100
AcDbEntity
  8
0
 62
0
100
AcDbLine
 10
49.90000009536743
 20
2176.399999976151
 30
0.0
 11
49.90000009536743
 21
2180.0
 31
0.0
  0
LINE
  5
1CC
330
1B1
100
AcDbEntity
  8
0
 62
0
100
AcDbLine
 10
49.90000009536743
 20
2180.0
 30
0.0
 11
72.09999990463257
 21
2180.0
 31
0.0
  0
LINE
  5
1CD
330
1B1
100
AcDbEntity
  8
0
 62
0
100
AcDbLine
 10
72.09999990463257
 20
2180.0
 30
0.0
 11
72.09999990463257
 21
2167.8000000119137
 31
0.0
  0
LINE
  5
1CE
330
1B1
100
AcDbEntity
  8
0
 62
0
100
AcDbLine
 10
72.09999990463257
 20
2167.8000000119137
 30
0.0
 11
89.20000004780013
 21
2167.8000000119137
 31
0.0
  0
ENDBLK
  5
1B3
330
1B1
100
AcDbEntity
  8
0
100
AcDbBlockEnd
  0
BLOCK
  5
1D0
330
1CF
100
AcDbEntity
  8
0
100
AcDbBlockBegin
  2
KB__-______-8055-__16_22
 70
0
 10
0.0
 20
0.0
 30
0.0
  3
KB__-______-8055-__16_22
  1

  0
LWPOLYLINE
  5
1D2
330
1CF
100
AcDbEntity
  8
0
 62
0
100
AcDbPolyline
 90
27
 70
0
 10
89.2000000475673
 20
2167.8000000119137
 10
89.2000000475673
 20
2081.9999999999927
 42
-0.4142135623730951
 10
87.20000004745089
 20
2080.0
 10
85.2000000475673
 20
2080.0
 10
85.2000000475673
 20
2030.0
 10
87.20000004745089
 20
2030.0
 42
-0.4142135623730951
 10
89.2000000475673
 20
2027.9999999999927
 10
89.2000000475673
 20
12.199999988079071
 10
72.09999990451615
 20
12.199999988079071
 10
72.09999990451615
 20
0.0
 10
49.9000000951346
 20
0.0
 10
49.9000000951346
 20
3.600000023841858
 10
31.29999995219987
 20
3.600000023841858
 10
31.29999995219987
 20
0.0
 10
9.099999904516153
 20
0.0
 10
9.099999904516153
 20
12.199999988079071
 10
0.0
 20
12.199999988079071
 10
0.0
 20
2167.8000000119137
 10
9.099999904516153
 20
2167.8000000119137
 10
9.099999904516153
 20
2180.0
 10
31.29999995219987
 20
2180.0
 10
31.29999995219987
 20
2176.399999976151
 10
49.9000000951346
 20
2176.399999976151
 10
49.9000000951346
 20
2180.0
 10
72.09999990451615
 20
2180.0
 10
72.09999990451615
 20
2167.8000000119137
 10
89.2000000475673
 20
2167.8000000119137
  0
ENDBLK
  5
1D1
330
1CF
100
AcDbEntity
  8
0
100
AcDbBlockEnd
  0
BLOCK
  5
1D4
330
1D3
100
AcDbEntity
  8
0
100
AcDbBlockBegin
  2
KB__-______-8055-__17_23
 70
0
 10
0.0
 20
0.0
 30
0.0
  3
KB__-______-8055-__17_23
  1

  0
ARC
  5
1D6
330
1D3
100
AcDbEntity
  8
0
 62
7
100
AcDbCircle
 10
28.549998998758383
 20
903.6499996185303
 30
0.0
 40
8.650001
100
AcDbArc
 50
180.0
 51
0.0
  0
LWPOLYLINE
  5
1D7
330
1D3
100
AcDbEntity
  8
0
 62
7
100
AcDbPolyline
 90
4
 70
1
 10
31.300119400024414
 20
888.0500571131779
 42
0.9999999999999998
 10
25.800119400024414
 20
888.0500571131779
 10
25.800119400024414
 20
885.5500571131779
 42
0.9999999999999998
 10
31.300119400024414
 20
885.5500571131779
  0
LWPOLYLINE
  5
1D8
330
1D3
100
AcDbEntity
  8
0
 62
7
100
AcDbPolyline
 90
4
 70
1
 10
31.3000431060791
 20
873.0500210523605
 42
0.9999999999999998
 10
25.8000431060791
 20
873.0500210523605
 10
25.8000431060791
 20
870.5500210523678
 42
0.9999999999999998
 10
31.3000431060791
 20
870.5500210523678
  0
LWPOLYLINE
  5
1D9
330
1D3
100
AcDbEntity
  8
0
100
AcDbPolyline
 90
4
 70
1
 10
31.3000431060791
 20
47.450020670898084
 42
0.9999999999999998
 10
25.8000431060791
 20
47.450020670898084
 10
25.8000431060791
 20
44.950020670898084
 42
0.9999999999999998
 10
31.3000431060791
 20
44.950020670898084
  0
LWPOLYLINE
  5
1DA
330
1D3
100
AcDbEntity
  8
0
100
AcDbPolyline
 90
4
 70
1
 10
31.3000431060791
 20
32.450020670898084
 42
0.9999999999999998
 10
25.8000431060791
 20
32.450020670898084
 10
25.8000431060791
 20
29.950020670890808
 42
0.9999999999999998
 10
31.3000431060791
 20
29.950020670890808
  0
LWPOLYLINE
  5
1DB
330
1D3
100
AcDbEntity
  8
0
 62
7
100
AcDbPolyline
 90
12
 70
0
 10
19.89999937999528
 20
903.6451109051704
 10
19.89999937999528
 20
918.0000000000073
 10
0.0
 20
918.0000000000073
 10
0.0
 20
0.0
 10
57.59999775898177
 20
0.0
 10
57.59999775898177
 20
2.000000000007276
 10
67.59999775886536
 20
2.000000000007276
 10
67.59999775886536
 20
916.0
 10
57.59999775898177
 20
916.0
 10
57.59999775898177
 20
918.0000000000073
 10
37.19999861717224
 20
918.0000000000073
 10
37.19999861717224
 20
903.6451109051704
  0
ENDBLK
  5
1D5
330
1D3
100
AcDbEntity
  8
0
100
AcDbBlockEnd
  0
ENDSEC
  0
SECTION
  2
ENTITIES
  0
LWPOLYLINE
  5
1DC
330
17
100
AcDbEntity
  8
0
 62
3
100
AcDbPolyline
 90
4
 70
1
 10
0.0
 20
0.0
 10
1219.0
 20
0.0
 10
1219.0
 20
4000.0
 10
0.0
 20
4000.0
  0
INSERT
  5
1DD
330
17
100
AcDbEntity
  8
0
100
AcDbBlockReference
  2
KB__-______-8055-__9_18
 10
0.0
 20
0.0
 30
0.0
  0
TEXT
  5
1DF
330
17
100
AcDbEntity
  8
0
100
AcDbText
 10
0.0
 20
2400.000000102009
 30
0.0
 40
8.0
  1
8055
 11
0.0
 21
2400.000000102009
 31
0.0
100
AcDbText
  0
INSERT
  5
1E0
330
17
100
AcDbEntity
  8
0
100
AcDbBlockReference
  2
KB__-______-8055-__6_15
 10
94.70000019762665
 20
0.0
 30
0.0
  0
TEXT
  5
1E2
330
17
100
AcDbEntity
  8
0
100
AcDbText
 10
94.70000019762665
 20
2185.0
 30
0.0
 40
8.0
  1
8055
 11
94.70000019762665
 21
2185.0
 31
0.0
100
AcDbText
  0
INSERT
  5
1E3
330
17
100
AcDbEntity
  8
0
100
AcDbBlockReference
  2
KB__-______-8055-__15_21
 10
191.90000024542678
 20
0.0
 30
0.0
  0
TEXT
  5
1E5
330
17
100
AcDbEntity
  8
0
100
AcDbText
 10
191.90000024542678
 20
2185.0
 30
0.0
 40
8.0
  1
8055
 11
191.90000024542678
 21
2185.0
 31
0.0
100
AcDbText
  0
INSERT
  5
1E6
330
17
100
AcDbEntity
  8
0
100
AcDbBlockReference
  2
KB__-______-8055-__7_16
 10
289.1000002932269
 20
0.0
 30
0.0
  0
TEXT
  5
1E8
330
17
100
AcDbEntity
  8
0
100
AcDbText
 10
289.1000002932269
 20
2185.0
 30
0.0
 40
8.0
  1
8055
 11
289.1000002932269
 21
2185.0
 31
0.0
100
AcDbText
  0
INSERT
  5
1E9
330
17
100
AcDbEntity
  8
0
100
AcDbBlockReference
  2
KB__-______-8055-__16_22
 10
386.3000003407942
 20
0.0
 30
0.0
  0
TEXT
  5
1EB
330
17
100
AcDbEntity
  8
0
100
AcDbText
 10
386.3000003407942
 20
2185.0
 30
0.0
 40
8.0
  1
8055
 11
386.3000003407942
 21
2185.0
 31
0.0
100
AcDbText
  0
INSERT
  5
1EC
330
17
100
AcDbEntity
  8
0
100
AcDbBlockReference
  2
KB__-______-8055-__8_17
 10
483.5000003883615
 20
0.0
 30
0.0
  0
TEXT
  5
1EE
330
17
100
AcDbEntity
  8
0
100
AcDbText
 10
483.5000003883615
 20
1008.0000000000073
 30
0.0
 40
8.0
  1
8055
 11
483.5000003883615
 21
1008.0000000000073
 31
0.0
100
AcDbText
  0
INSERT
  5
1EF
330
17
100
AcDbEntity
  8
0
100
AcDbBlockReference
  2
KB__-______-8055-__5_14
 10
559.0999981472269
 20
0.0
 30
0.0
  0
TEXT
  5
1F1
330
17
100
AcDbEntity
  8
0
100
AcDbText
 10
559.0999981472269
 20
2400.0000000000073
 30
0.0
 40
8.0
  1
8055
 11
559.0999981472269
 21
2400.0000000000073
 31
0.0
100
AcDbText
  0
INSERT
  5
1F2
330
17
100
AcDbEntity
  8
0
100
AcDbBlockReference
  2
KB__-______-8055-__14_20
 10
594.7999981471803
 20
0.0
 30
0.0
  0
TEXT
  5
1F4
330
17
100
AcDbEntity
  8
0
100
AcDbText
 10
594.7999981471803
 20
2390.0000000000073
 30
0.0
 40
8.0
  1
8055
 11
594.7999981471803
 21
2390.0000000000073
 31
0.0
100
AcDbText
  0
INSERT
  5
1F5
330
17
100
AcDbEntity
  8
0
100
AcDbBlockReference
  2
KB__-______-8055-__17_23
 10
630.4999981471337
 20
0.0
 30
0.0
  0
TEXT
  5
1F7
330
17
100
AcDbEntity
  8
0
100
AcDbText
 10
630.4999981471337
 20
923.0000000000073
 30
0.0
 40
8.0
  1
8055
 11
630.4999981471337
 21
923.0000000000073
 31
0.0
100
AcDbText
  0
INSERT
  5
1F8
330
17
100
AcDbEntity
  8
0
100
AcDbBlockReference
  2
KB__-______-8055-__4_13
 10
706.0999959059991
 20
0.0
 30
0.0
  0
TEXT
  5
1FA
330
17
100
AcDbEntity
  8
0
100
AcDbText
 10
706.0999959059991
 20
205.00222150360787
 30
0.0
 40
8.0
  1
8055
 11
706.0999959059991
 21
205.00222150360787
 31
0.0
100
AcDbText
  0
INSERT
  5
1FB
330
17
100
AcDbEntity
  8
0
100
AcDbBlockReference
  2
KB__-______-8055-__13_19
 10
739.3000082439976
 20
0.0
 30
0.0
  0
TEXT
  5
1FD
330
17
100
AcDbEntity
  8
0
100
AcDbText
 10
739.3000082439976
 20
205.00222150360787
 30
0.0
 40
8.0
  1
8055
 11
739.3000082439976
 21
205.00222150360787
 31
0.0
100
AcDbText
  0
TEXT
  5
1FE
330
17
100
AcDbEntity
  8
0
 62
5
100
AcDbText
 10
0.0
 20
4020.0
 30
0.0
 40
12.0
  1
板1  哑黑0.76  1219.0x4000
 11
0.0
 21
4020.0
 31
0.0
100
AcDbText
  0
LWPOLYLINE
  5
1FF
330
17
100
AcDbEntity
  8
0
 62
3
100
AcDbPolyline
 90
4
 70
1
 10
1519.0
 20
0.0
 10
2738.0
 20
0.0
 10
2738.0
 20
4000.0
 10
1519.0
 20
4000.0
  0
INSERT
  5
200
330
17
100
AcDbEntity
  8
0
100
AcDbBlockReference
  2
KB__-___-8317K-__5_3
 10
1519.0
 20
0.0
 30
0.0
  0
TEXT
  5
202
330
17
100
AcDbEntity
  8
0
100
AcDbText
 10
1519.0
 20
2305.999999999999
 30
0.0
 40
8.0
  1
8317K
 11
1519.0
 21
2305.999999999999
 31
0.0
100
AcDbText
  0
INSERT
  5
203
330
17
100
AcDbEntity
  8
0
100
AcDbBlockReference
  2
KB__-___-8317K-__13_9
 10
1664.9000000000015
 20
0.0
 30
0.0
  0
TEXT
  5
205
330
17
100
AcDbEntity
  8
0
100
AcDbText
 10
1664.9000000000015
 20
2305.999999999999
 30
0.0
 40
8.0
  1
8317K
 11
1664.9000000000015
 21
2305.999999999999
 31
0.0
100
AcDbText
  0
INSERT
  5
206
330
17
100
AcDbEntity
  8
0
100
AcDbBlockReference
  2
KB__-___-8317K-__12_8
 10
1810.800000000003
 20
0.0
 30
0.0
  0
TEXT
  5
208
330
17
100
AcDbEntity
  8
0
100
AcDbText
 10
1810.800000000003
 20
2325.0
 30
0.0
 40
8.0
  1
8317K
 11
1810.800000000003
 21
2325.0
 31
0.0
100
AcDbText
  0
INSERT
  5
209
330
17
100
AcDbEntity
  8
0
100
AcDbBlockReference
  2
KB__-___-8317K-__4_2
 10
1950.4999950409
 20
0.0
 30
0.0
  0
TEXT
  5
20B
330
17
100
AcDbEntity
  8
0
100
AcDbText
 10
1950.4999950409
 20
2322.0
 30
0.0
 40
8.0
  1
8317K
 11
1950.4999950409
 21
2322.0
 31
0.0
100
AcDbText
  0
INSERT
  5
20C
330
17
100
AcDbEntity
  8
0
100
AcDbBlockReference
  2
KB__-___-8317K-__3_1
 10
2090.19999008179
 20
0.0
 30
0.0
  0
TEXT
  5
20E
330
17
100
AcDbEntity
  8
0
100
AcDbText
 10
2090.19999008179
 20
2321.999999999999
 30
0.0
 40
8.0
  1
8317K
 11
2090.19999008179
 21
2321.999999999999
 31
0.0
100
AcDbText
  0
INSERT
  5
20F
330
17
100
AcDbEntity
  8
0
100
AcDbBlockReference
  2
KB__-___-8317K-__11_7
 10
2195.69999027252
 20
0.0
 30
0.0
  0
TEXT
  5
211
330
17
100
AcDbEntity
  8
0
100
AcDbText
 10
2195.69999027252
 20
2321.999999999999
 30
0.0
 40
8.0
  1
8317K
 11
2195.69999027252
 21
2321.999999999999
 31
0.0
100
AcDbText
  0
INSERT
  5
212
330
17
100
AcDbEntity
  8
0
100
AcDbBlockReference
  2
KB__-___-8317K-__14_10
 10
2301.1999904632485
 20
0.0
 30
0.0
  0
TEXT
  5
214
330
17
100
AcDbEntity
  8
0
100
AcDbText
 10
2301.1999904632485
 20
2281.999999999999
 30
0.0
 40
8.0
  1
8317K
 11
2301.1999904632485
 21
2281.999999999999
 31
0.0
100
AcDbText
  0
INSERT
  5
215
330
17
100
AcDbEntity
  8
0
100
AcDbBlockReference
  2
KB__-___-8317K-__15_11
 10
2397.3999902725172
 20
0.0
 30
0.0
  0
TEXT
  5
217
330
17
100
AcDbEntity
  8
0
100
AcDbText
 10
2397.3999902725172
 20
2281.999999999999
 30
0.0
 40
8.0
  1
8317K
 11
2397.3999902725172
 21
2281.999999999999
 31
0.0
100
AcDbText
  0
INSERT
  5
218
330
17
100
AcDbEntity
  8
0
100
AcDbBlockReference
  2
KB__-___-8317K-__6_4
 10
2493.5999900817787
 20
0.0
 30
0.0
  0
TEXT
  5
21A
330
17
100
AcDbEntity
  8
0
100
AcDbText
 10
2493.5999900817787
 20
2281.999999999999
 30
0.0
 40
8.0
  1
8317K
 11
2493.5999900817787
 21
2281.999999999999
 31
0.0
100
AcDbText
  0
INSERT
  5
21B
330
17
100
AcDbEntity
  8
0
100
AcDbBlockReference
  2
KB__-___-8317K-__7_5
 10
2589.7999898910384
 20
0.0
 30
0.0
  0
TEXT
  5
21D
330
17
100
AcDbEntity
  8
0
100
AcDbText
 10
2589.7999898910384
 20
2281.999999999999
 30
0.0
 40
8.0
  1
8317K
 11
2589.7999898910384
 21
2281.999999999999
 31
0.0
100
AcDbText
  0
INSERT
  5
21E
330
17
100
AcDbEntity
  8
0
100
AcDbBlockReference
  2
KB__-___-8317K-__8_6
 10
1519.0
 20
2328.0
 30
0.0
  0
TEXT
  5
220
330
17
100
AcDbEntity
  8
0
100
AcDbText
 10
1519.0
 20
3033.0
 30
0.0
 40
8.0
  1
8317K
 11
1519.0
 21
3033.0
 31
0.0
100
AcDbText
  0
INSERT
  5
221
330
17
100
AcDbEntity
  8
0
100
AcDbBlockReference
  2
KB__-___-8317K-__16_12
 10
1594.5999977588708
 20
2328.0
 30
0.0
  0
TEXT
  5
223
330
17
100
AcDbEntity
  8
0
100
AcDbText
 10
1594.5999977588708
 20
3033.0
 30
0.0
 40
8.0
  1
8317K
 11
1594.5999977588708
 21
3033.0
 31
0.0
100
AcDbText
  0
TEXT
  5
224
330
17
100
AcDbEntity
  8
0
 62
5
100
AcDbText
 10
1519.0
 20
4020.0
 30
0.0
 40
12.0
  1
板2  哑黑0.76  1219.0x4000
 11
1519.0
 21
4020.0
 31
0.0
100
AcDbText
  0
ENDSEC
  0
SECTION
  2
OBJECTS
  0
DICTIONARY
  5
A
330
0
100
AcDbDictionary
281
1
  3
ACAD_COLOR
350
B
  3
ACAD_GROUP
350
C
  3
ACAD_LAYOUT
350
D
  3
ACAD_MATERIAL
350
E
  3
ACAD_MLEADERSTYLE
350
F
  3
ACAD_MLINESTYLE
350
10
  3
ACAD_PLOTSETTINGS
350
11
  3
ACAD_PLOTSTYLENAME
350
12
  3
ACAD_SCALELIST
350
14
  3
ACAD_TABLESTYLE
350
15
  3
ACAD_VISUALSTYLE
350
16
  3
EZDXF_META
350
2D
  0
DICTIONARY
  5
B
330
A
100
AcDbDictionary
281
1
  0
DICTIONARY
  5
C
330
A
100
AcDbDictionary
281
1
  0
DICTIONARY
  5
D
330
A
100
AcDbDictionary
281
1
  3
Model
350
1A
  3
Layout1
350
1E
  0
DICTIONARY
  5
E
330
A
100
AcDbDictionary
281
1
  3
ByBlock
350
1F
  3
ByLayer
350
20
  3
Global
350
21
  0
DICTIONARY
  5
F
330
A
100
AcDbDictionary
281
1
  3
Standard
350
2C
  0
DICTIONARY
  5
10
330
A
100
AcDbDictionary
281
1
  3
Standard
350
22
  0
DICTIONARY
  5
11
330
A
100
AcDbDictionary
281
1
  0
ACDBDICTIONARYWDFLT
  5
12
330
A
100
AcDbDictionary
281
1
  3
Normal
350
13
100
AcDbDictionaryWithDefault
340
13
  0
ACDBPLACEHOLDER
  5
13
330
12
  0
DICTIONARY
  5
14
330
A
100
AcDbDictionary
281
1
  0
DICTIONARY
  5
15
330
A
100
AcDbDictionary
281
1
  0
DICTIONARY
  5
16
330
A
100
AcDbDictionary
281
1
  0
LAYOUT
  5
1A
330
D
100
AcDbPlotSettings
  1

  4
A3
  6

 40
7.5
 41
20.0
 42
7.5
 43
20.0
 44
420.0
 45
297.0
 46
0.0
 47
0.0
 48
0.0
 49
0.0
140
0.0
141
0.0
142
1.0
143
1.0
 70
1024
 72
1
 73
0
 74
5
  7

 75
16
 76
0
 77
2
 78
300
147
1.0
148
0.0
149
0.0
100
AcDbLayout
  1
Model
 70
1
 71
0
 10
0.0
 20
0.0
 11
420.0
 21
297.0
 12
0.0
 22
0.0
 32
0.0
 14
1e+20
 24
1e+20
 34
1e+20
 15
-1e+20
 25
-1e+20
 35
-1e+20
146
0.0
 13
0.0
 23
0.0
 33
0.0
 16
1.0
 26
0.0
 36
0.0
 17
0.0
 27
1.0
 37
0.0
 76
1
330
17
  0
LAYOUT
  5
1E
330
D
100
AcDbPlotSettings
  1

  4
A3
  6

 40
7.5
 41
20.0
 42
7.5
 43
20.0
 44
420.0
 45
297.0
 46
0.0
 47
0.0
 48
0.0
 49
0.0
140
0.0
141
0.0
142
1.0
143
1.0
 70
0
 72
1
 73
0
 74
5
  7

 75
16
 76
0
 77
2
 78
300
147
1.0
148
0.0
149
0.0
100
AcDbLayout
  1
Layout1
 70
1
 71
1
 10
0.0
 20
0.0
 11
420.0
 21
297.0
 12
0.0
 22
0.0
 32
0.0
 14
1e+20
 24
1e+20
 34
1e+20
 15
-1e+20
 25
-1e+20
 35
-1e+20
146
0.0
 13
0.0
 23
0.0
 33
0.0
 16
1.0
 26
0.0
 36
0.0
 17
0.0
 27
1.0
 37
0.0
 76
1
330
1B
  0
MATERIAL
  5
1F
102
{ACAD_REACTORS
330
E
102
}
330
E
100
AcDbMaterial
  1
ByBlock
  2

 70
0
 40
1.0
 71
1
 41
1.0
 91
-1023410177
 42
1.0
 72
1
  3

 73
1
 74
1
 75
1
 44
0.5
 73
0
 45
1.0
 46
1.0
 77
1
  4

 78
1
 79
1
170
1
 48
1.0
171
1
  6

172
1
173
1
174
1
140
1.0
141
1.0
175
1
  7

176
1
177
1
178
1
143
1.0
179
1
  8

270
1
271
1
272
1
145
1.0
146
1.0
273
1
  9

274
1
275
1
276
1
 42
1.0
 72
1
  3

 73
1
 74
1
 75
1
 94
63
  0
MATERIAL
  5
20
102
{ACAD_REACTORS
330
E
102
}
330
E
100
AcDbMaterial
  1
ByLayer
  2

 70
0
 40
1.0
 71
1
 41
1.0
 91
-1023410177
 42
1.0
 72
1
  3

 73
1
 74
1
 75
1
 44
0.5
 73
0
 45
1.0
 46
1.0
 77
1
  4

 78
1
 79
1
170
1
 48
1.0
171
1
  6

172
1
173
1
174
1
140
1.0
141
1.0
175
1
  7

176
1
177
1
178
1
143
1.0
179
1
  8

270
1
271
1
272
1
145
1.0
146
1.0
273
1
  9

274
1
275
1
276
1
 42
1.0
 72
1
  3

 73
1
 74
1
 75
1
 94
63
  0
MATERIAL
  5
21
102
{ACAD_REACTORS
330
E
102
}
330
E
100
AcDbMaterial
  1
Global
  2

 70
0
 40
1.0
 71
1
 41
1.0
 91
-1023410177
 42
1.0
 72
1
  3

 73
1
 74
1
 75
1
 44
0.5
 73
0
 45
1.0
 46
1.0
 77
1
  4

 78
1
 79
1
170
1
 48
1.0
171
1
  6

172
1
173
1
174
1
140
1.0
141
1.0
175
1
  7

176
1
177
1
178
1
143
1.0
179
1
  8

270
1
271
1
272
1
145
1.0
146
1.0
273
1
  9

274
1
275
1
276
1
 42
1.0
 72
1
  3

 73
1
 74
1
 75
1
 94
63
  0
MLINESTYLE
  5
22
102
{ACAD_REACTORS
330
10
102
}
330
10
100
AcDbMlineStyle
  2
Standard
 70
0
  3

 62
256
 51
90.0
 52
90.0
 71
2
 49
0.5
 62
256
  6
BYLAYER
 49
-0.5
 62
256
  6
BYLAYER
  0
MLEADERSTYLE
  5
2C
102
{ACAD_REACTORS
330
F
102
}
330
F
100
AcDbMLeaderStyle
179
2
170
2
171
1
172
0
 90
2
 40
0.0
 41
0.0
173
1
 91
-1056964608
 92
-2
290
1
 42
2.0
291
1
 43
8.0
  3
Standard
 44
4.0
300

342
29
174
1
175
1
176
0
178
1
 93
-1056964608
 45
4.0
292
0
297
0
 46
4.0
 94
-1056964608
 47
1.0
 49
1.0
140
1.0
294
1
141
0.0
177
0
142
1.0
295
0
296
0
143
3.75
271
0
272
9
273
9
  0
DICTIONARY
  5
2D
330
A
100
AcDbDictionary
280
1
281
1
  3
CREATED_BY_EZDXF
350
2E
  3
WRITTEN_BY_EZDXF
350
227
  0
DICTIONARYVAR
  5
2E
330
2D
100
DictionaryVariables
280
0
  1
1.4.3 @ 2026-04-03T02:28:57.306837+00:00
  0
DICTIONARYVAR
  5
227
330
2D
100
DictionaryVariables
280
0
  1
1.4.3 @ 2026-04-03T02:28:59.175617+00:00
  0
ENDSEC
  0
EOF
