  0
SECTION
  2
HEADER
  9
$ACADVER
  1
AC1024
  9
$ACADMAINTVER
 70
6
  9
$DWGCODEPAGE
  3
ANSI_1252
  9
$LASTSAVEDBY
  1
ezdxf
  9
$INSBASE
 10
0.0
 20
0.0
 30
0.0
  9
$EXTMIN
 10
1e+20
 20
1e+20
 30
1e+20
  9
$EXTMAX
 10
-1e+20
 20
-1e+20
 30
-1e+20
  9
$LIMMIN
 10
0.0
 20
0.0
  9
$LIMMAX
 10
420.0
 20
297.0
  9
$ORTHOMODE
 70
0
  9
$REGENMODE
 70
1
  9
$FILLMODE
 70
1
  9
$QTEXTMODE
 70
0
  9
$MIRRTEXT
 70
1
  9
$LTSCALE
 40
1.0
  9
$ATTMODE
 70
1
  9
$TEXTSIZE
 40
2.5
  9
$TRACEWID
 40
1.0
  9
$TEXTSTYLE
  7
Standard
  9
$CLAYER
  8
0
  9
$CELTYPE
  6
ByLayer
  9
$CECOLOR
 62
256
  9
$CELTSCALE
 40
1.0
  9
$DISPSILH
 70
0
  9
$DIMSCALE
 40
1.0
  9
$DIMASZ
 40
2.5
  9
$DIMEXO
 40
0.625
  9
$DIMDLI
 40
3.75
  9
$DIMRND
 40
0.0
  9
$DIMDLE
 40
0.0
  9
$DIMEXE
 40
1.25
  9
$DIMTP
 40
0.0
  9
$DIMTM
 40
0.0
  9
$DIMTXT
 40
2.5
  9
$DIMCEN
 40
2.5
  9
$DIMTSZ
 40
0.0
  9
$DIMTOL
 70
0
  9
$DIMLIM
 70
0
  9
$DIMTIH
 70
0
  9
$DIMTOH
 70
0
  9
$DIMSE1
 70
0
  9
$DIMSE2
 70
0
  9
$DIMTAD
 70
1
  9
$DIMZIN
 70
8
  9
$DIMBLK
  1

  9
$DIMASO
 70
1
  9
$DIMSHO
 70
1
  9
$DIMPOST
  1

  9
$DIMAPOST
  1

  9
$DIMALT
 70
0
  9
$DIMALTD
 70
3
  9
$DIMALTF
 40
0.03937007874
  9
$DIMLFAC
 40
1.0
  9
$DIMTOFL
 70
1
  9
$DIMTVP
 40
0.0
  9
$DIMTIX
 70
0
  9
$DIMSOXD
 70
0
  9
$DIMSAH
 70
0
  9
$DIMBLK1
  1

  9
$DIMBLK2
  1

  9
$DIMSTYLE
  2
ISO-25
  9
$DIMCLRD
 70
0
  9
$DIMCLRE
 70
0
  9
$DIMCLRT
 70
0
  9
$DIMTFAC
 40
1.0
  9
$DIMGAP
 40
0.625
  9
$DIMJUST
 70
0
  9
$DIMSD1
 70
0
  9
$DIMSD2
 70
0
  9
$DIMTOLJ
 70
0
  9
$DIMTZIN
 70
8
  9
$DIMALTZ
 70
0
  9
$DIMALTTZ
 70
0
  9
$DIMUPT
 70
0
  9
$DIMDEC
 70
2
  9
$DIMTDEC
 70
2
  9
$DIMALTU
 70
2
  9
$DIMALTTD
 70
3
  9
$DIMTXSTY
  7
Standard
  9
$DIMAUNIT
 70
0
  9
$DIMADEC
 70
0
  9
$DIMALTRND
 40
0.0
  9
$DIMAZIN
 70
0
  9
$DIMDSEP
 70
44
  9
$DIMATFIT
 70
3
  9
$DIMFRAC
 70
0
  9
$DIMLDRBLK
  1

  9
$DIMLUNIT
 70
2
  9
$DIMLWD
 70
-2
  9
$DIMLWE
 70
-2
  9
$DIMTMOVE
 70
0
  9
$DIMFXL
 40
1.0
  9
$DIMFXLON
 70
0
  9
$DIMJOGANG
 40
0.785398163397
  9
$DIMTFILL
 70
0
  9
$DIMTFILLCLR
 70
0
  9
$DIMARCSYM
 70
0
  9
$DIMLTYPE
  6

  9
$DIMLTEX1
  6

  9
$DIMLTEX2
  6

  9
$DIMTXTDIRECTION
 70
0
  9
$LUNITS
 70
2
  9
$LUPREC
 70
4
  9
$SKETCHINC
 40
1.0
  9
$FILLETRAD
 40
10.0
  9
$AUNITS
 70
0
  9
$AUPREC
 70
2
  9
$MENU
  1
.
  9
$ELEVATION
 40
0.0
  9
$PELEVATION
 40
0.0
  9
$THICKNESS
 40
0.0
  9
$LIMCHECK
 70
0
  9
$CHAMFERA
 40
0.0
  9
$CHAMFERB
 40
0.0
  9
$CHAMFERC
 40
0.0
  9
$CHAMFERD
 40
0.0
  9
$SKPOLY
 70
0
  9
$TDCREATE
 40
2461134.4366782405
  9
$TDUCREATE
 40
2458532.153996898
  9
$TDUPDATE
 40
2461134.4367939816
  9
$TDUUPDATE
 40
2458532.1544311
  9
$TDINDWG
 40
0.0
  9
$TDUSRTIMER
 40
0.0
  9
$USRTIMER
 70
1
  9
$ANGBASE
 50
0.0
  9
$ANGDIR
 70
0
  9
$PDMODE
 70
0
  9
$PDSIZE
 40
0.0
  9
$PLINEWID
 40
0.0
  9
$SPLFRAME
 70
0
  9
$SPLINETYPE
 70
6
  9
$SPLINESEGS
 70
8
  9
$HANDSEED
  5
17C
  9
$SURFTAB1
 70
6
  9
$SURFTAB2
 70
6
  9
$SURFTYPE
 70
6
  9
$SURFU
 70
6
  9
$SURFV
 70
6
  9
$UCSBASE
  2

  9
$UCSNAME
  2

  9
$UCSORG
 10
0.0
 20
0.0
 30
0.0
  9
$UCSXDIR
 10
1.0
 20
0.0
 30
0.0
  9
$UCSYDIR
 10
0.0
 20
1.0
 30
0.0
  9
$UCSORTHOREF
  2

  9
$UCSORTHOVIEW
 70
0
  9
$UCSORGTOP
 10
0.0
 20
0.0
 30
0.0
  9
$UCSORGBOTTOM
 10
0.0
 20
0.0
 30
0.0
  9
$UCSORGLEFT
 10
0.0
 20
0.0
 30
0.0
  9
$UCSORGRIGHT
 10
0.0
 20
0.0
 30
0.0
  9
$UCSORGFRONT
 10
0.0
 20
0.0
 30
0.0
  9
$UCSORGBACK
 10
0.0
 20
0.0
 30
0.0
  9
$PUCSBASE
  2

  9
$PUCSNAME
  2

  9
$PUCSORG
 10
0.0
 20
0.0
 30
0.0
  9
$PUCSXDIR
 10
1.0
 20
0.0
 30
0.0
  9
$PUCSYDIR
 10
0.0
 20
1.0
 30
0.0
  9
$PUCSORTHOREF
  2

  9
$PUCSORTHOVIEW
 70
0
  9
$PUCSORGTOP
 10
0.0
 20
0.0
 30
0.0
  9
$PUCSORGBOTTOM
 10
0.0
 20
0.0
 30
0.0
  9
$PUCSORGLEFT
 10
0.0
 20
0.0
 30
0.0
  9
$PUCSORGRIGHT
 10
0.0
 20
0.0
 30
0.0
  9
$PUCSORGFRONT
 10
0.0
 20
0.0
 30
0.0
  9
$PUCSORGBACK
 10
0.0
 20
0.0
 30
0.0
  9
$USERI1
 70
0
  9
$USERI2
 70
0
  9
$USERI3
 70
0
  9
$USERI4
 70
0
  9
$USERI5
 70
0
  9
$USERR1
 40
0.0
  9
$USERR2
 40
0.0
  9
$USERR3
 40
0.0
  9
$USERR4
 40
0.0
  9
$USERR5
 40
0.0
  9
$WORLDVIEW
 70
1
  9
$SHADEDGE
 70
3
  9
$SHADEDIF
 70
70
  9
$TILEMODE
 70
1
  9
$MAXACTVP
 70
64
  9
$PINSBASE
 10
0.0
 20
0.0
 30
0.0
  9
$PLIMCHECK
 70
0
  9
$PEXTMIN
 10
1e+20
 20
1e+20
 30
1e+20
  9
$PEXTMAX
 10
-1e+20
 20
-1e+20
 30
-1e+20
  9
$PLIMMIN
 10
0.0
 20
0.0
  9
$PLIMMAX
 10
420.0
 20
297.0
  9
$UNITMODE
 70
0
  9
$VISRETAIN
 70
1
  9
$PLINEGEN
 70
0
  9
$PSLTSCALE
 70
1
  9
$TREEDEPTH
 70
3020
  9
$CMLSTYLE
  2
Standard
  9
$CMLJUST
 70
0
  9
$CMLSCALE
 40
20.0
  9
$PROXYGRAPHICS
 70
1
  9
$MEASUREMENT
 70
1
  9
$CELWEIGHT
370
-1
  9
$ENDCAPS
280
0
  9
$JOINSTYLE
280
0
  9
$LWDISPLAY
290
0
  9
$INSUNITS
 70
6
  9
$HYPERLINKBASE
  1

  9
$STYLESHEET
  1

  9
$XEDIT
290
1
  9
$CEPSNTYPE
380
0
  9
$PSTYLEMODE
290
1
  9
$FINGERPRINTGUID
  2
{BDDF2817-CA1D-4750-8B6B-3501D545D247}
  9
$VERSIONGUID
  2
{8FB52CA4-97AB-4E71-97B6-F9163B3E39C1}
  9
$EXTNAMES
290
1
  9
$PSVPSCALE
 40
0.0
  9
$OLESTARTUP
290
0
  9
$SORTENTS
280
127
  9
$INDEXCTL
280
0
  9
$HIDETEXT
280
1
  9
$XCLIPFRAME
280
1
  9
$HALOGAP
280
0
  9
$OBSCOLOR
 70
257
  9
$OBSLTYPE
280
0
  9
$INTERSECTIONDISPLAY
280
0
  9
$INTERSECTIONCOLOR
 70
257
  9
$DIMASSOC
280
2
  9
$PROJECTNAME
  1

  9
$CAMERADISPLAY
290
0
  9
$LENSLENGTH
 40
50.0
  9
$CAMERAHEIGHT
 40
0.0
  9
$STEPSPERSEC
 40
24.0
  9
$STEPSIZE
 40
100.0
  9
$3DDWFPREC
 40
2.0
  9
$PSOLWIDTH
 40
0.005
  9
$PSOLHEIGHT
 40
0.08
  9
$LOFTANG1
 40
1.570796326795
  9
$LOFTANG2
 40
1.570796326795
  9
$LOFTMAG1
 40
0.0
  9
$LOFTMAG2
 40
0.0
  9
$LOFTPARAM
 70
7
  9
$LOFTNORMALS
280
1
  9
$LATITUDE
 40
37.795
  9
$LONGITUDE
 40
-122.394
  9
$NORTHDIRECTION
 40
0.0
  9
$TIMEZONE
 70
-8000
  9
$LIGHTGLYPHDISPLAY
280
1
  9
$TILEMODELIGHTSYNCH
280
1
  9
$CMATERIAL
347
20
  9
$SOLIDHIST
280
0
  9
$SHOWHIST
280
1
  9
$DWFFRAME
280
2
  9
$DGNFRAME
280
2
  9
$REALWORLDSCALE
290
1
  9
$INTERFERECOLOR
 62
256
  9
$CSHADOW
280
0
  9
$SHADOWPLANELOCATION
 40
0.0
  0
ENDSEC
  0
SECTION
  2
CLASSES
  0
CLASS
  1
ACDBDICTIONARYWDFLT
  2
AcDbDictionaryWithDefault
  3
ObjectDBX Classes
 90
0
 91
0
280
0
281
0
  0
CLASS
  1
SUN
  2
AcDbSun
  3
SCENEOE
 90
1153
 91
0
280
0
281
0
  0
CLASS
  1
VISUALSTYLE
  2
AcDbVisualStyle
  3
ObjectDBX Classes
 90
4095
 91
0
280
0
281
0
  0
CLASS
  1
MATERIAL
  2
AcDbMaterial
  3
ObjectDBX Classes
 90
1153
 91
0
280
0
281
0
  0
CLASS
  1
SCALE
  2
AcDbScale
  3
ObjectDBX Classes
 90
1153
 91
0
280
0
281
0
  0
CLASS
  1
TABLESTYLE
  2
AcDbTableStyle
  3
ObjectDBX Classes
 90
4095
 91
0
280
0
281
0
  0
CLASS
  1
MLEADERSTYLE
  2
AcDbMLeaderStyle
  3
ACDB_MLEADERSTYLE_CLASS
 90
4095
 91
0
280
0
281
0
  0
CLASS
  1
DICTIONARYVAR
  2
AcDbDictionaryVar
  3
ObjectDBX Classes
 90
0
 91
0
280
0
281
0
  0
CLASS
  1
CELLSTYLEMAP
  2
AcDbCellStyleMap
  3
ObjectDBX Classes
 90
1152
 91
0
280
0
281
0
  0
CLASS
  1
MENTALRAYRENDERSETTINGS
  2
AcDbMentalRayRenderSettings
  3
SCENEOE
 90
1024
 91
0
280
0
281
0
  0
CLASS
  1
ACDBDETAILVIEWSTYLE
  2
AcDbDetailViewStyle
  3
ObjectDBX Classes
 90
1025
 91
0
280
0
281
0
  0
CLASS
  1
ACDBSECTIONVIEWSTYLE
  2
AcDbSectionViewStyle
  3
ObjectDBX Classes
 90
1025
 91
0
280
0
281
0
  0
CLASS
  1
RASTERVARIABLES
  2
AcDbRasterVariables
  3
ISM
 90
0
 91
0
280
0
281
0
  0
CLASS
  1
ACDBPLACEHOLDER
  2
AcDbPlaceHolder
  3
ObjectDBX Classes
 90
0
 91
0
280
0
281
0
  0
CLASS
  1
LAYOUT
  2
AcDbLayout
  3
ObjectDBX Classes
 90
0
 91
0
280
0
281
0
  0
ENDSEC
  0
SECTION
  2
TABLES
  0
TABLE
  2
VPORT
  5
8
330
0
100
AcDbSymbolTable
 70
1
  0
VPORT
  5
23
330
8
100
AcDbSymbolTableRecord
100
AcDbViewportTableRecord
  2
*Active
 70
0
 10
0.0
 20
0.0
 11
1.0
 21
1.0
 12
0.0
 22
0.0
 13
0.0
 23
0.0
 14
0.5
 24
0.5
 15
0.5
 25
0.5
 16
0.0
 26
0.0
 36
1.0
 17
0.0
 27
0.0
 37
0.0
 40
1000.0
 41
1.34
 42
50.0
 43
0.0
 44
0.0
 50
0.0
 51
0.0
 71
0
 72
1000
 73
1
 74
3
 75
0
 76
0
 77
0
 78
0
281
0
 65
0
146
0.0
  0
ENDTAB
  0
TABLE
  2
LTYPE
  5
2
330
0
100
AcDbSymbolTable
 70
5
  0
LTYPE
  5
24
330
2
100
AcDbSymbolTableRecord
100
AcDbLinetypeTableRecord
  2
ByBlock
 70
0
  3

 72
65
 73
0
 40
0.0
  0
LTYPE
  5
25
330
2
100
AcDbSymbolTableRecord
100
AcDbLinetypeTableRecord
  2
ByLayer
 70
0
  3

 72
65
 73
0
 40
0.0
  0
LTYPE
  5
26
330
2
100
AcDbSymbolTableRecord
100
AcDbLinetypeTableRecord
  2
Continuous
 70
0
  3

 72
65
 73
0
 40
0.0
  0
LTYPE
  5
32
330
2
100
AcDbSymbolTableRecord
100
AcDbLinetypeTableRecord
  2
1
 70
0
  3
 -------
 72
65
 73
2
 40
8.0
 49
4.0
 74
0
 49
4.0
 74
0
  0
LTYPE
  5
33
330
2
100
AcDbSymbolTableRecord
100
AcDbLinetypeTableRecord
  2
DASHED2
 70
0
  3
Dashed (.5x) _ _ _ _ _ _ _ _ _ _ _ _ _ _ _ _ _
 72
65
 73
2
 40
9.524999999999999
 49
6.349999999999999
 74
0
 49
-3.174999999999999
 74
0
  0
ENDTAB
  0
TABLE
  2
LAYER
  5
1
330
0
100
AcDbSymbolTable
 70
10
  0
LAYER
  5
27
330
1
100
AcDbSymbolTableRecord
100
AcDbLayerTableRecord
  2
0
 70
0
 62
7
  6
Continuous
370
-3
390
13
347
21
  0
LAYER
  5
28
330
1
100
AcDbSymbolTableRecord
100
AcDbLayerTableRecord
  2
Defpoints
 70
0
 62
7
  6
Continuous
290
0
370
-3
390
13
347
21
  0
LAYER
  5
34
330
1
100
AcDbSymbolTableRecord
100
AcDbLayerTableRecord
  2
BG&E - DIMENSIONS
 70
0
 62
7
  6
Continuous
370
-3
390
13
347
21
348
0
  0
LAYER
  5
35
330
1
100
AcDbSymbolTableRecord
100
AcDbLayerTableRecord
  2
00铝单板
 70
0
 62
3
  6
Continuous
370
-3
390
13
347
21
348
0
  0
LAYER
  5
36
330
1
100
AcDbSymbolTableRecord
100
AcDbLayerTableRecord
  2
epin
 70
0
 62
13
  6
Continuous
370
9
390
13
347
21
348
0
  0
LAYER
  5
90
330
1
100
AcDbSymbolTableRecord
100
AcDbLayerTableRecord
  2
位置
 70
0
 62
2
  6
Continuous
370
-3
390
13
347
21
348
0
  0
LAYER
  5
91
330
1
100
AcDbSymbolTableRecord
100
AcDbLayerTableRecord
  2
2
 70
0
 62
2
  6
Continuous
370
-3
390
13
347
21
348
0
  0
LAYER
  5
92
330
1
100
AcDbSymbolTableRecord
100
AcDbLayerTableRecord
  2
材料
 70
0
 62
1
  6
Continuous
370
-3
390
13
347
21
348
0
  0
LAYER
  5
93
330
1
100
AcDbSymbolTableRecord
100
AcDbLayerTableRecord
  2
1
 70
0
 62
1
  6
Continuous
370
-3
390
13
347
21
348
0
  0
LAYER
  5
94
330
1
100
AcDbSymbolTableRecord
100
AcDbLayerTableRecord
  2
BG&E - HATCH
 70
0
 62
7
  6
Continuous
370
-3
390
13
347
21
348
0
  0
ENDTAB
  0
TABLE
  2
STYLE
  5
5
330
0
100
AcDbSymbolTable
 70
5
  0
STYLE
  5
29
330
5
100
AcDbSymbolTableRecord
100
AcDbTextStyleTableRecord
  2
Standard
 70
0
 40
0.0
 41
1.0
 50
0.0
 71
0
 42
2.5
  3
txt
  4

  0
STYLE
  5
37
330
5
100
AcDbSymbolTableRecord
100
AcDbTextStyleTableRecord
  2
ROMANS
 70
0
 40
0.0
 41
1.0
 50
0.0
 71
0
 42
2.5
  3

  4

  0
STYLE
  5
95
330
5
100
AcDbSymbolTableRecord
100
AcDbTextStyleTableRecord
  2
Annotative
 70
0
 40
0.0
 41
1.0
 50
0.0
 71
0
 42
2.5
  3
arial.ttf
  4

  0
STYLE
  5
96
330
5
100
AcDbSymbolTableRecord
100
AcDbTextStyleTableRecord
  2
YQ_TEXT
 70
0
 40
0.0
 41
0.8
 50
0.0
 71
0
 42
2.5
  3
SUPEROS.SHX
  4
HZDX.SHX
  0
STYLE
  5
97
330
5
100
AcDbSymbolTableRecord
100
AcDbTextStyleTableRecord
  2
YQ_DIM
 70
0
 40
0.0
 41
0.8
 50
0.0
 71
0
 42
2.5
  3
simfang.ttf
  4

  0
ENDTAB
  0
TABLE
  2
VIEW
  5
7
330
0
100
AcDbSymbolTable
 70
0
  0
ENDTAB
  0
TABLE
  2
UCS
  5
6
330
0
100
AcDbSymbolTable
 70
0
  0
ENDTAB
  0
TABLE
  2
APPID
  5
3
330
0
100
AcDbSymbolTable
 70
3
  0
APPID
  5
2A
330
3
100
AcDbSymbolTableRecord
100
AcDbRegAppTableRecord
  2
ACAD
 70
0
  0
APPID
  5
179
330
3
100
AcDbSymbolTableRecord
100
AcDbRegAppTableRecord
  2
HATCHBACKGROUNDCOLOR
 70
0
  0
APPID
  5
17A
330
3
100
AcDbSymbolTableRecord
100
AcDbRegAppTableRecord
  2
EZDXF
 70
0
  0
ENDTAB
  0
TABLE
  2
DIMSTYLE
  5
4
330
0
100
AcDbSymbolTable
 70
13
100
AcDbDimStyleTable
  0
DIMSTYLE
105
2B
330
4
100
AcDbSymbolTableRecord
100
AcDbDimStyleTableRecord
  2
Standard
 70
0
 40
1.0
 41
2.5
 42
0.625
 43
3.75
 44
1.25
 45
0.0
 46
0.0
 47
0.0
 48
0.0
 49
2.5
140
2.5
141
2.5
142
0.0
143
0.03937007874
144
1.0
145
0.0
146
1.0
147
0.625
148
0.0
 69
0
 70
0
 71
0
 72
0
 73
0
 74
0
 75
0
 76
0
 77
1
 78
8
 79
3
170
0
171
3
172
1
173
0
174
0
175
0
176
0
177
0
178
0
179
2
271
2
272
2
273
2
274
3
275
0
276
0
277
2
278
44
279
0
280
0
281
0
282
0
283
0
284
8
285
0
286
0
288
0
289
3
290
0
371
-2
372
-2
  0
DIMSTYLE
105
38
330
4
100
AcDbSymbolTableRecord
100
AcDbDimStyleTableRecord
  2
yq1
 70
0
 40
1.0
 41
3.0
 42
3.0
 43
6.0
 44
1.0
 45
0.0
 46
0.0
 47
0.0
 48
0.0
 49
3.0
140
3.5
141
0.0
142
0.0
143
0.03937007874
144
1.0
145
0.0
146
1.0
147
0.5
148
0.0
 69
0
 70
0
 71
0
 72
0
 73
0
 74
0
 75
0
 76
0
 77
1
 78
8
 79
2
170
0
171
3
172
1
173
0
174
0
175
0
176
0
177
0
178
0
179
1
271
1
272
1
273
2
274
3
275
0
276
0
277
2
278
44
279
1
280
0
281
0
282
0
283
0
284
8
285
0
286
0
288
0
289
3
290
1
340
37
371
-2
372
-2
  0
DIMSTYLE
105
39
330
4
100
AcDbSymbolTableRecord
100
AcDbDimStyleTableRecord
  2
yq10
 70
0
 40
10.0
 41
0.5
 42
3.0
 43
6.0
 44
1.5
 45
0.0
 46
0.0
 47
0.0
 48
0.0
 49
3.0
140
3.0
141
0.0
142
0.0
143
0.03937007874
144
1.0
145
0.0
146
1.0
147
0.5
148
0.0
 69
0
 70
0
 71
0
 72
0
 73
0
 74
0
 75
0
 76
0
 77
1
 78
8
 79
2
170
0
171
3
172
1
173
0
174
0
175
0
176
0
177
0
178
0
179
2
271
0
272
0
273
2
274
3
275
0
276
0
277
2
278
44
279
1
280
0
281
0
282
0
283
0
284
8
285
0
286
0
288
0
289
3
290
0
340
37
371
-2
372
-2
  0
DIMSTYLE
105
3A
330
4
100
AcDbSymbolTableRecord
100
AcDbDimStyleTableRecord
  2
yq5
 70
0
 40
5.0
 41
1.0
 42
3.0
 43
6.0
 44
2.0
 45
0.0
 46
0.0
 47
0.0
 48
0.0
 49
3.0
140
3.0
141
0.0
142
0.0
143
0.03937007874
144
1.0
145
0.0
146
1.0
147
0.5
148
0.0
 69
0
 70
0
 71
0
 72
0
 73
0
 74
0
 75
0
 76
0
 77
1
 78
8
 79
2
170
0
171
3
172
1
173
0
174
0
175
0
176
256
177
256
178
0
179
2
271
1
272
1
273
2
274
3
275
0
276
0
277
2
278
44
279
1
280
0
281
0
282
0
283
0
284
8
285
0
286
0
288
0
289
3
290
1
340
29
371
-2
372
-2
  0
DIMSTYLE
105
3B
330
4
100
AcDbSymbolTableRecord
100
AcDbDimStyleTableRecord
  2
AA
 70
0
 40
1.0
 41
2.0
 42
0.625
 43
3.75
 44
1.25
 45
0.0
 46
0.0
 47
0.0
 48
0.0
 49
2.5
140
2.5
141
2.5
142
0.0
143
0.03937007874016
144
1.0
145
0.0
146
1.0
147
0.625
148
0.0
 69
0
 70
0
 71
0
 72
0
 73
0
 74
0
 75
0
 76
0
 77
1
 78
8
 79
3
170
0
171
3
172
1
173
0
174
0
175
0
176
0
177
0
178
0
179
2
271
1
272
1
273
2
274
3
275
0
276
0
277
2
278
44
279
0
280
0
281
0
282
0
283
0
284
8
285
0
286
0
288
0
289
3
290
0
340
37
371
-2
372
-2
  0
DIMSTYLE
105
3C
330
4
100
AcDbSymbolTableRecord
100
AcDbDimStyleTableRecord
  2
MX-30
 70
0
 40
10.0
 41
1.0
 42
1.0
 43
3.75
 44
1.0
 45
0.0
 46
0.0
 47
0.0
 48
0.0
 49
2.5
140
2.0
141
1.0
142
0.0
143
0.03937007874016
144
1.0
145
0.0
146
1.0
147
0.5
148
0.0
 69
0
 70
0
 71
0
 72
0
 73
0
 74
0
 75
0
 76
0
 77
1
 78
8
 79
3
170
0
171
3
172
1
173
0
174
1
175
1
176
0
177
0
178
0
179
2
271
1
272
1
273
2
274
3
275
0
276
0
277
2
278
44
279
2
280
0
281
0
282
0
283
0
284
8
285
0
286
0
288
0
289
3
290
0
340
29
371
-2
372
-2
  0
DIMSTYLE
105
3D
330
4
100
AcDbSymbolTableRecord
100
AcDbDimStyleTableRecord
  2
副本 yq10
 70
0
 40
10.0
 41
0.5
 42
3.0
 43
6.0
 44
1.5
 45
0.0
 46
0.0
 47
0.0
 48
0.0
 49
3.0
140
3.0
141
0.0
142
0.0
143
0.03937007874
144
1.0
145
0.0
146
1.0
147
0.5
148
0.0
 69
0
 70
0
 71
0
 72
0
 73
0
 74
0
 75
0
 76
0
 77
1
 78
8
 79
2
170
0
171
3
172
1
173
0
174
0
175
0
176
0
177
0
178
0
179
2
271
1
272
1
273
2
274
3
275
0
276
0
277
2
278
44
279
1
280
0
281
0
282
0
283
0
284
8
285
0
286
0
288
0
289
3
290
0
340
37
371
-2
372
-2
  0
DIMSTYLE
105
3E
330
4
100
AcDbSymbolTableRecord
100
AcDbDimStyleTableRecord
  2
yq15
 70
0
 40
15.0
 41
0.5
 42
3.0
 43
6.0
 44
1.5
 45
0.0
 46
0.0
 47
0.0
 48
0.0
 49
2.5
140
3.0
141
0.0
142
0.0
143
0.03937007874
144
1.0
145
0.0
146
1.0
147
0.5
148
0.0
 69
0
 70
0
 71
0
 72
0
 73
0
 74
0
 75
0
 76
0
 77
1
 78
8
 79
2
170
0
171
3
172
1
173
0
174
0
175
0
176
256
177
256
178
7
179
2
271
1
272
1
273
2
274
3
275
0
276
0
277
2
278
44
279
1
280
0
281
0
282
0
283
0
284
8
285
0
286
0
288
1
289
3
290
1
340
37
371
-2
372
-2
  0
DIMSTYLE
105
3F
330
4
100
AcDbSymbolTableRecord
100
AcDbDimStyleTableRecord
  2
ISO-25
 70
0
 40
1.0
 41
2.5
 42
0.625
 43
3.0
 44
1.0
 45
0.0
 46
0.0
 47
0.0
 48
0.0
 49
3.0
140
2.5
141
2.5
142
0.0
143
0.03937007874016
144
1.0
145
0.0
146
1.0
147
0.625
148
0.0
 69
0
 70
0
 71
0
 72
0
 73
0
 74
0
 75
0
 76
0
 77
1
 78
8
 79
3
170
0
171
3
172
1
173
0
174
0
175
0
176
0
177
0
178
0
179
1
271
1
272
1
273
2
274
3
275
0
276
0
277
2
278
44
279
0
280
0
281
0
282
0
283
0
284
8
285
0
286
0
288
0
289
3
290
1
340
29
371
-2
372
-2
  0
DIMSTYLE
105
40
330
4
100
AcDbSymbolTableRecord
100
AcDbDimStyleTableRecord
  2
Annotative
 70
0
 40
0.0
 41
2.5
 42
0.625
 43
3.75
 44
1.25
 45
0.0
 46
0.0
 47
0.0
 48
0.0
 49
2.5
140
2.5
141
2.5
142
0.0
143
0.03937007874016
144
1.0
145
0.0
146
1.0
147
0.625
148
0.0
 69
0
 70
0
 71
0
 72
0
 73
0
 74
0
 75
0
 76
0
 77
1
 78
8
 79
3
170
0
171
3
172
1
173
0
174
0
175
0
176
0
177
0
178
0
179
2
271
2
272
2
273
2
274
3
275
0
276
0
277
2
278
44
279
0
280
0
281
0
282
0
283
0
284
8
285
0
286
0
288
0
289
3
290
0
340
29
371
-2
372
-2
  0
DIMSTYLE
105
41
330
4
100
AcDbSymbolTableRecord
100
AcDbDimStyleTableRecord
  2
yq0.5
 70
0
 40
0.5
 41
0.5
 42
3.0
 43
6.0
 44
1.0
 45
0.0
 46
0.0
 47
0.0
 48
0.0
 49
3.0
140
3.5
141
0.0
142
0.0
143
0.03937007874
144
1.0
145
0.0
146
1.0
147
0.5
148
0.0
 69
0
 70
0
 71
0
 72
0
 73
0
 74
0
 75
0
 76
0
 77
1
 78
8
 79
2
170
0
171
3
172
1
173
0
174
0
175
0
176
0
177
0
178
7
179
2
271
1
272
1
273
2
274
3
275
0
276
0
277
2
278
44
279
1
280
0
281
0
282
0
283
0
284
8
285
0
286
0
288
0
289
3
290
1
340
37
371
-2
372
-2
  0
DIMSTYLE
105
98
330
4
100
AcDbSymbolTableRecord
100
AcDbDimStyleTableRecord
  2
ISO-25$0
 70
0
 40
1.0
 41
2.5
 42
0.625
 43
3.75
 44
1.25
 45
0.0
 46
0.0
 47
0.0
 48
0.0
 49
2.5
140
2.5
141
2.5
142
0.0
143
0.03937007874016
144
1.0
145
0.0
146
1.0
147
0.625
148
0.0
 69
0
 70
0
 71
0
 72
0
 73
0
 74
0
 75
0
 76
0
 77
1
 78
8
 79
3
170
0
171
3
172
1
173
0
174
0
175
0
176
0
177
0
178
0
179
2
271
2
272
2
273
2
274
3
275
0
276
0
277
2
278
44
279
0
280
0
281
0
282
0
283
0
284
8
285
0
286
0
288
0
289
3
290
0
340
29
371
-2
372
-2
  0
DIMSTYLE
105
99
330
4
100
AcDbSymbolTableRecord
100
AcDbDimStyleTableRecord
  2
yq2
 70
0
 40
2.0
 41
0.6
 42
3.0
 43
6.0
 44
1.5
 45
0.0
 46
0.0
 47
0.0
 48
0.0
 49
2.5
140
3.0
141
0.0
142
0.0
143
0.03937007874
144
1.0
145
0.0
146
1.0
147
0.5
148
0.0
 69
0
 70
0
 71
0
 72
0
 73
0
 74
0
 75
0
 76
0
 77
1
 78
8
 79
2
170
0
171
3
172
1
173
0
174
0
175
0
176
256
177
256
178
7
179
2
271
1
272
1
273
2
274
3
275
0
276
0
277
2
278
44
279
1
280
0
281
0
282
0
283
0
284
8
285
0
286
0
288
1
289
3
290
1
340
97
371
-2
372
-2
  0
ENDTAB
  0
TABLE
  2
BLOCK_RECORD
  5
9
330
0
100
AcDbSymbolTable
 70
14
  0
BLOCK_RECORD
  5
17
330
9
100
AcDbSymbolTableRecord
100
AcDbBlockTableRecord
  2
*Model_Space
340
1A
 70
0
280
1
281
0
  0
BLOCK_RECORD
  5
1B
330
9
100
AcDbSymbolTableRecord
100
AcDbBlockTableRecord
  2
*Paper_Space
340
1E
 70
0
280
1
281
0
  0
BLOCK_RECORD
  5
2F
330
9
100
AcDbSymbolTableRecord
100
AcDbBlockTableRecord
  2
KB__-__-7011-__3_1
340
0
 70
0
280
1
281
0
  0
BLOCK_RECORD
  5
46
330
9
100
AcDbSymbolTableRecord
100
AcDbBlockTableRecord
  2
KB__-__-7011-__4_2
340
0
 70
0
280
1
281
0
  0
BLOCK_RECORD
  5
6D
330
9
100
AcDbSymbolTableRecord
100
AcDbBlockTableRecord
  2
KB__-__-7011-__5_3
340
0
 70
0
280
1
281
0
  0
BLOCK_RECORD
  5
75
330
9
100
AcDbSymbolTableRecord
100
AcDbBlockTableRecord
  2
KB__-__-7011-__6_4
340
0
 70
0
280
1
281
0
  0
BLOCK_RECORD
  5
8D
330
9
100
AcDbSymbolTableRecord
100
AcDbBlockTableRecord
  2
KB__-___-8317-__3_5
340
0
 70
0
280
1
281
0
  0
BLOCK_RECORD
  5
AA
330
9
100
AcDbSymbolTableRecord
100
AcDbBlockTableRecord
  2
KB__-___-8317-__6_6
340
0
 70
0
280
1
281
0
  0
BLOCK_RECORD
  5
C1
330
9
100
AcDbSymbolTableRecord
100
AcDbBlockTableRecord
  2
KB__-___-8317-__11_7
340
0
 70
0
280
1
281
0
  0
BLOCK_RECORD
  5
D4
330
9
100
AcDbSymbolTableRecord
100
AcDbBlockTableRecord
  2
KB__-___-8317-__12_8
340
0
 70
0
280
1
281
0
  0
BLOCK_RECORD
  5
F8
330
9
100
AcDbSymbolTableRecord
100
AcDbBlockTableRecord
  2
KB__-___-8317-__13_9
340
0
 70
0
280
1
281
0
  0
BLOCK_RECORD
  5
10F
330
9
100
AcDbSymbolTableRecord
100
AcDbBlockTableRecord
  2
KB__-___-8317-__14_10
340
0
 70
0
280
1
281
0
  0
BLOCK_RECORD
  5
125
330
9
100
AcDbSymbolTableRecord
100
AcDbBlockTableRecord
  2
KB__-___-8317-__15_11
340
0
 70
0
280
1
281
0
  0
BLOCK_RECORD
  5
13C
330
9
100
AcDbSymbolTableRecord
100
AcDbBlockTableRecord
  2
KB__-___-8317-__16_12
340
0
 70
0
280
1
281
0
  0
ENDTAB
  0
ENDSEC
  0
SECTION
  2
BLOCKS
  0
BLOCK
  5
18
330
17
100
AcDbEntity
  8
0
100
AcDbBlockBegin
  2
*Model_Space
 70
0
 10
0.0
 20
0.0
 30
0.0
  3
*Model_Space
  1

  0
ENDBLK
  5
19
330
17
100
AcDbEntity
  8
0
100
AcDbBlockEnd
  0
BLOCK
  5
1C
330
1B
100
AcDbEntity
  8
0
100
AcDbBlockBegin
  2
*Paper_Space
 70
0
 10
0.0
 20
0.0
 30
0.0
  3
*Paper_Space
  1

  0
ENDBLK
  5
1D
330
1B
100
AcDbEntity
  8
0
100
AcDbBlockEnd
  0
BLOCK
  5
30
330
2F
100
AcDbEntity
  8
0
100
AcDbBlockBegin
  2
KB__-__-7011-__3_1
 70
0
 10
0.0
 20
0.0
 30
0.0
  3
KB__-__-7011-__3_1
  1

  0
LWPOLYLINE
  5
42
330
2F
100
AcDbEntity
  8
0
100
AcDbPolyline
 90
5
 70
0
 10
44.05000114440918
 20
252.5
 10
39.05000114440918
 20
252.5
 42
1.000000009807655
 10
39.05000114440918
 20
247.50000005960464
 10
44.05000114440918
 20
247.50000005960464
 42
0.9999996830128083
 10
44.050002098083496
 20
252.5
  0
LWPOLYLINE
  5
43
330
2F
100
AcDbEntity
  8
0
100
AcDbPolyline
 90
5
 70
0
 10
44.05000114440918
 20
1002.5
 10
39.05000114440918
 20
1002.5
 42
1.000000009807655
 10
39.05000114440918
 20
997.5
 10
44.05000114440918
 20
997.5
 42
0.9999996830128083
 10
44.050002098083496
 20
1002.5
  0
LWPOLYLINE
  5
44
330
2F
100
AcDbEntity
  8
0
100
AcDbPolyline
 90
5
 70
0
 10
44.05000114440918
 20
1752.5000000596046
 10
39.05000114440918
 20
1752.5000000596046
 42
1.000000009807655
 10
39.05000114440918
 20
1747.5
 10
44.05000114440918
 20
1747.5
 42
0.9999996830128083
 10
44.050002098083496
 20
1752.5000000596046
  0
LWPOLYLINE
  5
45
330
2F
100
AcDbEntity
  8
00铝单板
 62
0
100
AcDbPolyline
 90
18
 70
1
 10
0.0
 20
1983.7999999523163
 10
10.80000114440918
 20
1983.7999999523163
 10
10.80000114440918
 20
2000.0
 10
79.30000114440918
 20
2000.0
 10
79.30000114440918
 20
1991.8000000715256
 10
100.70000100135803
 20
1991.8000000715256
 10
100.70000100135803
 20
1902.0
 42
-0.4142135623730951
 10
98.70000100135803
 20
1900.0
 10
96.70000100135803
 20
1900.0
 10
96.70000100135803
 20
1850.0000000596046
 10
98.70000100135803
 20
1850.0000000596046
 42
-0.4142135623730951
 10
100.70000100135803
 20
1848.0000000596046
 10
100.70000100135803
 20
8.200000047683716
 10
79.30000114440918
 20
8.200000047683716
 10
79.30000114440918
 20
0.0
 10
10.80000114440918
 20
0.0
 10
10.80000114440918
 20
16.200000047683716
 10
0.0
 20
16.200000047683716
  0
ENDBLK
  5
31
330
2F
100
AcDbEntity
  8
0
100
AcDbBlockEnd
  0
BLOCK
  5
47
330
46
100
AcDbEntity
  8
0
100
AcDbBlockBegin
  2
KB__-__-7011-__4_2
 70
0
 10
0.0
 20
0.0
 30
0.0
  3
KB__-__-7011-__4_2
  1

  0
LINE
  5
49
330
46
100
AcDbEntity
  8
0
 62
7
100
AcDbLine
 10
9.5367431640625e-07
 20
1974.7000001072884
 30
0.0
 11
0.0
 21
25.30000013113022
 31
0.0
  0
LINE
  5
4A
330
46
100
AcDbEntity
  8
0
 62
7
100
AcDbLine
 10
64.59999990463257
 20
1991.8000002503395
 30
0.0
 11
64.59999990463257
 21
1983.8000001311302
 31
0.0
  0
LINE
  5
4B
330
46
100
AcDbEntity
  8
0
 62
7
100
AcDbLine
 10
70.8000009059906
 20
2000.0
 30
0.0
 11
70.79999995231628
 21
1983.8000001311302
 31
0.0
  0
LINE
  5
4C
330
46
100
AcDbEntity
  8
0
 62
7
100
AcDbLine
 10
95.10000085830688
 20
2000.0
 30
0.0
 11
95.10000085830688
 21
1983.8000001311302
 31
0.0
  0
LINE
  5
4D
330
46
100
AcDbEntity
  8
0
 62
7
100
AcDbLine
 10
101.3000009059906
 20
1991.8000002503395
 30
0.0
 11
101.29999995231628
 21
1983.8000001311302
 31
0.0
  0
LINE
  5
4E
330
46
100
AcDbEntity
  8
BG&E - DIMENSIONS
 62
7
100
AcDbLine
 10
165.90000081062317
 20
1974.7000001072884
 30
0.0
 11
165.89999985694885
 21
25.30000013113022
 31
0.0
  0
LINE
  5
4F
330
46
100
AcDbEntity
  8
0
 62
7
100
AcDbLine
 10
12.600000858306885
 20
1.1920928955078125e-07
 30
0.0
 11
27.09999990463257
 21
0.0
 31
0.0
  0
LINE
  5
50
330
46
100
AcDbEntity
  8
0
 62
7
100
AcDbLine
 10
70.8000009059906
 20
0.0
 30
0.0
 11
95.10000085830688
 21
1.1920928955078125e-07
 31
0.0
  0
LINE
  5
51
330
46
100
AcDbEntity
  8
0
 62
7
100
AcDbLine
 10
138.8000009059906
 20
2.384185791015625e-07
 30
0.0
 11
153.3000009059906
 21
1.1920928955078125e-07
 31
0.0
  0
LINE
  5
52
330
46
100
AcDbEntity
  8
0
 62
7
100
AcDbLine
 10
12.600000858306885
 20
2000.0
 30
0.0
 11
27.09999990463257
 21
2000.0
 31
0.0
  0
LINE
  5
53
330
46
100
AcDbEntity
  8
0
 62
7
100
AcDbLine
 10
70.8000009059906
 20
2000.0
 30
0.0
 11
95.10000085830688
 21
2000.0
 31
0.0
  0
LINE
  5
54
330
46
100
AcDbEntity
  8
0
 62
7
100
AcDbLine
 10
138.8000009059906
 20
2000.0
 30
0.0
 11
153.3000009059906
 21
2000.0
 31
0.0
  0
LINE
  5
55
330
46
100
AcDbEntity
  8
0
 62
7
100
AcDbLine
 10
64.60000085830688
 20
1983.8000001311302
 30
0.0
 11
70.8000009059906
 21
1983.8000001311302
 31
0.0
  0
LINE
  5
56
330
46
100
AcDbEntity
  8
0
 62
7
100
AcDbLine
 10
27.100000858306885
 20
1991.800000011921
 30
0.0
 11
64.59999990463257
 21
1991.8000001311302
 31
0.0
  0
LINE
  5
57
330
46
100
AcDbEntity
  8
0
 62
7
100
AcDbLine
 10
27.100000858306885
 20
2000.0
 30
0.0
 11
27.100000858306885
 21
1991.800000011921
 31
0.0
  0
LINE
  5
58
330
46
100
AcDbEntity
  8
0
 62
7
100
AcDbLine
 10
12.600000858306885
 20
2000.0
 30
0.0
 11
12.600000858306885
 21
1974.7000001072884
 31
0.0
  0
LINE
  5
59
330
46
100
AcDbEntity
  8
0
 62
7
100
AcDbLine
 10
12.600000858306885
 20
1974.7000001072884
 30
0.0
 11
0.0
 21
1974.7000001072884
 31
0.0
  0
LINE
  5
5A
330
46
100
AcDbEntity
  8
0
 62
7
100
AcDbLine
 10
101.3000009059906
 20
1983.8000001311302
 30
0.0
 11
95.10000085830688
 21
1983.8000001311302
 31
0.0
  0
LINE
  5
5B
330
46
100
AcDbEntity
  8
0
 62
7
100
AcDbLine
 10
138.8000009059906
 20
1991.800000011921
 30
0.0
 11
101.3000009059906
 21
1991.8000001311302
 31
0.0
  0
LINE
  5
5C
330
46
100
AcDbEntity
  8
0
 62
7
100
AcDbLine
 10
138.8000009059906
 20
2000.0
 30
0.0
 11
138.8000009059906
 21
1991.800000011921
 31
0.0
  0
LINE
  5
5D
330
46
100
AcDbEntity
  8
0
 62
7
100
AcDbLine
 10
153.3000009059906
 20
2000.0
 30
0.0
 11
153.3000009059906
 21
1974.7000001072884
 31
0.0
  0
LINE
  5
5E
330
46
100
AcDbEntity
  8
0
 62
7
100
AcDbLine
 10
153.3000009059906
 20
1974.7000001072884
 30
0.0
 11
165.90000081062317
 21
1974.7000001072884
 31
0.0
  0
LINE
  5
5F
330
46
100
AcDbEntity
  8
0
 62
7
100
AcDbLine
 10
64.60000085830688
 20
16.200000047683716
 30
0.0
 11
70.8000009059906
 21
16.200000047683716
 31
0.0
  0
LINE
  5
60
330
46
100
AcDbEntity
  8
0
 62
7
100
AcDbLine
 10
27.100000858306885
 20
8.20000010728836
 30
0.0
 11
64.59999990463257
 21
8.200000047683716
 31
0.0
  0
LINE
  5
61
330
46
100
AcDbEntity
  8
0
 62
7
100
AcDbLine
 10
27.100000858306885
 20
1.1920928955078125e-07
 30
0.0
 11
27.100000858306885
 21
8.20000010728836
 31
0.0
  0
LINE
  5
62
330
46
100
AcDbEntity
  8
0
 62
7
100
AcDbLine
 10
12.600000858306885
 20
1.1920928955078125e-07
 30
0.0
 11
12.600000858306885
 21
25.30000013113022
 31
0.0
  0
LINE
  5
63
330
46
100
AcDbEntity
  8
0
 62
7
100
AcDbLine
 10
12.600000858306885
 20
25.30000013113022
 30
0.0
 11
0.0
 21
25.30000013113022
 31
0.0
  0
LINE
  5
64
330
46
100
AcDbEntity
  8
0
 62
7
100
AcDbLine
 10
101.3000009059906
 20
16.200000047683716
 30
0.0
 11
95.10000085830688
 21
16.200000047683716
 31
0.0
  0
LINE
  5
65
330
46
100
AcDbEntity
  8
0
 62
7
100
AcDbLine
 10
138.8000009059906
 20
8.20000010728836
 30
0.0
 11
101.3000009059906
 21
8.200000047683716
 31
0.0
  0
LINE
  5
66
330
46
100
AcDbEntity
  8
0
 62
7
100
AcDbLine
 10
138.8000009059906
 20
1.1920928955078125e-07
 30
0.0
 11
138.8000009059906
 21
8.20000010728836
 31
0.0
  0
LINE
  5
67
330
46
100
AcDbEntity
  8
0
 62
7
100
AcDbLine
 10
153.3000009059906
 20
1.1920928955078125e-07
 30
0.0
 11
153.3000009059906
 21
25.30000013113022
 31
0.0
  0
LINE
  5
68
330
46
100
AcDbEntity
  8
0
 62
7
100
AcDbLine
 10
153.3000009059906
 20
25.30000013113022
 30
0.0
 11
165.90000081062317
 21
25.30000013113022
 31
0.0
  0
LINE
  5
69
330
46
100
AcDbEntity
  8
0
 62
7
100
AcDbLine
 10
101.29999995231628
 20
16.200000047683716
 30
0.0
 11
101.3000009059906
 21
8.20000010728836
 31
0.0
  0
LINE
  5
6A
330
46
100
AcDbEntity
  8
0
 62
7
100
AcDbLine
 10
95.10000085830688
 20
16.20000010728836
 30
0.0
 11
95.10000085830688
 21
1.1920928955078125e-07
 31
0.0
  0
LINE
  5
6B
330
46
100
AcDbEntity
  8
0
 62
7
100
AcDbLine
 10
70.79999995231628
 20
16.20000010728836
 30
0.0
 11
70.8000009059906
 21
1.1920928955078125e-07
 31
0.0
  0
LINE
  5
6C
330
46
100
AcDbEntity
  8
0
 62
7
100
AcDbLine
 10
64.59999990463257
 20
16.200000047683716
 30
0.0
 11
64.59999990463257
 21
8.20000010728836
 31
0.0
  0
ENDBLK
  5
48
330
46
100
AcDbEntity
  8
0
100
AcDbBlockEnd
  0
BLOCK
  5
6E
330
6D
100
AcDbEntity
  8
0
100
AcDbBlockBegin
  2
KB__-__-7011-__5_3
 70
0
 10
0.0
 20
0.0
 30
0.0
  3
KB__-__-7011-__5_3
  1

  0
LINE
  5
70
330
6D
100
AcDbEntity
  8
0
 62
0
100
AcDbLine
 10
0.0
 20
1304.0
 30
0.0
 11
90.0
 21
1304.0
 31
0.0
  0
LINE
  5
71
330
6D
100
AcDbEntity
  8
0
100
AcDbLine
 10
90.0
 20
1304.0
 30
0.0
 11
90.0
 21
0.0
 31
0.0
  0
LINE
  5
72
330
6D
100
AcDbEntity
  8
0
100
AcDbLine
 10
90.0
 20
0.0
 30
0.0
 11
0.0
 21
0.0
 31
0.0
  0
LINE
  5
73
330
6D
100
AcDbEntity
  8
0
 62
0
100
AcDbLine
 10
0.0
 20
0.0
 30
0.0
 11
0.0
 21
1304.0
 31
0.0
  0
CIRCLE
  5
74
330
6D
100
AcDbEntity
  8
0
 62
0
100
AcDbCircle
 10
45.000000953674316
 20
1269.0
 30
0.0
 40
2.149999999999999
  0
ENDBLK
  5
6F
330
6D
100
AcDbEntity
  8
0
100
AcDbBlockEnd
  0
BLOCK
  5
76
330
75
100
AcDbEntity
  8
0
100
AcDbBlockBegin
  2
KB__-__-7011-__6_4
 70
0
 10
0.0
 20
0.0
 30
0.0
  3
KB__-__-7011-__6_4
  1

  0
LINE
  5
78
330
75
100
AcDbEntity
  8
0
 62
7
100
AcDbLine
 10
0.0
 20
1974.7000001072884
 30
0.0
 11
0.0
 21
25.30000013113022
 31
0.0
  0
LINE
  5
79
330
75
100
AcDbEntity
  8
0
100
AcDbLine
 10
9.599999904632568
 20
2000.0000001192093
 30
0.0
 11
86.40000104904175
 21
2000.0
 31
0.0
  0
LINE
  5
7A
330
75
100
AcDbEntity
  8
0
 62
7
100
AcDbLine
 10
9.599999904632568
 20
0.0
 30
0.0
 11
86.40000104904175
 21
0.0
 31
0.0
  0
LINE
  5
7B
330
75
100
AcDbEntity
  8
0
100
AcDbLine
 10
9.599999904632568
 20
2000.0000001192093
 30
0.0
 11
9.599999904632568
 21
1974.7000001072884
 31
0.0
  0
LINE
  5
7C
330
75
100
AcDbEntity
  8
0
100
AcDbLine
 10
9.599999904632568
 20
1974.7000001072884
 30
0.0
 11
0.0
 21
1974.7000001072884
 31
0.0
  0
LINE
  5
7D
330
75
100
AcDbEntity
  8
0
100
AcDbLine
 10
86.40000104904175
 20
2000.0
 30
0.0
 11
86.40000104904175
 21
1974.7000001072884
 31
0.0
  0
LINE
  5
7E
330
75
100
AcDbEntity
  8
0
100
AcDbLine
 10
86.40000104904175
 20
1974.7000001072884
 30
0.0
 11
99.00000190734863
 21
1974.7000001072884
 31
0.0
  0
LINE
  5
7F
330
75
100
AcDbEntity
  8
0
 62
7
100
AcDbLine
 10
9.599999904632568
 20
0.0
 30
0.0
 11
9.599999904632568
 21
25.30000013113022
 31
0.0
  0
LINE
  5
80
330
75
100
AcDbEntity
  8
0
 62
7
100
AcDbLine
 10
9.599999904632568
 20
25.30000013113022
 30
0.0
 11
0.0
 21
25.30000013113022
 31
0.0
  0
LINE
  5
81
330
75
100
AcDbEntity
  8
0
 62
7
100
AcDbLine
 10
86.40000104904175
 20
0.0
 30
0.0
 11
86.40000104904175
 21
25.30000013113022
 31
0.0
  0
LINE
  5
82
330
75
100
AcDbEntity
  8
0
 62
7
100
AcDbLine
 10
86.40000104904175
 20
25.30000013113022
 30
0.0
 11
99.00000190734863
 21
25.30000013113022
 31
0.0
  0
LWPOLYLINE
  5
83
330
75
100
AcDbEntity
  8
0
100
AcDbPolyline
 90
3
 70
0
 10
50.500000953674316
 20
1802.5000001192093
 42
-1.000000183012775
 10
50.500000953674316
 20
1797.5000001192093
 10
45.500000953674316
 20
1797.5000001192093
 42
-0.4142135623730951
  0
LWPOLYLINE
  5
84
330
75
100
AcDbEntity
  8
0
 62
7
100
AcDbPolyline
 90
3
 70
0
 10
50.50000309944153
 20
202.5000001192093
 42
-0.9999996830128083
 10
50.500000953674316
 20
197.5
 10
45.500000953674316
 20
197.5
 42
-0.4142135623730951
  0
LWPOLYLINE
  5
85
330
75
100
AcDbEntity
  8
0
100
AcDbPolyline
 90
3
 70
0
 10
50.50000309944153
 20
1002.5000001788139
 42
-0.9999996830128083
 10
50.500000953674316
 20
997.5000001192093
 10
45.500000953674316
 20
997.5000001192093
 42
-0.4142135623730951
  0
ARC
  5
86
330
75
100
AcDbEntity
  8
0
100
AcDbCircle
 10
45.500000953674316
 20
1000.0000001192093
 30
0.0
 40
2.5
100
AcDbArc
 50
90.0
 51
-90.00000000000001
  0
LWPOLYLINE
  5
87
330
75
100
AcDbEntity
  8
0
100
AcDbPolyline
 90
2
 70
0
 10
45.500000953674316
 20
1002.5
 10
50.500000953674316
 20
1002.5
 42
-0.4142135623730951
  0
ARC
  5
88
330
75
100
AcDbEntity
  8
0
 62
7
100
AcDbCircle
 10
45.500000953674316
 20
200.0000001192093
 30
0.0
 40
2.5
100
AcDbArc
 50
90.0
 51
-90.00000000000001
  0
LWPOLYLINE
  5
89
330
75
100
AcDbEntity
  8
0
 62
7
100
AcDbPolyline
 90
2
 70
0
 10
45.500000953674316
 20
202.5000001192093
 10
50.500000953674316
 20
202.5000001192093
 42
-0.4142135623730951
  0
ARC
  5
8A
330
75
100
AcDbEntity
  8
0
100
AcDbCircle
 10
45.500000953674316
 20
1800.0000001192093
 30
0.0
 40
2.5
100
AcDbArc
 50
90.0
 51
-90.00000000000001
  0
LWPOLYLINE
  5
8B
330
75
100
AcDbEntity
  8
0
100
AcDbPolyline
 90
2
 70
0
 10
45.500000953674316
 20
1802.5000001192093
 10
50.500000953674316
 20
1802.5000001192093
 42
-0.4142135623730951
  0
LWPOLYLINE
  5
8C
330
75
100
AcDbEntity
  8
0
 62
0
100
AcDbPolyline
 90
8
 70
0
 10
99.00000190734863
 20
1974.7000001072884
 10
99.00000190734863
 20
1902.000000178814
 42
-0.4142135623730951
 10
97.00000095367432
 20
1900.000000178814
 10
95.00000190734863
 20
1900.000000178814
 10
95.00000190734863
 20
1865.0000001192093
 10
97.00000095367432
 20
1865.0000001192093
 42
-0.4142135623730951
 10
99.00000190734863
 20
1863.0000001192093
 10
99.00000190734863
 20
25.30000013113022
  0
ENDBLK
  5
77
330
75
100
AcDbEntity
  8
0
100
AcDbBlockEnd
  0
BLOCK
  5
8E
330
8D
100
AcDbEntity
  8
0
100
AcDbBlockBegin
  2
KB__-___-8317-__3_5
 70
0
 10
0.0
 20
0.0
 30
0.0
  3
KB__-___-8317-__3_5
  1

  0
LINE
  5
9A
330
8D
100
AcDbEntity
  8
0
100
AcDbLine
 10
0.0
 20
650.0000000000011
 30
0.0
 11
0.0
 21
0.0
 31
0.0
  0
LINE
  5
9B
330
8D
100
AcDbEntity
  8
0
100
AcDbLine
 10
20.399999141693115
 20
650.0000000000011
 30
0.0
 11
20.399999141693115
 21
635.6451109051711
 31
0.0
  0
LINE
  5
9C
330
8D
100
AcDbEntity
  8
0
100
AcDbLine
 10
37.69999837875412
 20
650.0000000000011
 30
0.0
 11
37.69999837875412
 21
635.6451109051711
 31
0.0
  0
LINE
  5
9D
330
8D
100
AcDbEntity
  8
0
100
AcDbLine
 10
67.59999752044587
 20
648.0000000000011
 30
0.0
 11
67.59999752044587
 21
2.0
 31
0.0
  0
LINE
  5
9E
330
8D
100
AcDbEntity
  8
0
100
AcDbLine
 10
0.0
 20
650.0000000000011
 30
0.0
 11
20.399999141693115
 21
650.0000000000011
 31
0.0
  0
LINE
  5
9F
330
8D
100
AcDbEntity
  8
0
100
AcDbLine
 10
37.69999837875412
 20
650.0000000000011
 30
0.0
 11
58.59999752044678
 21
650.0000000000011
 31
0.0
  0
LINE
  5
A0
330
8D
100
AcDbEntity
  8
0
100
AcDbLine
 10
0.0
 20
0.0
 30
0.0
 11
58.59999752044678
 21
0.0
 31
0.0
  0
ARC
  5
A1
330
8D
100
AcDbEntity
  8
0
100
AcDbCircle
 10
29.049998760222934
 20
635.6499996185312
 30
0.0
 40
8.650001
100
AcDbArc
 50
180.0
 51
0.0
  0
LWPOLYLINE
  5
A2
330
8D
100
AcDbEntity
  8
0
100
AcDbPolyline
 90
4
 70
1
 10
31.80011940002396
 20
620.0500570535671
 42
0.9999999999999998
 10
26.30011940002396
 20
620.0500570535671
 10
26.30011940002396
 20
617.5500570535662
 42
0.9999999999999998
 10
31.80011940002396
 20
617.5500570535662
  0
LWPOLYLINE
  5
A3
330
8D
100
AcDbEntity
  8
0
100
AcDbPolyline
 90
4
 70
1
 10
31.800042867660068
 20
605.050021052361
 42
0.9999999999999998
 10
26.300042867660068
 20
605.050021052361
 10
26.300042867660068
 20
602.550021052361
 42
0.9999999999999998
 10
31.800042867660068
 20
602.550021052361
  0
LWPOLYLINE
  5
A4
330
8D
100
AcDbEntity
  8
0
100
AcDbPolyline
 90
4
 70
1
 10
31.800042867660068
 20
47.45002067089217
 42
0.9999999999999998
 10
26.300042867660068
 20
47.45002067089217
 10
26.300042867660068
 20
44.950020670891035
 42
0.9999999999999998
 10
31.800042867660068
 20
44.950020670891035
  0
LWPOLYLINE
  5
A5
330
8D
100
AcDbEntity
  8
0
100
AcDbPolyline
 90
4
 70
1
 10
31.800042867660068
 20
32.450020670891035
 42
0.9999999999999998
 10
26.300042867660068
 20
32.450020670891035
 10
26.300042867660068
 20
29.950020670891035
 42
0.9999999999999998
 10
31.800042867660068
 20
29.950020670891035
  0
LINE
  5
A6
330
8D
100
AcDbEntity
  8
0
100
AcDbLine
 10
67.59999752044587
 20
648.0000000000011
 30
0.0
 11
58.59999752044678
 21
648.0000000000011
 31
0.0
  0
LINE
  5
A7
330
8D
100
AcDbEntity
  8
0
100
AcDbLine
 10
58.59999752044678
 20
648.0000000000011
 30
0.0
 11
58.59999752044678
 21
650.0000000000011
 31
0.0
  0
LINE
  5
A8
330
8D
100
AcDbEntity
  8
0
100
AcDbLine
 10
67.59999752044587
 20
2.0
 30
0.0
 11
58.59999752044678
 21
2.0
 31
0.0
  0
LINE
  5
A9
330
8D
100
AcDbEntity
  8
0
100
AcDbLine
 10
58.59999752044678
 20
2.0
 30
0.0
 11
58.59999752044678
 21
0.0
 31
0.0
  0
ENDBLK
  5
8F
330
8D
100
AcDbEntity
  8
0
100
AcDbBlockEnd
  0
BLOCK
  5
AB
330
AA
100
AcDbEntity
  8
0
100
AcDbBlockBegin
  2
KB__-___-8317-__6_6
 70
0
 10
0.0
 20
0.0
 30
0.0
  3
KB__-___-8317-__6_6
  1

  0
LINE
  5
AD
330
AA
100
AcDbEntity
  8
0
 62
7
100
AcDbLine
 10
0.0
 20
2047.800000011922
 30
0.0
 11
0.0
 21
12.199999988079071
 31
0.0
  0
LINE
  5
AE
330
AA
100
AcDbEntity
  8
0
100
AcDbLine
 10
9.599999904632114
 20
2060.000000000001
 30
0.0
 11
9.599999904632114
 21
2047.800000011922
 31
0.0
  0
LINE
  5
AF
330
AA
100
AcDbEntity
  8
0
100
AcDbLine
 10
72.59999990463211
 20
2060.000000000001
 30
0.0
 11
72.59999990463211
 21
2047.800000011922
 31
0.0
  0
LINE
  5
B0
330
AA
100
AcDbEntity
  8
0
100
AcDbLine
 10
9.599999904632114
 20
2060.000000000001
 30
0.0
 11
31.799999952316284
 21
2060.000000000001
 31
0.0
  0
LINE
  5
B1
330
AA
100
AcDbEntity
  8
0
100
AcDbLine
 10
50.40000009536698
 20
2060.000000000001
 30
0.0
 11
72.59999990463211
 21
2060.000000000001
 31
0.0
  0
LINE
  5
B2
330
AA
100
AcDbEntity
  8
0
100
AcDbLine
 10
31.799999952316284
 20
2056.399999976159
 30
0.0
 11
50.40000009536698
 21
2056.399999976159
 31
0.0
  0
LINE
  5
B3
330
AA
100
AcDbEntity
  8
0
100
AcDbLine
 10
0.0
 20
2047.800000011922
 30
0.0
 11
9.599999904632114
 21
2047.800000011922
 31
0.0
  0
LINE
  5
B4
330
AA
100
AcDbEntity
  8
0
100
AcDbLine
 10
72.59999990463211
 20
2047.800000011922
 30
0.0
 11
90.20000004768417
 21
2047.800000011922
 31
0.0
  0
LINE
  5
B5
330
AA
100
AcDbEntity
  8
0
 62
7
100
AcDbLine
 10
9.599999904632114
 20
0.0
 30
0.0
 11
31.799999952316284
 21
0.0
 31
0.0
  0
LINE
  5
B6
330
AA
100
AcDbEntity
  8
0
 62
7
100
AcDbLine
 10
50.40000009536698
 20
0.0
 30
0.0
 11
72.59999990463211
 21
0.0
 31
0.0
  0
LINE
  5
B7
330
AA
100
AcDbEntity
  8
0
100
AcDbLine
 10
50.40000009536698
 20
2056.399999976159
 30
0.0
 11
50.40000009536698
 21
2060.000000000001
 31
0.0
  0
LINE
  5
B8
330
AA
100
AcDbEntity
  8
0
100
AcDbLine
 10
31.799999952316284
 20
2056.399999976159
 30
0.0
 11
31.799999952316284
 21
2060.000000000001
 31
0.0
  0
LINE
  5
B9
330
AA
100
AcDbEntity
  8
0
 62
7
100
AcDbLine
 10
9.599999904632114
 20
0.0
 30
0.0
 11
9.599999904632114
 21
12.199999988079071
 31
0.0
  0
LINE
  5
BA
330
AA
100
AcDbEntity
  8
0
 62
7
100
AcDbLine
 10
72.59999990463211
 20
0.0
 30
0.0
 11
72.59999990463211
 21
12.199999988079071
 31
0.0
  0
LINE
  5
BB
330
AA
100
AcDbEntity
  8
0
 62
7
100
AcDbLine
 10
31.799999952316284
 20
3.6000000238423127
 30
0.0
 11
50.40000009536698
 21
3.6000000238423127
 31
0.0
  0
LINE
  5
BC
330
AA
100
AcDbEntity
  8
0
 62
7
100
AcDbLine
 10
0.0
 20
12.199999988079071
 30
0.0
 11
9.599999904632114
 21
12.199999988079071
 31
0.0
  0
LINE
  5
BD
330
AA
100
AcDbEntity
  8
0
 62
7
100
AcDbLine
 10
72.59999990463211
 20
12.199999988079071
 30
0.0
 11
90.20000004768417
 21
12.199999988079071
 31
0.0
  0
LINE
  5
BE
330
AA
100
AcDbEntity
  8
0
 62
7
100
AcDbLine
 10
50.40000009536698
 20
3.6000000238423127
 30
0.0
 11
50.40000009536698
 21
0.0
 31
0.0
  0
LINE
  5
BF
330
AA
100
AcDbEntity
  8
0
 62
7
100
AcDbLine
 10
31.799999952316284
 20
3.6000000238423127
 30
0.0
 11
31.799999952316284
 21
0.0
 31
0.0
  0
LWPOLYLINE
  5
C0
330
AA
100
AcDbEntity
  8
0
 62
0
100
AcDbPolyline
 90
8
 70
0
 10
90.20000004768417
 20
2047.800000011922
 10
90.20000004768417
 20
1962.0000000000011
 42
-0.4142135623730951
 10
88.20000004768326
 20
1960.0000000000011
 10
86.20000004768326
 20
1960.0000000000011
 10
86.20000004768326
 20
1925.0000000000011
 10
88.20000004768326
 20
1925.0000000000011
 42
-0.4142135623730951
 10
90.20000004768417
 20
1923.0
 10
90.20000004768417
 20
12.199999988079071
  0
ENDBLK
  5
AC
330
AA
100
AcDbEntity
  8
0
100
AcDbBlockEnd
  0
BLOCK
  5
C2
330
C1
100
AcDbEntity
  8
0
100
AcDbBlockBegin
  2
KB__-___-8317-__11_7
 70
0
 10
0.0
 20
0.0
 30
0.0
  3
KB__-___-8317-__11_7
  1

  0
LINE
  5
C4
330
C1
100
AcDbEntity
  8
0
100
AcDbLine
 10
0.0
 20
607.0
 30
0.0
 11
0.0
 21
0.0
 31
0.0
  0
LINE
  5
C5
330
C1
100
AcDbEntity
  8
0
100
AcDbLine
 10
20.399999380109875
 20
607.0
 30
0.0
 11
20.399999380109875
 21
592.6451109051704
 31
0.0
  0
LINE
  5
C6
330
C1
100
AcDbEntity
  8
0
100
AcDbLine
 10
37.69999861717042
 20
607.0
 30
0.0
 11
37.69999861717042
 21
592.6451109051704
 31
0.0
  0
LINE
  5
C7
330
C1
100
AcDbEntity
  8
0
100
AcDbLine
 10
67.59999775886354
 20
605.0
 30
0.0
 11
67.59999775886354
 21
2.0
 31
0.0
  0
LINE
  5
C8
330
C1
100
AcDbEntity
  8
0
100
AcDbLine
 10
0.0
 20
607.0
 30
0.0
 11
20.399999380109875
 21
607.0
 31
0.0
  0
LINE
  5
C9
330
C1
100
AcDbEntity
  8
0
100
AcDbLine
 10
37.69999861717042
 20
607.0
 30
0.0
 11
58.59999775886354
 21
607.0
 31
0.0
  0
LINE
  5
CA
330
C1
100
AcDbEntity
  8
0
100
AcDbLine
 10
0.0
 20
0.0
 30
0.0
 11
58.59999775886354
 21
0.0
 31
0.0
  0
ARC
  5
CB
330
C1
100
AcDbEntity
  8
0
100
AcDbCircle
 10
29.04999899864106
 20
592.6499996185304
 30
0.0
 40
8.650001
100
AcDbArc
 50
180.0
 51
0.0
  0
LWPOLYLINE
  5
CC
330
C1
100
AcDbEntity
  8
0
100
AcDbPolyline
 90
4
 70
1
 10
31.800119638442993
 20
577.050057113171
 42
0.9999999999999998
 10
26.300119638442084
 20
577.050057113171
 10
26.300119638442084
 20
574.550057113171
 42
0.9999999999999998
 10
31.800119638442993
 20
574.550057113171
  0
LWPOLYLINE
  5
CD
330
C1
100
AcDbEntity
  8
0
100
AcDbPolyline
 90
4
 70
1
 10
31.800043106078192
 20
562.050021052361
 42
0.9999999999999998
 10
26.300043106078192
 20
562.050021052361
 10
26.300043106078192
 20
559.550021052361
 42
0.9999999999999998
 10
31.800043106078192
 20
559.550021052361
  0
LWPOLYLINE
  5
CE
330
C1
100
AcDbEntity
  8
0
100
AcDbPolyline
 90
4
 70
1
 10
31.800043106078192
 20
47.450020670891035
 42
0.9999999999999998
 10
26.300043106078192
 20
47.450020670891035
 10
26.300043106078192
 20
44.950020670891035
 42
0.9999999999999998
 10
31.800043106078192
 20
44.950020670891035
  0
LWPOLYLINE
  5
CF
330
C1
100
AcDbEntity
  8
0
100
AcDbPolyline
 90
4
 70
1
 10
31.800043106078192
 20
32.450020670891035
 42
0.9999999999999998
 10
26.300043106078192
 20
32.450020670891035
 10
26.300043106078192
 20
29.950020670891035
 42
0.9999999999999998
 10
31.800043106078192
 20
29.950020670891035
  0
LINE
  5
D0
330
C1
100
AcDbEntity
  8
0
100
AcDbLine
 10
67.59999775886354
 20
605.0
 30
0.0
 11
58.59999775886354
 21
605.0
 31
0.0
  0
LINE
  5
D1
330
C1
100
AcDbEntity
  8
0
100
AcDbLine
 10
58.59999775886354
 20
605.0
 30
0.0
 11
58.59999775886354
 21
607.0
 31
0.0
  0
LINE
  5
D2
330
C1
100
AcDbEntity
  8
0
100
AcDbLine
 10
67.59999775886354
 20
2.0
 30
0.0
 11
58.59999775886354
 21
2.0
 31
0.0
  0
LINE
  5
D3
330
C1
100
AcDbEntity
  8
0
100
AcDbLine
 10
58.59999775886354
 20
2.0
 30
0.0
 11
58.59999775886354
 21
0.0
 31
0.0
  0
ENDBLK
  5
C3
330
C1
100
AcDbEntity
  8
0
100
AcDbBlockEnd
  0
BLOCK
  5
D5
330
D4
100
AcDbEntity
  8
0
100
AcDbBlockBegin
  2
KB__-___-8317-__12_8
 70
0
 10
0.0
 20
0.0
 30
0.0
  3
KB__-___-8317-__12_8
  1

  0
LINE
  5
D7
330
D4
100
AcDbEntity
  8
0
 62
7
100
AcDbLine
 10
4.768380676978268e-07
 20
1976.000000059605
 30
0.0
 11
0.0
 21
8.0000000596051
 31
0.0
  0
LINE
  5
D8
330
D4
100
AcDbEntity
  8
0
 62
7
100
AcDbLine
 10
52.200000047684625
 20
1984.000000059605
 30
0.0
 11
52.200000286103204
 21
1978.0000000000005
 31
0.0
  0
LINE
  5
D9
330
D4
100
AcDbEntity
  8
0
 62
7
100
AcDbLine
 10
52.19999980926514
 20
6.0000000596050995
 30
0.0
 11
52.19999980926514
 21
5.960509952274151e-08
 31
0.0
  0
LINE
  5
DA
330
D4
100
AcDbEntity
  8
0
 62
7
100
AcDbLine
 10
103.89999985694976
 20
1976.000000059605
 30
0.0
 11
103.89999961853027
 21
8.0000000596051
 31
0.0
  0
LINE
  5
DB
330
D4
100
AcDbEntity
  8
0
 62
7
100
AcDbLine
 10
60.799999952317194
 20
1984.000000059605
 30
0.0
 11
52.200000047684625
 21
1984.0000001192097
 31
0.0
  0
LINE
  5
DC
330
D4
100
AcDbEntity
  8
0
 62
7
100
AcDbLine
 10
43.0
 20
1984.0000001788144
 30
0.0
 11
18.700000286103204
 21
1984.0000001192097
 31
0.0
  0
LINE
  5
DD
330
D4
100
AcDbEntity
  8
0
 62
7
100
AcDbLine
 10
8.700000524521784
 20
1984.0000000000005
 30
0.0
 11
2.0000002384194886
 21
1984.000000059605
 31
0.0
  0
LINE
  5
DE
330
D4
100
AcDbEntity
  8
0
 62
7
100
AcDbLine
 10
60.799999952317194
 20
1984.000000059605
 30
0.0
 11
60.799999952317194
 21
1976.000000059605
 31
0.0
  0
LINE
  5
DF
330
D4
100
AcDbEntity
  8
0
 62
7
100
AcDbLine
 10
60.799999952317194
 20
1976.000000059605
 30
0.0
 11
103.89999985694976
 21
1976.000000059605
 31
0.0
  0
LINE
  5
E0
330
D4
100
AcDbEntity
  8
0
 62
7
100
AcDbLine
 10
2.0000002384194886
 20
1984.000000059605
 30
0.0
 11
2.0000002384194886
 21
1976.000000059605
 31
0.0
  0
LINE
  5
E1
330
D4
100
AcDbEntity
  8
0
 62
7
100
AcDbLine
 10
2.0000002384194886
 20
1976.000000059605
 30
0.0
 11
2.3841948859626427e-07
 21
1976.000000059605
 31
0.0
  0
LINE
  5
E2
330
D4
100
AcDbEntity
  8
0
 62
7
100
AcDbLine
 10
18.700000286103204
 20
1984.000000059605
 30
0.0
 11
18.700000286103204
 21
1978.000000059605
 31
0.0
  0
LINE
  5
E3
330
D4
100
AcDbEntity
  8
0
 62
7
100
AcDbLine
 10
18.700000286103204
 20
1978.000000059605
 30
0.0
 11
9.200000286103204
 21
1978.000000059605
 31
0.0
  0
LINE
  5
E4
330
D4
100
AcDbEntity
  8
0
 62
7
100
AcDbLine
 10
60.799999713898615
 20
5.960509952274151e-08
 30
0.0
 11
52.19999957084747
 21
5.960509952274151e-08
 31
0.0
  0
LINE
  5
E5
330
D4
100
AcDbEntity
  8
0
 62
7
100
AcDbLine
 10
43.0
 20
5.960509952274151e-08
 30
0.0
 11
18.700000047683716
 21
0.0
 31
0.0
  0
LINE
  5
E6
330
D4
100
AcDbEntity
  8
0
 62
7
100
AcDbLine
 10
8.700000524521784
 20
0.0
 30
0.0
 11
2.000000000001819
 21
5.960509952274151e-08
 31
0.0
  0
LINE
  5
E7
330
D4
100
AcDbEntity
  8
0
 62
7
100
AcDbLine
 10
60.799999713898615
 20
5.960509952274151e-08
 30
0.0
 11
60.799999713898615
 21
8.0000000596051
 31
0.0
  0
LINE
  5
E8
330
D4
100
AcDbEntity
  8
0
 62
7
100
AcDbLine
 10
60.799999713898615
 20
8.0000000596051
 30
0.0
 11
103.89999961853027
 21
8.0000000596051
 31
0.0
  0
LINE
  5
E9
330
D4
100
AcDbEntity
  8
0
 62
7
100
AcDbLine
 10
2.000000000001819
 20
5.960509952274151e-08
 30
0.0
 11
2.000000000001819
 21
8.0000000596051
 31
0.0
  0
LINE
  5
EA
330
D4
100
AcDbEntity
  8
0
 62
7
100
AcDbLine
 10
2.000000000001819
 20
8.0000000596051
 30
0.0
 11
0.0
 21
8.0000000596051
 31
0.0
  0
LINE
  5
EB
330
D4
100
AcDbEntity
  8
0
 62
7
100
AcDbLine
 10
18.700000047683716
 20
5.960509952274151e-08
 30
0.0
 11
18.700000047683716
 21
6.0000000596050995
 31
0.0
  0
LINE
  5
EC
330
D4
100
AcDbEntity
  8
0
 62
7
100
AcDbLine
 10
18.700000047683716
 20
6.0000000596050995
 30
0.0
 11
9.200000047684625
 21
6.0000000596050995
 31
0.0
  0
LINE
  5
ED
330
D4
100
AcDbEntity
  8
0
 62
7
100
AcDbLine
 10
52.200000047684625
 20
1984.000000059605
 30
0.0
 11
52.200000047684625
 21
1978.000000059605
 31
0.0
  0
LINE
  5
EE
330
D4
100
AcDbEntity
  8
0
 62
7
100
AcDbLine
 10
52.200000047684625
 20
1978.000000059605
 30
0.0
 11
43.50000000000182
 21
1978.000000059605
 31
0.0
  0
LINE
  5
EF
330
D4
100
AcDbEntity
  8
0
 62
7
100
AcDbLine
 10
52.200000047684625
 20
6.0000000596050995
 30
0.0
 11
43.50000000000182
 21
6.0000000596050995
 31
0.0
  0
LINE
  5
F0
330
D4
100
AcDbEntity
  8
0
 62
7
100
AcDbLine
 10
9.200000286103204
 20
1978.000000059605
 30
0.0
 11
8.700000286103204
 21
1978.000000059605
 31
0.0
  0
LINE
  5
F1
330
D4
100
AcDbEntity
  8
0
 62
7
100
AcDbLine
 10
8.700000286103204
 20
1978.000000059605
 30
0.0
 11
8.700000286103204
 21
1984.000000059605
 31
0.0
  0
LINE
  5
F2
330
D4
100
AcDbEntity
  8
0
 62
7
100
AcDbLine
 10
43.50000000000182
 20
1978.000000059605
 30
0.0
 11
43.0
 21
1978.000000059605
 31
0.0
  0
LINE
  5
F3
330
D4
100
AcDbEntity
  8
0
 62
7
100
AcDbLine
 10
43.0
 20
1978.000000059605
 30
0.0
 11
43.0
 21
1984.0000001192097
 31
0.0
  0
LINE
  5
F4
330
D4
100
AcDbEntity
  8
0
 62
7
100
AcDbLine
 10
9.200000286103204
 20
6.0000000596050995
 30
0.0
 11
8.700000286103204
 21
6.0000000596050995
 31
0.0
  0
LINE
  5
F5
330
D4
100
AcDbEntity
  8
0
 62
7
100
AcDbLine
 10
8.700000286103204
 20
6.0000000596050995
 30
0.0
 11
8.700000286103204
 21
5.960509952274151e-08
 31
0.0
  0
LINE
  5
F6
330
D4
100
AcDbEntity
  8
0
 62
7
100
AcDbLine
 10
43.50000000000182
 20
6.0000000596050995
 30
0.0
 11
43.0
 21
6.0000000596050995
 31
0.0
  0
LINE
  5
F7
330
D4
100
AcDbEntity
  8
0
 62
7
100
AcDbLine
 10
43.0
 20
6.0000000596050995
 30
0.0
 11
43.0
 21
0.0
 31
0.0
  0
ENDBLK
  5
D6
330
D4
100
AcDbEntity
  8
0
100
AcDbBlockEnd
  0
BLOCK
  5
F9
330
F8
100
AcDbEntity
  8
0
100
AcDbBlockBegin
  2
KB__-___-8317-__13_9
 70
0
 10
0.0
 20
0.0
 30
0.0
  3
KB__-___-8317-__13_9
  1

  0
LINE
  5
FB
330
F8
100
AcDbEntity
  8
0
 62
7
100
AcDbLine
 10
0.0
 20
1975.800000011921
 30
0.0
 11
0.0
 21
8.200000047683716
 31
0.0
  0
LINE
  5
FC
330
F8
100
AcDbEntity
  8
0
100
AcDbLine
 10
43.19999980926514
 20
1984.0
 30
0.0
 11
43.19999980926514
 21
1975.800000011921
 31
0.0
  0
LINE
  5
FD
330
F8
100
AcDbEntity
  8
0
100
AcDbLine
 10
78.59999990463166
 20
1984.0
 30
0.0
 11
78.59999990463166
 21
1977.800000011921
 31
0.0
  0
LINE
  5
FE
330
F8
100
AcDbEntity
  8
0
100
AcDbLine
 10
88.79999995231628
 20
1984.0
 30
0.0
 11
88.79999995231628
 21
1977.800000011921
 31
0.0
  0
LINE
  5
FF
330
F8
100
AcDbEntity
  8
0
 62
7
100
AcDbLine
 10
98.29999995231628
 20
1975.800000011921
 30
0.0
 11
98.29999995231628
 21
8.200000047683716
 31
0.0
  0
LINE
  5
100
330
F8
100
AcDbEntity
  8
0
100
AcDbLine
 10
96.2999999523172
 20
1984.0
 30
0.0
 11
96.2999999523172
 21
1975.800000011921
 31
0.0
  0
LINE
  5
101
330
F8
100
AcDbEntity
  8
0
100
AcDbLine
 10
43.19999980926514
 20
1984.0
 30
0.0
 11
78.59999990463166
 21
1984.0
 31
0.0
  0
LINE
  5
102
330
F8
100
AcDbEntity
  8
0
100
AcDbLine
 10
88.79999995231628
 20
1984.0
 30
0.0
 11
96.2999999523172
 21
1984.0
 31
0.0
  0
LINE
  5
103
330
F8
100
AcDbEntity
  8
0
100
AcDbLine
 10
78.59999990463166
 20
1977.800000011921
 30
0.0
 11
88.79999995231628
 21
1977.800000011921
 31
0.0
  0
LINE
  5
104
330
F8
100
AcDbEntity
  8
0
100
AcDbLine
 10
96.2999999523172
 20
1975.800000011921
 30
0.0
 11
98.29999995231628
 21
1975.800000011921
 31
0.0
  0
LINE
  5
105
330
F8
100
AcDbEntity
  8
0
100
AcDbLine
 10
0.0
 20
1975.800000011921
 30
0.0
 11
43.19999980926514
 21
1975.800000011921
 31
0.0
  0
LINE
  5
106
330
F8
100
AcDbEntity
  8
0
 62
7
100
AcDbLine
 10
43.19999980926514
 20
0.0
 30
0.0
 11
78.59999990463166
 21
0.0
 31
0.0
  0
LINE
  5
107
330
F8
100
AcDbEntity
  8
0
 62
7
100
AcDbLine
 10
88.79999995231628
 20
0.0
 30
0.0
 11
96.2999999523172
 21
0.0
 31
0.0
  0
LINE
  5
108
330
F8
100
AcDbEntity
  8
0
 62
7
100
AcDbLine
 10
43.19999980926514
 20
0.0
 30
0.0
 11
43.19999980926514
 21
8.200000047683716
 31
0.0
  0
LINE
  5
109
330
F8
100
AcDbEntity
  8
0
 62
7
100
AcDbLine
 10
78.59999990463166
 20
0.0
 30
0.0
 11
78.59999990463166
 21
6.200000047683716
 31
0.0
  0
LINE
  5
10A
330
F8
100
AcDbEntity
  8
0
 62
7
100
AcDbLine
 10
88.79999995231628
 20
0.0
 30
0.0
 11
88.79999995231628
 21
6.200000047683716
 31
0.0
  0
LINE
  5
10B
330
F8
100
AcDbEntity
  8
0
 62
7
100
AcDbLine
 10
96.2999999523172
 20
0.0
 30
0.0
 11
96.2999999523172
 21
8.200000047683716
 31
0.0
  0
LINE
  5
10C
330
F8
100
AcDbEntity
  8
0
 62
7
100
AcDbLine
 10
78.59999990463166
 20
6.200000047683716
 30
0.0
 11
88.79999995231628
 21
6.200000047683716
 31
0.0
  0
LINE
  5
10D
330
F8
100
AcDbEntity
  8
0
 62
7
100
AcDbLine
 10
96.2999999523172
 20
8.200000047683716
 30
0.0
 11
98.29999995231628
 21
8.200000047683716
 31
0.0
  0
LINE
  5
10E
330
F8
100
AcDbEntity
  8
0
 62
7
100
AcDbLine
 10
0.0
 20
8.200000047683716
 30
0.0
 11
43.19999980926514
 21
8.200000047683716
 31
0.0
  0
ENDBLK
  5
FA
330
F8
100
AcDbEntity
  8
0
100
AcDbBlockEnd
  0
BLOCK
  5
110
330
10F
100
AcDbEntity
  8
0
100
AcDbBlockBegin
  2
KB__-___-8317-__14_10
 70
0
 10
0.0
 20
0.0
 30
0.0
  3
KB__-___-8317-__14_10
  1

  0
LINE
  5
112
330
10F
100
AcDbEntity
  8
0
 62
7
100
AcDbLine
 10
0.0
 20
1991.8000001311302
 30
0.0
 11
0.0
 21
8.199999868869781
 31
0.0
  0
LINE
  5
113
330
10F
100
AcDbEntity
  8
0
100
AcDbLine
 10
21.599998474121094
 20
2000.0
 30
0.0
 11
21.599998474121094
 21
1991.8000011444092
 31
0.0
  0
LINE
  5
114
330
10F
100
AcDbEntity
  8
0
100
AcDbLine
 10
91.0999984741211
 20
2000.0
 30
0.0
 11
91.0999984741211
 21
1983.8000020980835
 31
0.0
  0
LINE
  5
115
330
10F
100
AcDbEntity
  8
0
100
AcDbLine
 10
21.599998474121094
 20
2000.0
 30
0.0
 11
91.0999984741211
 21
2000.0
 31
0.0
  0
LINE
  5
116
330
10F
100
AcDbEntity
  8
0
100
AcDbLine
 10
0.0
 20
1991.8000001311302
 30
0.0
 11
21.599998474121094
 21
1991.8000011444092
 31
0.0
  0
LINE
  5
117
330
10F
100
AcDbEntity
  8
0
100
AcDbLine
 10
91.0999984741211
 20
1983.8000020980835
 30
0.0
 11
104.69999504089355
 21
1983.8000001907349
 31
0.0
  0
LINE
  5
118
330
10F
100
AcDbEntity
  8
0
 62
7
100
AcDbLine
 10
21.599998474121094
 20
0.0
 30
0.0
 11
91.0999984741211
 21
0.0
 31
0.0
  0
CIRCLE
  5
119
330
10F
100
AcDbEntity
  8
0
100
AcDbCircle
 10
46.49999809265046
 20
1995.0
 30
0.0
 40
1.5
  0
CIRCLE
  5
11A
330
10F
100
AcDbEntity
  8
0
100
AcDbCircle
 10
66.19999885559082
 20
1995.0
 30
0.0
 40
1.5
  0
LINE
  5
11B
330
10F
100
AcDbEntity
  8
0
 62
7
100
AcDbLine
 10
21.599998474121094
 20
0.0
 30
0.0
 11
21.599998474121094
 21
8.19999885559082
 31
0.0
  0
LINE
  5
11C
330
10F
100
AcDbEntity
  8
0
 62
7
100
AcDbLine
 10
91.0999984741211
 20
0.0
 30
0.0
 11
91.0999984741211
 21
16.19999790191605
 31
0.0
  0
LINE
  5
11D
330
10F
100
AcDbEntity
  8
0
 62
7
100
AcDbLine
 10
0.0
 20
8.199999868869781
 30
0.0
 11
21.599998474121094
 21
8.19999885559082
 31
0.0
  0
LINE
  5
11E
330
10F
100
AcDbEntity
  8
0
 62
7
100
AcDbLine
 10
91.0999984741211
 20
16.19999790191605
 30
0.0
 11
104.69999313354492
 21
16.199999809265137
 31
0.0
  0
CIRCLE
  5
11F
330
10F
100
AcDbEntity
  8
0
 62
7
100
AcDbCircle
 10
46.49999809265046
 20
5.0
 30
0.0
 40
1.5
  0
CIRCLE
  5
120
330
10F
100
AcDbEntity
  8
0
 62
7
100
AcDbCircle
 10
66.19999885559082
 20
5.0
 30
0.0
 40
1.5
  0
LWPOLYLINE
  5
121
330
10F
100
AcDbEntity
  8
0
100
AcDbPolyline
 90
4
 70
1
 10
61.79999756813049
 20
1747.499999046326
 42
0.9999999999999998
 10
61.79999756813049
 20
1752.499999046326
 10
56.799997568129584
 20
1752.499999046326
 42
0.9999999999999998
 10
56.799997568129584
 20
1747.499999046326
  0
LWPOLYLINE
  5
122
330
10F
100
AcDbEntity
  8
0
100
AcDbPolyline
 90
4
 70
1
 10
61.79999756813049
 20
997.4999990463259
 42
0.9999999999999998
 10
61.79999756813049
 20
1002.4999990463259
 10
56.799997568129584
 20
1002.4999990463259
 42
0.9999999999999998
 10
56.799997568129584
 20
997.4999990463259
  0
LWPOLYLINE
  5
123
330
10F
100
AcDbEntity
  8
0
100
AcDbPolyline
 90
4
 70
1
 10
61.79999756813049
 20
247.49999904632614
 42
0.9999999999999998
 10
61.79999756813049
 20
252.49999904632477
 10
56.799997568129584
 20
252.49999904632477
 42
0.9999999999999998
 10
56.799997568129584
 20
247.49999904632614
  0
LWPOLYLINE
  5
124
330
10F
100
AcDbEntity
  8
0
 62
0
100
AcDbPolyline
 90
8
 70
0
 10
104.69999504089355
 20
1983.8000001907349
 10
104.69999504089355
 20
1902.0
 42
-0.4142135623730951
 10
102.69999504089355
 20
1900.0
 10
100.69999504089265
 20
1900.0
 10
100.69999504089265
 20
1850.0
 10
102.69999480247589
 20
1850.0
 42
-0.4142135623730951
 10
104.69999480247407
 20
1848.0
 10
104.69999313354492
 20
16.199999809265137
  0
ENDBLK
  5
111
330
10F
100
AcDbEntity
  8
0
100
AcDbBlockEnd
  0
BLOCK
  5
126
330
125
100
AcDbEntity
  8
0
100
AcDbBlockBegin
  2
KB__-___-8317-__15_11
 70
0
 10
0.0
 20
0.0
 30
0.0
  3
KB__-___-8317-__15_11
  1

  0
LINE
  5
128
330
125
100
AcDbEntity
  8
0
 62
7
100
AcDbLine
 10
0.0
 20
1947.800000011921
 30
0.0
 11
0.0
 21
12.199999988079071
 31
0.0
  0
LINE
  5
129
330
125
100
AcDbEntity
  8
0
100
AcDbLine
 10
9.599999904631659
 20
1960.0
 30
0.0
 11
9.599999904631659
 21
1947.800000011921
 31
0.0
  0
LINE
  5
12A
330
125
100
AcDbEntity
  8
0
100
AcDbLine
 10
72.59999990463257
 20
1960.0
 30
0.0
 11
72.59999990463257
 21
1947.800000011921
 31
0.0
  0
LINE
  5
12B
330
125
100
AcDbEntity
  8
0
100
AcDbLine
 10
9.599999904631659
 20
1960.0
 30
0.0
 11
31.799999952317194
 21
1960.0
 31
0.0
  0
LINE
  5
12C
330
125
100
AcDbEntity
  8
0
100
AcDbLine
 10
50.40000009536834
 20
1960.0
 30
0.0
 11
72.59999990463257
 21
1960.0
 31
0.0
  0
LINE
  5
12D
330
125
100
AcDbEntity
  8
0
100
AcDbLine
 10
31.799999952317194
 20
1956.3999999761581
 30
0.0
 11
50.40000009536834
 21
1956.3999999761581
 31
0.0
  0
LINE
  5
12E
330
125
100
AcDbEntity
  8
0
100
AcDbLine
 10
0.0
 20
1947.800000011921
 30
0.0
 11
9.599999904631659
 21
1947.800000011921
 31
0.0
  0
LINE
  5
12F
330
125
100
AcDbEntity
  8
0
100
AcDbLine
 10
72.59999990463257
 20
1947.800000011921
 30
0.0
 11
90.20000004768372
 21
1947.800000011921
 31
0.0
  0
LINE
  5
130
330
125
100
AcDbEntity
  8
0
 62
7
100
AcDbLine
 10
9.599999904631659
 20
0.0
 30
0.0
 11
31.799999952317194
 21
0.0
 31
0.0
  0
LINE
  5
131
330
125
100
AcDbEntity
  8
0
 62
7
100
AcDbLine
 10
50.40000009536834
 20
0.0
 30
0.0
 11
72.59999990463257
 21
0.0
 31
0.0
  0
LINE
  5
132
330
125
100
AcDbEntity
  8
0
100
AcDbLine
 10
50.40000009536834
 20
1956.3999999761581
 30
0.0
 11
50.40000009536834
 21
1960.0
 31
0.0
  0
LINE
  5
133
330
125
100
AcDbEntity
  8
0
100
AcDbLine
 10
31.799999952317194
 20
1956.3999999761581
 30
0.0
 11
31.799999952317194
 21
1960.0
 31
0.0
  0
LINE
  5
134
330
125
100
AcDbEntity
  8
0
 62
7
100
AcDbLine
 10
9.599999904631659
 20
0.0
 30
0.0
 11
9.599999904631659
 21
12.199999988079071
 31
0.0
  0
LINE
  5
135
330
125
100
AcDbEntity
  8
0
 62
7
100
AcDbLine
 10
72.59999990463257
 20
0.0
 30
0.0
 11
72.59999990463257
 21
12.199999988079071
 31
0.0
  0
LINE
  5
136
330
125
100
AcDbEntity
  8
0
 62
7
100
AcDbLine
 10
31.799999952317194
 20
3.600000023841858
 30
0.0
 11
50.40000009536834
 21
3.600000023841858
 31
0.0
  0
LINE
  5
137
330
125
100
AcDbEntity
  8
0
 62
7
100
AcDbLine
 10
0.0
 20
12.199999988079071
 30
0.0
 11
9.599999904631659
 21
12.199999988079071
 31
0.0
  0
LINE
  5
138
330
125
100
AcDbEntity
  8
0
 62
7
100
AcDbLine
 10
72.59999990463257
 20
12.199999988079071
 30
0.0
 11
90.20000004768372
 21
12.199999988079071
 31
0.0
  0
LINE
  5
139
330
125
100
AcDbEntity
  8
0
 62
7
100
AcDbLine
 10
50.40000009536834
 20
3.600000023841858
 30
0.0
 11
50.40000009536834
 21
0.0
 31
0.0
  0
LINE
  5
13A
330
125
100
AcDbEntity
  8
0
 62
7
100
AcDbLine
 10
31.799999952317194
 20
3.600000023841858
 30
0.0
 11
31.799999952317194
 21
0.0
 31
0.0
  0
LWPOLYLINE
  5
13B
330
125
100
AcDbEntity
  8
0
 62
0
100
AcDbPolyline
 90
8
 70
0
 10
90.20000004768372
 20
1947.800000011921
 10
90.20000004768372
 20
1862.0
 42
-0.4142135623730951
 10
88.20000004768372
 20
1860.0
 10
86.20000004768372
 20
1860.0
 10
86.20000004768372
 20
1825.0
 10
88.20000004768372
 20
1825.0
 42
-0.4142135623730951
 10
90.20000004768372
 20
1823.0
 10
90.20000004768372
 20
12.199999988079071
  0
ENDBLK
  5
127
330
125
100
AcDbEntity
  8
0
100
AcDbBlockEnd
  0
BLOCK
  5
13D
330
13C
100
AcDbEntity
  8
0
100
AcDbBlockBegin
  2
KB__-___-8317-__16_12
 70
0
 10
0.0
 20
0.0
 30
0.0
  3
KB__-___-8317-__16_12
  1

  0
LINE
  5
13F
330
13C
100
AcDbEntity
  8
0
 62
7
100
AcDbLine
 10
0.0
 20
1947.800000011921
 30
0.0
 11
0.0
 21
12.199999988079071
 31
0.0
  0
LINE
  5
140
330
13C
100
AcDbEntity
  8
0
100
AcDbLine
 10
9.599999904633478
 20
1960.0
 30
0.0
 11
9.599999904633478
 21
1947.800000011921
 31
0.0
  0
LINE
  5
141
330
13C
100
AcDbEntity
  8
0
100
AcDbLine
 10
72.59999990463166
 20
1960.0
 30
0.0
 11
72.59999990463166
 21
1947.800000011921
 31
0.0
  0
LINE
  5
142
330
13C
100
AcDbEntity
  8
0
100
AcDbLine
 10
9.599999904633478
 20
1960.0
 30
0.0
 11
31.799999952316284
 21
1960.0
 31
0.0
  0
LINE
  5
143
330
13C
100
AcDbEntity
  8
0
100
AcDbLine
 10
50.40000009536743
 20
1960.0
 30
0.0
 11
72.59999990463166
 21
1960.0
 31
0.0
  0
LINE
  5
144
330
13C
100
AcDbEntity
  8
0
100
AcDbLine
 10
31.799999952316284
 20
1956.3999999761581
 30
0.0
 11
50.40000009536743
 21
1956.3999999761581
 31
0.0
  0
LINE
  5
145
330
13C
100
AcDbEntity
  8
0
100
AcDbLine
 10
0.0
 20
1947.800000011921
 30
0.0
 11
9.599999904633478
 21
1947.800000011921
 31
0.0
  0
LINE
  5
146
330
13C
100
AcDbEntity
  8
0
100
AcDbLine
 10
72.59999990463166
 20
1947.800000011921
 30
0.0
 11
90.20000004768372
 21
1947.800000011921
 31
0.0
  0
LINE
  5
147
330
13C
100
AcDbEntity
  8
0
 62
7
100
AcDbLine
 10
9.599999904633478
 20
0.0
 30
0.0
 11
31.799999952316284
 21
0.0
 31
0.0
  0
LINE
  5
148
330
13C
100
AcDbEntity
  8
0
 62
7
100
AcDbLine
 10
50.40000009536743
 20
0.0
 30
0.0
 11
72.59999990463166
 21
0.0
 31
0.0
  0
LINE
  5
149
330
13C
100
AcDbEntity
  8
0
100
AcDbLine
 10
50.40000009536743
 20
1956.3999999761581
 30
0.0
 11
50.40000009536743
 21
1960.0
 31
0.0
  0
LINE
  5
14A
330
13C
100
AcDbEntity
  8
0
100
AcDbLine
 10
31.799999952316284
 20
1956.3999999761581
 30
0.0
 11
31.799999952316284
 21
1960.0
 31
0.0
  0
LINE
  5
14B
330
13C
100
AcDbEntity
  8
0
 62
7
100
AcDbLine
 10
9.599999904633478
 20
0.0
 30
0.0
 11
9.599999904633478
 21
12.199999988079071
 31
0.0
  0
LINE
  5
14C
330
13C
100
AcDbEntity
  8
0
 62
7
100
AcDbLine
 10
72.59999990463166
 20
0.0
 30
0.0
 11
72.59999990463166
 21
12.199999988079071
 31
0.0
  0
LINE
  5
14D
330
13C
100
AcDbEntity
  8
0
 62
7
100
AcDbLine
 10
31.799999952316284
 20
3.600000023841858
 30
0.0
 11
50.40000009536743
 21
3.600000023841858
 31
0.0
  0
LINE
  5
14E
330
13C
100
AcDbEntity
  8
0
 62
7
100
AcDbLine
 10
0.0
 20
12.199999988079071
 30
0.0
 11
9.599999904633478
 21
12.199999988079071
 31
0.0
  0
LINE
  5
14F
330
13C
100
AcDbEntity
  8
0
 62
7
100
AcDbLine
 10
72.59999990463166
 20
12.199999988079071
 30
0.0
 11
90.20000004768372
 21
12.199999988079071
 31
0.0
  0
LINE
  5
150
330
13C
100
AcDbEntity
  8
0
 62
7
100
AcDbLine
 10
50.40000009536743
 20
3.600000023841858
 30
0.0
 11
50.40000009536743
 21
0.0
 31
0.0
  0
LINE
  5
151
330
13C
100
AcDbEntity
  8
0
 62
7
100
AcDbLine
 10
31.799999952316284
 20
3.600000023841858
 30
0.0
 11
31.799999952316284
 21
0.0
 31
0.0
  0
LWPOLYLINE
  5
152
330
13C
100
AcDbEntity
  8
0
 62
0
100
AcDbPolyline
 90
8
 70
0
 10
90.20000004768372
 20
1947.800000011921
 10
90.20000004768372
 20
1862.0
 42
-0.4142135623730951
 10
88.2000000476828
 20
1860.0
 10
86.20000004768372
 20
1860.0
 10
86.20000004768372
 20
1825.0
 10
88.2000000476828
 20
1825.0
 42
-0.4142135623730951
 10
90.20000004768372
 20
1823.0
 10
90.20000004768372
 20
12.199999988079071
  0
ENDBLK
  5
13E
330
13C
100
AcDbEntity
  8
0
100
AcDbBlockEnd
  0
ENDSEC
  0
SECTION
  2
ENTITIES
  0
LWPOLYLINE
  5
153
330
17
100
AcDbEntity
  8
0
 62
3
100
AcDbPolyline
 90
4
 70
1
 10
0.0
 20
0.0
 10
1219.0
 20
0.0
 10
1219.0
 20
4000.0
 10
0.0
 20
4000.0
  0
INSERT
  5
154
330
17
100
AcDbEntity
  8
0
100
AcDbBlockReference
  2
KB__-__-7011-__4_2
 10
0.0
 20
0.0
 30
0.0
  0
TEXT
  5
156
330
17
100
AcDbEntity
  8
0
100
AcDbText
 10
0.0
 20
2005.0
 30
0.0
 40
8.0
  1
7011
 11
0.0
 21
2005.0
 31
0.0
100
AcDbText
  0
INSERT
  5
157
330
17
100
AcDbEntity
  8
0
100
AcDbBlockReference
  2
KB__-__-7011-__3_1
 10
173.90000081062317
 20
0.0
 30
0.0
  0
TEXT
  5
159
330
17
100
AcDbEntity
  8
0
100
AcDbText
 10
173.90000081062317
 20
2005.0
 30
0.0
 40
8.0
  1
7011
 11
173.90000081062317
 21
2005.0
 31
0.0
100
AcDbText
  0
INSERT
  5
15A
330
17
100
AcDbEntity
  8
0
100
AcDbBlockReference
  2
KB__-__-7011-__6_4
 10
282.6000018119812
 20
0.0
 30
0.0
  0
TEXT
  5
15C
330
17
100
AcDbEntity
  8
0
100
AcDbText
 10
282.6000018119812
 20
2005.0000001192093
 30
0.0
 40
8.0
  1
7011
 11
282.6000018119812
 21
2005.0000001192093
 31
0.0
100
AcDbText
  0
INSERT
  5
15D
330
17
100
AcDbEntity
  8
0
100
AcDbBlockReference
  2
KB__-__-7011-__5_3
 10
389.60000371932983
 20
0.0
 30
0.0
  0
TEXT
  5
15F
330
17
100
AcDbEntity
  8
0
100
AcDbText
 10
389.60000371932983
 20
1309.0
 30
0.0
 40
8.0
  1
7011
 11
389.60000371932983
 21
1309.0
 31
0.0
100
AcDbText
  0
INSERT
  5
160
330
17
100
AcDbEntity
  8
0
100
AcDbBlockReference
  2
KB__-___-8317-__14_10
 10
487.60000371932983
 20
0.0
 30
0.0
  0
TEXT
  5
162
330
17
100
AcDbEntity
  8
0
100
AcDbText
 10
487.60000371932983
 20
2005.0
 30
0.0
 40
8.0
  1
8317
 11
487.60000371932983
 21
2005.0
 31
0.0
100
AcDbText
  0
INSERT
  5
163
330
17
100
AcDbEntity
  8
0
100
AcDbBlockReference
  2
KB__-___-8317-__12_8
 10
600.2999987602234
 20
0.0
 30
0.0
  0
TEXT
  5
165
330
17
100
AcDbEntity
  8
0
100
AcDbText
 10
600.2999987602234
 20
1989.0000001788144
 30
0.0
 40
8.0
  1
8317
 11
600.2999987602234
 21
1989.0000001788144
 31
0.0
100
AcDbText
  0
INSERT
  5
166
330
17
100
AcDbEntity
  8
0
100
AcDbBlockReference
  2
KB__-___-8317-__13_9
 10
712.1999986171732
 20
0.0
 30
0.0
  0
TEXT
  5
168
330
17
100
AcDbEntity
  8
0
100
AcDbText
 10
712.1999986171732
 20
1989.0
 30
0.0
 40
8.0
  1
8317
 11
712.1999986171732
 21
1989.0
 31
0.0
100
AcDbText
  0
INSERT
  5
169
330
17
100
AcDbEntity
  8
0
100
AcDbBlockReference
  2
KB__-___-8317-__6_6
 10
818.4999985694894
 20
0.0
 30
0.0
  0
TEXT
  5
16B
330
17
100
AcDbEntity
  8
0
100
AcDbText
 10
818.4999985694894
 20
2065.000000000001
 30
0.0
 40
8.0
  1
8317
 11
818.4999985694894
 21
2065.000000000001
 31
0.0
100
AcDbText
  0
INSERT
  5
16C
330
17
100
AcDbEntity
  8
0
100
AcDbBlockReference
  2
KB__-___-8317-__15_11
 10
916.6999986171736
 20
0.0
 30
0.0
  0
TEXT
  5
16E
330
17
100
AcDbEntity
  8
0
100
AcDbText
 10
916.6999986171736
 20
1965.0
 30
0.0
 40
8.0
  1
8317
 11
916.6999986171736
 21
1965.0
 31
0.0
100
AcDbText
  0
INSERT
  5
16F
330
17
100
AcDbEntity
  8
0
100
AcDbBlockReference
  2
KB__-___-8317-__16_12
 10
1014.8999986648573
 20
0.0
 30
0.0
  0
TEXT
  5
171
330
17
100
AcDbEntity
  8
0
100
AcDbText
 10
1014.8999986648573
 20
1965.0
 30
0.0
 40
8.0
  1
8317
 11
1014.8999986648573
 21
1965.0
 31
0.0
100
AcDbText
  0
INSERT
  5
172
330
17
100
AcDbEntity
  8
0
100
AcDbBlockReference
  2
KB__-___-8317-__3_5
 10
1113.099998712541
 20
0.0
 30
0.0
  0
TEXT
  5
174
330
17
100
AcDbEntity
  8
0
100
AcDbText
 10
1113.099998712541
 20
655.0000000000011
 30
0.0
 40
8.0
  1
8317
 11
1113.099998712541
 21
655.0000000000011
 31
0.0
100
AcDbText
  0
INSERT
  5
175
330
17
100
AcDbEntity
  8
0
100
AcDbBlockReference
  2
KB__-___-8317-__11_7
 10
0.0
 20
2068.000000000001
 30
0.0
  0
TEXT
  5
177
330
17
100
AcDbEntity
  8
0
100
AcDbText
 10
0.0
 20
2680.000000000001
 30
0.0
 40
8.0
  1
8317
 11
0.0
 21
2680.000000000001
 31
0.0
100
AcDbText
  0
TEXT
  5
178
330
17
100
AcDbEntity
  8
0
 62
5
100
AcDbText
 10
0.0
 20
4020.0
 30
0.0
 40
12.0
  1
板1  枪灰0.76  1219.0x4000
 11
0.0
 21
4020.0
 31
0.0
100
AcDbText
  0
ENDSEC
  0
SECTION
  2
OBJECTS
  0
DICTIONARY
  5
A
330
0
100
AcDbDictionary
281
1
  3
ACAD_COLOR
350
B
  3
ACAD_GROUP
350
C
  3
ACAD_LAYOUT
350
D
  3
ACAD_MATERIAL
350
E
  3
ACAD_MLEADERSTYLE
350
F
  3
ACAD_MLINESTYLE
350
10
  3
ACAD_PLOTSETTINGS
350
11
  3
ACAD_PLOTSTYLENAME
350
12
  3
ACAD_SCALELIST
350
14
  3
ACAD_TABLESTYLE
350
15
  3
ACAD_VISUALSTYLE
350
16
  3
EZDXF_META
350
2D
  0
DICTIONARY
  5
B
330
A
100
AcDbDictionary
281
1
  0
DICTIONARY
  5
C
330
A
100
AcDbDictionary
281
1
  0
DICTIONARY
  5
D
330
A
100
AcDbDictionary
281
1
  3
Model
350
1A
  3
Layout1
350
1E
  0
DICTIONARY
  5
E
330
A
100
AcDbDictionary
281
1
  3
ByBlock
350
1F
  3
ByLayer
350
20
  3
Global
350
21
  0
DICTIONARY
  5
F
330
A
100
AcDbDictionary
281
1
  3
Standard
350
2C
  0
DICTIONARY
  5
10
330
A
100
AcDbDictionary
281
1
  3
Standard
350
22
  0
DICTIONARY
  5
11
330
A
100
AcDbDictionary
281
1
  0
ACDBDICTIONARYWDFLT
  5
12
330
A
100
AcDbDictionary
281
1
  3
Normal
350
13
100
AcDbDictionaryWithDefault
340
13
  0
ACDBPLACEHOLDER
  5
13
330
12
  0
DICTIONARY
  5
14
330
A
100
AcDbDictionary
281
1
  0
DICTIONARY
  5
15
330
A
100
AcDbDictionary
281
1
  0
DICTIONARY
  5
16
330
A
100
AcDbDictionary
281
1
  0
LAYOUT
  5
1A
330
D
100
AcDbPlotSettings
  1

  4
A3
  6

 40
7.5
 41
20.0
 42
7.5
 43
20.0
 44
420.0
 45
297.0
 46
0.0
 47
0.0
 48
0.0
 49
0.0
140
0.0
141
0.0
142
1.0
143
1.0
 70
1024
 72
1
 73
0
 74
5
  7

 75
16
 76
0
 77
2
 78
300
147
1.0
148
0.0
149
0.0
100
AcDbLayout
  1
Model
 70
1
 71
0
 10
0.0
 20
0.0
 11
420.0
 21
297.0
 12
0.0
 22
0.0
 32
0.0
 14
1e+20
 24
1e+20
 34
1e+20
 15
-1e+20
 25
-1e+20
 35
-1e+20
146
0.0
 13
0.0
 23
0.0
 33
0.0
 16
1.0
 26
0.0
 36
0.0
 17
0.0
 27
1.0
 37
0.0
 76
1
330
17
  0
LAYOUT
  5
1E
330
D
100
AcDbPlotSettings
  1

  4
A3
  6

 40
7.5
 41
20.0
 42
7.5
 43
20.0
 44
420.0
 45
297.0
 46
0.0
 47
0.0
 48
0.0
 49
0.0
140
0.0
141
0.0
142
1.0
143
1.0
 70
0
 72
1
 73
0
 74
5
  7

 75
16
 76
0
 77
2
 78
300
147
1.0
148
0.0
149
0.0
100
AcDbLayout
  1
Layout1
 70
1
 71
1
 10
0.0
 20
0.0
 11
420.0
 21
297.0
 12
0.0
 22
0.0
 32
0.0
 14
1e+20
 24
1e+20
 34
1e+20
 15
-1e+20
 25
-1e+20
 35
-1e+20
146
0.0
 13
0.0
 23
0.0
 33
0.0
 16
1.0
 26
0.0
 36
0.0
 17
0.0
 27
1.0
 37
0.0
 76
1
330
1B
  0
MATERIAL
  5
1F
102
{ACAD_REACTORS
330
E
102
}
330
E
100
AcDbMaterial
  1
ByBlock
  2

 70
0
 40
1.0
 71
1
 41
1.0
 91
-1023410177
 42
1.0
 72
1
  3

 73
1
 74
1
 75
1
 44
0.5
 73
0
 45
1.0
 46
1.0
 77
1
  4

 78
1
 79
1
170
1
 48
1.0
171
1
  6

172
1
173
1
174
1
140
1.0
141
1.0
175
1
  7

176
1
177
1
178
1
143
1.0
179
1
  8

270
1
271
1
272
1
145
1.0
146
1.0
273
1
  9

274
1
275
1
276
1
 42
1.0
 72
1
  3

 73
1
 74
1
 75
1
 94
63
  0
MATERIAL
  5
20
102
{ACAD_REACTORS
330
E
102
}
330
E
100
AcDbMaterial
  1
ByLayer
  2

 70
0
 40
1.0
 71
1
 41
1.0
 91
-1023410177
 42
1.0
 72
1
  3

 73
1
 74
1
 75
1
 44
0.5
 73
0
 45
1.0
 46
1.0
 77
1
  4

 78
1
 79
1
170
1
 48
1.0
171
1
  6

172
1
173
1
174
1
140
1.0
141
1.0
175
1
  7

176
1
177
1
178
1
143
1.0
179
1
  8

270
1
271
1
272
1
145
1.0
146
1.0
273
1
  9

274
1
275
1
276
1
 42
1.0
 72
1
  3

 73
1
 74
1
 75
1
 94
63
  0
MATERIAL
  5
21
102
{ACAD_REACTORS
330
E
102
}
330
E
100
AcDbMaterial
  1
Global
  2

 70
0
 40
1.0
 71
1
 41
1.0
 91
-1023410177
 42
1.0
 72
1
  3

 73
1
 74
1
 75
1
 44
0.5
 73
0
 45
1.0
 46
1.0
 77
1
  4

 78
1
 79
1
170
1
 48
1.0
171
1
  6

172
1
173
1
174
1
140
1.0
141
1.0
175
1
  7

176
1
177
1
178
1
143
1.0
179
1
  8

270
1
271
1
272
1
145
1.0
146
1.0
273
1
  9

274
1
275
1
276
1
 42
1.0
 72
1
  3

 73
1
 74
1
 75
1
 94
63
  0
MLINESTYLE
  5
22
102
{ACAD_REACTORS
330
10
102
}
330
10
100
AcDbMlineStyle
  2
Standard
 70
0
  3

 62
256
 51
90.0
 52
90.0
 71
2
 49
0.5
 62
256
  6
BYLAYER
 49
-0.5
 62
256
  6
BYLAYER
  0
MLEADERSTYLE
  5
2C
102
{ACAD_REACTORS
330
F
102
}
330
F
100
AcDbMLeaderStyle
179
2
170
2
171
1
172
0
 90
2
 40
0.0
 41
0.0
173
1
 91
-1056964608
 92
-2
290
1
 42
2.0
291
1
 43
8.0
  3
Standard
 44
4.0
300

342
29
174
1
175
1
176
0
178
1
 93
-1056964608
 45
4.0
292
0
297
0
 46
4.0
 94
-1056964608
 47
1.0
 49
1.0
140
1.0
294
1
141
0.0
177
0
142
1.0
295
0
296
0
143
3.75
271
0
272
9
273
9
  0
DICTIONARY
  5
2D
330
A
100
AcDbDictionary
280
1
281
1
  3
CREATED_BY_EZDXF
350
2E
  3
WRITTEN_BY_EZDXF
350
17B
  0
DICTIONARYVAR
  5
2E
330
2D
100
DictionaryVariables
280
0
  1
1.4.3 @ 2026-04-03T02:28:49.536384+00:00
  0
DICTIONARYVAR
  5
17B
330
2D
100
DictionaryVariables
280
0
  1
1.4.3 @ 2026-04-03T02:28:59.131205+00:00
  0
ENDSEC
  0
EOF
