  0
SECTION
  2
HEADER
  9
$ACADVER
  1
AC1024
  9
$ACADMAINTVER
 70
6
  9
$DWGCODEPAGE
  3
ANSI_1252
  9
$LASTSAVEDBY
  1
ezdxf
  9
$INSBASE
 10
0.0
 20
0.0
 30
0.0
  9
$EXTMIN
 10
1e+20
 20
1e+20
 30
1e+20
  9
$EXTMAX
 10
-1e+20
 20
-1e+20
 30
-1e+20
  9
$LIMMIN
 10
0.0
 20
0.0
  9
$LIMMAX
 10
420.0
 20
297.0
  9
$ORTHOMODE
 70
0
  9
$REGENMODE
 70
1
  9
$FILLMODE
 70
1
  9
$QTEXTMODE
 70
0
  9
$MIRRTEXT
 70
1
  9
$LTSCALE
 40
1.0
  9
$ATTMODE
 70
1
  9
$TEXTSIZE
 40
2.5
  9
$TRACEWID
 40
1.0
  9
$TEXTSTYLE
  7
Standard
  9
$CLAYER
  8
0
  9
$CELTYPE
  6
ByLayer
  9
$CECOLOR
 62
256
  9
$CELTSCALE
 40
1.0
  9
$DISPSILH
 70
0
  9
$DIMSCALE
 40
1.0
  9
$DIMASZ
 40
2.5
  9
$DIMEXO
 40
0.625
  9
$DIMDLI
 40
3.75
  9
$DIMRND
 40
0.0
  9
$DIMDLE
 40
0.0
  9
$DIMEXE
 40
1.25
  9
$DIMTP
 40
0.0
  9
$DIMTM
 40
0.0
  9
$DIMTXT
 40
2.5
  9
$DIMCEN
 40
2.5
  9
$DIMTSZ
 40
0.0
  9
$DIMTOL
 70
0
  9
$DIMLIM
 70
0
  9
$DIMTIH
 70
0
  9
$DIMTOH
 70
0
  9
$DIMSE1
 70
0
  9
$DIMSE2
 70
0
  9
$DIMTAD
 70
1
  9
$DIMZIN
 70
8
  9
$DIMBLK
  1

  9
$DIMASO
 70
1
  9
$DIMSHO
 70
1
  9
$DIMPOST
  1

  9
$DIMAPOST
  1

  9
$DIMALT
 70
0
  9
$DIMALTD
 70
3
  9
$DIMALTF
 40
0.03937007874
  9
$DIMLFAC
 40
1.0
  9
$DIMTOFL
 70
1
  9
$DIMTVP
 40
0.0
  9
$DIMTIX
 70
0
  9
$DIMSOXD
 70
0
  9
$DIMSAH
 70
0
  9
$DIMBLK1
  1

  9
$DIMBLK2
  1

  9
$DIMSTYLE
  2
ISO-25
  9
$DIMCLRD
 70
0
  9
$DIMCLRE
 70
0
  9
$DIMCLRT
 70
0
  9
$DIMTFAC
 40
1.0
  9
$DIMGAP
 40
0.625
  9
$DIMJUST
 70
0
  9
$DIMSD1
 70
0
  9
$DIMSD2
 70
0
  9
$DIMTOLJ
 70
0
  9
$DIMTZIN
 70
8
  9
$DIMALTZ
 70
0
  9
$DIMALTTZ
 70
0
  9
$DIMUPT
 70
0
  9
$DIMDEC
 70
2
  9
$DIMTDEC
 70
2
  9
$DIMALTU
 70
2
  9
$DIMALTTD
 70
3
  9
$DIMTXSTY
  7
Standard
  9
$DIMAUNIT
 70
0
  9
$DIMADEC
 70
0
  9
$DIMALTRND
 40
0.0
  9
$DIMAZIN
 70
0
  9
$DIMDSEP
 70
44
  9
$DIMATFIT
 70
3
  9
$DIMFRAC
 70
0
  9
$DIMLDRBLK
  1

  9
$DIMLUNIT
 70
2
  9
$DIMLWD
 70
-2
  9
$DIMLWE
 70
-2
  9
$DIMTMOVE
 70
0
  9
$DIMFXL
 40
1.0
  9
$DIMFXLON
 70
0
  9
$DIMJOGANG
 40
0.785398163397
  9
$DIMTFILL
 70
0
  9
$DIMTFILLCLR
 70
0
  9
$DIMARCSYM
 70
0
  9
$DIMLTYPE
  6

  9
$DIMLTEX1
  6

  9
$DIMLTEX2
  6

  9
$DIMTXTDIRECTION
 70
0
  9
$LUNITS
 70
2
  9
$LUPREC
 70
4
  9
$SKETCHINC
 40
1.0
  9
$FILLETRAD
 40
10.0
  9
$AUNITS
 70
0
  9
$AUPREC
 70
2
  9
$MENU
  1
.
  9
$ELEVATION
 40
0.0
  9
$PELEVATION
 40
0.0
  9
$THICKNESS
 40
0.0
  9
$LIMCHECK
 70
0
  9
$CHAMFERA
 40
0.0
  9
$CHAMFERB
 40
0.0
  9
$CHAMFERC
 40
0.0
  9
$CHAMFERD
 40
0.0
  9
$SKPOLY
 70
0
  9
$TDCREATE
 40
2461134.436712963
  9
$TDUCREATE
 40
2458532.153996898
  9
$TDUPDATE
 40
2461134.4367939816
  9
$TDUUPDATE
 40
2458532.1544311
  9
$TDINDWG
 40
0.0
  9
$TDUSRTIMER
 40
0.0
  9
$USRTIMER
 70
1
  9
$ANGBASE
 50
0.0
  9
$ANGDIR
 70
0
  9
$PDMODE
 70
0
  9
$PDSIZE
 40
0.0
  9
$PLINEWID
 40
0.0
  9
$SPLFRAME
 70
0
  9
$SPLINETYPE
 70
6
  9
$SPLINESEGS
 70
8
  9
$HANDSEED
  5
119
  9
$SURFTAB1
 70
6
  9
$SURFTAB2
 70
6
  9
$SURFTYPE
 70
6
  9
$SURFU
 70
6
  9
$SURFV
 70
6
  9
$UCSBASE
  2

  9
$UCSNAME
  2

  9
$UCSORG
 10
0.0
 20
0.0
 30
0.0
  9
$UCSXDIR
 10
1.0
 20
0.0
 30
0.0
  9
$UCSYDIR
 10
0.0
 20
1.0
 30
0.0
  9
$UCSORTHOREF
  2

  9
$UCSORTHOVIEW
 70
0
  9
$UCSORGTOP
 10
0.0
 20
0.0
 30
0.0
  9
$UCSORGBOTTOM
 10
0.0
 20
0.0
 30
0.0
  9
$UCSORGLEFT
 10
0.0
 20
0.0
 30
0.0
  9
$UCSORGRIGHT
 10
0.0
 20
0.0
 30
0.0
  9
$UCSORGFRONT
 10
0.0
 20
0.0
 30
0.0
  9
$UCSORGBACK
 10
0.0
 20
0.0
 30
0.0
  9
$PUCSBASE
  2

  9
$PUCSNAME
  2

  9
$PUCSORG
 10
0.0
 20
0.0
 30
0.0
  9
$PUCSXDIR
 10
1.0
 20
0.0
 30
0.0
  9
$PUCSYDIR
 10
0.0
 20
1.0
 30
0.0
  9
$PUCSORTHOREF
  2

  9
$PUCSORTHOVIEW
 70
0
  9
$PUCSORGTOP
 10
0.0
 20
0.0
 30
0.0
  9
$PUCSORGBOTTOM
 10
0.0
 20
0.0
 30
0.0
  9
$PUCSORGLEFT
 10
0.0
 20
0.0
 30
0.0
  9
$PUCSORGRIGHT
 10
0.0
 20
0.0
 30
0.0
  9
$PUCSORGFRONT
 10
0.0
 20
0.0
 30
0.0
  9
$PUCSORGBACK
 10
0.0
 20
0.0
 30
0.0
  9
$USERI1
 70
0
  9
$USERI2
 70
0
  9
$USERI3
 70
0
  9
$USERI4
 70
0
  9
$USERI5
 70
0
  9
$USERR1
 40
0.0
  9
$USERR2
 40
0.0
  9
$USERR3
 40
0.0
  9
$USERR4
 40
0.0
  9
$USERR5
 40
0.0
  9
$WORLDVIEW
 70
1
  9
$SHADEDGE
 70
3
  9
$SHADEDIF
 70
70
  9
$TILEMODE
 70
1
  9
$MAXACTVP
 70
64
  9
$PINSBASE
 10
0.0
 20
0.0
 30
0.0
  9
$PLIMCHECK
 70
0
  9
$PEXTMIN
 10
1e+20
 20
1e+20
 30
1e+20
  9
$PEXTMAX
 10
-1e+20
 20
-1e+20
 30
-1e+20
  9
$PLIMMIN
 10
0.0
 20
0.0
  9
$PLIMMAX
 10
420.0
 20
297.0
  9
$UNITMODE
 70
0
  9
$VISRETAIN
 70
1
  9
$PLINEGEN
 70
0
  9
$PSLTSCALE
 70
1
  9
$TREEDEPTH
 70
3020
  9
$CMLSTYLE
  2
Standard
  9
$CMLJUST
 70
0
  9
$CMLSCALE
 40
20.0
  9
$PROXYGRAPHICS
 70
1
  9
$MEASUREMENT
 70
1
  9
$CELWEIGHT
370
-1
  9
$ENDCAPS
280
0
  9
$JOINSTYLE
280
0
  9
$LWDISPLAY
290
0
  9
$INSUNITS
 70
6
  9
$HYPERLINKBASE
  1

  9
$STYLESHEET
  1

  9
$XEDIT
290
1
  9
$CEPSNTYPE
380
0
  9
$PSTYLEMODE
290
1
  9
$FINGERPRINTGUID
  2
{4F85EE92-036A-469F-B4D6-C7565484F6E8}
  9
$VERSIONGUID
  2
{D9260F55-B24B-4822-8A01-53B869CEC890}
  9
$EXTNAMES
290
1
  9
$PSVPSCALE
 40
0.0
  9
$OLESTARTUP
290
0
  9
$SORTENTS
280
127
  9
$INDEXCTL
280
0
  9
$HIDETEXT
280
1
  9
$XCLIPFRAME
280
1
  9
$HALOGAP
280
0
  9
$OBSCOLOR
 70
257
  9
$OBSLTYPE
280
0
  9
$INTERSECTIONDISPLAY
280
0
  9
$INTERSECTIONCOLOR
 70
257
  9
$DIMASSOC
280
2
  9
$PROJECTNAME
  1

  9
$CAMERADISPLAY
290
0
  9
$LENSLENGTH
 40
50.0
  9
$CAMERAHEIGHT
 40
0.0
  9
$STEPSPERSEC
 40
24.0
  9
$STEPSIZE
 40
100.0
  9
$3DDWFPREC
 40
2.0
  9
$PSOLWIDTH
 40
0.005
  9
$PSOLHEIGHT
 40
0.08
  9
$LOFTANG1
 40
1.570796326795
  9
$LOFTANG2
 40
1.570796326795
  9
$LOFTMAG1
 40
0.0
  9
$LOFTMAG2
 40
0.0
  9
$LOFTPARAM
 70
7
  9
$LOFTNORMALS
280
1
  9
$LATITUDE
 40
37.795
  9
$LONGITUDE
 40
-122.394
  9
$NORTHDIRECTION
 40
0.0
  9
$TIMEZONE
 70
-8000
  9
$LIGHTGLYPHDISPLAY
280
1
  9
$TILEMODELIGHTSYNCH
280
1
  9
$CMATERIAL
347
20
  9
$SOLIDHIST
280
0
  9
$SHOWHIST
280
1
  9
$DWFFRAME
280
2
  9
$DGNFRAME
280
2
  9
$REALWORLDSCALE
290
1
  9
$INTERFERECOLOR
 62
256
  9
$CSHADOW
280
0
  9
$SHADOWPLANELOCATION
 40
0.0
  0
ENDSEC
  0
SECTION
  2
CLASSES
  0
CLASS
  1
ACDBDICTIONARYWDFLT
  2
AcDbDictionaryWithDefault
  3
ObjectDBX Classes
 90
0
 91
0
280
0
281
0
  0
CLASS
  1
SUN
  2
AcDbSun
  3
SCENEOE
 90
1153
 91
0
280
0
281
0
  0
CLASS
  1
VISUALSTYLE
  2
AcDbVisualStyle
  3
ObjectDBX Classes
 90
4095
 91
0
280
0
281
0
  0
CLASS
  1
MATERIAL
  2
AcDbMaterial
  3
ObjectDBX Classes
 90
1153
 91
0
280
0
281
0
  0
CLASS
  1
SCALE
  2
AcDbScale
  3
ObjectDBX Classes
 90
1153
 91
0
280
0
281
0
  0
CLASS
  1
TABLESTYLE
  2
AcDbTableStyle
  3
ObjectDBX Classes
 90
4095
 91
0
280
0
281
0
  0
CLASS
  1
MLEADERSTYLE
  2
AcDbMLeaderStyle
  3
ACDB_MLEADERSTYLE_CLASS
 90
4095
 91
0
280
0
281
0
  0
CLASS
  1
DICTIONARYVAR
  2
AcDbDictionaryVar
  3
ObjectDBX Classes
 90
0
 91
0
280
0
281
0
  0
CLASS
  1
CELLSTYLEMAP
  2
AcDbCellStyleMap
  3
ObjectDBX Classes
 90
1152
 91
0
280
0
281
0
  0
CLASS
  1
MENTALRAYRENDERSETTINGS
  2
AcDbMentalRayRenderSettings
  3
SCENEOE
 90
1024
 91
0
280
0
281
0
  0
CLASS
  1
ACDBDETAILVIEWSTYLE
  2
AcDbDetailViewStyle
  3
ObjectDBX Classes
 90
1025
 91
0
280
0
281
0
  0
CLASS
  1
ACDBSECTIONVIEWSTYLE
  2
AcDbSectionViewStyle
  3
ObjectDBX Classes
 90
1025
 91
0
280
0
281
0
  0
CLASS
  1
RASTERVARIABLES
  2
AcDbRasterVariables
  3
ISM
 90
0
 91
0
280
0
281
0
  0
CLASS
  1
ACDBPLACEHOLDER
  2
AcDbPlaceHolder
  3
ObjectDBX Classes
 90
0
 91
0
280
0
281
0
  0
CLASS
  1
LAYOUT
  2
AcDbLayout
  3
ObjectDBX Classes
 90
0
 91
0
280
0
281
0
  0
ENDSEC
  0
SECTION
  2
TABLES
  0
TABLE
  2
VPORT
  5
8
330
0
100
AcDbSymbolTable
 70
1
  0
VPORT
  5
23
330
8
100
AcDbSymbolTableRecord
100
AcDbViewportTableRecord
  2
*Active
 70
0
 10
0.0
 20
0.0
 11
1.0
 21
1.0
 12
0.0
 22
0.0
 13
0.0
 23
0.0
 14
0.5
 24
0.5
 15
0.5
 25
0.5
 16
0.0
 26
0.0
 36
1.0
 17
0.0
 27
0.0
 37
0.0
 40
1000.0
 41
1.34
 42
50.0
 43
0.0
 44
0.0
 50
0.0
 51
0.0
 71
0
 72
1000
 73
1
 74
3
 75
0
 76
0
 77
0
 78
0
281
0
 65
0
146
0.0
  0
ENDTAB
  0
TABLE
  2
LTYPE
  5
2
330
0
100
AcDbSymbolTable
 70
7
  0
LTYPE
  5
24
330
2
100
AcDbSymbolTableRecord
100
AcDbLinetypeTableRecord
  2
ByBlock
 70
0
  3

 72
65
 73
0
 40
0.0
  0
LTYPE
  5
25
330
2
100
AcDbSymbolTableRecord
100
AcDbLinetypeTableRecord
  2
ByLayer
 70
0
  3

 72
65
 73
0
 40
0.0
  0
LTYPE
  5
26
330
2
100
AcDbSymbolTableRecord
100
AcDbLinetypeTableRecord
  2
Continuous
 70
0
  3

 72
65
 73
0
 40
0.0
  0
LTYPE
  5
32
330
2
100
AcDbSymbolTableRecord
100
AcDbLinetypeTableRecord
  2
1
 70
0
  3
 -------
 72
65
 73
2
 40
8.0
 49
4.0
 74
0
 49
4.0
 74
0
  0
LTYPE
  5
33
330
2
100
AcDbSymbolTableRecord
100
AcDbLinetypeTableRecord
  2
DOT2
 70
0
  3
Dot (.5x) .....................................
 72
65
 73
2
 40
0.125
 49
0.0
 74
0
 49
-0.125
 74
0
  0
LTYPE
  5
34
330
2
100
AcDbSymbolTableRecord
100
AcDbLinetypeTableRecord
  2
ACAD_ISO02W100
 70
0
  3
ISO dash __ __ __ __ __ __ __ __ __ __ __ __ __
 72
65
 73
2
 40
15.0
 49
12.0
 74
0
 49
-3.0
 74
0
  0
LTYPE
  5
35
330
2
100
AcDbSymbolTableRecord
100
AcDbLinetypeTableRecord
  2
JIS_02_4.0
 70
0
  3
HIDDEN04 ____ ____ ____ ____ ____ ____ ____
 72
65
 73
2
 40
5.5
 49
4.0
 74
0
 49
-1.5
 74
0
  0
ENDTAB
  0
TABLE
  2
LAYER
  5
1
330
0
100
AcDbSymbolTable
 70
13
  0
LAYER
  5
27
330
1
100
AcDbSymbolTableRecord
100
AcDbLayerTableRecord
  2
0
 70
0
 62
7
  6
Continuous
370
-3
390
13
347
21
  0
LAYER
  5
28
330
1
100
AcDbSymbolTableRecord
100
AcDbLayerTableRecord
  2
Defpoints
 70
0
 62
7
  6
Continuous
290
0
370
-3
390
13
347
21
  0
LAYER
  5
36
330
1
100
AcDbSymbolTableRecord
100
AcDbLayerTableRecord
  2
BG&E - DIMENSIONS
 70
0
 62
7
  6
Continuous
370
-3
390
F
347
EE
348
0
  0
LAYER
  5
37
330
1
100
AcDbSymbolTableRecord
100
AcDbLayerTableRecord
  2
标注线
 70
0
 62
6
  6
Continuous
370
20
390
F
347
EE
348
0
  0
LAYER
  5
38
330
1
100
AcDbSymbolTableRecord
100
AcDbLayerTableRecord
  2
玻璃
 70
0
 62
4
  6
Continuous
370
-3
390
F
347
EE
348
0
  0
LAYER
  5
39
330
1
100
AcDbSymbolTableRecord
100
AcDbLayerTableRecord
  2
定制
 70
0
 62
252
  6
Continuous
370
-3
390
F
347
EE
348
0
  0
LAYER
  5
3A
330
1
100
AcDbSymbolTableRecord
100
AcDbLayerTableRecord
  2
6
 70
0
 62
6
  6
Continuous
370
-3
390
F
347
EE
348
0
  0
LAYER
  5
3B
330
1
100
AcDbSymbolTableRecord
100
AcDbLayerTableRecord
  2
8
 70
0
 62
8
  6
Continuous
370
-3
390
F
347
EE
348
0
  0
LAYER
  5
3C
330
1
100
AcDbSymbolTableRecord
100
AcDbLayerTableRecord
  2
材料2
 70
0
 62
6
  6
Continuous
370
-3
390
F
347
EE
348
0
  0
LAYER
  5
3D
330
1
100
AcDbSymbolTableRecord
100
AcDbLayerTableRecord
  2
位置
 70
0
 62
2
  6
Continuous
370
-3
390
F
347
EE
348
0
  0
LAYER
  5
3E
330
1
100
AcDbSymbolTableRecord
100
AcDbLayerTableRecord
  2
2
 70
0
 62
2
  6
Continuous
370
-3
390
F
347
EE
348
0
  0
LAYER
  5
3F
330
1
100
AcDbSymbolTableRecord
100
AcDbLayerTableRecord
  2
虚线
 70
0
 62
253
  6
JIS_02_4.0
370
-3
390
F
347
EE
348
0
  0
LAYER
  5
40
330
1
100
AcDbSymbolTableRecord
100
AcDbLayerTableRecord
  2
YQ_SYMB
 70
0
 62
2
  6
Continuous
370
-3
390
F
347
EE
348
0
  0
ENDTAB
  0
TABLE
  2
STYLE
  5
5
330
0
100
AcDbSymbolTable
 70
8
  0
STYLE
  5
29
330
5
100
AcDbSymbolTableRecord
100
AcDbTextStyleTableRecord
  2
Standard
 70
0
 40
0.0
 41
1.0
 50
0.0
 71
0
 42
2.5
  3
txt
  4

  0
STYLE
  5
41
330
5
100
AcDbSymbolTableRecord
100
AcDbTextStyleTableRecord
  2
Annotative
 70
0
 40
0.0
 41
1.0
 50
0.0
 71
0
 42
2.5
  3
arial.ttf
  4

  0
STYLE
  5
42
330
5
100
AcDbSymbolTableRecord
100
AcDbTextStyleTableRecord
  2
ROMANS
 70
0
 40
0.0
 41
1.0
 50
0.0
 71
0
 42
2.5
  3
SimSun.ttf
  4

  0
STYLE
  5
43
330
5
100
AcDbSymbolTableRecord
100
AcDbTextStyleTableRecord
  2
宋体
 70
0
 40
0.0
 41
1.0
 50
0.0
 71
0
 42
2.5
  3
SimSun.ttf
  4

  0
STYLE
  5
44
330
5
100
AcDbSymbolTableRecord
100
AcDbTextStyleTableRecord
  2
宋体-2.0_SH
 70
0
 40
2.0
 41
1.0
 50
0.0
 71
0
 42
2.0
  3
SimSun.ttf
  4

  0
STYLE
  5
45
330
5
100
AcDbSymbolTableRecord
100
AcDbTextStyleTableRecord
  2
样式 1
 70
0
 40
3.0
 41
1.0
 50
0.0
 71
0
 42
3.0
  3
SimSun.ttf
  4

  0
STYLE
  5
46
330
5
100
AcDbSymbolTableRecord
100
AcDbTextStyleTableRecord
  2
MtXpl__1
 70
0
 40
0.0
 41
1.0
 50
0.0
 71
0
 42
2.5
  3
SimSun.ttf
  4

  0
STYLE
  5
47
330
5
100
AcDbSymbolTableRecord
100
AcDbTextStyleTableRecord
  2
YQ_TEXT
 70
0
 40
0.0
 41
0.8
 50
0.0
 71
0
 42
2.5
  3
SUPEROS.SHX
  4
HZDX.SHX
  0
ENDTAB
  0
TABLE
  2
VIEW
  5
7
330
0
100
AcDbSymbolTable
 70
0
  0
ENDTAB
  0
TABLE
  2
UCS
  5
6
330
0
100
AcDbSymbolTable
 70
0
  0
ENDTAB
  0
TABLE
  2
APPID
  5
3
330
0
100
AcDbSymbolTable
 70
3
  0
APPID
  5
2A
330
3
100
AcDbSymbolTableRecord
100
AcDbRegAppTableRecord
  2
ACAD
 70
0
  0
APPID
  5
116
330
3
100
AcDbSymbolTableRecord
100
AcDbRegAppTableRecord
  2
HATCHBACKGROUNDCOLOR
 70
0
  0
APPID
  5
117
330
3
100
AcDbSymbolTableRecord
100
AcDbRegAppTableRecord
  2
EZDXF
 70
0
  0
ENDTAB
  0
TABLE
  2
DIMSTYLE
  5
4
330
0
100
AcDbSymbolTable
 70
18
100
AcDbDimStyleTable
  0
DIMSTYLE
105
2B
330
4
100
AcDbSymbolTableRecord
100
AcDbDimStyleTableRecord
  2
Standard
 70
0
 40
1.0
 41
2.5
 42
0.625
 43
3.75
 44
1.25
 45
0.0
 46
0.0
 47
0.0
 48
0.0
 49
2.5
140
2.5
141
2.5
142
0.0
143
0.03937007874
144
1.0
145
0.0
146
1.0
147
0.625
148
0.0
 69
0
 70
0
 71
0
 72
0
 73
0
 74
0
 75
0
 76
0
 77
1
 78
8
 79
3
170
0
171
3
172
1
173
0
174
0
175
0
176
0
177
0
178
0
179
2
271
2
272
2
273
2
274
3
275
0
276
0
277
2
278
44
279
0
280
0
281
0
282
0
283
0
284
8
285
0
286
0
288
0
289
3
290
0
371
-2
372
-2
  0
DIMSTYLE
105
48
330
4
100
AcDbSymbolTableRecord
100
AcDbDimStyleTableRecord
  2
Annotative
 70
0
 40
0.0
 41
2.5
 42
0.625
 43
3.75
 44
1.25
 45
0.0
 46
0.0
 47
0.0
 48
0.0
 49
2.5
140
2.5
141
2.5
142
0.0
143
0.03937007874016
144
1.0
145
0.0
146
1.0
147
0.625
148
0.0
 69
0
 70
0
 71
0
 72
0
 73
0
 74
0
 75
0
 76
0
 77
1
 78
8
 79
3
170
0
171
3
172
1
173
0
174
0
175
0
176
0
177
0
178
0
179
2
271
2
272
2
273
2
274
3
275
0
276
0
277
2
278
44
279
0
280
0
281
0
282
0
283
0
284
8
285
0
286
0
288
0
289
3
290
0
340
29
371
-2
372
-2
  0
DIMSTYLE
105
49
330
4
100
AcDbSymbolTableRecord
100
AcDbDimStyleTableRecord
  2
ISO-25
 70
0
 40
1.0
 41
2.5
 42
0.625
 43
3.75
 44
1.25
 45
0.0
 46
0.0
 47
0.0
 48
0.0
 49
2.5
140
2.5
141
2.5
142
0.0
143
0.03937007874016
144
1.0
145
0.0
146
1.0
147
0.625
148
0.0
 69
0
 70
0
 71
0
 72
0
 73
0
 74
0
 75
0
 76
0
 77
1
 78
8
 79
3
170
0
171
3
172
1
173
0
174
0
175
0
176
0
177
0
178
0
179
2
271
2
272
2
273
2
274
3
275
0
276
0
277
2
278
44
279
0
280
0
281
0
282
0
283
0
284
8
285
0
286
0
288
0
289
3
290
0
340
29
371
-2
372
-2
  0
DIMSTYLE
105
4A
330
4
100
AcDbSymbolTableRecord
100
AcDbDimStyleTableRecord
  2
yq1
 70
0
 40
1.0
 41
3.0
 42
3.0
 43
6.0
 44
1.0
 45
0.0
 46
0.0
 47
0.0
 48
0.0
 49
3.0
140
3.5
141
0.0
142
0.0
143
0.03937007874
144
1.0
145
0.0
146
1.0
147
0.5
148
0.0
 69
0
 70
0
 71
0
 72
0
 73
0
 74
0
 75
0
 76
0
 77
1
 78
8
 79
2
170
0
171
3
172
1
173
0
174
0
175
0
176
0
177
0
178
0
179
1
271
1
272
1
273
2
274
3
275
0
276
0
277
2
278
44
279
1
280
0
281
0
282
0
283
0
284
8
285
0
286
0
288
0
289
3
290
1
340
42
371
-2
372
-2
  0
DIMSTYLE
105
4B
330
4
100
AcDbSymbolTableRecord
100
AcDbDimStyleTableRecord
  2
yq10
 70
0
 40
10.0
 41
0.5
 42
3.0
 43
6.0
 44
1.5
 45
0.0
 46
0.0
 47
0.0
 48
0.0
 49
3.0
140
3.0
141
0.0
142
0.0
143
0.03937007874
144
1.0
145
0.0
146
1.0
147
0.5
148
0.0
 69
0
 70
0
 71
0
 72
0
 73
0
 74
0
 75
0
 76
0
 77
1
 78
8
 79
2
170
0
171
3
172
1
173
0
174
0
175
0
176
0
177
0
178
0
179
2
271
0
272
0
273
2
274
3
275
0
276
0
277
2
278
44
279
1
280
0
281
0
282
0
283
0
284
8
285
0
286
0
288
0
289
3
290
0
340
42
371
-2
372
-2
  0
DIMSTYLE
105
4C
330
4
100
AcDbSymbolTableRecord
100
AcDbDimStyleTableRecord
  2
副本 配件标注01
 70
0
 40
1.0
 41
2.0
 42
2.0
 43
2.0
 44
1.5
 45
0.0
 46
0.0
 47
0.01
 48
0.01
 49
2.5
140
5.0
141
2.0
142
0.0
143
0.03937007874
144
1.0
145
0.0
146
1.0
147
1.0
148
0.0
 69
0
 70
0
 71
0
 72
0
 73
0
 74
0
 75
0
 76
0
 77
1
 78
8
 79
3
170
0
171
3
172
1
173
0
174
0
175
0
176
1
177
1
178
0
179
2
271
1
272
1
273
2
274
3
275
0
276
0
277
2
278
44
279
0
280
0
281
0
282
0
283
0
284
8
285
0
286
0
288
0
289
3
290
0
340
43
341
D0
342
D0
371
0
372
0
  0
DIMSTYLE
105
4D
330
4
100
AcDbSymbolTableRecord
100
AcDbDimStyleTableRecord
  2
yq5
 70
0
 40
5.0
 41
1.0
 42
1.0
 43
6.0
 44
1.0
 45
0.0
 46
0.0
 47
0.0
 48
0.0
 49
2.5
140
3.0
141
0.0
142
0.0
143
0.03937007874
144
1.0
145
0.0
146
1.0
147
0.5
148
0.0
 69
0
 70
0
 71
0
 72
0
 73
0
 74
0
 75
0
 76
0
 77
1
 78
8
 79
2
170
0
171
3
172
1
173
0
174
1
175
0
176
0
177
0
178
0
179
1
271
1
272
1
273
2
274
3
275
0
276
0
277
2
278
44
279
2
280
0
281
0
282
0
283
0
284
8
285
0
286
0
288
0
289
2
290
0
340
29
371
-2
372
-2
  0
DIMSTYLE
105
4E
330
4
100
AcDbSymbolTableRecord
100
AcDbDimStyleTableRecord
  2
yq0.5
 70
0
 40
0.5
 41
0.5
 42
3.0
 43
6.0
 44
1.0
 45
0.0
 46
0.0
 47
0.0
 48
0.0
 49
3.0
140
3.5
141
0.0
142
0.0
143
0.03937007874
144
1.0
145
0.0
146
1.0
147
0.5
148
0.0
 69
0
 70
0
 71
0
 72
0
 73
0
 74
0
 75
0
 76
0
 77
1
 78
8
 79
2
170
0
171
3
172
1
173
0
174
0
175
0
176
0
177
0
178
7
179
2
271
1
272
1
273
2
274
3
275
0
276
0
277
2
278
44
279
1
280
0
281
0
282
0
283
0
284
8
285
0
286
0
288
0
289
3
290
1
340
42
371
-2
372
-2
  0
DIMSTYLE
105
4F
330
4
100
AcDbSymbolTableRecord
100
AcDbDimStyleTableRecord
  2
yqa5
 70
0
 40
5.0
 41
1.0
 42
1.0
 43
6.0
 44
1.0
 45
0.0
 46
0.0
 47
0.0
 48
0.0
 49
2.5
140
3.0
141
0.0
142
0.0
143
0.03937007874
144
1.0
145
0.0
146
1.0
147
0.5
148
0.0
 69
0
 70
0
 71
0
 72
0
 73
0
 74
0
 75
0
 76
0
 77
1
 78
8
 79
2
170
0
171
3
172
1
173
0
174
0
175
0
176
0
177
0
178
0
179
1
271
1
272
1
273
2
274
3
275
0
276
0
277
2
278
44
279
2
280
0
281
0
282
0
283
0
284
8
285
0
286
0
288
0
289
3
290
0
340
29
371
-2
372
-2
  0
DIMSTYLE
105
50
330
4
100
AcDbSymbolTableRecord
100
AcDbDimStyleTableRecord
  2
yq11
 70
0
 40
11.0
 41
1.0
 42
1.0
 43
6.0
 44
1.0
 45
0.0
 46
0.0
 47
0.0
 48
0.0
 49
2.5
140
3.0
141
0.0
142
0.0
143
0.03937007874
144
1.0
145
0.0
146
1.0
147
0.5
148
0.0
 69
0
 70
0
 71
0
 72
0
 73
0
 74
0
 75
0
 76
0
 77
1
 78
8
 79
2
170
0
171
3
172
1
173
0
174
1
175
0
176
0
177
0
178
0
179
1
271
1
272
1
273
2
274
3
275
0
276
0
277
2
278
44
279
2
280
0
281
0
282
0
283
0
284
8
285
0
286
0
288
0
289
2
290
0
340
29
371
-2
372
-2
  0
DIMSTYLE
105
51
330
4
100
AcDbSymbolTableRecord
100
AcDbDimStyleTableRecord
  2
yqa11
 70
0
 40
11.0
 41
1.0
 42
1.0
 43
6.0
 44
1.0
 45
0.0
 46
0.0
 47
0.0
 48
0.0
 49
2.5
140
3.0
141
0.0
142
0.0
143
0.03937007874
144
1.0
145
0.0
146
1.0
147
0.5
148
0.0
 69
0
 70
0
 71
0
 72
0
 73
0
 74
0
 75
0
 76
0
 77
1
 78
8
 79
2
170
0
171
3
172
1
173
0
174
0
175
0
176
0
177
0
178
0
179
1
271
1
272
2
273
2
274
3
275
0
276
0
277
2
278
44
279
2
280
0
281
0
282
0
283
0
284
8
285
0
286
0
288
0
289
3
290
0
340
29
371
-2
372
-2
  0
DIMSTYLE
105
52
330
4
100
AcDbSymbolTableRecord
100
AcDbDimStyleTableRecord
  2
yq12
 70
0
 40
12.0
 41
1.0
 42
1.0
 43
6.0
 44
1.0
 45
0.0
 46
0.0
 47
0.0
 48
0.0
 49
2.5
140
3.0
141
0.0
142
0.0
143
0.03937007874
144
1.0
145
0.0
146
1.0
147
0.5
148
0.0
 69
0
 70
0
 71
0
 72
0
 73
0
 74
0
 75
0
 76
0
 77
1
 78
8
 79
2
170
0
171
3
172
1
173
0
174
1
175
0
176
0
177
0
178
0
179
1
271
0
272
0
273
2
274
3
275
0
276
0
277
2
278
44
279
2
280
0
281
0
282
0
283
0
284
8
285
0
286
0
288
0
289
2
290
0
340
29
371
-2
372
-2
  0
DIMSTYLE
105
53
330
4
100
AcDbSymbolTableRecord
100
AcDbDimStyleTableRecord
  2
yqa12
 70
0
 40
12.0
 41
1.0
 42
1.0
 43
6.0
 44
1.0
 45
0.0
 46
0.0
 47
0.0
 48
0.0
 49
2.5
140
3.0
141
0.0
142
0.0
143
0.03937007874
144
1.0
145
0.0
146
1.0
147
0.5
148
0.0
 69
0
 70
0
 71
0
 72
0
 73
0
 74
0
 75
0
 76
0
 77
1
 78
8
 79
2
170
0
171
3
172
1
173
0
174
0
175
0
176
0
177
0
178
0
179
1
271
1
272
2
273
2
274
3
275
0
276
0
277
2
278
44
279
2
280
0
281
0
282
0
283
0
284
8
285
0
286
0
288
0
289
3
290
0
340
29
371
-2
372
-2
  0
DIMSTYLE
105
54
330
4
100
AcDbSymbolTableRecord
100
AcDbDimStyleTableRecord
  2
AA
 70
0
 40
1.0
 41
1.0
 42
0.625
 43
3.75
 44
1.25
 45
0.0
 46
0.0
 47
0.0
 48
0.0
 49
2.5
140
2.5
141
2.5
142
0.0
143
0.03937007874016
144
1.0
145
0.0
146
1.0
147
0.625
148
0.0
 69
0
 70
0
 71
0
 72
0
 73
0
 74
0
 75
0
 76
0
 77
1
 78
8
 79
3
170
0
171
3
172
1
173
0
174
0
175
0
176
256
177
256
178
256
179
2
271
1
272
1
273
2
274
3
275
0
276
0
277
2
278
44
279
0
280
0
281
0
282
0
283
0
284
8
285
0
286
0
288
0
289
3
290
0
340
29
371
-2
372
-2
  0
DIMSTYLE
105
55
330
4
100
AcDbSymbolTableRecord
100
AcDbDimStyleTableRecord
  2
MX-30
 70
0
 40
10.0
 41
1.0
 42
1.0
 43
3.75
 44
1.0
 45
0.0
 46
0.0
 47
0.0
 48
0.0
 49
2.5
140
2.0
141
1.0
142
0.0
143
0.03937007874016
144
1.0
145
0.0
146
1.0
147
0.5
148
0.0
 69
0
 70
0
 71
0
 72
0
 73
0
 74
0
 75
0
 76
0
 77
1
 78
8
 79
3
170
0
171
3
172
1
173
0
174
1
175
1
176
0
177
0
178
0
179
2
271
1
272
1
273
2
274
3
275
0
276
0
277
2
278
44
279
2
280
0
281
0
282
0
283
0
284
8
285
0
286
0
288
0
289
3
290
0
340
29
371
-2
372
-2
  0
DIMSTYLE
105
56
330
4
100
AcDbSymbolTableRecord
100
AcDbDimStyleTableRecord
  2
yq15
 70
0
 40
15.0
 41
0.5
 42
3.0
 43
6.0
 44
1.5
 45
0.0
 46
0.0
 47
0.0
 48
0.0
 49
2.5
140
3.0
141
0.0
142
0.0
143
0.03937007874
144
1.0
145
0.0
146
1.0
147
0.5
148
0.0
 69
0
 70
0
 71
0
 72
0
 73
0
 74
0
 75
0
 76
0
 77
1
 78
8
 79
2
170
0
171
3
172
1
173
0
174
0
175
0
176
256
177
256
178
7
179
2
271
1
272
1
273
2
274
3
275
0
276
0
277
2
278
44
279
1
280
0
281
0
282
0
283
0
284
8
285
0
286
0
288
1
289
3
290
1
340
42
371
-2
372
-2
  0
DIMSTYLE
105
57
330
4
100
AcDbSymbolTableRecord
100
AcDbDimStyleTableRecord
  2
yq1.5
 70
0
 40
2.0
 41
0.5
 42
3.0
 43
6.0
 44
1.5
 45
0.0
 46
0.0
 47
0.0
 48
0.0
 49
2.5
140
2.0
141
0.0
142
0.0
143
0.03937007874
144
1.0
145
0.0
146
1.0
147
0.5
148
0.0
 69
0
 70
0
 71
0
 72
0
 73
0
 74
0
 75
0
 76
0
 77
1
 78
8
 79
2
170
0
171
3
172
1
173
0
174
0
175
0
176
256
177
256
178
7
179
2
271
1
272
1
273
2
274
3
275
0
276
0
277
2
278
44
279
1
280
0
281
0
282
0
283
0
284
8
285
0
286
0
288
0
289
3
290
1
340
42
371
-2
372
-2
  0
DIMSTYLE
105
58
330
4
100
AcDbSymbolTableRecord
100
AcDbDimStyleTableRecord
  2
副本 订单标注刨槽-小03
 70
0
 40
1.0
 41
0.5
 42
0.5
 43
1.0
 44
1.0
 45
0.0
 46
0.0
 47
0.0
 48
0.0
 49
2.5
140
5.0
141
-1.0
142
0.0
143
0.03937007874
144
1.0
145
0.0
146
1.0
147
1.0
148
0.0
 69
0
 70
0
 71
0
 72
0
 73
0
 74
0
 75
0
 76
0
 77
1
 78
8
 79
3
170
0
171
3
172
1
173
0
174
0
175
0
176
6
177
6
178
0
179
2
271
2
272
2
273
2
274
3
275
0
276
0
277
6
278
44
279
0
280
0
281
0
282
0
283
0
284
8
285
0
286
0
288
0
289
3
290
0
340
29
345
33
346
33
347
33
371
25
372
25
  0
ENDTAB
  0
TABLE
  2
BLOCK_RECORD
  5
9
330
0
100
AcDbSymbolTable
 70
23
  0
BLOCK_RECORD
  5
17
330
9
100
AcDbSymbolTableRecord
100
AcDbBlockTableRecord
  2
*Model_Space
340
1A
 70
0
280
1
281
0
  0
BLOCK_RECORD
  5
1B
330
9
100
AcDbSymbolTableRecord
100
AcDbBlockTableRecord
  2
*Paper_Space
340
1E
 70
0
280
1
281
0
  0
BLOCK_RECORD
  5
2F
330
9
100
AcDbSymbolTableRecord
100
AcDbBlockTableRecord
  2
KB__-__-3003-__1_1
340
0
 70
0
280
1
281
0
  0
BLOCK_RECORD
  5
5E
330
9
100
AcDbSymbolTableRecord
100
AcDbBlockTableRecord
  2
KB__-__-3003-__3_2
340
0
 70
0
280
1
281
0
  0
BLOCK_RECORD
  5
62
330
9
100
AcDbSymbolTableRecord
100
AcDbBlockTableRecord
  2
KB__-__-3003-__4_3
340
0
 70
0
280
1
281
0
  0
BLOCK_RECORD
  5
6A
330
9
100
AcDbSymbolTableRecord
100
AcDbBlockTableRecord
  2
KB__-__-3003-__5_4
340
0
 70
0
280
1
281
0
  0
BLOCK_RECORD
  5
82
330
9
100
AcDbSymbolTableRecord
100
AcDbBlockTableRecord
  2
KB__-__-3003-__6_5
340
0
 70
0
280
1
281
0
  0
BLOCK_RECORD
  5
8A
330
9
100
AcDbSymbolTableRecord
100
AcDbBlockTableRecord
  2
KB__-__-3003-__7_6
340
0
 70
0
280
1
281
0
  0
BLOCK_RECORD
  5
90
330
9
100
AcDbSymbolTableRecord
100
AcDbBlockTableRecord
  2
KB__-__-3003-__8_7
340
0
 70
0
280
1
281
0
  0
BLOCK_RECORD
  5
96
330
9
100
AcDbSymbolTableRecord
100
AcDbBlockTableRecord
  2
KB__-__-3003-__9_8
340
0
 70
0
280
1
281
0
  0
BLOCK_RECORD
  5
9C
330
9
100
AcDbSymbolTableRecord
100
AcDbBlockTableRecord
  2
KB__-__-3003-__10_9
340
0
 70
0
280
1
281
0
  0
BLOCK_RECORD
  5
A0
330
9
100
AcDbSymbolTableRecord
100
AcDbBlockTableRecord
  2
KB__-__-3003-__11_10
340
0
 70
0
280
1
281
0
  0
BLOCK_RECORD
  5
A4
330
9
100
AcDbSymbolTableRecord
100
AcDbBlockTableRecord
  2
KB__-__-3003-__12_11
340
0
 70
0
280
1
281
0
  0
BLOCK_RECORD
  5
A8
330
9
100
AcDbSymbolTableRecord
100
AcDbBlockTableRecord
  2
KB__-__-3003-__13_12
340
0
 70
0
280
1
281
0
  0
BLOCK_RECORD
  5
AC
330
9
100
AcDbSymbolTableRecord
100
AcDbBlockTableRecord
  2
KB__-__-3003-__14_13
340
0
 70
0
280
1
281
0
  0
BLOCK_RECORD
  5
B0
330
9
100
AcDbSymbolTableRecord
100
AcDbBlockTableRecord
  2
KB__-__-3003-__15_14
340
0
 70
0
280
1
281
0
  0
BLOCK_RECORD
  5
B4
330
9
100
AcDbSymbolTableRecord
100
AcDbBlockTableRecord
  2
KB__-__-3003-__16_15
340
0
 70
0
280
1
281
0
  0
BLOCK_RECORD
  5
B8
330
9
100
AcDbSymbolTableRecord
100
AcDbBlockTableRecord
  2
KB__-__-3003-__17_16
340
0
 70
0
280
1
281
0
  0
BLOCK_RECORD
  5
BC
330
9
100
AcDbSymbolTableRecord
100
AcDbBlockTableRecord
  2
KB__-__-3003-__18_17
340
0
 70
0
280
1
281
0
  0
BLOCK_RECORD
  5
C0
330
9
100
AcDbSymbolTableRecord
100
AcDbBlockTableRecord
  2
KB__-__-3003-__19_18
340
0
 70
0
280
1
281
0
  0
BLOCK_RECORD
  5
C4
330
9
100
AcDbSymbolTableRecord
100
AcDbBlockTableRecord
  2
KB__-__-3003-__20_19
340
0
 70
0
280
1
281
0
  0
BLOCK_RECORD
  5
C8
330
9
100
AcDbSymbolTableRecord
100
AcDbBlockTableRecord
  2
KB__-__-3003-__21_20
340
0
 70
0
280
1
281
0
  0
BLOCK_RECORD
  5
D0
330
9
100
AcDbSymbolTableRecord
100
AcDbBlockTableRecord
  2
_FILLED
340
0
 70
0
280
1
281
0
  0
ENDTAB
  0
ENDSEC
  0
SECTION
  2
BLOCKS
  0
BLOCK
  5
18
330
17
100
AcDbEntity
  8
0
100
AcDbBlockBegin
  2
*Model_Space
 70
0
 10
0.0
 20
0.0
 30
0.0
  3
*Model_Space
  1

  0
ENDBLK
  5
19
330
17
100
AcDbEntity
  8
0
100
AcDbBlockEnd
  0
BLOCK
  5
1C
330
1B
100
AcDbEntity
  8
0
100
AcDbBlockBegin
  2
*Paper_Space
 70
0
 10
0.0
 20
0.0
 30
0.0
  3
*Paper_Space
  1

  0
ENDBLK
  5
1D
330
1B
100
AcDbEntity
  8
0
100
AcDbBlockEnd
  0
BLOCK
  5
30
330
2F
100
AcDbEntity
  8
0
100
AcDbBlockBegin
  2
KB__-__-3003-__1_1
 70
0
 10
0.0
 20
0.0
 30
0.0
  3
KB__-__-3003-__1_1
  1

  0
LINE
  5
59
330
2F
100
AcDbEntity
  8
0
100
AcDbLine
 10
115.60000000000946
 20
2165.2000000000044
 30
0.0
 11
115.60000000000946
 21
2165.2000000000044
 31
0.0
  0
CIRCLE
  5
5A
330
2F
100
AcDbEntity
  8
0
100
AcDbCircle
 10
42.85000000000946
 20
1100.0000000000002
 30
0.0
 40
4.450000000004365
  0
CIRCLE
  5
5B
330
2F
100
AcDbEntity
  8
0
100
AcDbCircle
 10
42.85000000000946
 20
1950.0000000000002
 30
0.0
 40
4.450000000004365
  0
CIRCLE
  5
5C
330
2F
100
AcDbEntity
  8
0
100
AcDbCircle
 10
42.85000000000946
 20
250.0
 30
0.0
 40
4.450000000004365
  0
LWPOLYLINE
  5
5D
330
2F
100
AcDbEntity
  8
0
 62
0
100
AcDbPolyline
 90
29
 70
1
 10
46.199999999989814
 20
2158.900000000004
 10
46.199999999989814
 20
2153.7000000000044
 10
58.10000000000946
 20
2153.7000000000044
 10
58.10000000000946
 20
2172.2000000000044
 42
-0.4142135623730951
 10
60.10000000000946
 20
2174.2000000000044
 10
78.10000000000946
 20
2174.2000000000044
 42
-0.4142135623730951
 10
80.10000000000946
 20
2172.2000000000044
 10
80.10000000000946
 20
2170.2000000000044
 10
113.60000000000946
 20
2170.2000000000044
 42
-0.4142135623730951
 10
115.60000000000946
 20
2168.2000000000044
 10
115.60000000000946
 20
2165.2000000000044
 10
130.6999999999989
 20
2165.2000000000044
 10
130.6999999999989
 20
2200.0
 10
160.60000000000946
 20
2200.0
 10
160.60000000000946
 20
2102.0
 42
-0.4142135623730951
 10
158.60000000000946
 20
2100.0
 10
156.60000000000946
 20
2100.0
 10
156.60000000000946
 20
2050.0
 10
158.60000000000946
 20
2050.0
 42
-0.4142135623730951
 10
160.60000000000946
 20
2048.0
 10
160.60000000000946
 20
0.0
 10
0.0
 20
0.0
 10
0.0
 20
2200.0
 10
26.899999999999636
 20
2200.0
 10
26.899999999999636
 20
2153.7000000000044
 10
39.5
 20
2153.7000000000044
 10
39.5
 20
2158.900000000004
 42
-0.4142135623730951
 10
41.5
 20
2160.900000000004
 10
44.199999999989814
 20
2160.900000000004
 42
-0.4142135623730951
  0
ENDBLK
  5
31
330
2F
100
AcDbEntity
  8
0
100
AcDbBlockEnd
  0
BLOCK
  5
5F
330
5E
100
AcDbEntity
  8
0
100
AcDbBlockBegin
  2
KB__-__-3003-__3_2
 70
0
 10
0.0
 20
0.0
 30
0.0
  3
KB__-__-3003-__3_2
  1

  0
LWPOLYLINE
  5
61
330
5E
100
AcDbEntity
  8
0
100
AcDbPolyline
 90
4
 70
1
 10
0.0
 20
0.0
 10
108.5
 20
0.0
 10
108.5
 20
2150.0
 10
0.0
 20
2150.0
  0
ENDBLK
  5
60
330
5E
100
AcDbEntity
  8
0
100
AcDbBlockEnd
  0
BLOCK
  5
63
330
62
100
AcDbEntity
  8
0
100
AcDbBlockBegin
  2
KB__-__-3003-__4_3
 70
0
 10
0.0
 20
0.0
 30
0.0
  3
KB__-__-3003-__4_3
  1

  0
LINE
  5
65
330
62
100
AcDbEntity
  8
0
 62
0
100
AcDbLine
 10
0.0
 20
1309.0
 30
0.0
 11
90.0
 21
1309.0
 31
0.0
  0
LINE
  5
66
330
62
100
AcDbEntity
  8
0
100
AcDbLine
 10
90.0
 20
1309.0
 30
0.0
 11
90.0
 21
0.0
 31
0.0
  0
LINE
  5
67
330
62
100
AcDbEntity
  8
0
100
AcDbLine
 10
90.0
 20
0.0
 30
0.0
 11
0.0
 21
0.0
 31
0.0
  0
LINE
  5
68
330
62
100
AcDbEntity
  8
0
 62
0
100
AcDbLine
 10
0.0
 20
0.0
 30
0.0
 11
0.0
 21
1309.0
 31
0.0
  0
CIRCLE
  5
69
330
62
100
AcDbEntity
  8
0
 62
0
100
AcDbCircle
 10
45.0
 20
1274.0
 30
0.0
 40
2.149999999999999
  0
ENDBLK
  5
64
330
62
100
AcDbEntity
  8
0
100
AcDbBlockEnd
  0
BLOCK
  5
6B
330
6A
100
AcDbEntity
  8
0
100
AcDbBlockBegin
  2
KB__-__-3003-__5_4
 70
0
 10
0.0
 20
0.0
 30
0.0
  3
KB__-__-3003-__5_4
  1

  0
LINE
  5
6D
330
6A
100
AcDbEntity
  8
0
 62
7
100
AcDbLine
 10
0.0
 20
2174.7000000476837
 30
0.0
 11
0.0
 21
25.3000001311309
 31
0.0
  0
LINE
  5
6E
330
6A
100
AcDbEntity
  8
0
100
AcDbLine
 10
9.600000143051147
 20
2200.0000001192093
 30
0.0
 11
86.40000128746033
 21
2200.0
 31
0.0
  0
LINE
  5
6F
330
6A
100
AcDbEntity
  8
0
 62
7
100
AcDbLine
 10
9.600000143051147
 20
0.0
 30
0.0
 11
86.40000128746033
 21
0.0
 31
0.0
  0
LINE
  5
70
330
6A
100
AcDbEntity
  8
0
100
AcDbLine
 10
9.600000143051147
 20
2200.0000001192093
 30
0.0
 11
9.600000143051147
 21
2174.7000000476837
 31
0.0
  0
LINE
  5
71
330
6A
100
AcDbEntity
  8
0
100
AcDbLine
 10
9.600000143051147
 20
2174.7000000476837
 30
0.0
 11
0.0
 21
2174.7000000476837
 31
0.0
  0
LINE
  5
72
330
6A
100
AcDbEntity
  8
0
100
AcDbLine
 10
86.40000128746033
 20
2200.0
 30
0.0
 11
86.40000128746033
 21
2174.7000000476837
 31
0.0
  0
LINE
  5
73
330
6A
100
AcDbEntity
  8
0
100
AcDbLine
 10
86.40000128746033
 20
2174.7000000476837
 30
0.0
 11
99.00000119209108
 21
2174.7000000476837
 31
0.0
  0
LINE
  5
74
330
6A
100
AcDbEntity
  8
0
 62
7
100
AcDbLine
 10
9.600000143051147
 20
0.0
 30
0.0
 11
9.600000143051147
 21
25.3000001311309
 31
0.0
  0
LINE
  5
75
330
6A
100
AcDbEntity
  8
0
 62
7
100
AcDbLine
 10
9.600000143051147
 20
25.3000001311309
 30
0.0
 11
0.0
 21
25.3000001311309
 31
0.0
  0
LINE
  5
76
330
6A
100
AcDbEntity
  8
0
 62
7
100
AcDbLine
 10
86.40000128746033
 20
0.0
 30
0.0
 11
86.40000128746033
 21
25.3000001311309
 31
0.0
  0
LINE
  5
77
330
6A
100
AcDbEntity
  8
0
 62
7
100
AcDbLine
 10
86.40000128746033
 20
25.3000001311309
 30
0.0
 11
99.00000119209108
 21
25.3000001311309
 31
0.0
  0
LWPOLYLINE
  5
78
330
6A
100
AcDbEntity
  8
0
100
AcDbPolyline
 90
3
 70
0
 10
50.5000002384204
 20
2002.5000000596046
 42
-1.000000183012775
 10
50.50000119209108
 20
1997.5000001192095
 10
45.50000119209108
 20
1997.5000001192095
 42
-0.4142135623730951
  0
LWPOLYLINE
  5
79
330
6A
100
AcDbEntity
  8
0
 62
7
100
AcDbPolyline
 90
3
 70
0
 10
50.50000286102113
 20
202.50000005960487
 42
-0.9999996830128083
 10
50.50000119209108
 20
197.5
 10
45.50000119209108
 20
197.5
 42
-0.4142135623730951
  0
LWPOLYLINE
  5
7A
330
6A
100
AcDbEntity
  8
0
100
AcDbPolyline
 90
3
 70
0
 10
50.50000286102113
 20
1102.5000001192095
 42
-0.9999996830128083
 10
50.50000119209108
 20
1097.5000001192095
 10
45.50000119209108
 20
1097.5000001192095
 42
-0.4142135623730951
  0
ARC
  5
7B
330
6A
100
AcDbEntity
  8
0
100
AcDbCircle
 10
45.50000119209108
 20
1100.0000000596049
 30
0.0
 40
2.5
100
AcDbArc
 50
90.0
 51
-90.00000000000001
  0
LWPOLYLINE
  5
7C
330
6A
100
AcDbEntity
  8
0
100
AcDbPolyline
 90
2
 70
0
 10
45.50000119209108
 20
1102.5000000000002
 10
50.50000119209108
 20
1102.5000000000002
 42
-0.4142135623730951
  0
ARC
  5
7D
330
6A
100
AcDbEntity
  8
0
 62
7
100
AcDbCircle
 10
45.50000119209108
 20
200.00000011920997
 30
0.0
 40
2.5
100
AcDbArc
 50
90.0
 51
-90.00000000000001
  0
LWPOLYLINE
  5
7E
330
6A
100
AcDbEntity
  8
0
 62
7
100
AcDbPolyline
 90
2
 70
0
 10
45.50000119209108
 20
202.50000011920997
 10
50.50000119209108
 20
202.50000011920997
 42
-0.4142135623730951
  0
ARC
  5
7F
330
6A
100
AcDbEntity
  8
0
100
AcDbCircle
 10
45.50000119209108
 20
2000.0000000596046
 30
0.0
 40
2.5
100
AcDbArc
 50
90.0
 51
-90.00000000000001
  0
LWPOLYLINE
  5
80
330
6A
100
AcDbEntity
  8
0
100
AcDbPolyline
 90
2
 70
0
 10
45.50000119209108
 20
2002.5000001192093
 10
50.50000119209108
 20
2002.5000001192093
 42
-0.4142135623730951
  0
LWPOLYLINE
  5
81
330
6A
100
AcDbEntity
  8
0
 62
0
100
AcDbPolyline
 90
8
 70
0
 10
99.00000119209108
 20
2174.7000000476837
 10
99.00000119209108
 20
2102.0000001192093
 42
-0.4142135623730951
 10
97.00000119209108
 20
2100.0000001192093
 10
95.00000119209108
 20
2100.0000001192093
 10
95.00000119209108
 20
2065.0000001192093
 10
97.00000119209108
 20
2065.0000001192093
 42
-0.4142135623730951
 10
99.00000119209108
 20
2063.0000001192093
 10
99.00000119209108
 20
25.3000001311309
  0
ENDBLK
  5
6C
330
6A
100
AcDbEntity
  8
0
100
AcDbBlockEnd
  0
BLOCK
  5
83
330
82
100
AcDbEntity
  8
0
100
AcDbBlockBegin
  2
KB__-__-3003-__6_5
 70
0
 10
0.0
 20
0.0
 30
0.0
  3
KB__-__-3003-__6_5
  1

  0
CIRCLE
  5
85
330
82
100
AcDbEntity
  8
0
 62
0
100
AcDbCircle
 10
55.25000000002001
 20
9.300000000003138
 30
0.0
 40
2.1
  0
CIRCLE
  5
86
330
82
100
AcDbEntity
  8
0
 62
0
100
AcDbCircle
 10
26.25000000002001
 20
9.300000000003138
 30
0.0
 40
2.1
  0
CIRCLE
  5
87
330
82
100
AcDbEntity
  8
0
 62
0
100
AcDbCircle
 10
4.100000000011278
 20
2137.7000000000044
 30
0.0
 40
1.5
  0
CIRCLE
  5
88
330
82
100
AcDbEntity
  8
0
 62
0
100
AcDbCircle
 10
4.100000000011278
 20
2124.7000000000044
 30
0.0
 40
1.5
  0
LWPOLYLINE
  5
89
330
82
100
AcDbEntity
  8
0
 62
0
100
AcDbPolyline
 90
27
 70
0
 10
49.600000000000364
 20
2152.0
 10
49.600000000000364
 20
2151.0
 10
45.85000000001128
 20
2151.0
 10
45.85000000001128
 20
2146.0
 10
35.650000000001455
 20
2146.0
 10
35.650000000001455
 20
2151.0
 10
31.90000000001055
 20
2151.0
 10
31.90000000001055
 20
2152.0
 10
20.59999999999127
 20
2152.0
 10
20.59999999999127
 20
2139.7000000000044
 10
7.600000000011278
 20
2139.7000000000044
 10
7.600000000011278
 20
2145.5000000000036
 42
0.4142135623730951
 10
6.600000000011278
 20
2146.5000000000036
 10
1.6000000000112777
 20
2146.4999999999964
 42
0.4142135623730951
 10
0.6000000000112777
 20
2145.5000000000036
 10
0.6000000000112777
 20
2139.7000000000044
 10
0.0
 20
2139.7000000000044
 10
0.0
 20
18.300000000004047
 10
17.80000000000109
 20
18.300000000003138
 10
17.80000000000109
 20
0.0
 10
63.70000000001164
 20
0.0
 10
63.70000000001164
 20
18.300000000003138
 10
74.00000000001091
 20
18.300000000003138
 10
74.00000000001091
 20
2139.7000000000044
 10
60.900000000021464
 20
2139.7000000000044
 10
60.900000000021464
 20
2152.0
 10
49.600000000000364
 20
2152.0
  0
ENDBLK
  5
84
330
82
100
AcDbEntity
  8
0
100
AcDbBlockEnd
  0
BLOCK
  5
8B
330
8A
100
AcDbEntity
  8
0
100
AcDbBlockBegin
  2
KB__-__-3003-__7_6
 70
0
 10
0.0
 20
0.0
 30
0.0
  3
KB__-__-3003-__7_6
  1

  0
CIRCLE
  5
8D
330
8A
100
AcDbEntity
  8
0
100
AcDbCircle
 10
4.100000000000364
 20
2137.7000000000035
 30
0.0
 40
1.5
  0
CIRCLE
  5
8E
330
8A
100
AcDbEntity
  8
0
100
AcDbCircle
 10
4.100000000000364
 20
2124.7000000000035
 30
0.0
 40
1.5
  0
LWPOLYLINE
  5
8F
330
8A
100
AcDbEntity
  8
0
100
AcDbPolyline
 90
27
 70
0
 10
49.600000000000364
 20
2151.999999999999
 10
49.600000000000364
 20
2150.999999999999
 10
45.85000000001128
 20
2150.999999999999
 10
45.85000000001128
 20
2145.999999999999
 10
35.650000000001455
 20
2145.999999999999
 10
35.650000000001455
 20
2150.999999999999
 10
31.90000000001055
 20
2150.999999999999
 10
31.90000000001055
 20
2151.999999999999
 10
20.59999999999127
 20
2151.999999999999
 10
20.59999999999127
 20
2139.7000000000035
 10
7.600000000000364
 20
2139.7000000000035
 10
7.600000000000364
 20
2145.5000000000027
 42
0.4142135623730951
 10
6.600000000000364
 20
2146.5000000000027
 10
1.6000000000003638
 20
2146.4999999999955
 42
0.4142135623730951
 10
0.6000000000003638
 20
2145.5000000000027
 10
0.6000000000003638
 20
2139.7000000000035
 10
0.0
 20
2139.7000000000035
 10
0.0
 20
18.30000000000291
 10
17.80000000000109
 20
18.300000000002
 10
17.80000000000109
 20
0.0
 10
63.70000000000073
 20
0.0
 10
63.70000000000073
 20
18.300000000002
 10
74.00000000001091
 20
18.300000000002
 10
74.00000000001091
 20
2139.7000000000035
 10
60.90000000001055
 20
2139.7000000000035
 10
60.90000000001055
 20
2151.999999999999
 10
49.600000000000364
 20
2151.999999999999
  0
ENDBLK
  5
8C
330
8A
100
AcDbEntity
  8
0
100
AcDbBlockEnd
  0
BLOCK
  5
91
330
90
100
AcDbEntity
  8
0
100
AcDbBlockBegin
  2
KB__-__-3003-__8_7
 70
0
 10
0.0
 20
0.0
 30
0.0
  3
KB__-__-3003-__8_7
  1

  0
CIRCLE
  5
93
330
90
100
AcDbEntity
  8
0
100
AcDbCircle
 10
4.100000000009459
 20
2137.7000000000035
 30
0.0
 40
1.5
  0
CIRCLE
  5
94
330
90
100
AcDbEntity
  8
0
100
AcDbCircle
 10
4.100000000009459
 20
2124.7000000000035
 30
0.0
 40
1.5
  0
LWPOLYLINE
  5
95
330
90
100
AcDbEntity
  8
0
100
AcDbPolyline
 90
27
 70
0
 10
49.600000000000364
 20
2151.999999999999
 10
49.600000000000364
 20
2150.999999999999
 10
45.85000000000946
 20
2150.999999999999
 10
45.85000000000946
 20
2145.999999999999
 10
35.649999999999636
 20
2145.999999999999
 10
35.649999999999636
 20
2150.999999999999
 10
31.90000000001055
 20
2150.999999999999
 10
31.90000000001055
 20
2151.999999999999
 10
20.59999999998945
 20
2151.999999999999
 10
20.59999999998945
 20
2139.7000000000035
 10
7.600000000000364
 20
2139.7000000000035
 10
7.600000000000364
 20
2145.5000000000027
 42
0.4142135623730951
 10
6.600000000009459
 20
2146.5000000000027
 10
1.6000000000094587
 20
2146.4999999999955
 42
0.4142135623730951
 10
0.6000000000094587
 20
2145.5000000000027
 10
0.6000000000094587
 20
2139.7000000000035
 10
0.0
 20
2139.7000000000035
 10
0.0
 20
18.30000000000291
 10
17.799999999999272
 20
18.300000000002
 10
17.799999999999272
 20
0.0
 10
63.70000000000982
 20
0.0
 10
63.70000000000982
 20
18.300000000002
 10
74.0000000000091
 20
18.300000000002
 10
74.0000000000091
 20
2139.7000000000035
 10
60.900000000019645
 20
2139.7000000000035
 10
60.900000000019645
 20
2151.999999999999
 10
49.600000000000364
 20
2151.999999999999
  0
ENDBLK
  5
92
330
90
100
AcDbEntity
  8
0
100
AcDbBlockEnd
  0
BLOCK
  5
97
330
96
100
AcDbEntity
  8
0
100
AcDbBlockBegin
  2
KB__-__-3003-__9_8
 70
0
 10
0.0
 20
0.0
 30
0.0
  3
KB__-__-3003-__9_8
  1

  0
CIRCLE
  5
99
330
96
100
AcDbEntity
  8
0
100
AcDbCircle
 10
4.100000000000364
 20
2137.7000000000044
 30
0.0
 40
1.5
  0
CIRCLE
  5
9A
330
96
100
AcDbEntity
  8
0
100
AcDbCircle
 10
4.100000000000364
 20
2124.7000000000044
 30
0.0
 40
1.5
  0
LWPOLYLINE
  5
9B
330
96
100
AcDbEntity
  8
0
100
AcDbPolyline
 90
27
 70
0
 10
49.600000000000364
 20
2152.0
 10
49.600000000000364
 20
2151.0
 10
45.85000000000946
 20
2151.0
 10
45.85000000000946
 20
2146.0
 10
35.649999999999636
 20
2146.0
 10
35.649999999999636
 20
2151.0
 10
31.90000000000873
 20
2151.0
 10
31.90000000000873
 20
2152.0
 10
20.59999999998945
 20
2152.0
 10
20.59999999998945
 20
2139.7000000000044
 10
7.600000000000364
 20
2139.7000000000044
 10
7.600000000000364
 20
2145.5000000000036
 42
0.4142135623730951
 10
6.600000000000364
 20
2146.5000000000036
 10
1.6000000000003638
 20
2146.4999999999964
 42
0.4142135623730951
 10
0.6000000000003638
 20
2145.5000000000036
 10
0.6000000000003638
 20
2139.7000000000044
 10
0.0
 20
2139.7000000000044
 10
0.0
 20
18.300000000004047
 10
17.799999999999272
 20
18.300000000003138
 10
17.799999999999272
 20
0.0
 10
63.69999999999891
 20
0.0
 10
63.69999999999891
 20
18.300000000003138
 10
74.0000000000091
 20
18.300000000003138
 10
74.0000000000091
 20
2139.7000000000044
 10
60.90000000000873
 20
2139.7000000000044
 10
60.90000000000873
 20
2152.0
 10
49.600000000000364
 20
2152.0
  0
ENDBLK
  5
98
330
96
100
AcDbEntity
  8
0
100
AcDbBlockEnd
  0
BLOCK
  5
9D
330
9C
100
AcDbEntity
  8
0
100
AcDbBlockBegin
  2
KB__-__-3003-__10_9
 70
0
 10
0.0
 20
0.0
 30
0.0
  3
KB__-__-3003-__10_9
  1

  0
LWPOLYLINE
  5
9F
330
9C
100
AcDbEntity
  8
0
100
AcDbPolyline
 90
4
 70
1
 10
58.70000000000982
 20
2152.0
 10
0.0
 20
2152.0
 10
0.0
 20
0.0
 10
58.70000000000982
 20
0.0
  0
ENDBLK
  5
9E
330
9C
100
AcDbEntity
  8
0
100
AcDbBlockEnd
  0
BLOCK
  5
A1
330
A0
100
AcDbEntity
  8
0
100
AcDbBlockBegin
  2
KB__-__-3003-__11_10
 70
0
 10
0.0
 20
0.0
 30
0.0
  3
KB__-__-3003-__11_10
  1

  0
LWPOLYLINE
  5
A3
330
A0
100
AcDbEntity
  8
0
100
AcDbPolyline
 90
4
 70
1
 10
46.499999999989086
 20
2170.0
 10
0.0
 20
2170.0
 10
0.0
 20
0.0
 10
46.499999999989086
 20
0.0
  0
ENDBLK
  5
A2
330
A0
100
AcDbEntity
  8
0
100
AcDbBlockEnd
  0
BLOCK
  5
A5
330
A4
100
AcDbEntity
  8
0
100
AcDbBlockBegin
  2
KB__-__-3003-__12_11
 70
0
 10
0.0
 20
0.0
 30
0.0
  3
KB__-__-3003-__12_11
  1

  0
LWPOLYLINE
  5
A7
330
A4
100
AcDbEntity
  8
0
100
AcDbPolyline
 90
4
 70
1
 10
31.0
 20
2160.0
 10
0.0
 20
2160.0
 10
0.0
 20
0.0
 10
31.0
 20
0.0
  0
ENDBLK
  5
A6
330
A4
100
AcDbEntity
  8
0
100
AcDbBlockEnd
  0
BLOCK
  5
A9
330
A8
100
AcDbEntity
  8
0
100
AcDbBlockBegin
  2
KB__-__-3003-__13_12
 70
0
 10
0.0
 20
0.0
 30
0.0
  3
KB__-__-3003-__13_12
  1

  0
LWPOLYLINE
  5
AB
330
A8
100
AcDbEntity
  8
0
100
AcDbPolyline
 90
4
 70
1
 10
167.3000000000211
 20
1520.0
 10
167.3000000000211
 20
0.0
 10
0.0
 20
0.0
 10
0.0
 20
1520.0
  0
ENDBLK
  5
AA
330
A8
100
AcDbEntity
  8
0
100
AcDbBlockEnd
  0
BLOCK
  5
AD
330
AC
100
AcDbEntity
  8
0
100
AcDbBlockBegin
  2
KB__-__-3003-__14_13
 70
0
 10
0.0
 20
0.0
 30
0.0
  3
KB__-__-3003-__14_13
  1

  0
LWPOLYLINE
  5
AF
330
AC
100
AcDbEntity
  8
0
100
AcDbPolyline
 90
4
 70
1
 10
58.700000000008004
 20
1495.0
 10
0.0
 20
1495.0
 10
0.0
 20
0.0
 10
58.700000000008004
 20
0.0
  0
ENDBLK
  5
AE
330
AC
100
AcDbEntity
  8
0
100
AcDbBlockEnd
  0
BLOCK
  5
B1
330
B0
100
AcDbEntity
  8
0
100
AcDbBlockBegin
  2
KB__-__-3003-__15_14
 70
0
 10
0.0
 20
0.0
 30
0.0
  3
KB__-__-3003-__15_14
  1

  0
LWPOLYLINE
  5
B3
330
B0
100
AcDbEntity
  8
0
100
AcDbPolyline
 90
4
 70
1
 10
64.29999999999927
 20
488.99999999999903
 10
0.0
 20
488.99999999999903
 10
0.0
 20
0.0
 10
64.29999999999927
 20
0.0
  0
ENDBLK
  5
B2
330
B0
100
AcDbEntity
  8
0
100
AcDbBlockEnd
  0
BLOCK
  5
B5
330
B4
100
AcDbEntity
  8
0
100
AcDbBlockBegin
  2
KB__-__-3003-__16_15
 70
0
 10
0.0
 20
0.0
 30
0.0
  3
KB__-__-3003-__16_15
  1

  0
LWPOLYLINE
  5
B7
330
B4
100
AcDbEntity
  8
0
 62
0
100
AcDbPolyline
 90
4
 70
1
 10
0.0
 20
0.0
 10
88.5
 20
0.0
 10
88.5
 20
504.9999999999981
 10
0.0
 20
504.99999999999994
  0
ENDBLK
  5
B6
330
B4
100
AcDbEntity
  8
0
100
AcDbBlockEnd
  0
BLOCK
  5
B9
330
B8
100
AcDbEntity
  8
0
100
AcDbBlockBegin
  2
KB__-__-3003-__17_16
 70
0
 10
0.0
 20
0.0
 30
0.0
  3
KB__-__-3003-__17_16
  1

  0
LWPOLYLINE
  5
BB
330
B8
100
AcDbEntity
  8
0
100
AcDbPolyline
 90
4
 70
1
 10
64.30000000001019
 20
497.0
 10
0.0
 20
497.0
 10
0.0
 20
0.0
 10
64.30000000001019
 20
0.0
  0
ENDBLK
  5
BA
330
B8
100
AcDbEntity
  8
0
100
AcDbBlockEnd
  0
BLOCK
  5
BD
330
BC
100
AcDbEntity
  8
0
100
AcDbBlockBegin
  2
KB__-__-3003-__18_17
 70
0
 10
0.0
 20
0.0
 30
0.0
  3
KB__-__-3003-__18_17
  1

  0
LWPOLYLINE
  5
BF
330
BC
100
AcDbEntity
  8
0
 62
0
100
AcDbPolyline
 90
4
 70
1
 10
0.0
 20
0.0
 10
88.5
 20
0.0
 10
88.5
 20
512.9999999999982
 10
0.0
 20
513.0
  0
ENDBLK
  5
BE
330
BC
100
AcDbEntity
  8
0
100
AcDbBlockEnd
  0
BLOCK
  5
C1
330
C0
100
AcDbEntity
  8
0
100
AcDbBlockBegin
  2
KB__-__-3003-__19_18
 70
0
 10
0.0
 20
0.0
 30
0.0
  3
KB__-__-3003-__19_18
  1

  0
LWPOLYLINE
  5
C3
330
C0
100
AcDbEntity
  8
0
100
AcDbPolyline
 90
4
 70
1
 10
167.3000000000211
 20
1544.0
 10
167.3000000000211
 20
0.0
 10
0.0
 20
0.0
 10
0.0
 20
1544.0
  0
ENDBLK
  5
C2
330
C0
100
AcDbEntity
  8
0
100
AcDbBlockEnd
  0
BLOCK
  5
C5
330
C4
100
AcDbEntity
  8
0
100
AcDbBlockBegin
  2
KB__-__-3003-__20_19
 70
0
 10
0.0
 20
0.0
 30
0.0
  3
KB__-__-3003-__20_19
  1

  0
LWPOLYLINE
  5
C7
330
C4
100
AcDbEntity
  8
0
100
AcDbPolyline
 90
4
 70
1
 10
58.70000000002074
 20
1519.0
 10
0.0
 20
1519.0
 10
0.0
 20
0.0
 10
58.70000000002074
 20
0.0
  0
ENDBLK
  5
C6
330
C4
100
AcDbEntity
  8
0
100
AcDbBlockEnd
  0
BLOCK
  5
C9
330
C8
100
AcDbEntity
  8
0
100
AcDbBlockBegin
  2
KB__-__-3003-__21_20
 70
0
 10
0.0
 20
0.0
 30
0.0
  3
KB__-__-3003-__21_20
  1

  0
LINE
  5
CB
330
C8
100
AcDbEntity
  8
0
 62
0
100
AcDbLine
 10
0.0
 20
1378.9999999999995
 30
0.0
 11
90.0
 21
1378.9999999999995
 31
0.0
  0
LINE
  5
CC
330
C8
100
AcDbEntity
  8
0
100
AcDbLine
 10
90.0
 20
1378.9999999999995
 30
0.0
 11
90.0
 21
0.0
 31
0.0
  0
LINE
  5
CD
330
C8
100
AcDbEntity
  8
0
100
AcDbLine
 10
90.0
 20
0.0
 30
0.0
 11
0.0
 21
0.0
 31
0.0
  0
LINE
  5
CE
330
C8
100
AcDbEntity
  8
0
 62
0
100
AcDbLine
 10
0.0
 20
0.0
 30
0.0
 11
0.0
 21
1378.9999999999995
 31
0.0
  0
CIRCLE
  5
CF
330
C8
100
AcDbEntity
  8
0
 62
0
100
AcDbCircle
 10
45.0
 20
1343.9999999999995
 30
0.0
 40
2.149999999999999
  0
ENDBLK
  5
CA
330
C8
100
AcDbEntity
  8
0
100
AcDbBlockEnd
  0
BLOCK
  5
D1
330
D0
100
AcDbEntity
  8
0
100
AcDbBlockBegin
  2
_FILLED
 70
0
 10
0.0
 20
0.0
 30
0.0
  3
_FILLED
  1

  0
SOLID
  5
D3
330
D0
100
AcDbEntity
  8
0
  6
ByBlock
 62
0
100
AcDbTrace
 10
0.0
 20
0.0
 30
0.0
 11
-1.0
 21
0.1226415094
 31
0.0
 12
-1.0
 22
-0.1226415094
 32
0.0
 13
-1.0
 23
-0.1226415094
 33
0.0
  0
ENDBLK
  5
D2
330
D0
100
AcDbEntity
  8
0
100
AcDbBlockEnd
  0
ENDSEC
  0
SECTION
  2
ENTITIES
  0
LWPOLYLINE
  5
D4
330
17
100
AcDbEntity
  8
0
 62
3
100
AcDbPolyline
 90
4
 70
1
 10
0.0
 20
0.0
 10
1219.0
 20
0.0
 10
1219.0
 20
4000.0
 10
0.0
 20
4000.0
  0
TEXT
  5
D5
330
17
100
AcDbEntity
  8
0
 62
5
100
AcDbText
 10
0.0
 20
4020.0
 30
0.0
 40
12.0
  1
板1  雪山银0.76  1219.0x4000
 11
0.0
 21
4020.0
 31
0.0
100
AcDbText
  0
LWPOLYLINE
  5
D6
330
17
100
AcDbEntity
  8
0
 62
3
100
AcDbPolyline
 90
4
 70
1
 10
1519.0
 20
0.0
 10
2738.0
 20
0.0
 10
2738.0
 20
4000.0
 10
1519.0
 20
4000.0
  0
INSERT
  5
D7
330
17
100
AcDbEntity
  8
0
100
AcDbBlockReference
  2
KB__-__-3003-__1_1
 10
1519.0
 20
0.0
 30
0.0
  0
TEXT
  5
D9
330
17
100
AcDbEntity
  8
0
100
AcDbText
 10
1519.0
 20
2205.0
 30
0.0
 40
8.0
  1
3003
 11
1519.0
 21
2205.0
 31
0.0
100
AcDbText
  0
INSERT
  5
DA
330
17
100
AcDbEntity
  8
0
100
AcDbBlockReference
  2
KB__-__-3003-__19_18
 10
1687.6000000000095
 20
0.0
 30
0.0
  0
TEXT
  5
DC
330
17
100
AcDbEntity
  8
0
100
AcDbText
 10
1687.6000000000095
 20
1549.0
 30
0.0
 40
8.0
  1
3003
 11
1687.6000000000095
 21
1549.0
 31
0.0
100
AcDbText
  0
INSERT
  5
DD
330
17
100
AcDbEntity
  8
0
100
AcDbBlockReference
  2
KB__-__-3003-__13_12
 10
1862.9000000000306
 20
0.0
 30
0.0
  0
TEXT
  5
DF
330
17
100
AcDbEntity
  8
0
100
AcDbText
 10
1862.9000000000306
 20
1525.0
 30
0.0
 40
8.0
  1
3003
 11
1862.9000000000306
 21
1525.0
 31
0.0
100
AcDbText
  0
INSERT
  5
E0
330
17
100
AcDbEntity
  8
0
100
AcDbBlockReference
  2
KB__-__-3003-__3_2
 10
2038.2000000000517
 20
0.0
 30
0.0
  0
TEXT
  5
E2
330
17
100
AcDbEntity
  8
0
100
AcDbText
 10
2038.2000000000517
 20
2155.0
 30
0.0
 40
8.0
  1
3003
 11
2038.2000000000517
 21
2155.0
 31
0.0
100
AcDbText
  0
INSERT
  5
E3
330
17
100
AcDbEntity
  8
0
100
AcDbBlockReference
  2
KB__-__-3003-__5_4
 10
2154.7000000000517
 20
0.0
 30
0.0
  0
TEXT
  5
E5
330
17
100
AcDbEntity
  8
0
100
AcDbText
 10
2154.7000000000517
 20
2205.0000001192093
 30
0.0
 40
8.0
  1
3003
 11
2154.7000000000517
 21
2205.0000001192093
 31
0.0
100
AcDbText
  0
INSERT
  5
E6
330
17
100
AcDbEntity
  8
0
100
AcDbBlockReference
  2
KB__-__-3003-__6_5
 10
2261.7000011921427
 20
0.0
 30
0.0
  0
TEXT
  5
E8
330
17
100
AcDbEntity
  8
0
100
AcDbText
 10
2261.7000011921427
 20
2157.0
 30
0.0
 40
8.0
  1
3003
 11
2261.7000011921427
 21
2157.0
 31
0.0
100
AcDbText
  0
INSERT
  5
E9
330
17
100
AcDbEntity
  8
0
100
AcDbBlockReference
  2
KB__-__-3003-__7_6
 10
2343.7000011921536
 20
0.0
 30
0.0
  0
TEXT
  5
EB
330
17
100
AcDbEntity
  8
0
100
AcDbText
 10
2343.7000011921536
 20
2156.999999999999
 30
0.0
 40
8.0
  1
3003
 11
2343.7000011921536
 21
2156.999999999999
 31
0.0
100
AcDbText
  0
INSERT
  5
EC
330
17
100
AcDbEntity
  8
0
100
AcDbBlockReference
  2
KB__-__-3003-__9_8
 10
2425.7000011921646
 20
0.0
 30
0.0
  0
TEXT
  5
EE
330
17
100
AcDbEntity
  8
0
100
AcDbText
 10
2425.7000011921646
 20
2157.0
 30
0.0
 40
8.0
  1
3003
 11
2425.7000011921646
 21
2157.0
 31
0.0
100
AcDbText
  0
INSERT
  5
EF
330
17
100
AcDbEntity
  8
0
100
AcDbBlockReference
  2
KB__-__-3003-__8_7
 10
2507.7000011921737
 20
0.0
 30
0.0
  0
TEXT
  5
F1
330
17
100
AcDbEntity
  8
0
100
AcDbText
 10
2507.7000011921737
 20
2156.999999999999
 30
0.0
 40
8.0
  1
3003
 11
2507.7000011921737
 21
2156.999999999999
 31
0.0
100
AcDbText
  0
INSERT
  5
F2
330
17
100
AcDbEntity
  8
0
100
AcDbBlockReference
  2
KB__-__-3003-__10_9
 10
2589.7000011921828
 20
0.0
 30
0.0
  0
TEXT
  5
F4
330
17
100
AcDbEntity
  8
0
100
AcDbText
 10
2589.7000011921828
 20
2157.0
 30
0.0
 40
8.0
  1
3003
 11
2589.7000011921828
 21
2157.0
 31
0.0
100
AcDbText
  0
INSERT
  5
F5
330
17
100
AcDbEntity
  8
0
100
AcDbBlockReference
  2
KB__-__-3003-__21_20
 10
1519.0
 20
2208.0000001192093
 30
0.0
  0
TEXT
  5
F7
330
17
100
AcDbEntity
  8
0
100
AcDbText
 10
1519.0
 20
3592.000000119209
 30
0.0
 40
8.0
  1
3003
 11
1519.0
 21
3592.000000119209
 31
0.0
100
AcDbText
  0
INSERT
  5
F8
330
17
100
AcDbEntity
  8
0
100
AcDbBlockReference
  2
KB__-__-3003-__4_3
 10
1617.0
 20
2208.0000001192093
 30
0.0
  0
TEXT
  5
FA
330
17
100
AcDbEntity
  8
0
100
AcDbText
 10
1617.0
 20
3522.0000001192093
 30
0.0
 40
8.0
  1
3003
 11
1617.0
 21
3522.0000001192093
 31
0.0
100
AcDbText
  0
TEXT
  5
FB
330
17
100
AcDbEntity
  8
0
 62
5
100
AcDbText
 10
1519.0
 20
4020.0
 30
0.0
 40
12.0
  1
板2  雪山银0.76  1219.0x4000
 11
1519.0
 21
4020.0
 31
0.0
100
AcDbText
  0
LWPOLYLINE
  5
FC
330
17
100
AcDbEntity
  8
0
 62
3
100
AcDbPolyline
 90
4
 70
1
 10
3038.0
 20
0.0
 10
4257.0
 20
0.0
 10
4257.0
 20
4000.0
 10
3038.0
 20
4000.0
  0
INSERT
  5
FD
330
17
100
AcDbEntity
  8
0
100
AcDbBlockReference
  2
KB__-__-3003-__11_10
 10
3038.0
 20
0.0
 30
0.0
  0
TEXT
  5
FF
330
17
100
AcDbEntity
  8
0
100
AcDbText
 10
3038.0
 20
2175.0
 30
0.0
 40
8.0
  1
3003
 11
3038.0
 21
2175.0
 31
0.0
100
AcDbText
  0
INSERT
  5
100
330
17
100
AcDbEntity
  8
0
100
AcDbBlockReference
  2
KB__-__-3003-__20_19
 10
3092.499999999989
 20
0.0
 30
0.0
  0
TEXT
  5
102
330
17
100
AcDbEntity
  8
0
100
AcDbText
 10
3092.499999999989
 20
1524.0
 30
0.0
 40
8.0
  1
3003
 11
3092.499999999989
 21
1524.0
 31
0.0
100
AcDbText
  0
INSERT
  5
103
330
17
100
AcDbEntity
  8
0
100
AcDbBlockReference
  2
KB__-__-3003-__14_13
 10
3159.20000000001
 20
0.0
 30
0.0
  0
TEXT
  5
105
330
17
100
AcDbEntity
  8
0
100
AcDbText
 10
3159.20000000001
 20
1500.0
 30
0.0
 40
8.0
  1
3003
 11
3159.20000000001
 21
1500.0
 31
0.0
100
AcDbText
  0
INSERT
  5
106
330
17
100
AcDbEntity
  8
0
100
AcDbBlockReference
  2
KB__-__-3003-__12_11
 10
3225.900000000018
 20
0.0
 30
0.0
  0
TEXT
  5
108
330
17
100
AcDbEntity
  8
0
100
AcDbText
 10
3225.900000000018
 20
2165.0
 30
0.0
 40
8.0
  1
3003
 11
3225.900000000018
 21
2165.0
 31
0.0
100
AcDbText
  0
INSERT
  5
109
330
17
100
AcDbEntity
  8
0
100
AcDbBlockReference
  2
KB__-__-3003-__18_17
 10
3264.900000000018
 20
0.0
 30
0.0
  0
TEXT
  5
10B
330
17
100
AcDbEntity
  8
0
100
AcDbText
 10
3264.900000000018
 20
518.0
 30
0.0
 40
8.0
  1
3003
 11
3264.900000000018
 21
518.0
 31
0.0
100
AcDbText
  0
INSERT
  5
10C
330
17
100
AcDbEntity
  8
0
100
AcDbBlockReference
  2
KB__-__-3003-__16_15
 10
3361.400000000018
 20
0.0
 30
0.0
  0
TEXT
  5
10E
330
17
100
AcDbEntity
  8
0
100
AcDbText
 10
3361.400000000018
 20
509.99999999999994
 30
0.0
 40
8.0
  1
3003
 11
3361.400000000018
 21
509.99999999999994
 31
0.0
100
AcDbText
  0
INSERT
  5
10F
330
17
100
AcDbEntity
  8
0
100
AcDbBlockReference
  2
KB__-__-3003-__17_16
 10
3457.900000000018
 20
0.0
 30
0.0
  0
TEXT
  5
111
330
17
100
AcDbEntity
  8
0
100
AcDbText
 10
3457.900000000018
 20
502.0
 30
0.0
 40
8.0
  1
3003
 11
3457.900000000018
 21
502.0
 31
0.0
100
AcDbText
  0
INSERT
  5
112
330
17
100
AcDbEntity
  8
0
100
AcDbBlockReference
  2
KB__-__-3003-__15_14
 10
3530.200000000028
 20
0.0
 30
0.0
  0
TEXT
  5
114
330
17
100
AcDbEntity
  8
0
100
AcDbText
 10
3530.200000000028
 20
493.99999999999903
 30
0.0
 40
8.0
  1
3003
 11
3530.200000000028
 21
493.99999999999903
 31
0.0
100
AcDbText
  0
TEXT
  5
115
330
17
100
AcDbEntity
  8
0
 62
5
100
AcDbText
 10
3038.0
 20
4020.0
 30
0.0
 40
12.0
  1
板3  雪山银0.76  1219.0x4000
 11
3038.0
 21
4020.0
 31
0.0
100
AcDbText
  0
ENDSEC
  0
SECTION
  2
OBJECTS
  0
DICTIONARY
  5
A
330
0
100
AcDbDictionary
281
1
  3
ACAD_COLOR
350
B
  3
ACAD_GROUP
350
C
  3
ACAD_LAYOUT
350
D
  3
ACAD_MATERIAL
350
E
  3
ACAD_MLEADERSTYLE
350
F
  3
ACAD_MLINESTYLE
350
10
  3
ACAD_PLOTSETTINGS
350
11
  3
ACAD_PLOTSTYLENAME
350
12
  3
ACAD_SCALELIST
350
14
  3
ACAD_TABLESTYLE
350
15
  3
ACAD_VISUALSTYLE
350
16
  3
EZDXF_META
350
2D
  0
DICTIONARY
  5
B
330
A
100
AcDbDictionary
281
1
  0
DICTIONARY
  5
C
330
A
100
AcDbDictionary
281
1
  0
DICTIONARY
  5
D
330
A
100
AcDbDictionary
281
1
  3
Model
350
1A
  3
Layout1
350
1E
  0
DICTIONARY
  5
E
330
A
100
AcDbDictionary
281
1
  3
ByBlock
350
1F
  3
ByLayer
350
20
  3
Global
350
21
  0
DICTIONARY
  5
F
330
A
100
AcDbDictionary
281
1
  3
Standard
350
2C
  0
DICTIONARY
  5
10
330
A
100
AcDbDictionary
281
1
  3
Standard
350
22
  0
DICTIONARY
  5
11
330
A
100
AcDbDictionary
281
1
  0
ACDBDICTIONARYWDFLT
  5
12
330
A
100
AcDbDictionary
281
1
  3
Normal
350
13
100
AcDbDictionaryWithDefault
340
13
  0
ACDBPLACEHOLDER
  5
13
330
12
  0
DICTIONARY
  5
14
330
A
100
AcDbDictionary
281
1
  0
DICTIONARY
  5
15
330
A
100
AcDbDictionary
281
1
  0
DICTIONARY
  5
16
330
A
100
AcDbDictionary
281
1
  0
LAYOUT
  5
1A
330
D
100
AcDbPlotSettings
  1

  4
A3
  6

 40
7.5
 41
20.0
 42
7.5
 43
20.0
 44
420.0
 45
297.0
 46
0.0
 47
0.0
 48
0.0
 49
0.0
140
0.0
141
0.0
142
1.0
143
1.0
 70
1024
 72
1
 73
0
 74
5
  7

 75
16
 76
0
 77
2
 78
300
147
1.0
148
0.0
149
0.0
100
AcDbLayout
  1
Model
 70
1
 71
0
 10
0.0
 20
0.0
 11
420.0
 21
297.0
 12
0.0
 22
0.0
 32
0.0
 14
1e+20
 24
1e+20
 34
1e+20
 15
-1e+20
 25
-1e+20
 35
-1e+20
146
0.0
 13
0.0
 23
0.0
 33
0.0
 16
1.0
 26
0.0
 36
0.0
 17
0.0
 27
1.0
 37
0.0
 76
1
330
17
  0
LAYOUT
  5
1E
330
D
100
AcDbPlotSettings
  1

  4
A3
  6

 40
7.5
 41
20.0
 42
7.5
 43
20.0
 44
420.0
 45
297.0
 46
0.0
 47
0.0
 48
0.0
 49
0.0
140
0.0
141
0.0
142
1.0
143
1.0
 70
0
 72
1
 73
0
 74
5
  7

 75
16
 76
0
 77
2
 78
300
147
1.0
148
0.0
149
0.0
100
AcDbLayout
  1
Layout1
 70
1
 71
1
 10
0.0
 20
0.0
 11
420.0
 21
297.0
 12
0.0
 22
0.0
 32
0.0
 14
1e+20
 24
1e+20
 34
1e+20
 15
-1e+20
 25
-1e+20
 35
-1e+20
146
0.0
 13
0.0
 23
0.0
 33
0.0
 16
1.0
 26
0.0
 36
0.0
 17
0.0
 27
1.0
 37
0.0
 76
1
330
1B
  0
MATERIAL
  5
1F
102
{ACAD_REACTORS
330
E
102
}
330
E
100
AcDbMaterial
  1
ByBlock
  2

 70
0
 40
1.0
 71
1
 41
1.0
 91
-1023410177
 42
1.0
 72
1
  3

 73
1
 74
1
 75
1
 44
0.5
 73
0
 45
1.0
 46
1.0
 77
1
  4

 78
1
 79
1
170
1
 48
1.0
171
1
  6

172
1
173
1
174
1
140
1.0
141
1.0
175
1
  7

176
1
177
1
178
1
143
1.0
179
1
  8

270
1
271
1
272
1
145
1.0
146
1.0
273
1
  9

274
1
275
1
276
1
 42
1.0
 72
1
  3

 73
1
 74
1
 75
1
 94
63
  0
MATERIAL
  5
20
102
{ACAD_REACTORS
330
E
102
}
330
E
100
AcDbMaterial
  1
ByLayer
  2

 70
0
 40
1.0
 71
1
 41
1.0
 91
-1023410177
 42
1.0
 72
1
  3

 73
1
 74
1
 75
1
 44
0.5
 73
0
 45
1.0
 46
1.0
 77
1
  4

 78
1
 79
1
170
1
 48
1.0
171
1
  6

172
1
173
1
174
1
140
1.0
141
1.0
175
1
  7

176
1
177
1
178
1
143
1.0
179
1
  8

270
1
271
1
272
1
145
1.0
146
1.0
273
1
  9

274
1
275
1
276
1
 42
1.0
 72
1
  3

 73
1
 74
1
 75
1
 94
63
  0
MATERIAL
  5
21
102
{ACAD_REACTORS
330
E
102
}
330
E
100
AcDbMaterial
  1
Global
  2

 70
0
 40
1.0
 71
1
 41
1.0
 91
-1023410177
 42
1.0
 72
1
  3

 73
1
 74
1
 75
1
 44
0.5
 73
0
 45
1.0
 46
1.0
 77
1
  4

 78
1
 79
1
170
1
 48
1.0
171
1
  6

172
1
173
1
174
1
140
1.0
141
1.0
175
1
  7

176
1
177
1
178
1
143
1.0
179
1
  8

270
1
271
1
272
1
145
1.0
146
1.0
273
1
  9

274
1
275
1
276
1
 42
1.0
 72
1
  3

 73
1
 74
1
 75
1
 94
63
  0
MLINESTYLE
  5
22
102
{ACAD_REACTORS
330
10
102
}
330
10
100
AcDbMlineStyle
  2
Standard
 70
0
  3

 62
256
 51
90.0
 52
90.0
 71
2
 49
0.5
 62
256
  6
BYLAYER
 49
-0.5
 62
256
  6
BYLAYER
  0
MLEADERSTYLE
  5
2C
102
{ACAD_REACTORS
330
F
102
}
330
F
100
AcDbMLeaderStyle
179
2
170
2
171
1
172
0
 90
2
 40
0.0
 41
0.0
173
1
 91
-1056964608
 92
-2
290
1
 42
2.0
291
1
 43
8.0
  3
Standard
 44
4.0
300

342
29
174
1
175
1
176
0
178
1
 93
-1056964608
 45
4.0
292
0
297
0
 46
4.0
 94
-1056964608
 47
1.0
 49
1.0
140
1.0
294
1
141
0.0
177
0
142
1.0
295
0
296
0
143
3.75
271
0
272
9
273
9
  0
DICTIONARY
  5
2D
330
A
100
AcDbDictionary
280
1
281
1
  3
CREATED_BY_EZDXF
350
2E
  3
WRITTEN_BY_EZDXF
350
118
  0
DICTIONARYVAR
  5
2E
330
2D
100
DictionaryVariables
280
0
  1
1.4.3 @ 2026-04-03T02:28:52.097480+00:00
  0
DICTIONARYVAR
  5
118
330
2D
100
DictionaryVariables
280
0
  1
1.4.3 @ 2026-04-03T02:28:59.142940+00:00
  0
ENDSEC
  0
EOF
